<svg width="80" height="80" viewBox="0 0 80 80" fill="none" xmlns="http://www.w3.org/2000/svg">
<path fill-rule="evenodd" clip-rule="evenodd" d="M40 80C62.0914 80 80 62.0914 80 40C80 17.9086 62.0914 0 40 0C17.9086 0 0 17.9086 0 40C0 62.0914 17.9086 80 40 80ZM66.1347 45.5708L66.1347 49.3775C66.5375 49.5352 66.8831 49.8098 67.1279 50.1662C67.3722 50.5223 67.5037 50.9441 67.5057 51.3764V52.1276C67.5057 52.6995 67.2787 53.2479 66.8742 53.6519C66.4702 54.056 65.9217 54.2834 65.3503 54.2834H64.8136C64.9306 53.7741 64.9886 53.2531 64.987 52.7305C64.9036 50.3195 63.5688 48.1262 61.4655 46.9439C59.3626 45.7616 56.7952 45.7616 54.6918 46.9439C52.5885 48.1262 51.2538 50.3196 51.1707 52.7305C51.1687 53.2531 51.2268 53.7741 51.3441 54.2834H35.8926C36.0095 53.7741 36.0676 53.2531 36.066 52.7305C35.9826 50.3195 34.6478 48.1262 32.5445 46.9439C30.4416 45.7616 27.8741 45.7616 25.7708 46.9439C23.6675 48.1262 22.3328 50.3196 22.2497 52.7305C22.2509 53.1826 22.2953 53.6334 22.3816 54.077C21.6622 53.8484 21.0169 53.4314 20.5129 52.8697C20.0092 52.3075 19.6649 51.6208 19.5161 50.8809H15.5518C14.8736 50.8809 14.2235 50.6107 13.7445 50.1304C13.2658 49.6502 12.9981 48.9989 13.0001 48.3207V26.1302C13.0001 25.3016 13.3287 24.5068 13.9138 23.9201C14.4989 23.3334 15.293 23.0027 16.1216 23.0003H46.8596C47.6926 22.9894 48.4955 23.3108 49.0907 23.8939C49.6859 24.4766 50.0242 25.2726 50.0306 26.1057V49.2293H51.6823V31.548H58.0415C59.1182 31.5456 60.1634 31.9101 61.0058 32.5811C61.8478 33.2521 62.4361 34.1897 62.6744 35.2397C62.6708 35.27 62.6708 35.3002 62.6744 35.3304L63.6821 40.1783C63.7519 40.5263 63.8773 40.861 64.0535 41.169C64.2092 41.4513 64.4035 41.7098 64.6318 41.9372C65.5956 42.9006 66.1367 44.2083 66.1347 45.5708ZM54.7381 36.2719V40.7645L62.121 40.7479C62.1151 40.7182 62.1059 40.6884 62.0966 40.6582L62.0966 40.6581C62.0802 40.6046 62.0633 40.5499 62.0633 40.4919L61.1879 36.2719H54.7381ZM63.3764 52.7308C63.3784 54.1265 62.826 55.466 61.8405 56.4543C60.8549 57.4423 59.5169 57.9983 58.1214 58C56.7257 58.0012 55.3866 57.4479 54.399 56.4621C53.411 55.4757 52.8558 54.1377 52.855 52.7422C52.8546 51.3465 53.4082 50.0078 54.395 49.0206C55.3817 48.033 56.72 47.4785 58.1157 47.4785C59.5097 47.4785 60.8465 48.0318 61.8328 49.0165C62.8192 50.0011 63.3745 51.3371 63.3764 52.7307V52.7308ZM32.8781 56.4543C33.8636 55.466 34.4161 54.1265 34.4141 52.7308L34.4142 52.7307C34.4118 51.3371 33.8565 50.0011 32.8701 49.0165C31.8838 48.0318 30.547 47.4785 29.1534 47.4785C27.7578 47.4785 26.419 48.033 25.4327 49.0206C24.446 50.0078 23.8919 51.3465 23.8927 52.7422C23.8935 54.1377 24.4488 55.4757 25.4363 56.4621C26.4242 57.4479 27.763 58.0012 29.159 58C30.5546 57.9983 31.8926 57.4423 32.8781 56.4543Z" fill="white"/>
</svg>
