<svg width="80" height="80" viewBox="0 0 80 80" fill="none" xmlns="http://www.w3.org/2000/svg">
<path fill-rule="evenodd" clip-rule="evenodd" d="M40 80C62.0914 80 80 62.0914 80 40C80 17.9086 62.0914 0 40 0C17.9086 0 0 17.9086 0 40C0 62.0914 17.9086 80 40 80ZM21.9169 48.0215L25.6667 43.3342L35.0004 43.3331L31.8664 59.0033C31.776 59.4545 32.0687 59.8937 32.5202 59.9838C32.574 59.9947 32.6287 60 32.6834 60H33.3338C34.3679 60 35.326 59.4576 35.8579 58.5708L45.0009 43.3335H54.6353C55.99 43.3335 57.3125 42.9208 58.4269 42.1501L59.1262 41.6666C59.3273 41.5277 59.5014 41.3535 59.6404 41.1524C60.2768 40.2319 60.0467 38.9698 59.1262 38.3334L58.4269 37.8498C57.3125 37.0792 55.99 36.6665 54.6353 36.6665H45.0009L35.8579 21.4292C35.3261 20.5424 34.3679 20 33.3338 20H32.6834C32.6287 20 32.574 20.0053 32.5202 20.0162C32.0687 20.1063 31.776 20.5455 31.8664 20.9967L35.0004 36.6669H25.6667L21.9169 31.9797C21.7587 31.7821 21.5193 31.6669 21.2662 31.6669H20L21.6666 40.0006L20 48.3343H21.2662C21.5193 48.3343 21.7587 48.219 21.9169 48.0215ZM43.334 26.6668H40.0005L43.334 31.6669C44.2545 31.6669 45.0006 30.9208 45.0006 30.0003V28.3337C45.0006 27.4132 44.2545 26.6668 43.334 26.6668ZM43.8387 48.3343L40.5052 53.3344H43.8387C44.7592 53.3344 45.5053 52.588 45.5053 51.6675V50.0009C45.5053 49.0804 44.7592 48.3343 43.8387 48.3343Z" fill="white"/>
</svg>
