<svg width="81" height="80" viewBox="0 0 81 80" fill="none" xmlns="http://www.w3.org/2000/svg">
<path fill-rule="evenodd" clip-rule="evenodd" d="M40.3334 80C62.4248 80 80.3334 62.0914 80.3334 40C80.3334 17.9086 62.4248 0 40.3334 0C18.242 0 0.333374 17.9086 0.333374 40C0.333374 62.0914 18.242 80 40.3334 80ZM48.1732 20H32.4112V25.5458H48.1732V20ZM39.8023 35.3591C39.856 35.3318 39.913 35.3102 39.9717 35.2947H40.0417C40.1191 35.2886 40.1973 35.2886 40.275 35.2947H40.2925C40.3703 35.2886 40.4485 35.2886 40.5259 35.2947H40.5959C40.6546 35.3102 40.7116 35.3318 40.7653 35.3591L56.3459 43.0884V30.5778C56.363 29.8815 56.1036 29.2064 55.6247 28.701C55.1455 28.1956 54.4853 27.9004 53.7891 27.8804H26.7946C26.0983 27.9004 25.4381 28.1956 24.9589 28.701C24.48 29.2063 24.2206 29.8815 24.2377 30.5778V43.0884L39.7725 35.3648L39.8023 35.3591ZM41.4587 38.2951L56.9935 46.0182L61.248 48.1316L51.8667 60H28.7147L19.3334 48.1316L23.5891 46.0182L39.1238 38.2951V52.779C39.1238 53.4236 39.6463 53.9464 40.2913 53.9464C40.9363 53.9464 41.4587 53.4236 41.4587 52.779V38.2951Z" fill="white"/>
</svg>
