<svg width="81" height="80" viewBox="0 0 81 80" fill="none" xmlns="http://www.w3.org/2000/svg">
<g clip-path="url(#clip0_152_2442)">
<path fill-rule="evenodd" clip-rule="evenodd" d="M81.1667 40C81.1667 62.0914 63.2581 80 41.1667 80C19.0754 80 1.16675 62.0914 1.16675 40C1.16675 17.9086 19.0754 0 41.1667 0C63.2581 0 81.1667 17.9086 81.1667 40ZM48.8003 51.005C47.9742 51.0712 47.0266 51.125 45.953 51.1649L46.7867 52.5H35.0467L35.8818 51.1649C34.8081 51.125 33.8605 51.0712 33.0344 51.005L28.6067 58.0876C28.2403 58.6738 28.4192 59.4451 29.0029 59.81C29.2105 59.9386 29.4393 60 29.6655 60C30.0818 60 30.4892 59.7924 30.7269 59.4124L31.1404 58.75H50.694L51.1078 59.4124C51.3441 59.7924 51.7529 60 52.1692 60C52.3954 60 52.6242 59.9386 52.8304 59.81C53.4155 59.445 53.593 58.6738 53.2266 58.0876L48.8003 51.005ZM32.7032 56.25L33.4845 55H48.3509L49.1322 56.25H32.7032ZM40.9168 20C47.8194 20 52.1668 20 53.4168 21.25H53.4174C54.6674 22.5 54.6674 27.4064 54.6674 35C54.6674 41.0829 54.6663 45.4367 54.0223 47.5715C53.8625 48.1016 53.6663 48.5014 53.4174 48.7503C53.2888 48.8803 53.12 48.9917 52.925 49.0941C51.2371 49.9978 47.11 50.0004 40.9171 50.0004C34.7242 50.0004 30.5967 49.9978 28.9092 49.0941C28.7142 48.9917 28.5468 48.8803 28.4167 48.7503C28.1679 48.5015 27.9717 48.1016 27.8118 47.5715C27.1679 45.4365 27.1667 41.0826 27.1667 35C27.1667 27.4063 27.1667 22.5 28.4167 21.25C29.6668 20 34.0141 20 40.9168 20ZM30.9168 41.875C30.9168 43.6013 32.3155 45 34.0418 45C35.768 45 37.1668 43.6013 37.1668 41.875C37.1668 40.1487 35.768 38.75 34.0418 38.75C32.3155 38.75 30.9168 40.1487 30.9168 41.875ZM44.6668 41.875C44.6668 43.6013 46.0655 45 47.7918 45C49.5181 45 50.9168 43.6013 50.9168 41.875C50.9168 40.1487 49.5181 38.75 47.7918 38.75C46.0655 38.75 44.6668 40.1487 44.6668 41.875ZM40.9168 36.25C46.4394 36.25 49.6668 36.25 50.9168 35C52.1668 33.75 52.1668 32.4813 52.1668 29.375C52.1668 26.2687 52.1668 25 50.9168 23.75C49.6668 22.5 46.4394 22.5 40.9168 22.5C35.3942 22.5 32.1668 22.5 30.9168 23.75C29.6668 25 29.6668 26.2687 29.6668 29.375C29.6668 32.4813 29.6668 33.75 30.9168 35C32.1668 36.25 35.3942 36.25 40.9168 36.25ZM49.6668 41.875C49.6668 42.9105 48.8272 43.75 47.7918 43.75C46.7563 43.75 45.9168 42.9105 45.9168 41.875C45.9168 40.8396 46.7563 40 47.7918 40C48.8272 40 49.6668 40.8396 49.6668 41.875ZM34.0418 43.75C35.0772 43.75 35.9168 42.9105 35.9168 41.875C35.9168 40.8396 35.0772 40 34.0418 40C33.0063 40 32.1668 40.8396 32.1668 41.875C32.1668 42.9105 33.0063 43.75 34.0418 43.75Z" fill="white"/>
</g>
<defs>
<clipPath id="clip0_152_2442">
<rect width="80" height="80" fill="white" transform="translate(0.666748)"/>
</clipPath>
</defs>
</svg>
