<svg width="77" height="80" viewBox="0 0 77 80" fill="none" xmlns="http://www.w3.org/2000/svg">
<mask id="path-1-outside-1_16_1912" maskUnits="userSpaceOnUse" x="3.54736" y="2" width="72" height="75" fill="black">
<rect fill="white" x="3.54736" y="2" width="72" height="75"/>
<path d="M39.5022 37.4546C41.0066 37.4546 42.3662 38.1296 43.3473 39.2212C44.3159 40.2987 44.915 41.7832 44.915 43.4195C44.915 44.5053 44.6502 45.5252 44.1887 46.4043C43.7089 47.3185 43.014 48.0793 42.1798 48.6031C42.127 48.6361 42.0736 48.6685 42.0192 48.6999C42.2243 49.2933 42.4483 49.7214 42.7052 50.0332C42.9559 49.4943 43.2683 49.0667 43.7267 48.7345C44.2688 48.3415 44.9914 48.106 46.0348 48.004C46.1259 47.9951 46.2734 47.9815 46.4173 47.9679C48.1242 47.8088 49.0499 47.7224 49.7548 45.6722C49.2734 45.3891 48.8349 45.028 48.4534 44.6036C47.4848 43.5262 46.8857 42.0416 46.8857 40.4053C46.8857 38.769 47.4848 37.2845 48.4534 36.207C49.4346 35.1154 50.7941 34.4403 52.2985 34.4403C53.8028 34.4403 55.1624 35.1154 56.1435 36.207C57.1121 37.2845 57.7113 38.769 57.7113 40.4053C57.7113 41.4911 57.4465 42.511 56.9849 43.3901C56.5051 44.3043 55.8102 45.0651 54.9761 45.5889C54.9232 45.6219 54.8699 45.6543 54.8154 45.6857C55.5192 47.7223 56.4444 47.8087 58.1477 47.9672C58.2916 47.9808 58.4392 47.9944 58.5302 48.0033C59.9347 48.1404 60.7589 48.5182 61.3345 49.1932C61.8897 49.8442 62.1571 50.7149 62.4837 51.898C62.5569 52.1633 62.4015 52.438 62.1357 52.5113C61.8704 52.5846 61.5957 52.4292 61.5224 52.1633C61.2304 51.1063 60.997 50.3345 60.5763 49.8415C60.176 49.3721 59.5496 49.1042 58.436 48.9954C58.266 48.9786 58.1602 48.9687 58.0577 48.9593C55.9546 48.7636 54.8039 48.6563 53.9028 46.1016C53.8311 46.1262 53.7584 46.1493 53.6851 46.1707C53.2382 46.301 52.773 46.3701 52.2979 46.3701C51.7286 46.3701 51.1797 46.2733 50.6643 46.0938C49.7627 48.6563 48.6115 48.7636 46.5063 48.9599C46.4037 48.9693 46.298 48.9792 46.128 48.996C45.2761 49.0792 44.7083 49.255 44.3116 49.5428C43.9589 49.7987 43.7229 50.1634 43.523 50.6474C44.0154 50.8557 44.6094 50.9112 45.3509 50.9803C45.4948 50.9939 45.6424 51.0075 45.7334 51.0164C47.1379 51.1535 47.9621 51.5313 48.5378 52.2063C49.093 52.8573 49.3604 53.728 49.6869 54.9111C49.7601 55.1764 49.6047 55.4511 49.3389 55.5244C49.0736 55.5976 48.7989 55.4422 48.7256 55.1764C48.4336 54.1194 48.2002 53.3476 47.7795 52.8546C47.3792 52.3852 46.7528 52.1173 45.6392 52.0084C45.4692 51.9917 45.3635 51.9818 45.2609 51.9723C43.1579 51.7766 42.0071 51.6694 41.106 49.1147C41.0343 49.1393 40.9616 49.1623 40.8883 49.1838C40.4414 49.3141 39.9762 49.3831 39.5012 49.3831C38.9313 49.3831 38.3829 49.2863 37.8675 49.1069C36.9659 51.6694 35.8147 51.7767 33.7095 51.9729C33.607 51.9823 33.5013 51.9923 33.3312 52.009C32.2176 52.1179 31.5913 52.3858 31.1909 52.8552C30.7702 53.3486 30.5368 54.12 30.2448 55.177C30.1716 55.4423 29.8968 55.5982 29.6315 55.525C29.3662 55.4517 29.2103 55.177 29.2835 54.9117C29.6106 53.7285 29.878 52.8578 30.4327 52.2069C31.0083 51.5319 31.8324 51.1546 33.237 51.017C33.328 51.0081 33.4756 50.9945 33.6195 50.9809C34.1742 50.929 34.6462 50.8851 35.0549 50.7789C35.0528 50.7736 35.0502 50.7679 35.0481 50.7626C34.8388 50.221 34.5939 49.8186 34.214 49.5434C33.8173 49.2561 33.2496 49.0798 32.3976 48.9966C32.2275 48.9798 32.1218 48.9699 32.0193 48.9605C29.9141 48.7648 28.7628 48.657 27.8613 46.0944C27.3459 46.2739 26.7975 46.3707 26.2276 46.3707C25.752 46.3707 25.2873 46.3011 24.8405 46.1713C24.7672 46.1499 24.6945 46.1268 24.6228 46.1022C23.7217 48.6568 22.5705 48.7642 20.4679 48.9599C20.3653 48.9693 20.2596 48.9792 20.0896 48.996C18.976 49.1048 18.3497 49.3727 17.9493 49.8421C17.5286 50.3356 17.2952 51.1069 17.0032 52.1639C16.9299 52.4292 16.6552 52.5852 16.3899 52.5119C16.1246 52.4386 15.9687 52.1639 16.0419 51.8986C16.369 50.7155 16.6364 49.8447 17.191 49.1938C17.7667 48.5188 18.5908 48.1415 19.9954 48.0039C20.0864 47.995 20.234 47.9814 20.3779 47.9678C22.0812 47.8092 23.0063 47.7229 23.7102 45.6863C23.6563 45.6549 23.6029 45.623 23.5495 45.5895C22.7154 45.0657 22.0205 44.3049 21.5406 43.3907C21.0791 42.5116 20.8143 41.4911 20.8143 40.4059C20.8143 38.7696 21.4135 37.285 22.3821 36.2076C23.3632 35.116 24.7227 34.4409 26.2271 34.4409C27.7315 34.4409 29.091 35.116 30.0722 36.2076C31.0408 37.285 31.6399 38.7696 31.6399 40.4059C31.6399 42.0422 31.0407 43.5268 30.0722 44.6042C29.6907 45.0281 29.2527 45.3897 28.7708 45.6728C29.4756 47.723 30.4008 47.8093 32.1083 47.9684C32.2522 47.9821 32.3997 47.9957 32.4908 48.0046C33.5342 48.1066 34.2574 48.3421 34.7989 48.7351C35.3421 49.1286 35.6801 49.6566 35.9538 50.3453C36.3483 50.024 36.6702 49.5159 36.9554 48.6859C36.4739 48.4028 36.0354 48.0417 35.654 47.6173C34.6854 46.5399 34.0862 45.0554 34.0862 43.419C34.0862 41.7827 34.6854 40.2982 35.654 39.2207C36.6351 38.1292 37.9947 37.4541 39.499 37.4541L39.5022 37.4546ZM39.5022 3C49.1515 3 57.8816 6.91003 64.2032 13.2317C70.5275 19.5561 74.4417 28.2969 74.4542 37.9541C74.4594 42.1947 73.7321 46.2497 72.3647 50.0053C70.9644 53.8503 68.8932 57.3819 66.2511 60.4761C65.6148 61.2213 65.1188 61.8739 64.9079 62.5813C64.7038 63.2658 64.7593 64.047 65.2036 65.0947C65.7682 66.4254 66.9032 67.9048 67.9749 69.3018C68.9189 70.5326 69.8158 71.7016 70.2874 72.72C70.9006 74.0439 70.8478 75.1124 69.4831 75.744C68.4737 76.2113 62.0964 75.8 54.8024 75.0763C45.781 74.1814 35.2884 72.8251 31.9327 72.0841C24.0233 70.338 17.1207 65.9137 12.2245 59.8111C7.42134 53.8243 4.54736 46.2235 4.54736 37.9542C4.54736 28.3017 8.45994 19.5628 14.7854 13.2385C21.1109 6.91426 29.8492 3.00048 39.501 3.00048L39.5022 3ZM63.4958 13.9392C57.3551 7.79845 48.8754 4.00055 39.5022 4.00055C30.1261 4.00055 21.6373 7.80113 15.4926 13.9455C9.34821 20.0898 5.54763 28.5779 5.54763 37.9552C5.54763 45.9912 8.33775 53.374 13.0018 59.1878C17.7596 65.1183 24.4653 69.4169 32.1474 71.113C35.466 71.8456 45.9065 73.1935 54.8992 74.0853C62.0441 74.7938 68.2304 75.225 69.0642 74.8388C69.7471 74.5227 69.7392 73.9147 69.3797 73.1391C68.9548 72.2213 68.0903 71.0946 67.1803 69.9089C66.0736 68.4662 64.9014 66.9382 64.284 65.483C63.7377 64.1952 63.6801 63.201 63.9491 62.2973C64.2113 61.4166 64.7743 60.6689 65.4918 59.8284C68.0568 56.8248 70.0668 53.3973 71.4258 49.6664C72.7549 46.0165 73.4619 42.0756 73.4566 37.9553C73.4446 28.5775 69.6409 20.0863 63.495 13.9403L63.4958 13.9392ZM25.3159 33.3138C25.0966 33.4813 24.7837 33.4389 24.6162 33.2202C24.4488 33.0009 24.4912 32.688 24.7099 32.5205C25.0741 32.2432 25.3949 31.9266 25.6685 31.5802C25.9459 31.2286 26.1787 30.8403 26.3619 30.4269C26.4529 30.2202 26.6664 30.1061 26.8794 30.1323L30.0008 30.5127C30.0082 30.5132 30.0155 30.5143 30.0223 30.5153C30.0537 30.5174 30.0825 30.508 30.105 30.4907C30.1269 30.4735 30.1432 30.4478 30.1484 30.417C30.1494 30.4091 30.1505 30.4013 30.1515 30.3934L30.3792 28.5284C30.3797 28.5211 30.3807 28.5138 30.3818 28.507C30.3839 28.4756 30.3744 28.4468 30.3572 28.4243C30.3399 28.4023 30.3143 28.3866 30.2834 28.3808C30.2755 28.3798 30.2677 28.3788 30.2598 28.3777L27.2153 28.0062C26.9699 27.9764 26.7878 27.7728 26.7763 27.5342C26.7465 27.3149 26.6999 27.0873 26.6361 26.8539C26.5712 26.6148 26.4911 26.3819 26.3954 26.1569C26.3137 25.9649 26.2232 25.7812 26.1243 25.6069C26.0207 25.4238 25.9103 25.2522 25.7946 25.0931C25.6628 24.912 25.6711 24.6719 25.7988 24.5013L27.6973 21.9785C27.7172 21.9524 27.724 21.9189 27.7193 21.8864C27.7151 21.8555 27.6994 21.8268 27.6743 21.8079L26.1478 20.6593C26.1216 20.64 26.0881 20.6326 26.0557 20.6373C26.0248 20.6415 25.9961 20.6572 25.9772 20.6823L24.1216 23.148C23.9819 23.3343 23.7375 23.3945 23.5319 23.3092L23.5313 23.3102C23.1164 23.137 22.68 23.0151 22.232 22.9497C21.7909 22.8853 21.3404 22.8749 20.8903 22.9235C20.6621 22.9476 20.4534 22.8142 20.3733 22.6106L19.143 19.7173C19.13 19.687 19.1059 19.6645 19.0776 19.653C19.0478 19.6409 19.0143 19.6399 18.9845 19.653L18.0044 20.07C17.7506 20.1778 17.4581 20.0601 17.3498 19.8063C17.242 19.5525 17.3597 19.26 17.6135 19.1517L18.5936 18.7346C18.8772 18.6137 19.1839 18.62 19.4487 18.7268C19.715 18.834 19.9405 19.0428 20.0614 19.3259L21.1566 21.9016C21.5679 21.8817 21.9766 21.9021 22.3769 21.9607C22.7773 22.0193 23.1708 22.1161 23.5512 22.2485L25.1535 20.1192C25.1713 20.0904 25.1927 20.0632 25.2168 20.0376C25.4005 19.8183 25.6532 19.6859 25.919 19.6483C26.1833 19.6111 26.4617 19.6681 26.6982 19.8277C26.7275 19.8445 26.7552 19.8649 26.7809 19.8884L28.2717 21.0104C28.5187 21.1961 28.6673 21.4656 28.7076 21.7492C28.7474 22.0313 28.6794 22.3295 28.4941 22.576L26.8102 24.8141C26.8741 24.913 26.9348 25.0135 26.9918 25.1145C27.1106 25.3243 27.2184 25.542 27.3136 25.7659C27.4314 26.0428 27.5271 26.3185 27.6014 26.5917C27.6428 26.744 27.6789 26.9004 27.7087 27.059L30.3978 27.3871C30.7024 27.4242 30.9651 27.5838 31.1425 27.8104C31.3193 28.0365 31.4109 28.3295 31.3737 28.6341L31.1425 30.5304C31.1053 30.8355 30.9457 31.0976 30.7191 31.275C30.4925 31.4519 30.2 31.5435 29.8955 31.5063L27.1153 31.1667C26.9295 31.5273 26.7071 31.8726 26.4512 32.1965C26.1237 32.612 25.7438 32.9883 25.3167 33.3127L25.3159 33.3138ZM20.6545 26.3584C20.1306 26.5813 19.7471 26.9947 19.5503 27.4829C19.353 27.9727 19.3421 28.5373 19.565 29.0611C19.7879 29.5849 20.2013 29.9684 20.6895 30.1657C21.1793 30.363 21.7439 30.374 22.2677 30.1511C22.7915 29.9281 23.1751 29.5148 23.3723 29.0265C23.5696 28.5368 23.5806 27.9721 23.3577 27.4484C23.1348 26.9245 22.7214 26.541 22.2332 26.3442C21.7434 26.1469 21.1782 26.1354 20.6545 26.3584ZM18.6242 27.1119C18.9125 26.3966 19.4698 25.7896 20.2286 25.4557C20.2516 25.4437 20.2757 25.4332 20.3003 25.4254C21.0669 25.1109 21.8895 25.1303 22.6037 25.4181C23.319 25.7064 23.9261 26.2637 24.2599 27.0225C24.2719 27.0455 24.2824 27.0696 24.2902 27.0942C24.6047 27.8608 24.5854 28.6834 24.2976 29.3976C24.0045 30.124 23.4347 30.7388 22.6581 31.0691C21.8811 31.3998 21.0438 31.3841 20.318 31.0916C19.5912 30.7985 18.9768 30.2287 18.6462 29.4516C18.3155 28.6745 18.3316 27.8377 18.6242 27.1119ZM51.439 32.5211C51.6583 32.6885 51.7001 33.0014 51.5327 33.2207C51.3652 33.44 51.0523 33.4818 50.8331 33.3144C50.4066 32.9899 50.0267 32.6137 49.6986 32.1982C49.4427 31.8738 49.2208 31.5289 49.0345 31.1684L46.2543 31.508C45.9498 31.5452 45.6567 31.4536 45.4307 31.2767C45.2041 31.0993 45.0445 30.8366 45.0073 30.5321L44.7761 28.6357C44.7389 28.3312 44.8305 28.0382 45.0073 27.8121C45.1847 27.5855 45.4474 27.4259 45.752 27.3888L48.4411 27.0607C48.4709 26.9016 48.507 26.7456 48.5484 26.5934C48.6227 26.3202 48.7184 26.0444 48.8362 25.7676C48.9314 25.5437 49.0392 25.326 49.158 25.1161C49.2155 25.0146 49.2762 24.9147 49.3396 24.8158L47.6557 22.5777C47.4704 22.3312 47.4024 22.033 47.4422 21.7509C47.4825 21.4673 47.6306 21.1978 47.8781 21.012L49.3689 19.8901C49.3951 19.8666 49.4228 19.8467 49.4516 19.8294C49.6881 19.6698 49.9665 19.6123 50.2308 19.6499C50.4961 19.6876 50.7488 19.82 50.933 20.0393C50.9571 20.0649 50.9785 20.0921 50.9963 20.1209L52.5986 22.2502C52.979 22.1178 53.3725 22.021 53.7729 21.9624C54.1732 21.9038 54.5819 21.8834 54.9932 21.9033L56.0884 19.3276C56.2087 19.044 56.4348 18.8357 56.7011 18.7284C56.9665 18.6217 57.2726 18.6154 57.5562 18.7363L58.5363 19.1534C58.7901 19.2611 58.9078 19.5542 58.8 19.808C58.6922 20.0618 58.3992 20.1795 58.1454 20.0717L57.1653 19.6547C57.135 19.6416 57.1015 19.6426 57.0722 19.6547C57.0439 19.6662 57.0193 19.6887 57.0068 19.719L55.7765 22.6123C55.6965 22.8158 55.4877 22.9498 55.2595 22.9252C54.8095 22.8771 54.3589 22.887 53.9178 22.9514C53.4698 23.0168 53.0334 23.1387 52.6185 23.3119L52.6179 23.3109C52.4128 23.3962 52.1679 23.3355 52.0282 23.1497L50.1726 20.684C50.1537 20.6589 50.125 20.6432 50.0941 20.639C50.0616 20.6343 50.0282 20.6411 50.002 20.661L48.4755 21.8096C48.4504 21.8284 48.4347 21.8572 48.4305 21.8881C48.4258 21.9205 48.4331 21.954 48.4525 21.9802L50.351 24.5029C50.4787 24.6735 50.487 24.9137 50.3552 25.0948C50.2395 25.2538 50.1291 25.425 50.0255 25.6086C49.9266 25.7829 49.8361 25.9666 49.7544 26.1586C49.6587 26.3836 49.5786 26.6165 49.5137 26.8556C49.4499 27.0895 49.4038 27.3166 49.3735 27.5359C49.3625 27.775 49.1804 27.978 48.9345 28.0079L45.89 28.3794C45.8821 28.3804 45.8743 28.3815 45.8664 28.3825C45.8355 28.3878 45.8099 28.404 45.7926 28.426C45.7754 28.4485 45.7659 28.4772 45.7675 28.5086C45.7686 28.516 45.7691 28.5228 45.7701 28.5301L45.9977 30.3951C45.9988 30.4029 45.9998 30.4108 46.0009 30.4186C46.0061 30.4495 46.0223 30.4752 46.0443 30.4924C46.0668 30.5097 46.0956 30.5191 46.127 30.517C46.1343 30.516 46.1411 30.5154 46.1485 30.5144L49.2699 30.1334C49.4828 30.1073 49.6969 30.2219 49.7874 30.4286C49.9705 30.842 50.2029 31.2302 50.4802 31.5819C50.7534 31.9283 51.0747 32.2454 51.4389 32.5222L51.439 32.5211ZM55.8853 25.4406C56.6624 25.7713 57.2317 26.3857 57.5247 27.112C57.8125 27.8263 57.8324 28.6484 57.5174 29.4155C57.509 29.4406 57.4985 29.4647 57.487 29.4872C57.1532 30.2459 56.5462 30.8032 55.8309 31.0916C55.1166 31.3794 54.2945 31.3993 53.5274 31.0843C53.5023 31.0759 53.4788 31.0654 53.4557 31.0539C52.697 30.7201 52.1397 30.1131 51.8513 29.3978C51.5588 28.6725 51.5431 27.8353 51.8738 27.0576C52.2045 26.2805 52.8189 25.7107 53.5456 25.4177C54.2709 25.1252 55.1077 25.1099 55.8853 25.4406ZM56.5991 27.4835C56.4023 26.9953 56.0182 26.5814 55.4944 26.359C54.9706 26.136 54.406 26.147 53.9162 26.3443C53.428 26.5411 53.0141 26.9251 52.7917 27.449C52.5688 27.9728 52.5798 28.5374 52.777 29.0271C52.9738 29.5154 53.3573 29.9288 53.8812 30.1517C54.405 30.3746 54.9701 30.3636 55.4599 30.1663C55.9481 29.9696 56.3615 29.5855 56.5844 29.0622C56.8073 28.5384 56.7963 27.9733 56.5991 27.4835ZM36.9752 10.141H38.8852C39.194 10.141 39.4739 10.2671 39.677 10.4696C39.88 10.6727 40.0056 10.9526 40.0056 11.2614V13.9699C40.3897 14.0934 40.7586 14.253 41.1092 14.4445C41.4692 14.6418 41.8093 14.8736 42.1238 15.1352L44.5497 13.735L44.5492 13.7339C44.8171 13.579 45.1222 13.5476 45.3985 13.6219C45.6753 13.6962 45.9238 13.8757 46.0782 14.1426C46.0834 14.152 46.0887 14.1609 46.0934 14.1703L47.0327 15.7973L47.0337 15.7968C47.1886 16.0647 47.2195 16.3697 47.1457 16.646C47.0714 16.9228 46.8919 17.1714 46.625 17.3258L44.2786 18.6805C44.3121 18.8359 44.3398 18.9945 44.3618 19.1557C44.4016 19.4466 44.4225 19.7376 44.4225 20.0264C44.4225 20.2661 44.4084 20.5078 44.3806 20.7501C44.3675 20.8673 44.3508 20.984 44.3309 21.0996L46.7239 22.481C46.749 22.4931 46.7725 22.5072 46.795 22.5229C47.0404 22.6783 47.2058 22.9159 47.2764 23.1786C47.3466 23.4397 47.322 23.727 47.1885 23.9839C47.1754 24.0132 47.1592 24.0409 47.1404 24.0671L46.2095 25.6798C46.0546 25.9483 45.8055 26.1288 45.5297 26.2026C45.2545 26.2764 44.9499 26.245 44.6825 26.0906L44.681 26.0896L44.6804 26.0906L42.3335 24.7359C42.0352 25.0064 41.7113 25.2492 41.3664 25.4596C41.0216 25.6694 40.6542 25.8484 40.2681 25.9907V28.7907C40.2681 29.0995 40.142 29.3794 39.9394 29.5825C39.7364 29.7855 39.4565 29.9111 39.1477 29.9111H37.2377V29.909C36.9279 29.909 36.648 29.7839 36.446 29.5825C36.243 29.3794 36.1174 29.0995 36.1174 28.7907V26.0822C35.7333 25.9587 35.3638 25.7991 35.0138 25.607C34.6537 25.4098 34.3141 25.178 33.9991 24.9163L31.613 26.2941C31.5832 26.3156 31.5513 26.3328 31.5183 26.347C31.2645 26.4762 30.9814 26.4987 30.7245 26.4302C30.4676 26.3611 30.2342 26.2004 30.0782 25.9618C30.0584 25.9357 30.0411 25.9074 30.027 25.8786L29.0898 24.2554C29.083 24.2434 29.0762 24.2308 29.0704 24.2183C28.9328 23.9592 28.9071 23.6693 28.9778 23.4061C29.0521 23.1293 29.2316 22.8808 29.4984 22.7264L31.8449 21.3717C31.8114 21.2162 31.7837 21.0577 31.7617 20.8965C31.7219 20.6056 31.701 20.3146 31.701 20.0258C31.701 19.7861 31.7151 19.5443 31.7428 19.3021C31.7559 19.1849 31.7727 19.0682 31.7926 18.9525L29.3676 17.5528C29.1007 17.3984 28.9213 17.1498 28.8469 16.873C28.7732 16.5967 28.8046 16.2917 28.9589 16.0238C28.9642 16.0149 28.9694 16.0065 28.9746 15.9981L29.9144 14.3702L29.9134 14.3697C30.0678 14.1028 30.3163 13.9233 30.5931 13.849C30.8684 13.7753 31.1729 13.8067 31.4403 13.961L33.7882 15.3168C34.0865 15.0458 34.4104 14.803 34.7563 14.5926C35.1012 14.3828 35.4685 14.2043 35.8547 14.0615V11.2609C35.8547 10.9522 35.9808 10.6722 36.1833 10.4692C36.3863 10.2662 36.6665 10.141 36.9752 10.141ZM38.8852 11.141H36.9752C36.9428 11.141 36.913 11.1546 36.891 11.1766C36.869 11.1986 36.8554 11.2284 36.8554 11.2608V14.4183H36.8533C36.8533 14.6318 36.7146 14.8296 36.4996 14.895C36.0679 15.0263 35.6571 15.2121 35.2761 15.4444C34.89 15.6799 34.5357 15.9625 34.2222 16.2838C34.0674 16.4434 33.8183 16.4837 33.6168 16.3675L30.9842 14.8479C30.9643 14.839 30.945 14.8285 30.9261 14.8165C30.9026 14.8081 30.8759 14.8076 30.8508 14.8144C30.8251 14.8212 30.8016 14.8358 30.7854 14.8573C30.776 14.8751 30.765 14.8923 30.7529 14.9091L29.8367 16.4962C29.832 16.5057 29.8273 16.5151 29.8215 16.524C29.8058 16.5517 29.8027 16.5847 29.811 16.6155C29.8194 16.6459 29.8382 16.6731 29.8665 16.6893L32.588 18.2607C32.7806 18.3648 32.8884 18.5877 32.8371 18.8112C32.7916 19.0074 32.7571 19.2078 32.734 19.4119C32.7115 19.6087 32.7 19.8138 32.7 20.0262C32.7 20.2832 32.7168 20.5291 32.7492 20.7641C32.7827 21.0063 32.8329 21.246 32.8994 21.4815C32.9596 21.6955 32.8701 21.9315 32.6686 22.0482L29.9977 23.5904C29.9695 23.6066 29.9501 23.6338 29.9423 23.6641C29.9349 23.6913 29.936 23.7201 29.947 23.7458L29.9527 23.7557L30.9077 25.4098L30.9067 25.4104L30.9077 25.4119C30.9234 25.4386 30.9506 25.4575 30.9815 25.4658C31.0129 25.4742 31.0469 25.4716 31.0746 25.4554L33.8109 23.8756C33.9956 23.7694 34.2353 23.7908 34.3991 23.9436C34.7256 24.2492 35.0919 24.5145 35.4901 24.7327C35.8705 24.941 36.2808 25.1048 36.7141 25.2168C36.9438 25.2618 37.1175 25.4643 37.1175 25.7076V28.7918C37.1175 28.8242 37.1311 28.854 37.1531 28.876C37.1761 28.899 37.2065 28.9137 37.2373 28.9137V28.9116H39.1474C39.1798 28.9116 39.2096 28.898 39.2316 28.876C39.2536 28.854 39.2672 28.8242 39.2672 28.7918V25.6343H39.2693C39.2693 25.4208 39.4079 25.223 39.623 25.1576C40.0547 25.0263 40.4655 24.8405 40.8464 24.6082C41.2284 24.3753 41.579 24.0964 41.8899 23.7793C42.0448 23.6103 42.3012 23.5653 42.5073 23.6851L45.1797 25.2283L45.1792 25.2294C45.2069 25.2445 45.2399 25.2471 45.2713 25.2388C45.3027 25.2304 45.3299 25.2116 45.3451 25.1849L46.2849 23.5565C46.2896 23.547 46.2943 23.5376 46.3001 23.5287C46.3158 23.501 46.3189 23.468 46.3105 23.4372C46.3021 23.4068 46.2833 23.3796 46.2551 23.3634L43.533 21.792C43.3404 21.6879 43.2326 21.465 43.2839 21.2415C43.3294 21.0453 43.364 20.8449 43.387 20.6408C43.4095 20.444 43.421 20.2389 43.421 20.0265C43.421 19.7695 43.4043 19.5236 43.3718 19.2886C43.3383 19.0464 43.2881 18.8067 43.2216 18.5712C43.1615 18.3572 43.2509 18.1212 43.4524 18.0045L46.0934 16.4796C46.107 16.4702 46.1217 16.4618 46.1363 16.4535C46.1578 16.4372 46.1724 16.4137 46.1792 16.3881C46.186 16.3619 46.1855 16.3342 46.1751 16.3101C46.1641 16.2923 46.1541 16.274 46.1452 16.2546L45.2373 14.6822C45.2253 14.6654 45.2143 14.6482 45.2049 14.6299C45.1887 14.6084 45.1651 14.5938 45.1395 14.587C45.1133 14.5802 45.0856 14.5807 45.0615 14.5911C45.0437 14.6021 45.0254 14.6121 45.0061 14.621L42.3106 16.1772C42.1259 16.2834 41.8863 16.262 41.7225 16.1092C41.3959 15.8036 41.0296 15.5377 40.6314 15.3201C40.251 15.1118 39.8408 14.9485 39.4075 14.8365C39.1778 14.7915 39.004 14.589 39.004 14.3457V11.2615C39.004 11.2291 38.9904 11.1993 38.9684 11.1773C38.9465 11.1553 38.9166 11.1417 38.8842 11.1417L38.8852 11.141ZM38.0616 16.9661C38.9067 16.9661 39.6713 17.3089 40.2253 17.8625C40.7789 18.4161 41.1217 19.1812 41.1217 20.0262C41.1217 20.8713 40.7789 21.6359 40.2253 22.1894C39.6717 22.7429 38.9066 23.0858 38.0616 23.0858C37.2165 23.0858 36.4519 22.743 35.8984 22.1894C35.3448 21.6358 35.002 20.8707 35.002 20.0262C35.002 19.1811 35.3448 18.4166 35.8984 17.8625C36.452 17.3089 37.2171 16.9661 38.0616 16.9661ZM39.5179 18.5695C39.1453 18.1969 38.6304 17.9661 38.0616 17.9661C37.4928 17.9661 36.9779 18.1969 36.6053 18.5695C36.2327 18.9421 36.002 19.457 36.002 20.0258C36.002 20.5946 36.2327 21.1095 36.6053 21.4821C36.9779 21.8546 37.4928 22.0854 38.0616 22.0854C38.6304 22.0854 39.1453 21.8546 39.5179 21.4821C39.8904 21.1095 40.1212 20.5946 40.1212 20.0258C40.1212 19.457 39.8904 18.9421 39.5179 18.5695ZM24.2062 43.5986C24.0608 43.507 24.0168 43.3145 24.1084 43.169C24.1999 43.0235 24.3925 42.9796 24.538 43.0711C24.7928 43.2313 25.0665 43.3558 25.3543 43.4395C25.6311 43.5201 25.9242 43.563 26.2287 43.563C26.5333 43.563 26.8263 43.5201 27.1031 43.4395C27.3909 43.3558 27.6646 43.2307 27.9194 43.0711C28.0649 42.9796 28.2575 43.023 28.349 43.169C28.4406 43.3145 28.3972 43.507 28.2512 43.5986C27.9487 43.7886 27.6217 43.9372 27.2763 44.0382C26.9393 44.1365 26.5882 44.1889 26.2287 44.1889C25.8692 44.1889 25.5181 44.1365 25.1811 44.0382C24.8357 43.9377 24.5087 43.7885 24.2062 43.5986ZM26.2293 35.4411C25.0205 35.4411 23.9232 35.9895 23.1262 36.8759C22.3167 37.7765 21.8159 39.024 21.8159 40.4061C21.8159 41.3281 22.0378 42.1889 22.4251 42.9261C22.8243 43.6859 23.3973 44.316 24.0823 44.7461C24.4057 44.9491 24.7536 45.1082 25.1189 45.2144C25.4695 45.3165 25.8415 45.3709 26.2288 45.3709C27.4376 45.3709 28.5349 44.8225 29.3318 43.9361C30.1414 43.0355 30.6421 41.788 30.6421 40.4059C30.6421 39.0239 30.1413 37.7759 29.3318 36.8758C28.5349 35.9894 27.438 35.4411 26.2293 35.4411ZM53.9899 43.0711C54.1353 42.9795 54.3279 43.0229 54.4195 43.1689C54.511 43.3144 54.4676 43.507 54.3216 43.5985C54.0192 43.7885 53.6921 43.9371 53.3467 44.0381C53.0098 44.1365 52.6586 44.1888 52.2991 44.1888C51.9396 44.1888 51.5885 44.1365 51.2515 44.0381C50.9062 43.9376 50.5791 43.7885 50.2767 43.5985C50.1312 43.507 50.0872 43.3144 50.1788 43.1689C50.2704 43.0235 50.4629 42.9795 50.6084 43.0711C50.8632 43.2312 51.1369 43.3557 51.4247 43.4395C51.7016 43.52 51.9946 43.563 52.2991 43.563C52.6037 43.563 52.8967 43.52 53.1735 43.4395C53.4613 43.3557 53.735 43.2307 53.9899 43.0711ZM55.4022 36.8759C54.6052 35.9895 53.5079 35.4411 52.2991 35.4411C51.0904 35.4411 49.993 35.9895 49.1961 36.8759C48.3866 37.7765 47.8858 39.024 47.8858 40.4061C47.8858 41.7881 48.3866 43.0361 49.1961 43.9362C49.993 44.8226 51.0904 45.371 52.2991 45.371C52.6869 45.371 53.0584 45.3166 53.409 45.2146C53.7743 45.1083 54.1223 44.9498 54.4457 44.7462C55.1306 44.3161 55.7036 43.6861 56.1029 42.9262C56.4901 42.1889 56.712 41.3281 56.712 40.4062C56.712 39.0243 56.2117 37.776 55.4022 36.8759ZM41.193 46.0836C41.3385 45.992 41.5311 46.0354 41.6227 46.1814C41.7142 46.3269 41.6708 46.5195 41.5248 46.611C41.2223 46.801 40.8953 46.9496 40.5499 47.0506C40.2129 47.149 39.8618 47.2013 39.5023 47.2013C39.1428 47.2013 38.7917 47.149 38.4547 47.0506C38.1094 46.9501 37.7823 46.801 37.4798 46.611C37.3344 46.5195 37.2904 46.3269 37.382 46.1814C37.4736 46.036 37.6661 45.992 37.8116 46.0836C38.0664 46.2437 38.3401 46.3682 38.6279 46.452C38.9047 46.5325 39.1978 46.5755 39.5023 46.5755C39.8069 46.5755 40.0999 46.5325 40.3767 46.452C40.6645 46.3682 40.9382 46.2432 41.193 46.0836ZM42.6054 39.8884C41.8084 39.002 40.7111 38.4536 39.5023 38.4536C38.2936 38.4536 37.1962 39.002 36.3993 39.8884C35.5898 40.789 35.089 42.0365 35.089 43.4186C35.089 44.8005 35.5898 46.0486 36.3993 46.9487C37.1962 47.8351 38.2936 48.3835 39.5023 48.3835C39.8901 48.3835 40.2616 48.3291 40.6122 48.2271C40.9775 48.1208 41.3255 47.9623 41.6488 47.7587C42.3338 47.3286 42.9068 46.6986 43.3061 45.9387C43.6933 45.2014 43.9152 44.3406 43.9152 43.4187C43.9152 42.0368 43.4149 40.7885 42.6054 39.8884Z"/>
</mask>
<path d="M39.5022 37.4546C41.0066 37.4546 42.3662 38.1296 43.3473 39.2212C44.3159 40.2987 44.915 41.7832 44.915 43.4195C44.915 44.5053 44.6502 45.5252 44.1887 46.4043C43.7089 47.3185 43.014 48.0793 42.1798 48.6031C42.127 48.6361 42.0736 48.6685 42.0192 48.6999C42.2243 49.2933 42.4483 49.7214 42.7052 50.0332C42.9559 49.4943 43.2683 49.0667 43.7267 48.7345C44.2688 48.3415 44.9914 48.106 46.0348 48.004C46.1259 47.9951 46.2734 47.9815 46.4173 47.9679C48.1242 47.8088 49.0499 47.7224 49.7548 45.6722C49.2734 45.3891 48.8349 45.028 48.4534 44.6036C47.4848 43.5262 46.8857 42.0416 46.8857 40.4053C46.8857 38.769 47.4848 37.2845 48.4534 36.207C49.4346 35.1154 50.7941 34.4403 52.2985 34.4403C53.8028 34.4403 55.1624 35.1154 56.1435 36.207C57.1121 37.2845 57.7113 38.769 57.7113 40.4053C57.7113 41.4911 57.4465 42.511 56.9849 43.3901C56.5051 44.3043 55.8102 45.0651 54.9761 45.5889C54.9232 45.6219 54.8699 45.6543 54.8154 45.6857C55.5192 47.7223 56.4444 47.8087 58.1477 47.9672C58.2916 47.9808 58.4392 47.9944 58.5302 48.0033C59.9347 48.1404 60.7589 48.5182 61.3345 49.1932C61.8897 49.8442 62.1571 50.7149 62.4837 51.898C62.5569 52.1633 62.4015 52.438 62.1357 52.5113C61.8704 52.5846 61.5957 52.4292 61.5224 52.1633C61.2304 51.1063 60.997 50.3345 60.5763 49.8415C60.176 49.3721 59.5496 49.1042 58.436 48.9954C58.266 48.9786 58.1602 48.9687 58.0577 48.9593C55.9546 48.7636 54.8039 48.6563 53.9028 46.1016C53.8311 46.1262 53.7584 46.1493 53.6851 46.1707C53.2382 46.301 52.773 46.3701 52.2979 46.3701C51.7286 46.3701 51.1797 46.2733 50.6643 46.0938C49.7627 48.6563 48.6115 48.7636 46.5063 48.9599C46.4037 48.9693 46.298 48.9792 46.128 48.996C45.2761 49.0792 44.7083 49.255 44.3116 49.5428C43.9589 49.7987 43.7229 50.1634 43.523 50.6474C44.0154 50.8557 44.6094 50.9112 45.3509 50.9803C45.4948 50.9939 45.6424 51.0075 45.7334 51.0164C47.1379 51.1535 47.9621 51.5313 48.5378 52.2063C49.093 52.8573 49.3604 53.728 49.6869 54.9111C49.7601 55.1764 49.6047 55.4511 49.3389 55.5244C49.0736 55.5976 48.7989 55.4422 48.7256 55.1764C48.4336 54.1194 48.2002 53.3476 47.7795 52.8546C47.3792 52.3852 46.7528 52.1173 45.6392 52.0084C45.4692 51.9917 45.3635 51.9818 45.2609 51.9723C43.1579 51.7766 42.0071 51.6694 41.106 49.1147C41.0343 49.1393 40.9616 49.1623 40.8883 49.1838C40.4414 49.3141 39.9762 49.3831 39.5012 49.3831C38.9313 49.3831 38.3829 49.2863 37.8675 49.1069C36.9659 51.6694 35.8147 51.7767 33.7095 51.9729C33.607 51.9823 33.5013 51.9923 33.3312 52.009C32.2176 52.1179 31.5913 52.3858 31.1909 52.8552C30.7702 53.3486 30.5368 54.12 30.2448 55.177C30.1716 55.4423 29.8968 55.5982 29.6315 55.525C29.3662 55.4517 29.2103 55.177 29.2835 54.9117C29.6106 53.7285 29.878 52.8578 30.4327 52.2069C31.0083 51.5319 31.8324 51.1546 33.237 51.017C33.328 51.0081 33.4756 50.9945 33.6195 50.9809C34.1742 50.929 34.6462 50.8851 35.0549 50.7789C35.0528 50.7736 35.0502 50.7679 35.0481 50.7626C34.8388 50.221 34.5939 49.8186 34.214 49.5434C33.8173 49.2561 33.2496 49.0798 32.3976 48.9966C32.2275 48.9798 32.1218 48.9699 32.0193 48.9605C29.9141 48.7648 28.7628 48.657 27.8613 46.0944C27.3459 46.2739 26.7975 46.3707 26.2276 46.3707C25.752 46.3707 25.2873 46.3011 24.8405 46.1713C24.7672 46.1499 24.6945 46.1268 24.6228 46.1022C23.7217 48.6568 22.5705 48.7642 20.4679 48.9599C20.3653 48.9693 20.2596 48.9792 20.0896 48.996C18.976 49.1048 18.3497 49.3727 17.9493 49.8421C17.5286 50.3356 17.2952 51.1069 17.0032 52.1639C16.9299 52.4292 16.6552 52.5852 16.3899 52.5119C16.1246 52.4386 15.9687 52.1639 16.0419 51.8986C16.369 50.7155 16.6364 49.8447 17.191 49.1938C17.7667 48.5188 18.5908 48.1415 19.9954 48.0039C20.0864 47.995 20.234 47.9814 20.3779 47.9678C22.0812 47.8092 23.0063 47.7229 23.7102 45.6863C23.6563 45.6549 23.6029 45.623 23.5495 45.5895C22.7154 45.0657 22.0205 44.3049 21.5406 43.3907C21.0791 42.5116 20.8143 41.4911 20.8143 40.4059C20.8143 38.7696 21.4135 37.285 22.3821 36.2076C23.3632 35.116 24.7227 34.4409 26.2271 34.4409C27.7315 34.4409 29.091 35.116 30.0722 36.2076C31.0408 37.285 31.6399 38.7696 31.6399 40.4059C31.6399 42.0422 31.0407 43.5268 30.0722 44.6042C29.6907 45.0281 29.2527 45.3897 28.7708 45.6728C29.4756 47.723 30.4008 47.8093 32.1083 47.9684C32.2522 47.9821 32.3997 47.9957 32.4908 48.0046C33.5342 48.1066 34.2574 48.3421 34.7989 48.7351C35.3421 49.1286 35.6801 49.6566 35.9538 50.3453C36.3483 50.024 36.6702 49.5159 36.9554 48.6859C36.4739 48.4028 36.0354 48.0417 35.654 47.6173C34.6854 46.5399 34.0862 45.0554 34.0862 43.419C34.0862 41.7827 34.6854 40.2982 35.654 39.2207C36.6351 38.1292 37.9947 37.4541 39.499 37.4541L39.5022 37.4546ZM39.5022 3C49.1515 3 57.8816 6.91003 64.2032 13.2317C70.5275 19.5561 74.4417 28.2969 74.4542 37.9541C74.4594 42.1947 73.7321 46.2497 72.3647 50.0053C70.9644 53.8503 68.8932 57.3819 66.2511 60.4761C65.6148 61.2213 65.1188 61.8739 64.9079 62.5813C64.7038 63.2658 64.7593 64.047 65.2036 65.0947C65.7682 66.4254 66.9032 67.9048 67.9749 69.3018C68.9189 70.5326 69.8158 71.7016 70.2874 72.72C70.9006 74.0439 70.8478 75.1124 69.4831 75.744C68.4737 76.2113 62.0964 75.8 54.8024 75.0763C45.781 74.1814 35.2884 72.8251 31.9327 72.0841C24.0233 70.338 17.1207 65.9137 12.2245 59.8111C7.42134 53.8243 4.54736 46.2235 4.54736 37.9542C4.54736 28.3017 8.45994 19.5628 14.7854 13.2385C21.1109 6.91426 29.8492 3.00048 39.501 3.00048L39.5022 3ZM63.4958 13.9392C57.3551 7.79845 48.8754 4.00055 39.5022 4.00055C30.1261 4.00055 21.6373 7.80113 15.4926 13.9455C9.34821 20.0898 5.54763 28.5779 5.54763 37.9552C5.54763 45.9912 8.33775 53.374 13.0018 59.1878C17.7596 65.1183 24.4653 69.4169 32.1474 71.113C35.466 71.8456 45.9065 73.1935 54.8992 74.0853C62.0441 74.7938 68.2304 75.225 69.0642 74.8388C69.7471 74.5227 69.7392 73.9147 69.3797 73.1391C68.9548 72.2213 68.0903 71.0946 67.1803 69.9089C66.0736 68.4662 64.9014 66.9382 64.284 65.483C63.7377 64.1952 63.6801 63.201 63.9491 62.2973C64.2113 61.4166 64.7743 60.6689 65.4918 59.8284C68.0568 56.8248 70.0668 53.3973 71.4258 49.6664C72.7549 46.0165 73.4619 42.0756 73.4566 37.9553C73.4446 28.5775 69.6409 20.0863 63.495 13.9403L63.4958 13.9392ZM25.3159 33.3138C25.0966 33.4813 24.7837 33.4389 24.6162 33.2202C24.4488 33.0009 24.4912 32.688 24.7099 32.5205C25.0741 32.2432 25.3949 31.9266 25.6685 31.5802C25.9459 31.2286 26.1787 30.8403 26.3619 30.4269C26.4529 30.2202 26.6664 30.1061 26.8794 30.1323L30.0008 30.5127C30.0082 30.5132 30.0155 30.5143 30.0223 30.5153C30.0537 30.5174 30.0825 30.508 30.105 30.4907C30.1269 30.4735 30.1432 30.4478 30.1484 30.417C30.1494 30.4091 30.1505 30.4013 30.1515 30.3934L30.3792 28.5284C30.3797 28.5211 30.3807 28.5138 30.3818 28.507C30.3839 28.4756 30.3744 28.4468 30.3572 28.4243C30.3399 28.4023 30.3143 28.3866 30.2834 28.3808C30.2755 28.3798 30.2677 28.3788 30.2598 28.3777L27.2153 28.0062C26.9699 27.9764 26.7878 27.7728 26.7763 27.5342C26.7465 27.3149 26.6999 27.0873 26.6361 26.8539C26.5712 26.6148 26.4911 26.3819 26.3954 26.1569C26.3137 25.9649 26.2232 25.7812 26.1243 25.6069C26.0207 25.4238 25.9103 25.2522 25.7946 25.0931C25.6628 24.912 25.6711 24.6719 25.7988 24.5013L27.6973 21.9785C27.7172 21.9524 27.724 21.9189 27.7193 21.8864C27.7151 21.8555 27.6994 21.8268 27.6743 21.8079L26.1478 20.6593C26.1216 20.64 26.0881 20.6326 26.0557 20.6373C26.0248 20.6415 25.9961 20.6572 25.9772 20.6823L24.1216 23.148C23.9819 23.3343 23.7375 23.3945 23.5319 23.3092L23.5313 23.3102C23.1164 23.137 22.68 23.0151 22.232 22.9497C21.7909 22.8853 21.3404 22.8749 20.8903 22.9235C20.6621 22.9476 20.4534 22.8142 20.3733 22.6106L19.143 19.7173C19.13 19.687 19.1059 19.6645 19.0776 19.653C19.0478 19.6409 19.0143 19.6399 18.9845 19.653L18.0044 20.07C17.7506 20.1778 17.4581 20.0601 17.3498 19.8063C17.242 19.5525 17.3597 19.26 17.6135 19.1517L18.5936 18.7346C18.8772 18.6137 19.1839 18.62 19.4487 18.7268C19.715 18.834 19.9405 19.0428 20.0614 19.3259L21.1566 21.9016C21.5679 21.8817 21.9766 21.9021 22.3769 21.9607C22.7773 22.0193 23.1708 22.1161 23.5512 22.2485L25.1535 20.1192C25.1713 20.0904 25.1927 20.0632 25.2168 20.0376C25.4005 19.8183 25.6532 19.6859 25.919 19.6483C26.1833 19.6111 26.4617 19.6681 26.6982 19.8277C26.7275 19.8445 26.7552 19.8649 26.7809 19.8884L28.2717 21.0104C28.5187 21.1961 28.6673 21.4656 28.7076 21.7492C28.7474 22.0313 28.6794 22.3295 28.4941 22.576L26.8102 24.8141C26.8741 24.913 26.9348 25.0135 26.9918 25.1145C27.1106 25.3243 27.2184 25.542 27.3136 25.7659C27.4314 26.0428 27.5271 26.3185 27.6014 26.5917C27.6428 26.744 27.6789 26.9004 27.7087 27.059L30.3978 27.3871C30.7024 27.4242 30.9651 27.5838 31.1425 27.8104C31.3193 28.0365 31.4109 28.3295 31.3737 28.6341L31.1425 30.5304C31.1053 30.8355 30.9457 31.0976 30.7191 31.275C30.4925 31.4519 30.2 31.5435 29.8955 31.5063L27.1153 31.1667C26.9295 31.5273 26.7071 31.8726 26.4512 32.1965C26.1237 32.612 25.7438 32.9883 25.3167 33.3127L25.3159 33.3138ZM20.6545 26.3584C20.1306 26.5813 19.7471 26.9947 19.5503 27.4829C19.353 27.9727 19.3421 28.5373 19.565 29.0611C19.7879 29.5849 20.2013 29.9684 20.6895 30.1657C21.1793 30.363 21.7439 30.374 22.2677 30.1511C22.7915 29.9281 23.1751 29.5148 23.3723 29.0265C23.5696 28.5368 23.5806 27.9721 23.3577 27.4484C23.1348 26.9245 22.7214 26.541 22.2332 26.3442C21.7434 26.1469 21.1782 26.1354 20.6545 26.3584ZM18.6242 27.1119C18.9125 26.3966 19.4698 25.7896 20.2286 25.4557C20.2516 25.4437 20.2757 25.4332 20.3003 25.4254C21.0669 25.1109 21.8895 25.1303 22.6037 25.4181C23.319 25.7064 23.9261 26.2637 24.2599 27.0225C24.2719 27.0455 24.2824 27.0696 24.2902 27.0942C24.6047 27.8608 24.5854 28.6834 24.2976 29.3976C24.0045 30.124 23.4347 30.7388 22.6581 31.0691C21.8811 31.3998 21.0438 31.3841 20.318 31.0916C19.5912 30.7985 18.9768 30.2287 18.6462 29.4516C18.3155 28.6745 18.3316 27.8377 18.6242 27.1119ZM51.439 32.5211C51.6583 32.6885 51.7001 33.0014 51.5327 33.2207C51.3652 33.44 51.0523 33.4818 50.8331 33.3144C50.4066 32.9899 50.0267 32.6137 49.6986 32.1982C49.4427 31.8738 49.2208 31.5289 49.0345 31.1684L46.2543 31.508C45.9498 31.5452 45.6567 31.4536 45.4307 31.2767C45.2041 31.0993 45.0445 30.8366 45.0073 30.5321L44.7761 28.6357C44.7389 28.3312 44.8305 28.0382 45.0073 27.8121C45.1847 27.5855 45.4474 27.4259 45.752 27.3888L48.4411 27.0607C48.4709 26.9016 48.507 26.7456 48.5484 26.5934C48.6227 26.3202 48.7184 26.0444 48.8362 25.7676C48.9314 25.5437 49.0392 25.326 49.158 25.1161C49.2155 25.0146 49.2762 24.9147 49.3396 24.8158L47.6557 22.5777C47.4704 22.3312 47.4024 22.033 47.4422 21.7509C47.4825 21.4673 47.6306 21.1978 47.8781 21.012L49.3689 19.8901C49.3951 19.8666 49.4228 19.8467 49.4516 19.8294C49.6881 19.6698 49.9665 19.6123 50.2308 19.6499C50.4961 19.6876 50.7488 19.82 50.933 20.0393C50.9571 20.0649 50.9785 20.0921 50.9963 20.1209L52.5986 22.2502C52.979 22.1178 53.3725 22.021 53.7729 21.9624C54.1732 21.9038 54.5819 21.8834 54.9932 21.9033L56.0884 19.3276C56.2087 19.044 56.4348 18.8357 56.7011 18.7284C56.9665 18.6217 57.2726 18.6154 57.5562 18.7363L58.5363 19.1534C58.7901 19.2611 58.9078 19.5542 58.8 19.808C58.6922 20.0618 58.3992 20.1795 58.1454 20.0717L57.1653 19.6547C57.135 19.6416 57.1015 19.6426 57.0722 19.6547C57.0439 19.6662 57.0193 19.6887 57.0068 19.719L55.7765 22.6123C55.6965 22.8158 55.4877 22.9498 55.2595 22.9252C54.8095 22.8771 54.3589 22.887 53.9178 22.9514C53.4698 23.0168 53.0334 23.1387 52.6185 23.3119L52.6179 23.3109C52.4128 23.3962 52.1679 23.3355 52.0282 23.1497L50.1726 20.684C50.1537 20.6589 50.125 20.6432 50.0941 20.639C50.0616 20.6343 50.0282 20.6411 50.002 20.661L48.4755 21.8096C48.4504 21.8284 48.4347 21.8572 48.4305 21.8881C48.4258 21.9205 48.4331 21.954 48.4525 21.9802L50.351 24.5029C50.4787 24.6735 50.487 24.9137 50.3552 25.0948C50.2395 25.2538 50.1291 25.425 50.0255 25.6086C49.9266 25.7829 49.8361 25.9666 49.7544 26.1586C49.6587 26.3836 49.5786 26.6165 49.5137 26.8556C49.4499 27.0895 49.4038 27.3166 49.3735 27.5359C49.3625 27.775 49.1804 27.978 48.9345 28.0079L45.89 28.3794C45.8821 28.3804 45.8743 28.3815 45.8664 28.3825C45.8355 28.3878 45.8099 28.404 45.7926 28.426C45.7754 28.4485 45.7659 28.4772 45.7675 28.5086C45.7686 28.516 45.7691 28.5228 45.7701 28.5301L45.9977 30.3951C45.9988 30.4029 45.9998 30.4108 46.0009 30.4186C46.0061 30.4495 46.0223 30.4752 46.0443 30.4924C46.0668 30.5097 46.0956 30.5191 46.127 30.517C46.1343 30.516 46.1411 30.5154 46.1485 30.5144L49.2699 30.1334C49.4828 30.1073 49.6969 30.2219 49.7874 30.4286C49.9705 30.842 50.2029 31.2302 50.4802 31.5819C50.7534 31.9283 51.0747 32.2454 51.4389 32.5222L51.439 32.5211ZM55.8853 25.4406C56.6624 25.7713 57.2317 26.3857 57.5247 27.112C57.8125 27.8263 57.8324 28.6484 57.5174 29.4155C57.509 29.4406 57.4985 29.4647 57.487 29.4872C57.1532 30.2459 56.5462 30.8032 55.8309 31.0916C55.1166 31.3794 54.2945 31.3993 53.5274 31.0843C53.5023 31.0759 53.4788 31.0654 53.4557 31.0539C52.697 30.7201 52.1397 30.1131 51.8513 29.3978C51.5588 28.6725 51.5431 27.8353 51.8738 27.0576C52.2045 26.2805 52.8189 25.7107 53.5456 25.4177C54.2709 25.1252 55.1077 25.1099 55.8853 25.4406ZM56.5991 27.4835C56.4023 26.9953 56.0182 26.5814 55.4944 26.359C54.9706 26.136 54.406 26.147 53.9162 26.3443C53.428 26.5411 53.0141 26.9251 52.7917 27.449C52.5688 27.9728 52.5798 28.5374 52.777 29.0271C52.9738 29.5154 53.3573 29.9288 53.8812 30.1517C54.405 30.3746 54.9701 30.3636 55.4599 30.1663C55.9481 29.9696 56.3615 29.5855 56.5844 29.0622C56.8073 28.5384 56.7963 27.9733 56.5991 27.4835ZM36.9752 10.141H38.8852C39.194 10.141 39.4739 10.2671 39.677 10.4696C39.88 10.6727 40.0056 10.9526 40.0056 11.2614V13.9699C40.3897 14.0934 40.7586 14.253 41.1092 14.4445C41.4692 14.6418 41.8093 14.8736 42.1238 15.1352L44.5497 13.735L44.5492 13.7339C44.8171 13.579 45.1222 13.5476 45.3985 13.6219C45.6753 13.6962 45.9238 13.8757 46.0782 14.1426C46.0834 14.152 46.0887 14.1609 46.0934 14.1703L47.0327 15.7973L47.0337 15.7968C47.1886 16.0647 47.2195 16.3697 47.1457 16.646C47.0714 16.9228 46.8919 17.1714 46.625 17.3258L44.2786 18.6805C44.3121 18.8359 44.3398 18.9945 44.3618 19.1557C44.4016 19.4466 44.4225 19.7376 44.4225 20.0264C44.4225 20.2661 44.4084 20.5078 44.3806 20.7501C44.3675 20.8673 44.3508 20.984 44.3309 21.0996L46.7239 22.481C46.749 22.4931 46.7725 22.5072 46.795 22.5229C47.0404 22.6783 47.2058 22.9159 47.2764 23.1786C47.3466 23.4397 47.322 23.727 47.1885 23.9839C47.1754 24.0132 47.1592 24.0409 47.1404 24.0671L46.2095 25.6798C46.0546 25.9483 45.8055 26.1288 45.5297 26.2026C45.2545 26.2764 44.9499 26.245 44.6825 26.0906L44.681 26.0896L44.6804 26.0906L42.3335 24.7359C42.0352 25.0064 41.7113 25.2492 41.3664 25.4596C41.0216 25.6694 40.6542 25.8484 40.2681 25.9907V28.7907C40.2681 29.0995 40.142 29.3794 39.9394 29.5825C39.7364 29.7855 39.4565 29.9111 39.1477 29.9111H37.2377V29.909C36.9279 29.909 36.648 29.7839 36.446 29.5825C36.243 29.3794 36.1174 29.0995 36.1174 28.7907V26.0822C35.7333 25.9587 35.3638 25.7991 35.0138 25.607C34.6537 25.4098 34.3141 25.178 33.9991 24.9163L31.613 26.2941C31.5832 26.3156 31.5513 26.3328 31.5183 26.347C31.2645 26.4762 30.9814 26.4987 30.7245 26.4302C30.4676 26.3611 30.2342 26.2004 30.0782 25.9618C30.0584 25.9357 30.0411 25.9074 30.027 25.8786L29.0898 24.2554C29.083 24.2434 29.0762 24.2308 29.0704 24.2183C28.9328 23.9592 28.9071 23.6693 28.9778 23.4061C29.0521 23.1293 29.2316 22.8808 29.4984 22.7264L31.8449 21.3717C31.8114 21.2162 31.7837 21.0577 31.7617 20.8965C31.7219 20.6056 31.701 20.3146 31.701 20.0258C31.701 19.7861 31.7151 19.5443 31.7428 19.3021C31.7559 19.1849 31.7727 19.0682 31.7926 18.9525L29.3676 17.5528C29.1007 17.3984 28.9213 17.1498 28.8469 16.873C28.7732 16.5967 28.8046 16.2917 28.9589 16.0238C28.9642 16.0149 28.9694 16.0065 28.9746 15.9981L29.9144 14.3702L29.9134 14.3697C30.0678 14.1028 30.3163 13.9233 30.5931 13.849C30.8684 13.7753 31.1729 13.8067 31.4403 13.961L33.7882 15.3168C34.0865 15.0458 34.4104 14.803 34.7563 14.5926C35.1012 14.3828 35.4685 14.2043 35.8547 14.0615V11.2609C35.8547 10.9522 35.9808 10.6722 36.1833 10.4692C36.3863 10.2662 36.6665 10.141 36.9752 10.141ZM38.8852 11.141H36.9752C36.9428 11.141 36.913 11.1546 36.891 11.1766C36.869 11.1986 36.8554 11.2284 36.8554 11.2608V14.4183H36.8533C36.8533 14.6318 36.7146 14.8296 36.4996 14.895C36.0679 15.0263 35.6571 15.2121 35.2761 15.4444C34.89 15.6799 34.5357 15.9625 34.2222 16.2838C34.0674 16.4434 33.8183 16.4837 33.6168 16.3675L30.9842 14.8479C30.9643 14.839 30.945 14.8285 30.9261 14.8165C30.9026 14.8081 30.8759 14.8076 30.8508 14.8144C30.8251 14.8212 30.8016 14.8358 30.7854 14.8573C30.776 14.8751 30.765 14.8923 30.7529 14.9091L29.8367 16.4962C29.832 16.5057 29.8273 16.5151 29.8215 16.524C29.8058 16.5517 29.8027 16.5847 29.811 16.6155C29.8194 16.6459 29.8382 16.6731 29.8665 16.6893L32.588 18.2607C32.7806 18.3648 32.8884 18.5877 32.8371 18.8112C32.7916 19.0074 32.7571 19.2078 32.734 19.4119C32.7115 19.6087 32.7 19.8138 32.7 20.0262C32.7 20.2832 32.7168 20.5291 32.7492 20.7641C32.7827 21.0063 32.8329 21.246 32.8994 21.4815C32.9596 21.6955 32.8701 21.9315 32.6686 22.0482L29.9977 23.5904C29.9695 23.6066 29.9501 23.6338 29.9423 23.6641C29.9349 23.6913 29.936 23.7201 29.947 23.7458L29.9527 23.7557L30.9077 25.4098L30.9067 25.4104L30.9077 25.4119C30.9234 25.4386 30.9506 25.4575 30.9815 25.4658C31.0129 25.4742 31.0469 25.4716 31.0746 25.4554L33.8109 23.8756C33.9956 23.7694 34.2353 23.7908 34.3991 23.9436C34.7256 24.2492 35.0919 24.5145 35.4901 24.7327C35.8705 24.941 36.2808 25.1048 36.7141 25.2168C36.9438 25.2618 37.1175 25.4643 37.1175 25.7076V28.7918C37.1175 28.8242 37.1311 28.854 37.1531 28.876C37.1761 28.899 37.2065 28.9137 37.2373 28.9137V28.9116H39.1474C39.1798 28.9116 39.2096 28.898 39.2316 28.876C39.2536 28.854 39.2672 28.8242 39.2672 28.7918V25.6343H39.2693C39.2693 25.4208 39.4079 25.223 39.623 25.1576C40.0547 25.0263 40.4655 24.8405 40.8464 24.6082C41.2284 24.3753 41.579 24.0964 41.8899 23.7793C42.0448 23.6103 42.3012 23.5653 42.5073 23.6851L45.1797 25.2283L45.1792 25.2294C45.2069 25.2445 45.2399 25.2471 45.2713 25.2388C45.3027 25.2304 45.3299 25.2116 45.3451 25.1849L46.2849 23.5565C46.2896 23.547 46.2943 23.5376 46.3001 23.5287C46.3158 23.501 46.3189 23.468 46.3105 23.4372C46.3021 23.4068 46.2833 23.3796 46.2551 23.3634L43.533 21.792C43.3404 21.6879 43.2326 21.465 43.2839 21.2415C43.3294 21.0453 43.364 20.8449 43.387 20.6408C43.4095 20.444 43.421 20.2389 43.421 20.0265C43.421 19.7695 43.4043 19.5236 43.3718 19.2886C43.3383 19.0464 43.2881 18.8067 43.2216 18.5712C43.1615 18.3572 43.2509 18.1212 43.4524 18.0045L46.0934 16.4796C46.107 16.4702 46.1217 16.4618 46.1363 16.4535C46.1578 16.4372 46.1724 16.4137 46.1792 16.3881C46.186 16.3619 46.1855 16.3342 46.1751 16.3101C46.1641 16.2923 46.1541 16.274 46.1452 16.2546L45.2373 14.6822C45.2253 14.6654 45.2143 14.6482 45.2049 14.6299C45.1887 14.6084 45.1651 14.5938 45.1395 14.587C45.1133 14.5802 45.0856 14.5807 45.0615 14.5911C45.0437 14.6021 45.0254 14.6121 45.0061 14.621L42.3106 16.1772C42.1259 16.2834 41.8863 16.262 41.7225 16.1092C41.3959 15.8036 41.0296 15.5377 40.6314 15.3201C40.251 15.1118 39.8408 14.9485 39.4075 14.8365C39.1778 14.7915 39.004 14.589 39.004 14.3457V11.2615C39.004 11.2291 38.9904 11.1993 38.9684 11.1773C38.9465 11.1553 38.9166 11.1417 38.8842 11.1417L38.8852 11.141ZM38.0616 16.9661C38.9067 16.9661 39.6713 17.3089 40.2253 17.8625C40.7789 18.4161 41.1217 19.1812 41.1217 20.0262C41.1217 20.8713 40.7789 21.6359 40.2253 22.1894C39.6717 22.7429 38.9066 23.0858 38.0616 23.0858C37.2165 23.0858 36.4519 22.743 35.8984 22.1894C35.3448 21.6358 35.002 20.8707 35.002 20.0262C35.002 19.1811 35.3448 18.4166 35.8984 17.8625C36.452 17.3089 37.2171 16.9661 38.0616 16.9661ZM39.5179 18.5695C39.1453 18.1969 38.6304 17.9661 38.0616 17.9661C37.4928 17.9661 36.9779 18.1969 36.6053 18.5695C36.2327 18.9421 36.002 19.457 36.002 20.0258C36.002 20.5946 36.2327 21.1095 36.6053 21.4821C36.9779 21.8546 37.4928 22.0854 38.0616 22.0854C38.6304 22.0854 39.1453 21.8546 39.5179 21.4821C39.8904 21.1095 40.1212 20.5946 40.1212 20.0258C40.1212 19.457 39.8904 18.9421 39.5179 18.5695ZM24.2062 43.5986C24.0608 43.507 24.0168 43.3145 24.1084 43.169C24.1999 43.0235 24.3925 42.9796 24.538 43.0711C24.7928 43.2313 25.0665 43.3558 25.3543 43.4395C25.6311 43.5201 25.9242 43.563 26.2287 43.563C26.5333 43.563 26.8263 43.5201 27.1031 43.4395C27.3909 43.3558 27.6646 43.2307 27.9194 43.0711C28.0649 42.9796 28.2575 43.023 28.349 43.169C28.4406 43.3145 28.3972 43.507 28.2512 43.5986C27.9487 43.7886 27.6217 43.9372 27.2763 44.0382C26.9393 44.1365 26.5882 44.1889 26.2287 44.1889C25.8692 44.1889 25.5181 44.1365 25.1811 44.0382C24.8357 43.9377 24.5087 43.7885 24.2062 43.5986ZM26.2293 35.4411C25.0205 35.4411 23.9232 35.9895 23.1262 36.8759C22.3167 37.7765 21.8159 39.024 21.8159 40.4061C21.8159 41.3281 22.0378 42.1889 22.4251 42.9261C22.8243 43.6859 23.3973 44.316 24.0823 44.7461C24.4057 44.9491 24.7536 45.1082 25.1189 45.2144C25.4695 45.3165 25.8415 45.3709 26.2288 45.3709C27.4376 45.3709 28.5349 44.8225 29.3318 43.9361C30.1414 43.0355 30.6421 41.788 30.6421 40.4059C30.6421 39.0239 30.1413 37.7759 29.3318 36.8758C28.5349 35.9894 27.438 35.4411 26.2293 35.4411ZM53.9899 43.0711C54.1353 42.9795 54.3279 43.0229 54.4195 43.1689C54.511 43.3144 54.4676 43.507 54.3216 43.5985C54.0192 43.7885 53.6921 43.9371 53.3467 44.0381C53.0098 44.1365 52.6586 44.1888 52.2991 44.1888C51.9396 44.1888 51.5885 44.1365 51.2515 44.0381C50.9062 43.9376 50.5791 43.7885 50.2767 43.5985C50.1312 43.507 50.0872 43.3144 50.1788 43.1689C50.2704 43.0235 50.4629 42.9795 50.6084 43.0711C50.8632 43.2312 51.1369 43.3557 51.4247 43.4395C51.7016 43.52 51.9946 43.563 52.2991 43.563C52.6037 43.563 52.8967 43.52 53.1735 43.4395C53.4613 43.3557 53.735 43.2307 53.9899 43.0711ZM55.4022 36.8759C54.6052 35.9895 53.5079 35.4411 52.2991 35.4411C51.0904 35.4411 49.993 35.9895 49.1961 36.8759C48.3866 37.7765 47.8858 39.024 47.8858 40.4061C47.8858 41.7881 48.3866 43.0361 49.1961 43.9362C49.993 44.8226 51.0904 45.371 52.2991 45.371C52.6869 45.371 53.0584 45.3166 53.409 45.2146C53.7743 45.1083 54.1223 44.9498 54.4457 44.7462C55.1306 44.3161 55.7036 43.6861 56.1029 42.9262C56.4901 42.1889 56.712 41.3281 56.712 40.4062C56.712 39.0243 56.2117 37.776 55.4022 36.8759ZM41.193 46.0836C41.3385 45.992 41.5311 46.0354 41.6227 46.1814C41.7142 46.3269 41.6708 46.5195 41.5248 46.611C41.2223 46.801 40.8953 46.9496 40.5499 47.0506C40.2129 47.149 39.8618 47.2013 39.5023 47.2013C39.1428 47.2013 38.7917 47.149 38.4547 47.0506C38.1094 46.9501 37.7823 46.801 37.4798 46.611C37.3344 46.5195 37.2904 46.3269 37.382 46.1814C37.4736 46.036 37.6661 45.992 37.8116 46.0836C38.0664 46.2437 38.3401 46.3682 38.6279 46.452C38.9047 46.5325 39.1978 46.5755 39.5023 46.5755C39.8069 46.5755 40.0999 46.5325 40.3767 46.452C40.6645 46.3682 40.9382 46.2432 41.193 46.0836ZM42.6054 39.8884C41.8084 39.002 40.7111 38.4536 39.5023 38.4536C38.2936 38.4536 37.1962 39.002 36.3993 39.8884C35.5898 40.789 35.089 42.0365 35.089 43.4186C35.089 44.8005 35.5898 46.0486 36.3993 46.9487C37.1962 47.8351 38.2936 48.3835 39.5023 48.3835C39.8901 48.3835 40.2616 48.3291 40.6122 48.2271C40.9775 48.1208 41.3255 47.9623 41.6488 47.7587C42.3338 47.3286 42.9068 46.6986 43.3061 45.9387C43.6933 45.2014 43.9152 44.3406 43.9152 43.4187C43.9152 42.0368 43.4149 40.7885 42.6054 39.8884Z" fill="white"/>
<path d="M39.5022 37.4546C41.0066 37.4546 42.3662 38.1296 43.3473 39.2212C44.3159 40.2987 44.915 41.7832 44.915 43.4195C44.915 44.5053 44.6502 45.5252 44.1887 46.4043C43.7089 47.3185 43.014 48.0793 42.1798 48.6031C42.127 48.6361 42.0736 48.6685 42.0192 48.6999C42.2243 49.2933 42.4483 49.7214 42.7052 50.0332C42.9559 49.4943 43.2683 49.0667 43.7267 48.7345C44.2688 48.3415 44.9914 48.106 46.0348 48.004C46.1259 47.9951 46.2734 47.9815 46.4173 47.9679C48.1242 47.8088 49.0499 47.7224 49.7548 45.6722C49.2734 45.3891 48.8349 45.028 48.4534 44.6036C47.4848 43.5262 46.8857 42.0416 46.8857 40.4053C46.8857 38.769 47.4848 37.2845 48.4534 36.207C49.4346 35.1154 50.7941 34.4403 52.2985 34.4403C53.8028 34.4403 55.1624 35.1154 56.1435 36.207C57.1121 37.2845 57.7113 38.769 57.7113 40.4053C57.7113 41.4911 57.4465 42.511 56.9849 43.3901C56.5051 44.3043 55.8102 45.0651 54.9761 45.5889C54.9232 45.6219 54.8699 45.6543 54.8154 45.6857C55.5192 47.7223 56.4444 47.8087 58.1477 47.9672C58.2916 47.9808 58.4392 47.9944 58.5302 48.0033C59.9347 48.1404 60.7589 48.5182 61.3345 49.1932C61.8897 49.8442 62.1571 50.7149 62.4837 51.898C62.5569 52.1633 62.4015 52.438 62.1357 52.5113C61.8704 52.5846 61.5957 52.4292 61.5224 52.1633C61.2304 51.1063 60.997 50.3345 60.5763 49.8415C60.176 49.3721 59.5496 49.1042 58.436 48.9954C58.266 48.9786 58.1602 48.9687 58.0577 48.9593C55.9546 48.7636 54.8039 48.6563 53.9028 46.1016C53.8311 46.1262 53.7584 46.1493 53.6851 46.1707C53.2382 46.301 52.773 46.3701 52.2979 46.3701C51.7286 46.3701 51.1797 46.2733 50.6643 46.0938C49.7627 48.6563 48.6115 48.7636 46.5063 48.9599C46.4037 48.9693 46.298 48.9792 46.128 48.996C45.2761 49.0792 44.7083 49.255 44.3116 49.5428C43.9589 49.7987 43.7229 50.1634 43.523 50.6474C44.0154 50.8557 44.6094 50.9112 45.3509 50.9803C45.4948 50.9939 45.6424 51.0075 45.7334 51.0164C47.1379 51.1535 47.9621 51.5313 48.5378 52.2063C49.093 52.8573 49.3604 53.728 49.6869 54.9111C49.7601 55.1764 49.6047 55.4511 49.3389 55.5244C49.0736 55.5976 48.7989 55.4422 48.7256 55.1764C48.4336 54.1194 48.2002 53.3476 47.7795 52.8546C47.3792 52.3852 46.7528 52.1173 45.6392 52.0084C45.4692 51.9917 45.3635 51.9818 45.2609 51.9723C43.1579 51.7766 42.0071 51.6694 41.106 49.1147C41.0343 49.1393 40.9616 49.1623 40.8883 49.1838C40.4414 49.3141 39.9762 49.3831 39.5012 49.3831C38.9313 49.3831 38.3829 49.2863 37.8675 49.1069C36.9659 51.6694 35.8147 51.7767 33.7095 51.9729C33.607 51.9823 33.5013 51.9923 33.3312 52.009C32.2176 52.1179 31.5913 52.3858 31.1909 52.8552C30.7702 53.3486 30.5368 54.12 30.2448 55.177C30.1716 55.4423 29.8968 55.5982 29.6315 55.525C29.3662 55.4517 29.2103 55.177 29.2835 54.9117C29.6106 53.7285 29.878 52.8578 30.4327 52.2069C31.0083 51.5319 31.8324 51.1546 33.237 51.017C33.328 51.0081 33.4756 50.9945 33.6195 50.9809C34.1742 50.929 34.6462 50.8851 35.0549 50.7789C35.0528 50.7736 35.0502 50.7679 35.0481 50.7626C34.8388 50.221 34.5939 49.8186 34.214 49.5434C33.8173 49.2561 33.2496 49.0798 32.3976 48.9966C32.2275 48.9798 32.1218 48.9699 32.0193 48.9605C29.9141 48.7648 28.7628 48.657 27.8613 46.0944C27.3459 46.2739 26.7975 46.3707 26.2276 46.3707C25.752 46.3707 25.2873 46.3011 24.8405 46.1713C24.7672 46.1499 24.6945 46.1268 24.6228 46.1022C23.7217 48.6568 22.5705 48.7642 20.4679 48.9599C20.3653 48.9693 20.2596 48.9792 20.0896 48.996C18.976 49.1048 18.3497 49.3727 17.9493 49.8421C17.5286 50.3356 17.2952 51.1069 17.0032 52.1639C16.9299 52.4292 16.6552 52.5852 16.3899 52.5119C16.1246 52.4386 15.9687 52.1639 16.0419 51.8986C16.369 50.7155 16.6364 49.8447 17.191 49.1938C17.7667 48.5188 18.5908 48.1415 19.9954 48.0039C20.0864 47.995 20.234 47.9814 20.3779 47.9678C22.0812 47.8092 23.0063 47.7229 23.7102 45.6863C23.6563 45.6549 23.6029 45.623 23.5495 45.5895C22.7154 45.0657 22.0205 44.3049 21.5406 43.3907C21.0791 42.5116 20.8143 41.4911 20.8143 40.4059C20.8143 38.7696 21.4135 37.285 22.3821 36.2076C23.3632 35.116 24.7227 34.4409 26.2271 34.4409C27.7315 34.4409 29.091 35.116 30.0722 36.2076C31.0408 37.285 31.6399 38.7696 31.6399 40.4059C31.6399 42.0422 31.0407 43.5268 30.0722 44.6042C29.6907 45.0281 29.2527 45.3897 28.7708 45.6728C29.4756 47.723 30.4008 47.8093 32.1083 47.9684C32.2522 47.9821 32.3997 47.9957 32.4908 48.0046C33.5342 48.1066 34.2574 48.3421 34.7989 48.7351C35.3421 49.1286 35.6801 49.6566 35.9538 50.3453C36.3483 50.024 36.6702 49.5159 36.9554 48.6859C36.4739 48.4028 36.0354 48.0417 35.654 47.6173C34.6854 46.5399 34.0862 45.0554 34.0862 43.419C34.0862 41.7827 34.6854 40.2982 35.654 39.2207C36.6351 38.1292 37.9947 37.4541 39.499 37.4541L39.5022 37.4546ZM39.5022 3C49.1515 3 57.8816 6.91003 64.2032 13.2317C70.5275 19.5561 74.4417 28.2969 74.4542 37.9541C74.4594 42.1947 73.7321 46.2497 72.3647 50.0053C70.9644 53.8503 68.8932 57.3819 66.2511 60.4761C65.6148 61.2213 65.1188 61.8739 64.9079 62.5813C64.7038 63.2658 64.7593 64.047 65.2036 65.0947C65.7682 66.4254 66.9032 67.9048 67.9749 69.3018C68.9189 70.5326 69.8158 71.7016 70.2874 72.72C70.9006 74.0439 70.8478 75.1124 69.4831 75.744C68.4737 76.2113 62.0964 75.8 54.8024 75.0763C45.781 74.1814 35.2884 72.8251 31.9327 72.0841C24.0233 70.338 17.1207 65.9137 12.2245 59.8111C7.42134 53.8243 4.54736 46.2235 4.54736 37.9542C4.54736 28.3017 8.45994 19.5628 14.7854 13.2385C21.1109 6.91426 29.8492 3.00048 39.501 3.00048L39.5022 3ZM63.4958 13.9392C57.3551 7.79845 48.8754 4.00055 39.5022 4.00055C30.1261 4.00055 21.6373 7.80113 15.4926 13.9455C9.34821 20.0898 5.54763 28.5779 5.54763 37.9552C5.54763 45.9912 8.33775 53.374 13.0018 59.1878C17.7596 65.1183 24.4653 69.4169 32.1474 71.113C35.466 71.8456 45.9065 73.1935 54.8992 74.0853C62.0441 74.7938 68.2304 75.225 69.0642 74.8388C69.7471 74.5227 69.7392 73.9147 69.3797 73.1391C68.9548 72.2213 68.0903 71.0946 67.1803 69.9089C66.0736 68.4662 64.9014 66.9382 64.284 65.483C63.7377 64.1952 63.6801 63.201 63.9491 62.2973C64.2113 61.4166 64.7743 60.6689 65.4918 59.8284C68.0568 56.8248 70.0668 53.3973 71.4258 49.6664C72.7549 46.0165 73.4619 42.0756 73.4566 37.9553C73.4446 28.5775 69.6409 20.0863 63.495 13.9403L63.4958 13.9392ZM25.3159 33.3138C25.0966 33.4813 24.7837 33.4389 24.6162 33.2202C24.4488 33.0009 24.4912 32.688 24.7099 32.5205C25.0741 32.2432 25.3949 31.9266 25.6685 31.5802C25.9459 31.2286 26.1787 30.8403 26.3619 30.4269C26.4529 30.2202 26.6664 30.1061 26.8794 30.1323L30.0008 30.5127C30.0082 30.5132 30.0155 30.5143 30.0223 30.5153C30.0537 30.5174 30.0825 30.508 30.105 30.4907C30.1269 30.4735 30.1432 30.4478 30.1484 30.417C30.1494 30.4091 30.1505 30.4013 30.1515 30.3934L30.3792 28.5284C30.3797 28.5211 30.3807 28.5138 30.3818 28.507C30.3839 28.4756 30.3744 28.4468 30.3572 28.4243C30.3399 28.4023 30.3143 28.3866 30.2834 28.3808C30.2755 28.3798 30.2677 28.3788 30.2598 28.3777L27.2153 28.0062C26.9699 27.9764 26.7878 27.7728 26.7763 27.5342C26.7465 27.3149 26.6999 27.0873 26.6361 26.8539C26.5712 26.6148 26.4911 26.3819 26.3954 26.1569C26.3137 25.9649 26.2232 25.7812 26.1243 25.6069C26.0207 25.4238 25.9103 25.2522 25.7946 25.0931C25.6628 24.912 25.6711 24.6719 25.7988 24.5013L27.6973 21.9785C27.7172 21.9524 27.724 21.9189 27.7193 21.8864C27.7151 21.8555 27.6994 21.8268 27.6743 21.8079L26.1478 20.6593C26.1216 20.64 26.0881 20.6326 26.0557 20.6373C26.0248 20.6415 25.9961 20.6572 25.9772 20.6823L24.1216 23.148C23.9819 23.3343 23.7375 23.3945 23.5319 23.3092L23.5313 23.3102C23.1164 23.137 22.68 23.0151 22.232 22.9497C21.7909 22.8853 21.3404 22.8749 20.8903 22.9235C20.6621 22.9476 20.4534 22.8142 20.3733 22.6106L19.143 19.7173C19.13 19.687 19.1059 19.6645 19.0776 19.653C19.0478 19.6409 19.0143 19.6399 18.9845 19.653L18.0044 20.07C17.7506 20.1778 17.4581 20.0601 17.3498 19.8063C17.242 19.5525 17.3597 19.26 17.6135 19.1517L18.5936 18.7346C18.8772 18.6137 19.1839 18.62 19.4487 18.7268C19.715 18.834 19.9405 19.0428 20.0614 19.3259L21.1566 21.9016C21.5679 21.8817 21.9766 21.9021 22.3769 21.9607C22.7773 22.0193 23.1708 22.1161 23.5512 22.2485L25.1535 20.1192C25.1713 20.0904 25.1927 20.0632 25.2168 20.0376C25.4005 19.8183 25.6532 19.6859 25.919 19.6483C26.1833 19.6111 26.4617 19.6681 26.6982 19.8277C26.7275 19.8445 26.7552 19.8649 26.7809 19.8884L28.2717 21.0104C28.5187 21.1961 28.6673 21.4656 28.7076 21.7492C28.7474 22.0313 28.6794 22.3295 28.4941 22.576L26.8102 24.8141C26.8741 24.913 26.9348 25.0135 26.9918 25.1145C27.1106 25.3243 27.2184 25.542 27.3136 25.7659C27.4314 26.0428 27.5271 26.3185 27.6014 26.5917C27.6428 26.744 27.6789 26.9004 27.7087 27.059L30.3978 27.3871C30.7024 27.4242 30.9651 27.5838 31.1425 27.8104C31.3193 28.0365 31.4109 28.3295 31.3737 28.6341L31.1425 30.5304C31.1053 30.8355 30.9457 31.0976 30.7191 31.275C30.4925 31.4519 30.2 31.5435 29.8955 31.5063L27.1153 31.1667C26.9295 31.5273 26.7071 31.8726 26.4512 32.1965C26.1237 32.612 25.7438 32.9883 25.3167 33.3127L25.3159 33.3138ZM20.6545 26.3584C20.1306 26.5813 19.7471 26.9947 19.5503 27.4829C19.353 27.9727 19.3421 28.5373 19.565 29.0611C19.7879 29.5849 20.2013 29.9684 20.6895 30.1657C21.1793 30.363 21.7439 30.374 22.2677 30.1511C22.7915 29.9281 23.1751 29.5148 23.3723 29.0265C23.5696 28.5368 23.5806 27.9721 23.3577 27.4484C23.1348 26.9245 22.7214 26.541 22.2332 26.3442C21.7434 26.1469 21.1782 26.1354 20.6545 26.3584ZM18.6242 27.1119C18.9125 26.3966 19.4698 25.7896 20.2286 25.4557C20.2516 25.4437 20.2757 25.4332 20.3003 25.4254C21.0669 25.1109 21.8895 25.1303 22.6037 25.4181C23.319 25.7064 23.9261 26.2637 24.2599 27.0225C24.2719 27.0455 24.2824 27.0696 24.2902 27.0942C24.6047 27.8608 24.5854 28.6834 24.2976 29.3976C24.0045 30.124 23.4347 30.7388 22.6581 31.0691C21.8811 31.3998 21.0438 31.3841 20.318 31.0916C19.5912 30.7985 18.9768 30.2287 18.6462 29.4516C18.3155 28.6745 18.3316 27.8377 18.6242 27.1119ZM51.439 32.5211C51.6583 32.6885 51.7001 33.0014 51.5327 33.2207C51.3652 33.44 51.0523 33.4818 50.8331 33.3144C50.4066 32.9899 50.0267 32.6137 49.6986 32.1982C49.4427 31.8738 49.2208 31.5289 49.0345 31.1684L46.2543 31.508C45.9498 31.5452 45.6567 31.4536 45.4307 31.2767C45.2041 31.0993 45.0445 30.8366 45.0073 30.5321L44.7761 28.6357C44.7389 28.3312 44.8305 28.0382 45.0073 27.8121C45.1847 27.5855 45.4474 27.4259 45.752 27.3888L48.4411 27.0607C48.4709 26.9016 48.507 26.7456 48.5484 26.5934C48.6227 26.3202 48.7184 26.0444 48.8362 25.7676C48.9314 25.5437 49.0392 25.326 49.158 25.1161C49.2155 25.0146 49.2762 24.9147 49.3396 24.8158L47.6557 22.5777C47.4704 22.3312 47.4024 22.033 47.4422 21.7509C47.4825 21.4673 47.6306 21.1978 47.8781 21.012L49.3689 19.8901C49.3951 19.8666 49.4228 19.8467 49.4516 19.8294C49.6881 19.6698 49.9665 19.6123 50.2308 19.6499C50.4961 19.6876 50.7488 19.82 50.933 20.0393C50.9571 20.0649 50.9785 20.0921 50.9963 20.1209L52.5986 22.2502C52.979 22.1178 53.3725 22.021 53.7729 21.9624C54.1732 21.9038 54.5819 21.8834 54.9932 21.9033L56.0884 19.3276C56.2087 19.044 56.4348 18.8357 56.7011 18.7284C56.9665 18.6217 57.2726 18.6154 57.5562 18.7363L58.5363 19.1534C58.7901 19.2611 58.9078 19.5542 58.8 19.808C58.6922 20.0618 58.3992 20.1795 58.1454 20.0717L57.1653 19.6547C57.135 19.6416 57.1015 19.6426 57.0722 19.6547C57.0439 19.6662 57.0193 19.6887 57.0068 19.719L55.7765 22.6123C55.6965 22.8158 55.4877 22.9498 55.2595 22.9252C54.8095 22.8771 54.3589 22.887 53.9178 22.9514C53.4698 23.0168 53.0334 23.1387 52.6185 23.3119L52.6179 23.3109C52.4128 23.3962 52.1679 23.3355 52.0282 23.1497L50.1726 20.684C50.1537 20.6589 50.125 20.6432 50.0941 20.639C50.0616 20.6343 50.0282 20.6411 50.002 20.661L48.4755 21.8096C48.4504 21.8284 48.4347 21.8572 48.4305 21.8881C48.4258 21.9205 48.4331 21.954 48.4525 21.9802L50.351 24.5029C50.4787 24.6735 50.487 24.9137 50.3552 25.0948C50.2395 25.2538 50.1291 25.425 50.0255 25.6086C49.9266 25.7829 49.8361 25.9666 49.7544 26.1586C49.6587 26.3836 49.5786 26.6165 49.5137 26.8556C49.4499 27.0895 49.4038 27.3166 49.3735 27.5359C49.3625 27.775 49.1804 27.978 48.9345 28.0079L45.89 28.3794C45.8821 28.3804 45.8743 28.3815 45.8664 28.3825C45.8355 28.3878 45.8099 28.404 45.7926 28.426C45.7754 28.4485 45.7659 28.4772 45.7675 28.5086C45.7686 28.516 45.7691 28.5228 45.7701 28.5301L45.9977 30.3951C45.9988 30.4029 45.9998 30.4108 46.0009 30.4186C46.0061 30.4495 46.0223 30.4752 46.0443 30.4924C46.0668 30.5097 46.0956 30.5191 46.127 30.517C46.1343 30.516 46.1411 30.5154 46.1485 30.5144L49.2699 30.1334C49.4828 30.1073 49.6969 30.2219 49.7874 30.4286C49.9705 30.842 50.2029 31.2302 50.4802 31.5819C50.7534 31.9283 51.0747 32.2454 51.4389 32.5222L51.439 32.5211ZM55.8853 25.4406C56.6624 25.7713 57.2317 26.3857 57.5247 27.112C57.8125 27.8263 57.8324 28.6484 57.5174 29.4155C57.509 29.4406 57.4985 29.4647 57.487 29.4872C57.1532 30.2459 56.5462 30.8032 55.8309 31.0916C55.1166 31.3794 54.2945 31.3993 53.5274 31.0843C53.5023 31.0759 53.4788 31.0654 53.4557 31.0539C52.697 30.7201 52.1397 30.1131 51.8513 29.3978C51.5588 28.6725 51.5431 27.8353 51.8738 27.0576C52.2045 26.2805 52.8189 25.7107 53.5456 25.4177C54.2709 25.1252 55.1077 25.1099 55.8853 25.4406ZM56.5991 27.4835C56.4023 26.9953 56.0182 26.5814 55.4944 26.359C54.9706 26.136 54.406 26.147 53.9162 26.3443C53.428 26.5411 53.0141 26.9251 52.7917 27.449C52.5688 27.9728 52.5798 28.5374 52.777 29.0271C52.9738 29.5154 53.3573 29.9288 53.8812 30.1517C54.405 30.3746 54.9701 30.3636 55.4599 30.1663C55.9481 29.9696 56.3615 29.5855 56.5844 29.0622C56.8073 28.5384 56.7963 27.9733 56.5991 27.4835ZM36.9752 10.141H38.8852C39.194 10.141 39.4739 10.2671 39.677 10.4696C39.88 10.6727 40.0056 10.9526 40.0056 11.2614V13.9699C40.3897 14.0934 40.7586 14.253 41.1092 14.4445C41.4692 14.6418 41.8093 14.8736 42.1238 15.1352L44.5497 13.735L44.5492 13.7339C44.8171 13.579 45.1222 13.5476 45.3985 13.6219C45.6753 13.6962 45.9238 13.8757 46.0782 14.1426C46.0834 14.152 46.0887 14.1609 46.0934 14.1703L47.0327 15.7973L47.0337 15.7968C47.1886 16.0647 47.2195 16.3697 47.1457 16.646C47.0714 16.9228 46.8919 17.1714 46.625 17.3258L44.2786 18.6805C44.3121 18.8359 44.3398 18.9945 44.3618 19.1557C44.4016 19.4466 44.4225 19.7376 44.4225 20.0264C44.4225 20.2661 44.4084 20.5078 44.3806 20.7501C44.3675 20.8673 44.3508 20.984 44.3309 21.0996L46.7239 22.481C46.749 22.4931 46.7725 22.5072 46.795 22.5229C47.0404 22.6783 47.2058 22.9159 47.2764 23.1786C47.3466 23.4397 47.322 23.727 47.1885 23.9839C47.1754 24.0132 47.1592 24.0409 47.1404 24.0671L46.2095 25.6798C46.0546 25.9483 45.8055 26.1288 45.5297 26.2026C45.2545 26.2764 44.9499 26.245 44.6825 26.0906L44.681 26.0896L44.6804 26.0906L42.3335 24.7359C42.0352 25.0064 41.7113 25.2492 41.3664 25.4596C41.0216 25.6694 40.6542 25.8484 40.2681 25.9907V28.7907C40.2681 29.0995 40.142 29.3794 39.9394 29.5825C39.7364 29.7855 39.4565 29.9111 39.1477 29.9111H37.2377V29.909C36.9279 29.909 36.648 29.7839 36.446 29.5825C36.243 29.3794 36.1174 29.0995 36.1174 28.7907V26.0822C35.7333 25.9587 35.3638 25.7991 35.0138 25.607C34.6537 25.4098 34.3141 25.178 33.9991 24.9163L31.613 26.2941C31.5832 26.3156 31.5513 26.3328 31.5183 26.347C31.2645 26.4762 30.9814 26.4987 30.7245 26.4302C30.4676 26.3611 30.2342 26.2004 30.0782 25.9618C30.0584 25.9357 30.0411 25.9074 30.027 25.8786L29.0898 24.2554C29.083 24.2434 29.0762 24.2308 29.0704 24.2183C28.9328 23.9592 28.9071 23.6693 28.9778 23.4061C29.0521 23.1293 29.2316 22.8808 29.4984 22.7264L31.8449 21.3717C31.8114 21.2162 31.7837 21.0577 31.7617 20.8965C31.7219 20.6056 31.701 20.3146 31.701 20.0258C31.701 19.7861 31.7151 19.5443 31.7428 19.3021C31.7559 19.1849 31.7727 19.0682 31.7926 18.9525L29.3676 17.5528C29.1007 17.3984 28.9213 17.1498 28.8469 16.873C28.7732 16.5967 28.8046 16.2917 28.9589 16.0238C28.9642 16.0149 28.9694 16.0065 28.9746 15.9981L29.9144 14.3702L29.9134 14.3697C30.0678 14.1028 30.3163 13.9233 30.5931 13.849C30.8684 13.7753 31.1729 13.8067 31.4403 13.961L33.7882 15.3168C34.0865 15.0458 34.4104 14.803 34.7563 14.5926C35.1012 14.3828 35.4685 14.2043 35.8547 14.0615V11.2609C35.8547 10.9522 35.9808 10.6722 36.1833 10.4692C36.3863 10.2662 36.6665 10.141 36.9752 10.141ZM38.8852 11.141H36.9752C36.9428 11.141 36.913 11.1546 36.891 11.1766C36.869 11.1986 36.8554 11.2284 36.8554 11.2608V14.4183H36.8533C36.8533 14.6318 36.7146 14.8296 36.4996 14.895C36.0679 15.0263 35.6571 15.2121 35.2761 15.4444C34.89 15.6799 34.5357 15.9625 34.2222 16.2838C34.0674 16.4434 33.8183 16.4837 33.6168 16.3675L30.9842 14.8479C30.9643 14.839 30.945 14.8285 30.9261 14.8165C30.9026 14.8081 30.8759 14.8076 30.8508 14.8144C30.8251 14.8212 30.8016 14.8358 30.7854 14.8573C30.776 14.8751 30.765 14.8923 30.7529 14.9091L29.8367 16.4962C29.832 16.5057 29.8273 16.5151 29.8215 16.524C29.8058 16.5517 29.8027 16.5847 29.811 16.6155C29.8194 16.6459 29.8382 16.6731 29.8665 16.6893L32.588 18.2607C32.7806 18.3648 32.8884 18.5877 32.8371 18.8112C32.7916 19.0074 32.7571 19.2078 32.734 19.4119C32.7115 19.6087 32.7 19.8138 32.7 20.0262C32.7 20.2832 32.7168 20.5291 32.7492 20.7641C32.7827 21.0063 32.8329 21.246 32.8994 21.4815C32.9596 21.6955 32.8701 21.9315 32.6686 22.0482L29.9977 23.5904C29.9695 23.6066 29.9501 23.6338 29.9423 23.6641C29.9349 23.6913 29.936 23.7201 29.947 23.7458L29.9527 23.7557L30.9077 25.4098L30.9067 25.4104L30.9077 25.4119C30.9234 25.4386 30.9506 25.4575 30.9815 25.4658C31.0129 25.4742 31.0469 25.4716 31.0746 25.4554L33.8109 23.8756C33.9956 23.7694 34.2353 23.7908 34.3991 23.9436C34.7256 24.2492 35.0919 24.5145 35.4901 24.7327C35.8705 24.941 36.2808 25.1048 36.7141 25.2168C36.9438 25.2618 37.1175 25.4643 37.1175 25.7076V28.7918C37.1175 28.8242 37.1311 28.854 37.1531 28.876C37.1761 28.899 37.2065 28.9137 37.2373 28.9137V28.9116H39.1474C39.1798 28.9116 39.2096 28.898 39.2316 28.876C39.2536 28.854 39.2672 28.8242 39.2672 28.7918V25.6343H39.2693C39.2693 25.4208 39.4079 25.223 39.623 25.1576C40.0547 25.0263 40.4655 24.8405 40.8464 24.6082C41.2284 24.3753 41.579 24.0964 41.8899 23.7793C42.0448 23.6103 42.3012 23.5653 42.5073 23.6851L45.1797 25.2283L45.1792 25.2294C45.2069 25.2445 45.2399 25.2471 45.2713 25.2388C45.3027 25.2304 45.3299 25.2116 45.3451 25.1849L46.2849 23.5565C46.2896 23.547 46.2943 23.5376 46.3001 23.5287C46.3158 23.501 46.3189 23.468 46.3105 23.4372C46.3021 23.4068 46.2833 23.3796 46.2551 23.3634L43.533 21.792C43.3404 21.6879 43.2326 21.465 43.2839 21.2415C43.3294 21.0453 43.364 20.8449 43.387 20.6408C43.4095 20.444 43.421 20.2389 43.421 20.0265C43.421 19.7695 43.4043 19.5236 43.3718 19.2886C43.3383 19.0464 43.2881 18.8067 43.2216 18.5712C43.1615 18.3572 43.2509 18.1212 43.4524 18.0045L46.0934 16.4796C46.107 16.4702 46.1217 16.4618 46.1363 16.4535C46.1578 16.4372 46.1724 16.4137 46.1792 16.3881C46.186 16.3619 46.1855 16.3342 46.1751 16.3101C46.1641 16.2923 46.1541 16.274 46.1452 16.2546L45.2373 14.6822C45.2253 14.6654 45.2143 14.6482 45.2049 14.6299C45.1887 14.6084 45.1651 14.5938 45.1395 14.587C45.1133 14.5802 45.0856 14.5807 45.0615 14.5911C45.0437 14.6021 45.0254 14.6121 45.0061 14.621L42.3106 16.1772C42.1259 16.2834 41.8863 16.262 41.7225 16.1092C41.3959 15.8036 41.0296 15.5377 40.6314 15.3201C40.251 15.1118 39.8408 14.9485 39.4075 14.8365C39.1778 14.7915 39.004 14.589 39.004 14.3457V11.2615C39.004 11.2291 38.9904 11.1993 38.9684 11.1773C38.9465 11.1553 38.9166 11.1417 38.8842 11.1417L38.8852 11.141ZM38.0616 16.9661C38.9067 16.9661 39.6713 17.3089 40.2253 17.8625C40.7789 18.4161 41.1217 19.1812 41.1217 20.0262C41.1217 20.8713 40.7789 21.6359 40.2253 22.1894C39.6717 22.7429 38.9066 23.0858 38.0616 23.0858C37.2165 23.0858 36.4519 22.743 35.8984 22.1894C35.3448 21.6358 35.002 20.8707 35.002 20.0262C35.002 19.1811 35.3448 18.4166 35.8984 17.8625C36.452 17.3089 37.2171 16.9661 38.0616 16.9661ZM39.5179 18.5695C39.1453 18.1969 38.6304 17.9661 38.0616 17.9661C37.4928 17.9661 36.9779 18.1969 36.6053 18.5695C36.2327 18.9421 36.002 19.457 36.002 20.0258C36.002 20.5946 36.2327 21.1095 36.6053 21.4821C36.9779 21.8546 37.4928 22.0854 38.0616 22.0854C38.6304 22.0854 39.1453 21.8546 39.5179 21.4821C39.8904 21.1095 40.1212 20.5946 40.1212 20.0258C40.1212 19.457 39.8904 18.9421 39.5179 18.5695ZM24.2062 43.5986C24.0608 43.507 24.0168 43.3145 24.1084 43.169C24.1999 43.0235 24.3925 42.9796 24.538 43.0711C24.7928 43.2313 25.0665 43.3558 25.3543 43.4395C25.6311 43.5201 25.9242 43.563 26.2287 43.563C26.5333 43.563 26.8263 43.5201 27.1031 43.4395C27.3909 43.3558 27.6646 43.2307 27.9194 43.0711C28.0649 42.9796 28.2575 43.023 28.349 43.169C28.4406 43.3145 28.3972 43.507 28.2512 43.5986C27.9487 43.7886 27.6217 43.9372 27.2763 44.0382C26.9393 44.1365 26.5882 44.1889 26.2287 44.1889C25.8692 44.1889 25.5181 44.1365 25.1811 44.0382C24.8357 43.9377 24.5087 43.7885 24.2062 43.5986ZM26.2293 35.4411C25.0205 35.4411 23.9232 35.9895 23.1262 36.8759C22.3167 37.7765 21.8159 39.024 21.8159 40.4061C21.8159 41.3281 22.0378 42.1889 22.4251 42.9261C22.8243 43.6859 23.3973 44.316 24.0823 44.7461C24.4057 44.9491 24.7536 45.1082 25.1189 45.2144C25.4695 45.3165 25.8415 45.3709 26.2288 45.3709C27.4376 45.3709 28.5349 44.8225 29.3318 43.9361C30.1414 43.0355 30.6421 41.788 30.6421 40.4059C30.6421 39.0239 30.1413 37.7759 29.3318 36.8758C28.5349 35.9894 27.438 35.4411 26.2293 35.4411ZM53.9899 43.0711C54.1353 42.9795 54.3279 43.0229 54.4195 43.1689C54.511 43.3144 54.4676 43.507 54.3216 43.5985C54.0192 43.7885 53.6921 43.9371 53.3467 44.0381C53.0098 44.1365 52.6586 44.1888 52.2991 44.1888C51.9396 44.1888 51.5885 44.1365 51.2515 44.0381C50.9062 43.9376 50.5791 43.7885 50.2767 43.5985C50.1312 43.507 50.0872 43.3144 50.1788 43.1689C50.2704 43.0235 50.4629 42.9795 50.6084 43.0711C50.8632 43.2312 51.1369 43.3557 51.4247 43.4395C51.7016 43.52 51.9946 43.563 52.2991 43.563C52.6037 43.563 52.8967 43.52 53.1735 43.4395C53.4613 43.3557 53.735 43.2307 53.9899 43.0711ZM55.4022 36.8759C54.6052 35.9895 53.5079 35.4411 52.2991 35.4411C51.0904 35.4411 49.993 35.9895 49.1961 36.8759C48.3866 37.7765 47.8858 39.024 47.8858 40.4061C47.8858 41.7881 48.3866 43.0361 49.1961 43.9362C49.993 44.8226 51.0904 45.371 52.2991 45.371C52.6869 45.371 53.0584 45.3166 53.409 45.2146C53.7743 45.1083 54.1223 44.9498 54.4457 44.7462C55.1306 44.3161 55.7036 43.6861 56.1029 42.9262C56.4901 42.1889 56.712 41.3281 56.712 40.4062C56.712 39.0243 56.2117 37.776 55.4022 36.8759ZM41.193 46.0836C41.3385 45.992 41.5311 46.0354 41.6227 46.1814C41.7142 46.3269 41.6708 46.5195 41.5248 46.611C41.2223 46.801 40.8953 46.9496 40.5499 47.0506C40.2129 47.149 39.8618 47.2013 39.5023 47.2013C39.1428 47.2013 38.7917 47.149 38.4547 47.0506C38.1094 46.9501 37.7823 46.801 37.4798 46.611C37.3344 46.5195 37.2904 46.3269 37.382 46.1814C37.4736 46.036 37.6661 45.992 37.8116 46.0836C38.0664 46.2437 38.3401 46.3682 38.6279 46.452C38.9047 46.5325 39.1978 46.5755 39.5023 46.5755C39.8069 46.5755 40.0999 46.5325 40.3767 46.452C40.6645 46.3682 40.9382 46.2432 41.193 46.0836ZM42.6054 39.8884C41.8084 39.002 40.7111 38.4536 39.5023 38.4536C38.2936 38.4536 37.1962 39.002 36.3993 39.8884C35.5898 40.789 35.089 42.0365 35.089 43.4186C35.089 44.8005 35.5898 46.0486 36.3993 46.9487C37.1962 47.8351 38.2936 48.3835 39.5023 48.3835C39.8901 48.3835 40.2616 48.3291 40.6122 48.2271C40.9775 48.1208 41.3255 47.9623 41.6488 47.7587C42.3338 47.3286 42.9068 46.6986 43.3061 45.9387C43.6933 45.2014 43.9152 44.3406 43.9152 43.4187C43.9152 42.0368 43.4149 40.7885 42.6054 39.8884Z" stroke="white" stroke-width="0.4" mask="url(#path-1-outside-1_16_1912)"/>
<path d="M2.00419 77.0916H2.10419V76.9916V76.9895H2.10209V76.9874H2.1H2.00419V76.8916V76.8874H2.00209H2H1.90209H1.9V76.9874V76.9895V76.9916V77.0916H1.90209H2H2.00209H2.00419Z" fill="white" stroke="white" stroke-width="0.2"/>
<path d="M2.00698 77.0916H2.10698V76.9916V76.9895V76.9874V76.8874H2.00698H2.00488H1.90488V76.9874V76.9916V77.0916H2.00488H2.00698Z" fill="white" stroke="white" stroke-width="0.2"/>
<path d="M2.112 76.9895V76.8895H2.10991V76.746L1.96639 76.8895H1.90991V76.946L1.90781 76.9481V76.9895V76.9916V77.0916H1.90991H2.00781H2.00991H2.012H2.112V76.9916V76.9895Z" fill="white" stroke="white" stroke-width="0.2"/>
<path d="M2.11639 76.9895V76.8895H2.1143V76.8874H2.0143H2.01221H1.91221V76.8895V76.9874V76.9895V76.9916V77.0895V77.0916H2.01221H2.0143H2.01639H2.11639V76.9916V76.9895Z" fill="white" stroke="white" stroke-width="0.2"/>
<path d="M2.11772 76.9874V76.8874H2.01772H2.01562H1.91562V76.9874V76.9895V76.9916V77.0916H2.01562H2.01772H2.11772V76.9916V76.9895V76.9874Z" fill="white" stroke="white" stroke-width="0.2"/>
<path d="M2.12372 76.9895V76.8895H2.12162V76.746L1.97811 76.8895H1.92162V76.946L1.91953 76.9481V76.9895V76.9916V77.0916H1.92162H2.01953H2.02162H2.02372H2.12372V76.9916V76.9895Z" fill="white" stroke="white" stroke-width="0.2"/>
<path d="M2.12553 76.8874V76.746L1.98411 76.8874H1.92553V76.946L1.92344 76.9481V76.9895V76.9916V77.0916H2.02344H2.02553H2.02762H2.12762V76.9916V76.9874V76.8874H2.12553Z" fill="white" stroke="white" stroke-width="0.2"/>
<path d="M1.93139 76.8874H1.9293V76.9874V76.9916V77.0916H2.0293H2.03139H2.03348H2.13348V76.9916V76.9895C2.13348 76.9822 2.13273 76.9753 2.13139 76.9688V76.8874H2.03139H2.0293H1.93139ZM2.0293 76.9916V77.0873C1.99836 77.0867 1.97546 77.0721 1.96212 77.0587C1.94878 77.0454 1.93414 77.0225 1.9335 76.9916H2.0293Z" fill="white" stroke="white" stroke-width="0.2"/>
<path d="M1.93676 76.8874H1.87286L1.93467 77.011V77.0936H2.03467H2.03676H2.13676V77.0916H2.19856L2.14856 76.9916L2.20066 76.8874H2.13676H2.03885H2.03676H2.03467H1.93676Z" fill="white" stroke="white" stroke-width="0.2"/>
<path d="M1.94311 76.8874H1.94102V76.9874V76.9895V76.9916V77.0916H1.94311H2.04102H2.04311H2.0452H2.1452V76.9916V76.9895V76.9874V76.8874H2.0452H2.04311H2.04102H1.94311Z" fill="white" stroke="white" stroke-width="0.2"/>
<path d="M2.0459 76.8874H1.9459V76.9874V76.9916V77.0916H2.0459H2.04799H2.14799V76.9916V76.9874V76.8874H2.04799H2.0459Z" fill="white" stroke="white" stroke-width="0.2"/>
<path d="M2.15253 76.9895V76.8895H2.15043V76.7459L2.00692 76.8895H1.95043V76.9459L1.94834 76.948V76.9895V76.9916V77.0916H1.95043H2.04834H2.05043H2.05253H2.15253V76.9916V76.9895Z" fill="white" stroke="white" stroke-width="0.2"/>
<path d="M2.15385 77.0916H2.15594V76.9916V76.9895C2.15594 76.9822 2.15519 76.9753 2.15385 76.9688V76.8874H2.05385H2.05176H1.95385H1.95176V76.9874V76.9916V77.0916H1.95385H2.05176H2.05385H2.05594H2.15385Z" fill="white" stroke="white" stroke-width="0.2"/>
<path d="M2.16132 76.9895V76.8895H2.15922V76.8874H2.05922H2.05713H1.95713V76.8895V76.9874V76.9895V76.9916V77.0895V77.0916H2.05713H2.05922H2.06132H2.16132V76.9916V76.9895Z" fill="white" stroke="white" stroke-width="0.2"/>
<path d="M2.06348 76.8874H1.96348V76.9874V76.9916V77.0916H2.06348H2.06557H2.16557V77.0895H2.16766V76.9895V76.9874V76.8874H2.06766H2.06557H2.06348Z" fill="white" stroke="white" stroke-width="0.2"/>
<path d="M2.17206 76.9895V76.8895H2.16996V76.8874H2.06996H2.06787H1.96787V76.8895V76.9874V76.9895V76.9916V77.0895V77.0916H2.06787H2.06996H2.07206H2.17206V76.9916V76.9895Z" fill="white" stroke="white" stroke-width="0.2"/>
<path d="M2.17436 77.0916H2.17645V76.9916V76.9895C2.17645 76.9822 2.17569 76.9753 2.17436 76.9689V76.8874H2.07436H2.07227H1.97436H1.97227V76.9874V76.9916V77.0916H1.97436H2.07227H2.07436H2.07645H2.17436Z" fill="white" stroke="white" stroke-width="0.2"/>
<path d="M2.18085 76.9895V76.8895H2.17875V76.8874H2.07875H2.07666H1.97666V76.8895V76.9874V76.9895V76.9916V77.0895V77.0916H2.07666H2.07875H2.08085H2.18085V76.9916V76.9895Z" fill="white" stroke="white" stroke-width="0.2"/>
<path d="M2.18524 76.9874V76.8874H2.08524H2.08315H2.04173L2.01244 76.9167L2.01034 76.9187L1.83963 77.0895H2.08105V77.0916H2.08315H2.08524H2.18315H2.18524V77.0895V76.9916V76.9895V76.9874ZM2.08105 77.0894C2.05012 77.0888 2.02722 77.0742 2.01388 77.0608C2.00023 77.0472 1.98524 77.0236 1.98524 76.9916H2.08105V77.0894Z" fill="white" stroke="white" stroke-width="0.2"/>
<path d="M2.18657 76.8895V76.7459L2.01586 76.9167L2.01376 76.9187L1.98447 76.948V76.9895V76.9916V77.0916H2.08447H2.08657C2.10194 77.0916 2.12804 77.0879 2.15202 77.0679C2.17921 77.0453 2.18866 77.0143 2.18866 76.9895V76.8895H2.18657ZM2.02399 76.9143C2.04609 76.8959 2.06988 76.8919 2.08447 76.8916V76.9853V76.9874H2.08238H1.98868C1.98915 76.9669 1.99651 76.9417 2.01635 76.9213C2.01703 76.9206 2.01773 76.9199 2.01845 76.9192C2.0202 76.9175 2.02205 76.9159 2.02399 76.9143Z" fill="white" stroke="white" stroke-width="0.2"/>
<path d="M1.99096 76.8874H1.92706L1.99942 77.0321L2.00152 77.0363L2.09096 77.2152L2.1804 77.0363L2.1825 77.0321L2.25486 76.8874H2.19096H2.09305H2.09096H2.08887H1.99096Z" fill="white" stroke="white" stroke-width="0.2"/>
<path d="M2.19696 76.9874V76.8874H2.09696H2.09487H2.05345L2.02416 76.9167L2.02206 76.9188L1.85135 77.0895H2.09277V77.0916H2.09487H2.09696H2.19487H2.19696V77.0895V76.9916V76.9895V76.9874ZM2.09277 77.0895C2.06184 77.0889 2.03894 77.0742 2.02559 77.0609C2.01195 77.0472 1.99696 77.0236 1.99696 76.9916H2.09277V77.0895Z" fill="white" stroke="white" stroke-width="0.2"/>
<path d="M1.99877 76.8874H1.99668V76.9502L1.95735 76.9895L1.99668 77.0288V77.0916H1.99877H2.09668H2.09877H2.10087H2.19877H2.34229L2.24019 76.9895L2.34229 76.8874H2.19877H2.10087H2.09877H2.09668H1.99877Z" fill="white" stroke="white" stroke-width="0.2"/>
<path d="M2.20477 76.9895V76.8895H2.20268V76.8874H2.10268H2.10059H2.00059V76.8895V76.9874V76.9895V76.9916V77.0895V77.0916H2.10059H2.10268H2.10477H2.20477V76.9916V76.9895Z" fill="white" stroke="white" stroke-width="0.2"/>
<path d="M2.10209 76.9937V76.8937H2.00209H2H1.9V76.9937V76.9979V77.0979H2H2.00209H2.10209V76.9979V76.9937Z" fill="white" stroke="white" stroke-width="0.2"/>
<path d="M2.00453 77.098H2.10453V76.998V76.9959V76.9938V76.8938H2.00453H2.00244H1.90244V76.9938V76.998V77.098H2.00244H2.00453Z" fill="white" stroke="white" stroke-width="0.2"/>
<path d="M2.10795 76.8958V76.7523L1.93724 76.923L1.93515 76.9251L1.90586 76.9544V76.9958V76.9979V77.0979H2.00586H2.00795C2.02333 77.0979 2.04943 77.0942 2.07341 77.0743C2.1006 77.0516 2.11005 77.0206 2.11005 76.9958V76.8958H2.10795ZM1.94537 76.9206C1.96748 76.9022 1.99127 76.8983 2.00586 76.8979V76.9916V76.9937H2.00377H1.91007C1.91054 76.9732 1.9179 76.948 1.93773 76.9277C1.93842 76.927 1.93912 76.9263 1.93983 76.9256C1.94159 76.9239 1.94343 76.9222 1.94537 76.9206Z" fill="white" stroke="white" stroke-width="0.2"/>
<path d="M1.91395 76.8937H1.90977V76.9937V76.9979V77.0979H1.91186H1.91395H2.00977H2.01186H2.01395H2.01605H2.11186H2.11395H2.11605V76.9979V76.9958C2.11605 76.9853 2.11447 76.9756 2.11186 76.9668V76.8937H2.01395H2.01186H2.00977H1.91395Z" fill="white" stroke="white" stroke-width="0.2"/>
<path d="M2.12114 76.9938V76.8938H2.02114H2.01904H1.91904V76.9938V76.9959V76.998V77.098H2.01904H2.02114H2.12114V76.998V76.9959V76.9938Z" fill="white" stroke="white" stroke-width="0.2"/>
<path d="M2.12358 77.098H2.12567V76.998V76.9959C2.12567 76.9886 2.12491 76.9817 2.12358 76.9752V76.8938H2.02358H2.02148H1.92358H1.92148V76.9938V76.998V77.098H1.92358H2.02148H2.02358H2.02567H2.12358Z" fill="white" stroke="white" stroke-width="0.2"/>
<path d="M2.13055 76.9958V76.8958H2.12846V76.7523L1.98495 76.8958H1.92846V76.9523L1.92637 76.9544V76.9958V76.9979V77.0979H1.92846H2.02637H2.02846H2.03055H2.13055V76.9979V76.9958Z" fill="white" stroke="white" stroke-width="0.2"/>
<path d="M2.07414 76.8938L1.93481 76.7544V76.8938H1.93271V76.9938V76.998V77.098H1.99548L2.1369 77.2394V77.2373V76.998V76.9959V76.9938H2.13271H2.04109L2.10761 76.9272L2.10657 76.9262L2.10761 76.9252L2.10552 76.9231L2.07623 76.8938H2.07414Z" fill="white" stroke="white" stroke-width="0.2"/>
<path d="M2.1392 76.8959V76.7524L1.96849 76.9231L1.9664 76.9252L1.93711 76.9544V76.9959V76.998V77.098H2.03711H2.0392C2.05458 77.098 2.08068 77.0943 2.10466 77.0743C2.13185 77.0517 2.1413 77.0207 2.1413 76.9959V76.8959H2.1392ZM1.97662 76.9207C1.99873 76.9023 2.02252 76.8983 2.03711 76.898V76.9917V76.9938H2.03502H1.94132C1.94179 76.9733 1.94915 76.9481 1.96898 76.9277C1.96967 76.927 1.97037 76.9263 1.97108 76.9257C1.97284 76.924 1.97468 76.9223 1.97662 76.9207Z" fill="white" stroke="white" stroke-width="0.2"/>
<path d="M1.94506 76.8938H1.94297V76.9938V76.9959V76.998V77.098H2.04297H2.04506H2.04716H2.14716V76.998V76.9938V76.8938H2.14506H2.04716H2.04506H2.04297H1.94506Z" fill="white" stroke="white" stroke-width="0.2"/>
<path d="M2.14848 77.098H2.15057V76.998V76.9959C2.15057 76.9886 2.14982 76.9817 2.14848 76.9752V76.8938H2.04848H2.04639H1.94848H1.94639V76.9938V76.998V77.098H1.94848H2.04639H2.04848H2.05057H2.14848Z" fill="white" stroke="white" stroke-width="0.2"/>
<path d="M2.05322 76.8938H1.95322V76.9938V76.998V77.098H2.05322H2.05532H2.15532V77.0959H2.15741V76.9959V76.9938V76.8938H2.05741H2.05532H2.05322Z" fill="white" stroke="white" stroke-width="0.2"/>
<path d="M2.06069 77.098H2.16069V76.998V76.9959V76.9938V76.8938H2.06069H2.05859H1.95859V76.9938V76.998V77.098H2.05859H2.06069Z" fill="white" stroke="white" stroke-width="0.2"/>
<path d="M2.16264 76.8958V76.7523L1.99193 76.923L1.98984 76.9251L1.96055 76.9544V76.9958V76.9979V77.0979H2.06055H2.06264C2.07802 77.0979 2.10411 77.0942 2.1281 77.0743C2.15529 77.0516 2.16473 77.0206 2.16473 76.9958V76.8958H2.16264ZM2.00006 76.9206C2.02217 76.9022 2.04595 76.8983 2.06055 76.8979V76.9916V76.9937H2.05845H1.96476C1.96522 76.9732 1.97259 76.948 1.99242 76.9277C1.99311 76.927 1.99381 76.9263 1.99452 76.9256C1.99627 76.9239 1.99812 76.9222 2.00006 76.9206Z" fill="white" stroke="white" stroke-width="0.2"/>
<path d="M2.06543 76.8937H1.96543V76.8979V76.9937V76.9979V77H2.06543V77.0937V77.0979H2.06752H2.16752V76.9979V76.9937V76.8937H2.06752H2.06543Z" fill="white" stroke="white" stroke-width="0.2"/>
<path d="M2.17157 76.9958V76.8958H2.16948V76.7523L2.02596 76.8958H1.96948V76.9523L1.96738 76.9544V76.9958V76.9979V77.0979H1.96948H2.06738H2.06948H2.07157H2.17157V76.9979V76.9958Z" fill="white" stroke="white" stroke-width="0.2"/>
<path d="M2.17645 76.9938V76.8938H2.07645H2.07436H2.03294L2.03084 76.8959H1.97436V76.9524L1.97227 76.9544V76.9959V76.998V77.098H1.97436H2.07227H2.07436H2.07645V77.0959H2.17645V76.9959V76.9938Z" fill="white" stroke="white" stroke-width="0.2"/>
<path d="M2.17729 76.9937V76.8937H2.07729H2.0752H1.9752V76.9937V76.9958V76.9979V77.0979H2.0752H2.07729H2.17729V76.9979V76.9958V76.9937Z" fill="white" stroke="white" stroke-width="0.2"/>
</svg>
