<svg width="73" height="80" viewBox="0 0 73 80" fill="none" xmlns="http://www.w3.org/2000/svg">
<g clip-path="url(#clip0_17_2828)">
<path d="M65.6389 70.1838C65.6367 70.1853 65.6344 70.1868 65.6322 70.1883C65.6256 70.1928 65.6192 70.1971 65.614 70.2018L65.6012 70.2096C65.4616 70.295 65.3044 70.3912 65.1302 70.4658L64.5397 70.696C64.5397 70.696 64.5397 70.696 64.5397 70.696C64.5046 70.696 64.469 70.6946 64.4321 70.6921M65.6389 70.1838L65.6247 70.2137L65.6232 70.2168L65.596 70.2741C65.614 70.2826 65.6319 70.2903 65.6497 70.2971M65.6389 70.1838C65.8912 70.3037 66.0998 70.2184 66.4845 69.9391C67.2364 69.3916 70.3733 62.9154 70.55 62.3062C70.6228 62.0539 70.6872 61.8446 70.7378 61.6873M65.6389 70.1838L65.6958 70.266L65.688 70.2713L65.6827 70.2749C65.6813 70.2758 65.6806 70.2764 65.6803 70.2766L65.674 70.2823L65.6661 70.2871L65.6518 70.2959C65.6511 70.2963 65.6504 70.2967 65.6497 70.2971M65.6497 70.2971C65.5116 70.3816 65.3497 70.4806 65.1696 70.5578L65.1695 70.5578C64.9447 70.6538 64.7498 70.6961 64.5397 70.6961H64.4318L64.4321 70.6921M65.6497 70.2971C65.7789 70.3464 65.9046 70.3495 66.0419 70.3066C66.1906 70.26 66.3504 70.16 66.5432 70.02L66.5433 70.0199C66.6532 69.9399 66.7932 69.7646 66.9503 69.5354C67.1104 69.3018 67.2967 68.9991 67.4986 68.6513C67.9024 67.9555 68.3715 67.0738 68.822 66.1912C69.2726 65.3085 69.7053 64.4238 70.0364 63.7215C70.2019 63.3704 70.3423 63.0645 70.4469 62.827C70.5503 62.5922 70.6217 62.4179 70.646 62.3341L70.6461 62.3339C70.7105 62.1106 70.7683 61.9213 70.8157 61.7722M64.4321 70.6921C64.323 70.6847 64.2036 70.6675 64.0595 70.6464L63.7505 70.6015C63.7504 70.6015 63.7503 70.6015 63.7502 70.6014C63.2801 70.5368 63.0684 70.4253 62.8822 70.3041C62.5953 70.2062 62.4282 70.0409 62.3304 69.8711C62.2355 69.7063 62.2092 69.542 62.1945 69.4503L62.1933 69.4434L62.1932 69.4424L62.1932 69.4424C62.1815 69.3649 62.1734 69.3181 62.1602 69.2882L62.1597 69.287C62.1103 69.1823 61.9688 68.8824 62.139 68.5653C62.1203 68.5432 62.101 68.5194 62.0795 68.4926L62.0795 68.4926C61.7377 68.0649 61.8523 67.6517 61.9142 67.4301C61.916 67.4232 61.9179 67.4163 61.9197 67.4094C61.9341 67.3553 61.948 67.3031 61.9576 67.2438C61.9575 67.2441 61.9575 67.2444 61.9574 67.2447L62.0564 67.2588M64.4321 70.6921L62.0107 67.4564C62.0125 67.4494 62.0144 67.4424 62.0163 67.4353C62.0307 67.3812 62.046 67.3238 62.0564 67.2588M68.0037 59.0522C68.0563 58.9863 68.125 58.9337 68.2026 58.9011C68.2043 58.9011 68.6486 58.7182 68.8751 58.615C68.8619 58.5902 68.8622 58.5654 68.863 58.5558C68.8644 58.5387 68.8696 58.525 68.8718 58.5193C68.8741 58.5137 68.8767 58.5081 68.8793 58.5028M68.0037 59.0522L71.3055 60.8355M68.0037 59.0522C67.915 59.1638 67.7063 59.4507 67.6668 59.7321M68.0037 59.0522L67.6668 59.7321M68.8793 58.5028C68.8823 58.5014 68.8852 58.5 68.8881 58.4987C68.8875 58.4955 68.887 58.4923 68.8865 58.4891M68.8793 58.5028C68.8819 58.4977 68.8844 58.4929 68.8865 58.4891M68.8793 58.5028C68.7939 58.5432 68.6469 58.6068 68.5047 58.667C68.416 58.7046 68.3312 58.74 68.2685 58.766L68.1934 58.797L68.1833 58.8011M68.8865 58.4891C68.8872 58.4879 68.8878 58.4869 68.8883 58.4859L68.8885 58.4855C68.8895 58.4836 68.8905 58.4818 68.8914 58.4802C68.8954 58.473 68.8984 58.4675 68.9012 58.462L68.9313 58.4771C68.9321 58.4766 68.933 58.4762 68.9337 58.4758L68.9357 58.4793L68.9387 58.4808L68.9388 58.4809M68.8865 58.4891C68.8191 58.0549 68.8187 57.6918 69.0415 57.4258L69.0426 57.4245L69.0426 57.4245C69.1028 57.3551 69.1949 57.2944 69.2876 57.2513C69.3802 57.2083 69.4867 57.1766 69.5804 57.1766C69.7266 57.1766 69.8723 57.2192 70.0121 57.3029M68.9388 58.4809L68.9556 58.5124M68.9388 58.4809L68.9906 58.5068L68.9556 58.5124M68.9388 58.4809L68.9356 58.4748C68.9369 58.4742 68.9403 58.4728 68.9452 58.4715L68.9455 58.4715C68.9479 58.4708 68.9639 58.4666 68.9849 58.4707C68.9182 58.0391 68.9266 57.7186 69.1181 57.49C69.2138 57.3798 69.4328 57.2766 69.5804 57.2766C69.7065 57.2766 69.8348 57.3133 69.9609 57.3888M68.9556 58.5124L68.9551 58.5125L68.9539 58.5127L68.9707 58.5437C68.9708 58.5435 68.9709 58.5433 68.971 58.5431C68.9712 58.5429 68.9713 58.5426 68.9715 58.5423L68.9556 58.5124ZM69.9609 57.3888C71.2847 58.1727 71.512 59.7349 71.3055 60.8355M69.9609 57.3888L70.0123 57.303C70.0122 57.303 70.0121 57.3029 70.0121 57.3029M69.9609 57.3888L70.0119 57.3028C70.0119 57.3028 70.012 57.3029 70.0121 57.3029M71.3055 60.8355C71.2299 61.2389 71.1086 61.6215 70.7378 61.6873M71.3055 60.8355L71.4037 60.8539C71.3657 61.0571 71.3142 61.2673 71.2197 61.4367C71.132 61.5938 71.0043 61.7205 70.8157 61.7722M70.7378 61.6873L70.833 61.7179C70.8274 61.7354 70.8216 61.7535 70.8157 61.7722M70.7378 61.6873L70.7553 61.7858C70.7761 61.7821 70.7962 61.7775 70.8157 61.7722M70.0121 57.3029L61.9587 67.2361C61.9795 67.0897 62.0239 66.7773 62.3086 66.634M68.1833 58.8011H68.1824L68.1639 58.8089C68.0703 58.8482 67.9883 58.9113 67.9256 58.9897L67.9254 58.99C67.8791 59.0482 67.8013 59.1523 67.7297 59.2793C67.6594 59.4039 67.5915 59.5566 67.5685 59.7131M68.1833 58.8011L68.1728 58.8053L68.1681 58.8073M68.1833 58.8011H68.2026C68.1949 58.8014 68.1839 58.8029 68.1805 58.8036L68.1746 58.8051L68.1704 58.8064L68.1681 58.8073M67.5685 59.7131C67.5602 59.7449 67.5308 59.8134 67.4932 59.8876C67.4747 59.9241 67.4557 59.9589 67.4392 59.9869C67.431 60.0009 67.4237 60.0127 67.4176 60.0217C67.415 60.0257 67.4128 60.0289 67.4109 60.0314C67.342 60.0846 67.1702 60.19 67.0018 60.2934C66.9923 60.2992 66.9828 60.305 66.9734 60.3108L66.9734 60.3108L66.9719 60.3118C66.9253 60.3416 66.8792 60.3708 66.8365 60.398C66.7566 60.4487 66.6882 60.4921 66.6495 60.5181M67.5685 59.7131C67.5683 59.7148 67.5681 59.7165 67.5678 59.7182L67.6668 59.7321M67.5685 59.7131C67.5689 59.7119 67.5691 59.7107 67.5694 59.7096L67.6668 59.7321M66.6495 60.5181L66.5065 60.6085M66.6495 60.5181C66.6491 60.5184 66.6487 60.5187 66.6482 60.519L66.7042 60.6019M66.6495 60.5181L66.6508 60.5173L66.7042 60.6019M66.5065 60.6085C66.168 60.8161 65.8329 61.0258 65.6395 61.2237L65.6394 61.2238L65.5597 61.3056L65.5595 61.3058C65.4931 61.3743 65.459 61.409 65.4222 61.4345C65.3944 61.4538 65.3624 61.4696 65.3073 61.4873M66.5065 60.6085L66.5059 60.6088L66.5593 60.6934M66.5065 60.6085C66.5067 60.6084 66.5068 60.6082 66.507 60.6081L66.5593 60.6934M65.3073 61.4873C65.2265 61.4464 65.1106 61.4036 64.9639 61.4036C64.6137 61.4036 64.3212 61.6374 63.9391 62.0037L63.9393 62.0035L64.0081 62.076L63.9389 62.0039L63.5578 62.3656L63.6263 62.4385M65.3073 61.4873C65.2956 61.4911 65.2829 61.4949 65.269 61.4989L65.2965 61.5951M65.3073 61.4873C65.3212 61.4944 65.3341 61.5014 65.3459 61.5081L65.2965 61.5951M63.6263 62.4385L63.5574 62.366L63.5501 62.3729C63.3173 62.5912 63.1435 62.7542 63.0314 62.9337C62.9137 63.1222 62.8664 63.3233 62.8664 63.6133C62.8664 64.1289 63.0536 64.7039 63.2294 65.0253L63.2296 65.0256C63.2524 65.0669 63.2817 65.1122 63.3121 65.159C63.3188 65.1693 63.3255 65.1797 63.3322 65.1901L63.3324 65.1905L63.3327 65.1909C63.3564 65.2273 63.3911 65.2807 63.4165 65.3343C63.4292 65.3612 63.4377 65.3845 63.4418 65.4029C63.4421 65.4044 63.4424 65.4058 63.4427 65.4072M63.6263 62.4385L64.0081 62.0761C64.3949 61.7053 64.6596 61.5036 64.9639 61.5036C65.1122 61.5036 65.2245 61.5542 65.2965 61.5951M63.6263 62.4385L65.2965 61.5951M63.4427 65.4072C63.0183 65.7649 62.6704 66.1374 62.3086 66.634M63.4427 65.4072C63.4449 65.4189 63.4441 65.4237 63.4442 65.4237C63.4442 65.4237 63.4444 65.4231 63.4448 65.4219L63.5382 65.4576M63.4427 65.4072C63.4531 65.3984 63.4636 65.3896 63.4742 65.3808L63.5382 65.4576M62.3086 66.634C62.3036 66.6409 62.2986 66.6478 62.2936 66.6547L62.3746 66.7134M62.3086 66.634C62.3168 66.6299 62.3252 66.6259 62.3338 66.6221L62.3746 66.7134M62.3746 66.7134C62.7461 66.2005 63.1002 65.8228 63.5382 65.4576M62.3746 66.7134C62.1181 66.8278 62.0786 67.1036 62.0564 67.2588M63.5382 65.4576L61.9577 67.243L62.0564 67.2588M63.5382 65.4576C63.5705 65.3731 63.4646 65.2103 63.4175 65.1379L63.4162 65.136C63.4091 65.1249 63.4021 65.114 63.3952 65.1034L63.5382 65.4576ZM65.2965 61.5951C65.4654 61.5466 65.503 61.5078 65.6308 61.3759L65.6313 61.3753L65.2965 61.5951ZM66.5593 60.6934L66.7042 60.6019M66.5593 60.6934L67.0602 60.3749C67.0486 60.382 67.0371 60.389 67.0257 60.396C66.9778 60.4267 66.931 60.4564 66.8879 60.4838C66.8083 60.5343 66.7415 60.5767 66.7042 60.6019M68.1681 58.8073C68.1678 58.8074 68.1676 58.8074 68.1678 58.8074L68.1681 58.8073L68.1681 58.8073ZM63.0247 67.48C63.0081 67.5694 62.9873 67.6491 62.9672 67.7205C62.954 67.7669 62.9374 67.8307 62.9367 67.8528M63.0247 67.48L63.0933 67.5528C63.1013 67.5452 63.1092 67.5376 63.1169 67.5298M63.0247 67.48L63.123 67.4983C63.121 67.5089 63.119 67.5194 63.1169 67.5298M63.0247 67.48L64.0593 63.5442M63.1169 67.5298C63.1007 67.6106 63.0816 67.6831 63.0634 67.7476L63.0634 67.7478C63.0581 67.7664 63.0523 67.7876 63.0474 67.8072M63.1169 67.5298C63.1844 67.4622 63.2419 67.3872 63.294 67.3142L63.2941 67.314C63.5669 66.9296 63.8562 66.6172 64.2343 66.3024L64.2344 66.3023C64.497 66.0832 64.6425 65.8197 64.6565 65.5148C64.6703 65.214 64.5554 64.8878 64.3293 64.5406C64.3292 64.5404 64.3291 64.5403 64.329 64.5401L64.2718 64.4504C64.1839 64.2878 64.0583 63.9159 64.0583 63.614C64.0583 63.5818 64.0588 63.5593 64.0593 63.5442M63.0474 67.8072C63.0284 67.7913 63.006 67.7755 62.9808 67.7631L62.9367 67.8528M63.0474 67.8072C63.0464 67.8113 63.0454 67.8152 63.0445 67.8191C63.0418 67.8305 63.0396 67.8403 63.0381 67.848C63.0369 67.8545 63.0366 67.8572 63.0366 67.8572C63.0366 67.8572 63.0366 67.8567 63.0366 67.856L62.9367 67.8528M63.0474 67.8072C63.0709 67.8268 63.0894 67.8465 63.1017 67.8596C63.1031 67.8611 63.1045 67.8625 63.1057 67.8639L63.1067 67.8649L63.1067 67.8649C63.2185 67.9867 63.2829 68.0942 63.3167 68.2152C63.3495 68.3323 63.3514 68.4554 63.3514 68.5986C63.3514 68.7328 63.3318 68.8445 63.2987 68.937M62.9367 67.8528C62.9761 67.8722 63.0072 67.9052 63.0305 67.9299L63.033 67.9326C63.2416 68.1599 63.2514 68.3089 63.2514 68.5986C63.2514 68.7407 63.2278 68.8509 63.1917 68.9361M63.2987 68.937C63.2944 68.9249 63.2899 68.9126 63.2851 68.9001L63.1917 68.9361M63.2987 68.937C63.294 68.9501 63.2891 68.9628 63.2839 68.9751L63.1917 68.9361M63.2987 68.937C63.3349 69.0392 63.3535 69.129 63.366 69.2034C63.4343 69.2381 63.4873 69.2726 63.5283 69.2997L63.5287 69.3C63.5683 69.3265 63.5966 69.3451 63.6456 69.3628C63.697 69.3814 63.7744 69.4002 63.9099 69.4185L63.9111 69.4186L64.241 69.4671L64.2416 69.4672C64.2583 69.4698 64.2742 69.4723 64.2893 69.4746C64.3978 69.4914 64.471 69.5028 64.5397 69.5028C64.5655 69.5028 64.6 69.5023 64.6999 69.4603C64.8087 69.4128 64.9056 69.353 65.0006 69.2945C65.0123 69.2872 65.024 69.2801 65.0356 69.2729L65.0879 69.3581M63.1917 68.9361L69.9201 61.0039L69.8262 60.9695L69.8262 60.9695L69.8261 60.9696L69.826 60.9699L69.826 60.97L69.8257 60.9708L69.8244 60.9742L69.8196 60.9876L69.8012 61.0399C69.7851 61.0858 69.7618 61.1537 69.7327 61.242C69.6744 61.4184 69.5926 61.6762 69.4983 62.0026L69.4983 62.0026C69.4769 62.0765 69.4136 62.2327 69.314 62.4572C69.2154 62.6792 69.084 62.962 68.9295 63.2855C68.6205 63.9325 68.2202 64.7407 67.8081 65.5474C67.3959 66.3543 66.9723 67.159 66.6167 67.7992C66.4389 68.1194 66.2784 68.3978 66.1452 68.6144C66.0342 68.795 65.9452 68.9275 65.8822 69.0061C65.5582 68.9411 65.3098 69.099 65.1043 69.2296C65.0808 69.2446 65.0578 69.2592 65.0354 69.2731L65.0879 69.3581M65.0879 69.3581C65.1111 69.3438 65.1343 69.3292 65.1575 69.3145C65.3796 69.1743 65.6083 69.0298 65.9182 69.1176L64.2742 69.5735C64.381 69.5901 64.4628 69.6028 64.5397 69.6028C64.5813 69.6028 64.6291 69.5987 64.7393 69.5522C64.8552 69.5017 64.9585 69.4379 65.0531 69.3796C65.0649 69.3723 65.0765 69.3652 65.0879 69.3581ZM64.0593 63.5442C64.0639 63.5387 64.0696 63.5323 64.0762 63.525C64.0956 63.5039 64.1213 63.4776 64.1521 63.4472C64.2137 63.3865 64.2923 63.3125 64.374 63.2357L64.3743 63.2354L64.7659 62.8647L64.7664 62.8641C64.8644 62.7699 64.9365 62.7048 64.9896 62.6601C65.1266 62.7012 65.3137 62.7164 65.4963 62.6693C65.7375 62.6101 65.9116 62.5361 66.0551 62.445C66.1982 62.3542 66.3065 62.249 66.4164 62.1352L66.4871 62.0625C66.5369 62.0129 66.6487 61.9326 66.7786 61.8469C66.9057 61.7629 67.041 61.6797 67.1297 61.6258L67.1304 61.6254L67.312 61.5131L67.3121 61.5133L67.3177 61.5093C67.3716 61.4706 67.4757 61.4061 67.5955 61.332L67.6052 61.326L67.6055 61.3258C67.8203 61.1917 68.0699 61.0348 68.1711 60.9549L68.1711 60.9549L68.1729 60.9534C68.3086 60.841 68.4407 60.6496 68.5424 60.4589C68.6421 60.2718 68.7209 60.0695 68.7445 59.9198C68.7451 59.9184 68.7459 59.9164 68.7471 59.9139C68.7501 59.9072 68.7543 59.8988 68.7597 59.8886C68.7666 59.8757 68.7749 59.8612 68.7841 59.8458C69.4332 59.5738 69.5181 59.5217 69.5615 59.4925M64.0593 63.5442L69.5608 59.493C69.5611 59.4928 69.5613 59.4927 69.5615 59.4925M69.5615 59.4925C69.6395 59.4416 69.7442 59.3385 69.8384 59.2092C69.8965 59.1294 69.953 59.0364 69.9978 58.9349C70.3213 59.5013 70.2972 60.1989 70.2333 60.5964L69.5615 59.4925ZM63.9604 63.6108C63.9601 63.6108 63.9599 63.6108 63.9597 63.6108H63.9604Z" fill="white" stroke="white" stroke-width="0.2"/>
<mask id="path-2-outside-1_17_2828" maskUnits="userSpaceOnUse" x="-0.603516" y="-1" width="74" height="80" fill="black">
<rect fill="white" x="-0.603516" y="-1" width="74" height="80"/>
<path d="M39.5473 78C38.4585 78 37.6505 77.7394 37.1451 77.2258C36.5671 76.6374 36.5796 75.9291 36.5838 75.6969C36.5817 75.6539 36.5172 75.2118 34.6869 73.838C32.7185 72.3555 31.5612 69.1799 31.4918 68.866L31.4662 68.7357C31.4183 68.4952 31.3476 68.1307 31.2527 67.9886C31.1938 67.9089 30.9775 67.6684 30.7377 67.4002C30.0072 66.5816 29.8576 66.3945 29.7979 66.2275C29.7432 66.0951 29.6094 65.7576 28.5539 64.4636C27.2426 62.8647 28.5726 59.2615 29.1125 58.6126C29.4154 58.2522 29.5914 57.5453 29.6323 57.1835C29.6115 57.0789 29.3592 56.5805 29.222 56.3144C29.0806 56.0372 28.96 55.7905 28.917 55.6567C28.8089 55.3247 28.8498 54.7425 28.8824 54.4355L28.0964 52.6522L26.4331 49.4738C26.0214 48.956 25.1821 47.9268 24.8868 47.6926C24.2797 47.2116 23.9741 45.9114 24.0385 45.5301C24.0676 45.3555 24.1813 45.1205 24.4329 44.6277C24.5133 44.4704 24.5902 44.3249 24.6283 44.2355C24.6353 43.8917 24.69 43.1217 24.9908 42.0224C25.1488 41.4583 24.8099 40.7215 24.0351 39.9439C24.0143 39.946 23.9935 39.948 23.9685 39.9501C23.6976 39.9792 23.2373 40.0298 22.4064 39.9848C20.8275 39.9071 20.3722 38.975 19.9334 38.0753L19.7823 37.7703C19.6769 37.5576 19.1793 37.0676 16.8354 37.0676L16.5804 37.0683C15.9393 37.2076 13.6931 37.5562 12.957 37.5562C12.8017 37.5562 12.6957 37.5409 12.6056 37.5063C11.708 37.1653 9.64752 36.4819 8.68002 36.6018C7.52328 36.7342 6.29523 35.3536 5.40526 34.357C5.19041 34.1179 4.92566 33.8185 4.83763 33.7589C4.1917 33.4054 2.88311 30.9015 2.79865 30.6429C2.73281 30.4364 2.69123 30.1273 2.63439 29.6789C2.60529 29.4467 2.58172 29.2319 2.55607 29.1376C2.43409 28.8881 2.28578 28.5831 2.21925 27.9829C2.19569 27.7563 2.16242 27.7133 2.05707 27.5733C1.94964 27.4285 1.80202 27.2303 1.6544 26.8491C1.55321 26.5885 1.40906 26.357 1.25589 26.1109C1.03064 25.7491 0.7749 25.3382 0.653611 24.7997C0.45885 23.9077 0.396484 21.6358 0.396484 21.4521C0.396484 21.3232 0.396484 20.9864 1.32451 19.9745C1.38828 19.7728 1.53521 19.3535 1.75976 18.9682C1.94481 18.6549 2.2761 16.6936 2.38976 15.7717C2.45422 15.3156 2.42719 14.7473 2.39184 14.2497C2.35026 13.5691 2.80145 12.9911 2.85274 12.928L3.79878 11.7754L5.18977 10.3775V9.71491C5.18977 9.57491 5.24937 9.44184 5.35194 9.34759L6.22314 8.55471L7.05483 8.02796L8.09929 7.01954C8.17483 6.94677 8.27117 6.89964 8.37444 6.88439L9.3385 6.74716C10.1847 6.42212 11.0254 5.99172 11.2444 5.77616C11.4322 3.11831 13.7076 1.82984 15.0009 1.48262L16.6643 0.113102C16.8271 -0.0227388 17.06 -0.0366011 17.2402 0.0735966L18.7026 0.976661C18.8946 0.983592 19.2751 0.997454 19.4019 0.982899C19.4469 0.95587 19.6292 0.964186 19.876 0.983592C20.1622 1.00438 20.5871 1.04389 20.9073 0.98082C22.1083 0.746563 24.2097 0.352199 24.7691 0.352199C24.8052 0.352199 24.9209 0.361901 24.9569 0.370218C25.1787 0.422198 27.6238 0.791606 29.114 1.01339L30.2687 1.00715C30.7247 1.00715 31.3222 1.4029 31.449 1.9726C31.5134 2.27547 31.3367 3.14597 30.9202 4.56196L30.7663 5.1379V5.34166C30.9652 5.71037 31.23 6.07424 31.3506 6.13524C31.7373 6.15811 33.3466 6.93919 34.2671 7.3994C35.0468 7.93029 35.1681 8.12782 35.1681 8.38426C35.1681 8.61158 35.4356 8.8396 35.8826 8.99347C36.5813 9.23118 37.1655 9.63525 37.5516 9.90139C37.6243 9.95129 37.6874 9.99704 37.7415 10.0324C37.8898 9.9312 38.0811 9.74822 38.0915 9.60823C38.2446 8.64347 38.8185 7.86516 39.7139 7.3723C39.8124 7.31547 39.9309 7.28705 40.0709 7.28705C40.782 7.28705 42.742 8.25596 43.3242 8.55191L44.9369 9.41825C44.9674 9.41825 46.0756 9.74538 46.9032 9.74538C47.3024 9.74538 47.4597 9.66499 47.4826 9.63727C47.7577 9.06201 48.3766 8.74112 49.2222 8.74112C49.5611 8.74112 49.8182 8.7931 49.8459 8.79795L50.9618 9.2124C51.1295 9.27478 51.2501 9.4231 51.2778 9.59983C51.413 10.4592 51.6507 11.2244 52.0021 11.9341C52.0818 12.0228 52.1303 12.1399 52.1303 12.2681C52.1303 12.4261 52.0568 12.5682 51.9418 12.6583C52.1109 13.0173 52.3084 13.4144 52.4962 13.7742C53.4451 15.5207 53.7251 16.0766 53.8075 16.3066C53.8609 16.3987 54.0016 16.5928 54.1652 16.8243C55.0204 18.0302 55.175 18.3144 55.1271 18.6159C55.0994 18.8454 55.107 19.0512 55.1292 19.1697C55.455 19.2175 56.0441 19.537 57.0442 21.5573C57.0712 21.6128 57.0892 21.6724 57.0941 21.7355C57.144 22.3066 57.3055 24.1896 57.3055 24.4073C57.3124 24.3914 57.3561 24.4413 57.4025 24.4898C57.7768 24.6478 58.6216 25.0512 58.8649 25.5758C59.0506 25.966 59.3396 27.1131 59.3376 27.714C59.8172 28.2387 62.401 30.1501 63.2362 30.46C63.5411 30.5716 63.9077 30.7442 64.0443 31.0887C64.1545 31.3687 64.0609 31.6092 63.9944 31.7464C64.1087 32.0943 63.9396 32.3722 63.7289 32.5801C64.1489 32.8899 64.9404 33.321 65.1858 33.3453C65.6446 33.2531 71.2924 30.9307 71.7782 30.6181C71.9543 30.5058 72.1844 30.512 72.3486 30.6361C73.3612 31.3915 71.0463 37.7961 70.7635 38.4622C69.6151 41.1701 64.6125 46.0271 63.4211 46.5995C62.8798 46.8636 62.5569 47.4936 62.0675 48.4465C61.7564 49.0536 61.3682 49.8105 60.8207 50.6393C59.9447 51.9749 59.6501 52.663 59.5531 52.9583C59.7485 53.1905 59.9911 53.5543 59.9911 53.9293C59.9911 54.1531 59.9585 54.4629 59.9218 54.7887C59.8982 55.0063 59.8719 55.233 59.8581 55.4402C59.8858 55.6377 60.4028 56.4091 60.9628 57.0627C61.0273 57.1382 61.0682 57.2339 61.0793 57.3323C61.4708 60.8684 60.2434 62.795 59.8594 63.3018C59.3487 63.9796 59.1761 64.0974 58.6272 64.1404C58.4386 64.1674 58.0311 64.4218 57.6389 64.6678C57.1489 64.9769 56.4773 65.3969 55.5763 65.8849C54.2844 66.5876 54.3135 66.6403 54.5907 67.1518L54.7335 67.4228C55.2124 68.3716 55.3254 69.5464 55.2769 69.9359C55.2214 70.3371 54.8797 70.4966 53.4361 71.1141C52.9897 71.304 52.3528 71.5764 52.0679 71.7351C51.9051 72.7594 51.0644 74.1823 50.2181 74.8131C47.1429 77.7003 44.4663 77.7857 44.171 77.7857C44.1523 77.7697 42.7087 77.7877 40.8603 77.8938C40.4091 77.9631 39.9544 77.9998 39.5476 77.9998L39.5473 78ZM24.1341 38.9449C24.3455 38.9449 24.5174 39.0142 24.6456 39.1514C26.0664 40.5424 26.1357 41.6237 25.9493 42.291C25.6443 43.3972 25.6215 44.1235 25.6215 44.319C25.6215 44.4819 25.5625 44.6025 25.3172 45.0821C25.2139 45.2837 25.0407 45.6213 25.0122 45.7169C25.0171 45.8999 25.25 46.7143 25.5043 46.9159C25.9895 47.3027 27.1365 48.7748 27.2647 48.9397L28.9884 52.2235L29.8436 54.1599C29.8797 54.2431 29.8935 54.3346 29.8811 54.426C29.8325 54.7968 29.8221 55.239 29.8603 55.3541C29.8949 55.4643 29.9954 55.6514 30.1035 55.8649C30.4445 56.5323 30.649 56.962 30.6185 57.2898C30.6115 57.3487 30.4722 58.538 29.8714 59.252C29.5345 59.6553 28.4097 62.7299 29.3197 63.8374C30.4702 65.2505 30.6323 65.6539 30.7197 65.8716C30.7772 65.9589 31.2145 66.4475 31.4758 66.7407C31.7461 67.0435 31.9907 67.3208 32.067 67.4254C32.2804 67.7456 32.3678 68.1906 32.4378 68.5454L32.4606 68.6619C32.5244 68.9328 33.5834 71.7668 35.2808 73.0455C37.3019 74.5606 37.575 75.2245 37.575 75.6716C37.5722 75.8733 37.5653 76.2399 37.8515 76.531C38.2964 76.9829 39.3257 77.1229 40.7521 76.9095C42.6754 76.7951 44.1294 76.7951 44.1439 76.7951H44.1446C44.2798 76.7951 46.6944 76.7563 49.5748 74.0548C50.29 73.5169 51.0635 72.1689 51.096 71.4406C51.1009 71.3186 51.1515 71.2042 51.236 71.1169C51.4537 70.893 51.9527 70.6671 53.0394 70.2027C53.4449 70.0302 54.0208 69.7834 54.2862 69.6406C54.2703 69.2893 54.1691 68.5248 53.8399 67.8747L53.7096 67.6266C53.0928 66.4858 53.3776 65.9487 55.0964 65.0144C55.9697 64.5403 56.6254 64.1293 57.1042 63.8313C57.7619 63.4182 58.1244 63.1902 58.4675 63.1597C58.6033 63.15 58.6802 63.1417 58.701 63.1368C58.7655 63.098 58.9873 62.8027 59.06 62.7057C59.2915 62.4007 60.4081 60.7492 60.1003 57.5937C59.5778 56.9686 58.8188 55.956 58.859 55.3759C58.875 55.1541 58.902 54.9136 58.9263 54.6814C58.9582 54.3965 58.99 54.1263 58.99 53.9322C58.9783 53.8504 58.8133 53.6162 58.6574 53.4623C58.561 53.3687 58.5063 53.2384 58.5063 53.1054C58.5063 52.9286 58.6123 52.185 59.9839 50.096C60.5016 49.3122 60.8599 48.6135 61.176 47.9967C61.7138 46.9467 62.1387 46.1178 62.9801 45.7083C64.0321 45.2016 68.8144 40.4935 69.8408 38.0775C70.739 35.9553 71.4563 33.0333 71.6033 31.7963C69.8942 32.5691 65.753 34.3003 65.2283 34.3406H65.2263C64.5678 34.3406 62.7492 33.3502 62.5539 32.725C62.4755 32.4748 62.5601 32.2184 62.7708 32.0721C62.8297 32.0326 62.9191 31.9696 62.9836 31.919C62.9351 31.7353 62.9794 31.5704 63.0272 31.456C62.9905 31.438 62.9427 31.4193 62.8831 31.3964C62.4977 31.2543 58.1279 28.631 58.3394 27.721C58.3629 27.4944 58.1287 26.3667 57.9561 26.0029C57.8812 25.8615 57.3829 25.5607 56.931 25.3798C56.8756 25.3576 56.8257 25.3251 56.7813 25.2855C56.6372 25.1546 56.3045 24.8073 56.3045 24.4123C56.3024 24.2709 56.2012 23.0414 56.1049 21.9207C55.6974 21.1119 55.1901 20.3273 54.9662 20.1547C54.7077 20.145 54.5268 20.0542 54.3909 19.9025C54.1019 19.5753 54.0832 19.0181 54.1269 18.5759C54.0153 18.3437 53.5703 17.7172 53.3499 17.4046C52.9923 16.9008 52.8828 16.7469 52.853 16.6048C52.7414 16.3511 52.1502 15.2367 51.6131 14.2484C50.3364 11.7983 50.4536 11.5718 50.5666 11.3521C50.5867 11.3147 50.6123 11.2786 50.6421 11.2461C50.5166 10.8635 50.4169 10.467 50.3392 10.0505L49.5755 9.76219C49.5956 9.77882 49.4216 9.74347 49.2158 9.74347C48.9039 9.74347 48.5026 9.80308 48.3681 10.0824C48.1505 10.5253 47.6571 10.7491 46.8968 10.7491C45.88 10.7491 44.6055 10.3589 44.5528 10.343L42.8589 9.44268C41.8186 8.91386 40.5052 8.34486 40.1136 8.29495C39.6846 8.5493 39.1904 8.99426 39.0712 9.73169C39.0206 10.476 38.166 11.0056 37.85 11.0749C37.8154 11.0825 37.7675 11.088 37.7329 11.088C37.5014 11.088 37.3163 10.9605 36.9809 10.729C36.6205 10.4795 36.1243 10.1378 35.5552 9.94377C34.508 9.58408 34.2426 8.96723 34.1843 8.58674C34.088 8.50427 33.9161 8.37397 33.756 8.26378C32.7524 7.76615 31.4488 7.16457 31.1902 7.1209C30.5949 7.06823 30.0758 6.20675 29.82 5.69734C29.7854 5.62872 29.7667 5.55248 29.7667 5.47348V5.08121C29.7667 5.03754 29.7729 4.99388 29.7847 4.9523L29.9593 4.30219C30.213 3.43793 30.4757 2.37676 30.4681 2.15781C30.459 2.13009 30.3211 2.02058 30.2497 2.0088L29.0369 2.0095C28.3126 1.90692 25.0476 1.42108 24.7329 1.34761C24.4328 1.35454 22.9912 1.59434 21.0921 1.96445C20.6887 2.04484 20.1571 2.0095 19.7981 1.98316C19.6955 1.97554 19.6124 1.96791 19.559 1.96791C19.5659 1.97554 19.4744 1.98871 19.2014 1.98871C18.9124 1.98871 18.5284 1.97276 18.5284 1.97276C18.4431 1.96861 18.3607 1.94366 18.2879 1.8993L17.0168 1.11335L15.5426 2.32762C15.4851 2.37614 15.4151 2.4101 15.343 2.42812C15.221 2.45723 12.3454 3.18218 12.2263 5.96423C12.2236 6.01205 12.2146 6.05987 12.1993 6.10562C11.9928 6.70374 10.6912 7.30463 9.63568 7.70453C9.60171 7.7177 9.56637 7.72671 9.53033 7.73156L8.67091 7.85354L7.70616 8.78434C7.68121 8.8079 7.65279 8.83008 7.62368 8.8481L6.81763 9.35057L6.18 9.93968V10.5898C6.18 10.7222 6.12732 10.8469 6.03514 10.9405L4.53117 12.45L3.61909 13.5644C3.55533 13.6462 3.36404 13.9463 3.37998 14.1924C3.41879 14.7385 3.44721 15.3727 3.37097 15.9112C3.36889 15.9299 2.99947 18.8352 2.61066 19.4819C2.3771 19.8832 2.24333 20.3621 2.24195 20.367C2.22116 20.4446 2.18026 20.516 2.12551 20.5749C1.77412 20.9512 1.42413 21.4017 1.37629 21.5389C1.386 21.8099 1.46501 23.8851 1.61956 24.5933C1.70273 24.9648 1.8857 25.2573 2.0957 25.5962C2.26689 25.8707 2.44362 26.1548 2.57669 26.5014C2.6758 26.7564 2.76036 26.8701 2.84977 26.99C3.01887 27.2173 3.15194 27.4259 3.20116 27.8841C3.24898 28.3131 3.33839 28.4981 3.41047 28.6471C3.4375 28.7047 3.46245 28.7546 3.48116 28.8031C3.53453 28.941 3.56156 29.1475 3.61423 29.5655C3.64889 29.8406 3.69671 30.2183 3.7376 30.3486C3.85265 30.6744 4.99275 32.6683 5.33444 32.913C5.52018 33.0162 5.72671 33.2429 6.1391 33.7038C6.7393 34.3754 7.85723 35.6264 8.51768 35.6264C8.66392 35.6111 8.77828 35.6056 8.89817 35.6056C10.3321 35.6056 12.6885 36.4872 12.9533 36.5863C13.5881 36.5703 15.8496 36.2266 16.4061 36.0963C16.4429 36.0872 16.4817 36.0824 16.5191 36.0824L16.8303 36.0817C18.2095 36.0817 20.1065 36.212 20.6643 37.3327L20.8203 37.6473C21.2444 38.5165 21.4579 38.9517 22.4517 39.0016C23.2003 39.0376 23.6154 38.9968 23.8594 38.9718C23.9807 38.9538 24.0673 38.9455 24.1338 38.9455L24.1341 38.9449Z"/>
</mask>
<path d="M39.5473 78C38.4585 78 37.6505 77.7394 37.1451 77.2258C36.5671 76.6374 36.5796 75.9291 36.5838 75.6969C36.5817 75.6539 36.5172 75.2118 34.6869 73.838C32.7185 72.3555 31.5612 69.1799 31.4918 68.866L31.4662 68.7357C31.4183 68.4952 31.3476 68.1307 31.2527 67.9886C31.1938 67.9089 30.9775 67.6684 30.7377 67.4002C30.0072 66.5816 29.8576 66.3945 29.7979 66.2275C29.7432 66.0951 29.6094 65.7576 28.5539 64.4636C27.2426 62.8647 28.5726 59.2615 29.1125 58.6126C29.4154 58.2522 29.5914 57.5453 29.6323 57.1835C29.6115 57.0789 29.3592 56.5805 29.222 56.3144C29.0806 56.0372 28.96 55.7905 28.917 55.6567C28.8089 55.3247 28.8498 54.7425 28.8824 54.4355L28.0964 52.6522L26.4331 49.4738C26.0214 48.956 25.1821 47.9268 24.8868 47.6926C24.2797 47.2116 23.9741 45.9114 24.0385 45.5301C24.0676 45.3555 24.1813 45.1205 24.4329 44.6277C24.5133 44.4704 24.5902 44.3249 24.6283 44.2355C24.6353 43.8917 24.69 43.1217 24.9908 42.0224C25.1488 41.4583 24.8099 40.7215 24.0351 39.9439C24.0143 39.946 23.9935 39.948 23.9685 39.9501C23.6976 39.9792 23.2373 40.0298 22.4064 39.9848C20.8275 39.9071 20.3722 38.975 19.9334 38.0753L19.7823 37.7703C19.6769 37.5576 19.1793 37.0676 16.8354 37.0676L16.5804 37.0683C15.9393 37.2076 13.6931 37.5562 12.957 37.5562C12.8017 37.5562 12.6957 37.5409 12.6056 37.5063C11.708 37.1653 9.64752 36.4819 8.68002 36.6018C7.52328 36.7342 6.29523 35.3536 5.40526 34.357C5.19041 34.1179 4.92566 33.8185 4.83763 33.7589C4.1917 33.4054 2.88311 30.9015 2.79865 30.6429C2.73281 30.4364 2.69123 30.1273 2.63439 29.6789C2.60529 29.4467 2.58172 29.2319 2.55607 29.1376C2.43409 28.8881 2.28578 28.5831 2.21925 27.9829C2.19569 27.7563 2.16242 27.7133 2.05707 27.5733C1.94964 27.4285 1.80202 27.2303 1.6544 26.8491C1.55321 26.5885 1.40906 26.357 1.25589 26.1109C1.03064 25.7491 0.7749 25.3382 0.653611 24.7997C0.45885 23.9077 0.396484 21.6358 0.396484 21.4521C0.396484 21.3232 0.396484 20.9864 1.32451 19.9745C1.38828 19.7728 1.53521 19.3535 1.75976 18.9682C1.94481 18.6549 2.2761 16.6936 2.38976 15.7717C2.45422 15.3156 2.42719 14.7473 2.39184 14.2497C2.35026 13.5691 2.80145 12.9911 2.85274 12.928L3.79878 11.7754L5.18977 10.3775V9.71491C5.18977 9.57491 5.24937 9.44184 5.35194 9.34759L6.22314 8.55471L7.05483 8.02796L8.09929 7.01954C8.17483 6.94677 8.27117 6.89964 8.37444 6.88439L9.3385 6.74716C10.1847 6.42212 11.0254 5.99172 11.2444 5.77616C11.4322 3.11831 13.7076 1.82984 15.0009 1.48262L16.6643 0.113102C16.8271 -0.0227388 17.06 -0.0366011 17.2402 0.0735966L18.7026 0.976661C18.8946 0.983592 19.2751 0.997454 19.4019 0.982899C19.4469 0.95587 19.6292 0.964186 19.876 0.983592C20.1622 1.00438 20.5871 1.04389 20.9073 0.98082C22.1083 0.746563 24.2097 0.352199 24.7691 0.352199C24.8052 0.352199 24.9209 0.361901 24.9569 0.370218C25.1787 0.422198 27.6238 0.791606 29.114 1.01339L30.2687 1.00715C30.7247 1.00715 31.3222 1.4029 31.449 1.9726C31.5134 2.27547 31.3367 3.14597 30.9202 4.56196L30.7663 5.1379V5.34166C30.9652 5.71037 31.23 6.07424 31.3506 6.13524C31.7373 6.15811 33.3466 6.93919 34.2671 7.3994C35.0468 7.93029 35.1681 8.12782 35.1681 8.38426C35.1681 8.61158 35.4356 8.8396 35.8826 8.99347C36.5813 9.23118 37.1655 9.63525 37.5516 9.90139C37.6243 9.95129 37.6874 9.99704 37.7415 10.0324C37.8898 9.9312 38.0811 9.74822 38.0915 9.60823C38.2446 8.64347 38.8185 7.86516 39.7139 7.3723C39.8124 7.31547 39.9309 7.28705 40.0709 7.28705C40.782 7.28705 42.742 8.25596 43.3242 8.55191L44.9369 9.41825C44.9674 9.41825 46.0756 9.74538 46.9032 9.74538C47.3024 9.74538 47.4597 9.66499 47.4826 9.63727C47.7577 9.06201 48.3766 8.74112 49.2222 8.74112C49.5611 8.74112 49.8182 8.7931 49.8459 8.79795L50.9618 9.2124C51.1295 9.27478 51.2501 9.4231 51.2778 9.59983C51.413 10.4592 51.6507 11.2244 52.0021 11.9341C52.0818 12.0228 52.1303 12.1399 52.1303 12.2681C52.1303 12.4261 52.0568 12.5682 51.9418 12.6583C52.1109 13.0173 52.3084 13.4144 52.4962 13.7742C53.4451 15.5207 53.7251 16.0766 53.8075 16.3066C53.8609 16.3987 54.0016 16.5928 54.1652 16.8243C55.0204 18.0302 55.175 18.3144 55.1271 18.6159C55.0994 18.8454 55.107 19.0512 55.1292 19.1697C55.455 19.2175 56.0441 19.537 57.0442 21.5573C57.0712 21.6128 57.0892 21.6724 57.0941 21.7355C57.144 22.3066 57.3055 24.1896 57.3055 24.4073C57.3124 24.3914 57.3561 24.4413 57.4025 24.4898C57.7768 24.6478 58.6216 25.0512 58.8649 25.5758C59.0506 25.966 59.3396 27.1131 59.3376 27.714C59.8172 28.2387 62.401 30.1501 63.2362 30.46C63.5411 30.5716 63.9077 30.7442 64.0443 31.0887C64.1545 31.3687 64.0609 31.6092 63.9944 31.7464C64.1087 32.0943 63.9396 32.3722 63.7289 32.5801C64.1489 32.8899 64.9404 33.321 65.1858 33.3453C65.6446 33.2531 71.2924 30.9307 71.7782 30.6181C71.9543 30.5058 72.1844 30.512 72.3486 30.6361C73.3612 31.3915 71.0463 37.7961 70.7635 38.4622C69.6151 41.1701 64.6125 46.0271 63.4211 46.5995C62.8798 46.8636 62.5569 47.4936 62.0675 48.4465C61.7564 49.0536 61.3682 49.8105 60.8207 50.6393C59.9447 51.9749 59.6501 52.663 59.5531 52.9583C59.7485 53.1905 59.9911 53.5543 59.9911 53.9293C59.9911 54.1531 59.9585 54.4629 59.9218 54.7887C59.8982 55.0063 59.8719 55.233 59.8581 55.4402C59.8858 55.6377 60.4028 56.4091 60.9628 57.0627C61.0273 57.1382 61.0682 57.2339 61.0793 57.3323C61.4708 60.8684 60.2434 62.795 59.8594 63.3018C59.3487 63.9796 59.1761 64.0974 58.6272 64.1404C58.4386 64.1674 58.0311 64.4218 57.6389 64.6678C57.1489 64.9769 56.4773 65.3969 55.5763 65.8849C54.2844 66.5876 54.3135 66.6403 54.5907 67.1518L54.7335 67.4228C55.2124 68.3716 55.3254 69.5464 55.2769 69.9359C55.2214 70.3371 54.8797 70.4966 53.4361 71.1141C52.9897 71.304 52.3528 71.5764 52.0679 71.7351C51.9051 72.7594 51.0644 74.1823 50.2181 74.8131C47.1429 77.7003 44.4663 77.7857 44.171 77.7857C44.1523 77.7697 42.7087 77.7877 40.8603 77.8938C40.4091 77.9631 39.9544 77.9998 39.5476 77.9998L39.5473 78ZM24.1341 38.9449C24.3455 38.9449 24.5174 39.0142 24.6456 39.1514C26.0664 40.5424 26.1357 41.6237 25.9493 42.291C25.6443 43.3972 25.6215 44.1235 25.6215 44.319C25.6215 44.4819 25.5625 44.6025 25.3172 45.0821C25.2139 45.2837 25.0407 45.6213 25.0122 45.7169C25.0171 45.8999 25.25 46.7143 25.5043 46.9159C25.9895 47.3027 27.1365 48.7748 27.2647 48.9397L28.9884 52.2235L29.8436 54.1599C29.8797 54.2431 29.8935 54.3346 29.8811 54.426C29.8325 54.7968 29.8221 55.239 29.8603 55.3541C29.8949 55.4643 29.9954 55.6514 30.1035 55.8649C30.4445 56.5323 30.649 56.962 30.6185 57.2898C30.6115 57.3487 30.4722 58.538 29.8714 59.252C29.5345 59.6553 28.4097 62.7299 29.3197 63.8374C30.4702 65.2505 30.6323 65.6539 30.7197 65.8716C30.7772 65.9589 31.2145 66.4475 31.4758 66.7407C31.7461 67.0435 31.9907 67.3208 32.067 67.4254C32.2804 67.7456 32.3678 68.1906 32.4378 68.5454L32.4606 68.6619C32.5244 68.9328 33.5834 71.7668 35.2808 73.0455C37.3019 74.5606 37.575 75.2245 37.575 75.6716C37.5722 75.8733 37.5653 76.2399 37.8515 76.531C38.2964 76.9829 39.3257 77.1229 40.7521 76.9095C42.6754 76.7951 44.1294 76.7951 44.1439 76.7951H44.1446C44.2798 76.7951 46.6944 76.7563 49.5748 74.0548C50.29 73.5169 51.0635 72.1689 51.096 71.4406C51.1009 71.3186 51.1515 71.2042 51.236 71.1169C51.4537 70.893 51.9527 70.6671 53.0394 70.2027C53.4449 70.0302 54.0208 69.7834 54.2862 69.6406C54.2703 69.2893 54.1691 68.5248 53.8399 67.8747L53.7096 67.6266C53.0928 66.4858 53.3776 65.9487 55.0964 65.0144C55.9697 64.5403 56.6254 64.1293 57.1042 63.8313C57.7619 63.4182 58.1244 63.1902 58.4675 63.1597C58.6033 63.15 58.6802 63.1417 58.701 63.1368C58.7655 63.098 58.9873 62.8027 59.06 62.7057C59.2915 62.4007 60.4081 60.7492 60.1003 57.5937C59.5778 56.9686 58.8188 55.956 58.859 55.3759C58.875 55.1541 58.902 54.9136 58.9263 54.6814C58.9582 54.3965 58.99 54.1263 58.99 53.9322C58.9783 53.8504 58.8133 53.6162 58.6574 53.4623C58.561 53.3687 58.5063 53.2384 58.5063 53.1054C58.5063 52.9286 58.6123 52.185 59.9839 50.096C60.5016 49.3122 60.8599 48.6135 61.176 47.9967C61.7138 46.9467 62.1387 46.1178 62.9801 45.7083C64.0321 45.2016 68.8144 40.4935 69.8408 38.0775C70.739 35.9553 71.4563 33.0333 71.6033 31.7963C69.8942 32.5691 65.753 34.3003 65.2283 34.3406H65.2263C64.5678 34.3406 62.7492 33.3502 62.5539 32.725C62.4755 32.4748 62.5601 32.2184 62.7708 32.0721C62.8297 32.0326 62.9191 31.9696 62.9836 31.919C62.9351 31.7353 62.9794 31.5704 63.0272 31.456C62.9905 31.438 62.9427 31.4193 62.8831 31.3964C62.4977 31.2543 58.1279 28.631 58.3394 27.721C58.3629 27.4944 58.1287 26.3667 57.9561 26.0029C57.8812 25.8615 57.3829 25.5607 56.931 25.3798C56.8756 25.3576 56.8257 25.3251 56.7813 25.2855C56.6372 25.1546 56.3045 24.8073 56.3045 24.4123C56.3024 24.2709 56.2012 23.0414 56.1049 21.9207C55.6974 21.1119 55.1901 20.3273 54.9662 20.1547C54.7077 20.145 54.5268 20.0542 54.3909 19.9025C54.1019 19.5753 54.0832 19.0181 54.1269 18.5759C54.0153 18.3437 53.5703 17.7172 53.3499 17.4046C52.9923 16.9008 52.8828 16.7469 52.853 16.6048C52.7414 16.3511 52.1502 15.2367 51.6131 14.2484C50.3364 11.7983 50.4536 11.5718 50.5666 11.3521C50.5867 11.3147 50.6123 11.2786 50.6421 11.2461C50.5166 10.8635 50.4169 10.467 50.3392 10.0505L49.5755 9.76219C49.5956 9.77882 49.4216 9.74347 49.2158 9.74347C48.9039 9.74347 48.5026 9.80308 48.3681 10.0824C48.1505 10.5253 47.6571 10.7491 46.8968 10.7491C45.88 10.7491 44.6055 10.3589 44.5528 10.343L42.8589 9.44268C41.8186 8.91386 40.5052 8.34486 40.1136 8.29495C39.6846 8.5493 39.1904 8.99426 39.0712 9.73169C39.0206 10.476 38.166 11.0056 37.85 11.0749C37.8154 11.0825 37.7675 11.088 37.7329 11.088C37.5014 11.088 37.3163 10.9605 36.9809 10.729C36.6205 10.4795 36.1243 10.1378 35.5552 9.94377C34.508 9.58408 34.2426 8.96723 34.1843 8.58674C34.088 8.50427 33.9161 8.37397 33.756 8.26378C32.7524 7.76615 31.4488 7.16457 31.1902 7.1209C30.5949 7.06823 30.0758 6.20675 29.82 5.69734C29.7854 5.62872 29.7667 5.55248 29.7667 5.47348V5.08121C29.7667 5.03754 29.7729 4.99388 29.7847 4.9523L29.9593 4.30219C30.213 3.43793 30.4757 2.37676 30.4681 2.15781C30.459 2.13009 30.3211 2.02058 30.2497 2.0088L29.0369 2.0095C28.3126 1.90692 25.0476 1.42108 24.7329 1.34761C24.4328 1.35454 22.9912 1.59434 21.0921 1.96445C20.6887 2.04484 20.1571 2.0095 19.7981 1.98316C19.6955 1.97554 19.6124 1.96791 19.559 1.96791C19.5659 1.97554 19.4744 1.98871 19.2014 1.98871C18.9124 1.98871 18.5284 1.97276 18.5284 1.97276C18.4431 1.96861 18.3607 1.94366 18.2879 1.8993L17.0168 1.11335L15.5426 2.32762C15.4851 2.37614 15.4151 2.4101 15.343 2.42812C15.221 2.45723 12.3454 3.18218 12.2263 5.96423C12.2236 6.01205 12.2146 6.05987 12.1993 6.10562C11.9928 6.70374 10.6912 7.30463 9.63568 7.70453C9.60171 7.7177 9.56637 7.72671 9.53033 7.73156L8.67091 7.85354L7.70616 8.78434C7.68121 8.8079 7.65279 8.83008 7.62368 8.8481L6.81763 9.35057L6.18 9.93968V10.5898C6.18 10.7222 6.12732 10.8469 6.03514 10.9405L4.53117 12.45L3.61909 13.5644C3.55533 13.6462 3.36404 13.9463 3.37998 14.1924C3.41879 14.7385 3.44721 15.3727 3.37097 15.9112C3.36889 15.9299 2.99947 18.8352 2.61066 19.4819C2.3771 19.8832 2.24333 20.3621 2.24195 20.367C2.22116 20.4446 2.18026 20.516 2.12551 20.5749C1.77412 20.9512 1.42413 21.4017 1.37629 21.5389C1.386 21.8099 1.46501 23.8851 1.61956 24.5933C1.70273 24.9648 1.8857 25.2573 2.0957 25.5962C2.26689 25.8707 2.44362 26.1548 2.57669 26.5014C2.6758 26.7564 2.76036 26.8701 2.84977 26.99C3.01887 27.2173 3.15194 27.4259 3.20116 27.8841C3.24898 28.3131 3.33839 28.4981 3.41047 28.6471C3.4375 28.7047 3.46245 28.7546 3.48116 28.8031C3.53453 28.941 3.56156 29.1475 3.61423 29.5655C3.64889 29.8406 3.69671 30.2183 3.7376 30.3486C3.85265 30.6744 4.99275 32.6683 5.33444 32.913C5.52018 33.0162 5.72671 33.2429 6.1391 33.7038C6.7393 34.3754 7.85723 35.6264 8.51768 35.6264C8.66392 35.6111 8.77828 35.6056 8.89817 35.6056C10.3321 35.6056 12.6885 36.4872 12.9533 36.5863C13.5881 36.5703 15.8496 36.2266 16.4061 36.0963C16.4429 36.0872 16.4817 36.0824 16.5191 36.0824L16.8303 36.0817C18.2095 36.0817 20.1065 36.212 20.6643 37.3327L20.8203 37.6473C21.2444 38.5165 21.4579 38.9517 22.4517 39.0016C23.2003 39.0376 23.6154 38.9968 23.8594 38.9718C23.9807 38.9538 24.0673 38.9455 24.1338 38.9455L24.1341 38.9449Z" fill="white"/>
<path d="M39.5473 78C38.4585 78 37.6505 77.7394 37.1451 77.2258C36.5671 76.6374 36.5796 75.9291 36.5838 75.6969C36.5817 75.6539 36.5172 75.2118 34.6869 73.838C32.7185 72.3555 31.5612 69.1799 31.4918 68.866L31.4662 68.7357C31.4183 68.4952 31.3476 68.1307 31.2527 67.9886C31.1938 67.9089 30.9775 67.6684 30.7377 67.4002C30.0072 66.5816 29.8576 66.3945 29.7979 66.2275C29.7432 66.0951 29.6094 65.7576 28.5539 64.4636C27.2426 62.8647 28.5726 59.2615 29.1125 58.6126C29.4154 58.2522 29.5914 57.5453 29.6323 57.1835C29.6115 57.0789 29.3592 56.5805 29.222 56.3144C29.0806 56.0372 28.96 55.7905 28.917 55.6567C28.8089 55.3247 28.8498 54.7425 28.8824 54.4355L28.0964 52.6522L26.4331 49.4738C26.0214 48.956 25.1821 47.9268 24.8868 47.6926C24.2797 47.2116 23.9741 45.9114 24.0385 45.5301C24.0676 45.3555 24.1813 45.1205 24.4329 44.6277C24.5133 44.4704 24.5902 44.3249 24.6283 44.2355C24.6353 43.8917 24.69 43.1217 24.9908 42.0224C25.1488 41.4583 24.8099 40.7215 24.0351 39.9439C24.0143 39.946 23.9935 39.948 23.9685 39.9501C23.6976 39.9792 23.2373 40.0298 22.4064 39.9848C20.8275 39.9071 20.3722 38.975 19.9334 38.0753L19.7823 37.7703C19.6769 37.5576 19.1793 37.0676 16.8354 37.0676L16.5804 37.0683C15.9393 37.2076 13.6931 37.5562 12.957 37.5562C12.8017 37.5562 12.6957 37.5409 12.6056 37.5063C11.708 37.1653 9.64752 36.4819 8.68002 36.6018C7.52328 36.7342 6.29523 35.3536 5.40526 34.357C5.19041 34.1179 4.92566 33.8185 4.83763 33.7589C4.1917 33.4054 2.88311 30.9015 2.79865 30.6429C2.73281 30.4364 2.69123 30.1273 2.63439 29.6789C2.60529 29.4467 2.58172 29.2319 2.55607 29.1376C2.43409 28.8881 2.28578 28.5831 2.21925 27.9829C2.19569 27.7563 2.16242 27.7133 2.05707 27.5733C1.94964 27.4285 1.80202 27.2303 1.6544 26.8491C1.55321 26.5885 1.40906 26.357 1.25589 26.1109C1.03064 25.7491 0.7749 25.3382 0.653611 24.7997C0.45885 23.9077 0.396484 21.6358 0.396484 21.4521C0.396484 21.3232 0.396484 20.9864 1.32451 19.9745C1.38828 19.7728 1.53521 19.3535 1.75976 18.9682C1.94481 18.6549 2.2761 16.6936 2.38976 15.7717C2.45422 15.3156 2.42719 14.7473 2.39184 14.2497C2.35026 13.5691 2.80145 12.9911 2.85274 12.928L3.79878 11.7754L5.18977 10.3775V9.71491C5.18977 9.57491 5.24937 9.44184 5.35194 9.34759L6.22314 8.55471L7.05483 8.02796L8.09929 7.01954C8.17483 6.94677 8.27117 6.89964 8.37444 6.88439L9.3385 6.74716C10.1847 6.42212 11.0254 5.99172 11.2444 5.77616C11.4322 3.11831 13.7076 1.82984 15.0009 1.48262L16.6643 0.113102C16.8271 -0.0227388 17.06 -0.0366011 17.2402 0.0735966L18.7026 0.976661C18.8946 0.983592 19.2751 0.997454 19.4019 0.982899C19.4469 0.95587 19.6292 0.964186 19.876 0.983592C20.1622 1.00438 20.5871 1.04389 20.9073 0.98082C22.1083 0.746563 24.2097 0.352199 24.7691 0.352199C24.8052 0.352199 24.9209 0.361901 24.9569 0.370218C25.1787 0.422198 27.6238 0.791606 29.114 1.01339L30.2687 1.00715C30.7247 1.00715 31.3222 1.4029 31.449 1.9726C31.5134 2.27547 31.3367 3.14597 30.9202 4.56196L30.7663 5.1379V5.34166C30.9652 5.71037 31.23 6.07424 31.3506 6.13524C31.7373 6.15811 33.3466 6.93919 34.2671 7.3994C35.0468 7.93029 35.1681 8.12782 35.1681 8.38426C35.1681 8.61158 35.4356 8.8396 35.8826 8.99347C36.5813 9.23118 37.1655 9.63525 37.5516 9.90139C37.6243 9.95129 37.6874 9.99704 37.7415 10.0324C37.8898 9.9312 38.0811 9.74822 38.0915 9.60823C38.2446 8.64347 38.8185 7.86516 39.7139 7.3723C39.8124 7.31547 39.9309 7.28705 40.0709 7.28705C40.782 7.28705 42.742 8.25596 43.3242 8.55191L44.9369 9.41825C44.9674 9.41825 46.0756 9.74538 46.9032 9.74538C47.3024 9.74538 47.4597 9.66499 47.4826 9.63727C47.7577 9.06201 48.3766 8.74112 49.2222 8.74112C49.5611 8.74112 49.8182 8.7931 49.8459 8.79795L50.9618 9.2124C51.1295 9.27478 51.2501 9.4231 51.2778 9.59983C51.413 10.4592 51.6507 11.2244 52.0021 11.9341C52.0818 12.0228 52.1303 12.1399 52.1303 12.2681C52.1303 12.4261 52.0568 12.5682 51.9418 12.6583C52.1109 13.0173 52.3084 13.4144 52.4962 13.7742C53.4451 15.5207 53.7251 16.0766 53.8075 16.3066C53.8609 16.3987 54.0016 16.5928 54.1652 16.8243C55.0204 18.0302 55.175 18.3144 55.1271 18.6159C55.0994 18.8454 55.107 19.0512 55.1292 19.1697C55.455 19.2175 56.0441 19.537 57.0442 21.5573C57.0712 21.6128 57.0892 21.6724 57.0941 21.7355C57.144 22.3066 57.3055 24.1896 57.3055 24.4073C57.3124 24.3914 57.3561 24.4413 57.4025 24.4898C57.7768 24.6478 58.6216 25.0512 58.8649 25.5758C59.0506 25.966 59.3396 27.1131 59.3376 27.714C59.8172 28.2387 62.401 30.1501 63.2362 30.46C63.5411 30.5716 63.9077 30.7442 64.0443 31.0887C64.1545 31.3687 64.0609 31.6092 63.9944 31.7464C64.1087 32.0943 63.9396 32.3722 63.7289 32.5801C64.1489 32.8899 64.9404 33.321 65.1858 33.3453C65.6446 33.2531 71.2924 30.9307 71.7782 30.6181C71.9543 30.5058 72.1844 30.512 72.3486 30.6361C73.3612 31.3915 71.0463 37.7961 70.7635 38.4622C69.6151 41.1701 64.6125 46.0271 63.4211 46.5995C62.8798 46.8636 62.5569 47.4936 62.0675 48.4465C61.7564 49.0536 61.3682 49.8105 60.8207 50.6393C59.9447 51.9749 59.6501 52.663 59.5531 52.9583C59.7485 53.1905 59.9911 53.5543 59.9911 53.9293C59.9911 54.1531 59.9585 54.4629 59.9218 54.7887C59.8982 55.0063 59.8719 55.233 59.8581 55.4402C59.8858 55.6377 60.4028 56.4091 60.9628 57.0627C61.0273 57.1382 61.0682 57.2339 61.0793 57.3323C61.4708 60.8684 60.2434 62.795 59.8594 63.3018C59.3487 63.9796 59.1761 64.0974 58.6272 64.1404C58.4386 64.1674 58.0311 64.4218 57.6389 64.6678C57.1489 64.9769 56.4773 65.3969 55.5763 65.8849C54.2844 66.5876 54.3135 66.6403 54.5907 67.1518L54.7335 67.4228C55.2124 68.3716 55.3254 69.5464 55.2769 69.9359C55.2214 70.3371 54.8797 70.4966 53.4361 71.1141C52.9897 71.304 52.3528 71.5764 52.0679 71.7351C51.9051 72.7594 51.0644 74.1823 50.2181 74.8131C47.1429 77.7003 44.4663 77.7857 44.171 77.7857C44.1523 77.7697 42.7087 77.7877 40.8603 77.8938C40.4091 77.9631 39.9544 77.9998 39.5476 77.9998L39.5473 78ZM24.1341 38.9449C24.3455 38.9449 24.5174 39.0142 24.6456 39.1514C26.0664 40.5424 26.1357 41.6237 25.9493 42.291C25.6443 43.3972 25.6215 44.1235 25.6215 44.319C25.6215 44.4819 25.5625 44.6025 25.3172 45.0821C25.2139 45.2837 25.0407 45.6213 25.0122 45.7169C25.0171 45.8999 25.25 46.7143 25.5043 46.9159C25.9895 47.3027 27.1365 48.7748 27.2647 48.9397L28.9884 52.2235L29.8436 54.1599C29.8797 54.2431 29.8935 54.3346 29.8811 54.426C29.8325 54.7968 29.8221 55.239 29.8603 55.3541C29.8949 55.4643 29.9954 55.6514 30.1035 55.8649C30.4445 56.5323 30.649 56.962 30.6185 57.2898C30.6115 57.3487 30.4722 58.538 29.8714 59.252C29.5345 59.6553 28.4097 62.7299 29.3197 63.8374C30.4702 65.2505 30.6323 65.6539 30.7197 65.8716C30.7772 65.9589 31.2145 66.4475 31.4758 66.7407C31.7461 67.0435 31.9907 67.3208 32.067 67.4254C32.2804 67.7456 32.3678 68.1906 32.4378 68.5454L32.4606 68.6619C32.5244 68.9328 33.5834 71.7668 35.2808 73.0455C37.3019 74.5606 37.575 75.2245 37.575 75.6716C37.5722 75.8733 37.5653 76.2399 37.8515 76.531C38.2964 76.9829 39.3257 77.1229 40.7521 76.9095C42.6754 76.7951 44.1294 76.7951 44.1439 76.7951H44.1446C44.2798 76.7951 46.6944 76.7563 49.5748 74.0548C50.29 73.5169 51.0635 72.1689 51.096 71.4406C51.1009 71.3186 51.1515 71.2042 51.236 71.1169C51.4537 70.893 51.9527 70.6671 53.0394 70.2027C53.4449 70.0302 54.0208 69.7834 54.2862 69.6406C54.2703 69.2893 54.1691 68.5248 53.8399 67.8747L53.7096 67.6266C53.0928 66.4858 53.3776 65.9487 55.0964 65.0144C55.9697 64.5403 56.6254 64.1293 57.1042 63.8313C57.7619 63.4182 58.1244 63.1902 58.4675 63.1597C58.6033 63.15 58.6802 63.1417 58.701 63.1368C58.7655 63.098 58.9873 62.8027 59.06 62.7057C59.2915 62.4007 60.4081 60.7492 60.1003 57.5937C59.5778 56.9686 58.8188 55.956 58.859 55.3759C58.875 55.1541 58.902 54.9136 58.9263 54.6814C58.9582 54.3965 58.99 54.1263 58.99 53.9322C58.9783 53.8504 58.8133 53.6162 58.6574 53.4623C58.561 53.3687 58.5063 53.2384 58.5063 53.1054C58.5063 52.9286 58.6123 52.185 59.9839 50.096C60.5016 49.3122 60.8599 48.6135 61.176 47.9967C61.7138 46.9467 62.1387 46.1178 62.9801 45.7083C64.0321 45.2016 68.8144 40.4935 69.8408 38.0775C70.739 35.9553 71.4563 33.0333 71.6033 31.7963C69.8942 32.5691 65.753 34.3003 65.2283 34.3406H65.2263C64.5678 34.3406 62.7492 33.3502 62.5539 32.725C62.4755 32.4748 62.5601 32.2184 62.7708 32.0721C62.8297 32.0326 62.9191 31.9696 62.9836 31.919C62.9351 31.7353 62.9794 31.5704 63.0272 31.456C62.9905 31.438 62.9427 31.4193 62.8831 31.3964C62.4977 31.2543 58.1279 28.631 58.3394 27.721C58.3629 27.4944 58.1287 26.3667 57.9561 26.0029C57.8812 25.8615 57.3829 25.5607 56.931 25.3798C56.8756 25.3576 56.8257 25.3251 56.7813 25.2855C56.6372 25.1546 56.3045 24.8073 56.3045 24.4123C56.3024 24.2709 56.2012 23.0414 56.1049 21.9207C55.6974 21.1119 55.1901 20.3273 54.9662 20.1547C54.7077 20.145 54.5268 20.0542 54.3909 19.9025C54.1019 19.5753 54.0832 19.0181 54.1269 18.5759C54.0153 18.3437 53.5703 17.7172 53.3499 17.4046C52.9923 16.9008 52.8828 16.7469 52.853 16.6048C52.7414 16.3511 52.1502 15.2367 51.6131 14.2484C50.3364 11.7983 50.4536 11.5718 50.5666 11.3521C50.5867 11.3147 50.6123 11.2786 50.6421 11.2461C50.5166 10.8635 50.4169 10.467 50.3392 10.0505L49.5755 9.76219C49.5956 9.77882 49.4216 9.74347 49.2158 9.74347C48.9039 9.74347 48.5026 9.80308 48.3681 10.0824C48.1505 10.5253 47.6571 10.7491 46.8968 10.7491C45.88 10.7491 44.6055 10.3589 44.5528 10.343L42.8589 9.44268C41.8186 8.91386 40.5052 8.34486 40.1136 8.29495C39.6846 8.5493 39.1904 8.99426 39.0712 9.73169C39.0206 10.476 38.166 11.0056 37.85 11.0749C37.8154 11.0825 37.7675 11.088 37.7329 11.088C37.5014 11.088 37.3163 10.9605 36.9809 10.729C36.6205 10.4795 36.1243 10.1378 35.5552 9.94377C34.508 9.58408 34.2426 8.96723 34.1843 8.58674C34.088 8.50427 33.9161 8.37397 33.756 8.26378C32.7524 7.76615 31.4488 7.16457 31.1902 7.1209C30.5949 7.06823 30.0758 6.20675 29.82 5.69734C29.7854 5.62872 29.7667 5.55248 29.7667 5.47348V5.08121C29.7667 5.03754 29.7729 4.99388 29.7847 4.9523L29.9593 4.30219C30.213 3.43793 30.4757 2.37676 30.4681 2.15781C30.459 2.13009 30.3211 2.02058 30.2497 2.0088L29.0369 2.0095C28.3126 1.90692 25.0476 1.42108 24.7329 1.34761C24.4328 1.35454 22.9912 1.59434 21.0921 1.96445C20.6887 2.04484 20.1571 2.0095 19.7981 1.98316C19.6955 1.97554 19.6124 1.96791 19.559 1.96791C19.5659 1.97554 19.4744 1.98871 19.2014 1.98871C18.9124 1.98871 18.5284 1.97276 18.5284 1.97276C18.4431 1.96861 18.3607 1.94366 18.2879 1.8993L17.0168 1.11335L15.5426 2.32762C15.4851 2.37614 15.4151 2.4101 15.343 2.42812C15.221 2.45723 12.3454 3.18218 12.2263 5.96423C12.2236 6.01205 12.2146 6.05987 12.1993 6.10562C11.9928 6.70374 10.6912 7.30463 9.63568 7.70453C9.60171 7.7177 9.56637 7.72671 9.53033 7.73156L8.67091 7.85354L7.70616 8.78434C7.68121 8.8079 7.65279 8.83008 7.62368 8.8481L6.81763 9.35057L6.18 9.93968V10.5898C6.18 10.7222 6.12732 10.8469 6.03514 10.9405L4.53117 12.45L3.61909 13.5644C3.55533 13.6462 3.36404 13.9463 3.37998 14.1924C3.41879 14.7385 3.44721 15.3727 3.37097 15.9112C3.36889 15.9299 2.99947 18.8352 2.61066 19.4819C2.3771 19.8832 2.24333 20.3621 2.24195 20.367C2.22116 20.4446 2.18026 20.516 2.12551 20.5749C1.77412 20.9512 1.42413 21.4017 1.37629 21.5389C1.386 21.8099 1.46501 23.8851 1.61956 24.5933C1.70273 24.9648 1.8857 25.2573 2.0957 25.5962C2.26689 25.8707 2.44362 26.1548 2.57669 26.5014C2.6758 26.7564 2.76036 26.8701 2.84977 26.99C3.01887 27.2173 3.15194 27.4259 3.20116 27.8841C3.24898 28.3131 3.33839 28.4981 3.41047 28.6471C3.4375 28.7047 3.46245 28.7546 3.48116 28.8031C3.53453 28.941 3.56156 29.1475 3.61423 29.5655C3.64889 29.8406 3.69671 30.2183 3.7376 30.3486C3.85265 30.6744 4.99275 32.6683 5.33444 32.913C5.52018 33.0162 5.72671 33.2429 6.1391 33.7038C6.7393 34.3754 7.85723 35.6264 8.51768 35.6264C8.66392 35.6111 8.77828 35.6056 8.89817 35.6056C10.3321 35.6056 12.6885 36.4872 12.9533 36.5863C13.5881 36.5703 15.8496 36.2266 16.4061 36.0963C16.4429 36.0872 16.4817 36.0824 16.5191 36.0824L16.8303 36.0817C18.2095 36.0817 20.1065 36.212 20.6643 37.3327L20.8203 37.6473C21.2444 38.5165 21.4579 38.9517 22.4517 39.0016C23.2003 39.0376 23.6154 38.9968 23.8594 38.9718C23.9807 38.9538 24.0673 38.9455 24.1338 38.9455L24.1341 38.9449Z" stroke="white" stroke-width="0.4" mask="url(#path-2-outside-1_17_2828)"/>
</g>
<defs>
<clipPath id="clip0_17_2828">
<rect width="72" height="80" fill="white" transform="translate(0.25)"/>
</clipPath>
</defs>
</svg>
