<svg width="51" height="80" viewBox="0 0 51 80" fill="none" xmlns="http://www.w3.org/2000/svg">
<path d="M50.3938 50.0708C50.2808 49.6286 49.8819 49.3196 49.425 49.3196H48.7728L47.1072 48.3027C46.9293 48.1924 46.7214 48.1457 46.5352 48.1569L44.894 48.242C44.7056 47.995 44.5173 47.8458 44.2153 47.7942L42.0377 47.4203C42.0607 47.0325 42.0984 46.7835 41.8689 46.4682L40.3748 44.4022C40.1886 44.1462 39.8949 43.9942 39.5776 43.9893L37.2005 43.9572L35.8027 42.6466C35.7309 42.5775 35.6465 42.5196 35.5565 42.4764L33.3886 41.4245C33.2386 41.3527 33.0754 41.3185 32.8947 41.3269L30.6898 41.4538C30.1625 40.9886 30.1081 40.8951 29.405 40.9837C29.1553 40.4759 28.5443 40.2799 28.049 40.5359L25.5093 41.8486C25.2596 41.9798 25.1752 42.1255 25.0162 42.3627C24.7755 42.1737 24.4519 42.0976 24.1303 42.1869L22.9557 42.5169L22.2666 42.0767L22.6914 39.9709C22.7737 39.5657 22.5972 39.1528 22.2491 38.9309L21.4275 38.405C21.2321 38.2802 21.0334 38.2411 20.8178 38.2502C20.6978 38.2592 20.5277 38.2704 20.3316 38.283L20.7815 36.2343C20.9273 35.5765 20.3853 34.9781 19.7625 35.0213L17.9699 35.0966C17.6058 35.112 17.2786 35.3233 17.1168 35.6505L16.7709 36.3466L15.9227 36.6598L15.1129 35.8255L15.0605 34.3629L15.4707 33.5391C15.5439 33.3912 15.5795 33.228 15.5746 33.0634L15.5565 32.4733C15.9283 32.2975 16.2833 32.135 16.4856 32.052C16.8413 32.121 17.6365 32.2968 18.3082 32.453C18.8941 32.587 19.1668 32.2794 19.5009 31.8811L20.9545 32.2264C21.0306 32.2445 21.2628 32.2515 21.3012 32.2466L22.1515 34.2708C21.1924 34.3098 20.8346 35.5556 21.6318 36.0975L24.3954 37.9745C24.5614 38.0875 24.7567 38.1475 24.9576 38.1475H25.9167C26.013 38.4265 26.2306 38.6616 26.5298 38.7662L28.0239 39.2921C28.222 39.3619 28.4347 39.3661 28.6265 39.3124L30.4945 38.7885C31.2973 38.5625 31.4878 37.5086 30.8105 37.0155L29.8765 36.3382C29.7056 36.214 29.5005 36.1484 29.2892 36.1484H28.056C27.8607 36.1484 27.6689 36.2056 27.5063 36.3137C27.4415 36.357 27.3745 36.3995 27.3082 36.4428C27.2455 36.3807 27.1743 36.327 27.0976 36.281L24.1868 34.6153C24.6486 33.3877 24.6486 33.2642 24.6486 33.0954C24.6486 32.9503 24.6486 32.8645 24.0703 30.7127L26.1385 28.9835C26.3087 28.8412 26.4265 28.6466 26.4747 28.4297L26.8946 26.5066L27.5663 25.6235L28.5093 25.2385C29.2145 24.9518 29.158 24.3945 29.0443 23.7758C29.105 23.7396 29.1671 23.704 29.2305 23.667L29.2515 23.6928C29.5646 24.0918 30.1261 24.1929 30.5607 23.9279L32.4649 22.7637C32.8778 22.5105 33.0571 21.9937 32.8701 21.534C33.1722 21.5403 33.5579 21.5459 33.9164 21.5459C34.9076 21.5459 35.9322 21.5459 35.9322 20.4843C35.9322 20.275 35.9322 20.1711 35.257 18.5592C35.0917 18.1651 34.6997 17.8951 34.1773 17.9572C34.1745 17.7466 34.1061 17.5464 33.9855 17.3804C33.9597 17.1167 33.8285 16.8691 33.6144 16.6996L32.5305 15.8368C32.4914 15.8047 32.4482 15.7761 32.4035 15.751L30.6967 14.7752L29.6309 13.2351C29.5667 13.1423 29.4858 13.0614 29.3986 12.9958C29.3986 12.9958 29.3986 11.8979 29.3965 11.884C29.5402 11.7082 29.6225 11.4857 29.6225 11.252V10.2378C29.6225 9.89674 29.4474 9.57868 29.1615 9.39453L27.7574 8.49753L27.3954 7.74073C27.3214 7.58448 27.207 7.45195 27.0654 7.35291L25.2958 5.98997L25.3816 5.89092C25.6816 6.20758 25.8797 6.38615 26.2256 6.44055C26.3093 6.4545 27.2168 6.45869 27.4058 6.45729L29.3114 8.26596C29.8095 9.90093 30.0452 10.6096 30.5691 10.8146C30.8502 11.0608 31.487 11.6753 31.8888 12.0652C33.2949 13.4254 33.3228 13.4512 33.7755 13.4512H35.3811C36.0152 13.4512 36.4923 12.8653 36.3591 12.2424L35.7899 9.57021L36.1435 9.1545C36.2963 8.97384 36.3807 8.74435 36.3807 8.50651V7.84247L36.7706 7.2677C36.8815 7.10239 36.9429 6.90779 36.9429 6.70761V5.61878C36.9429 5.29861 36.7887 4.99798 36.5286 4.80896L35.2995 3.91823L35.1084 3.45996C35.0324 3.27372 34.8992 3.11609 34.7318 3.00588L30.9973 0.575805C30.8815 0.500473 30.7511 0.449555 30.613 0.427933L28.1109 0.0150046C27.7859 -0.0456784 27.4023 0.0777801 27.1623 0.383988L26.3323 1.44282C26.2256 1.42189 24.9826 1.23984 24.8243 1.23984C24.5885 1.23984 24.5746 1.23984 22.0935 2.20869C21.7092 2.35866 21.4574 2.72835 21.4574 3.13987C21.4574 3.13987 21.4581 4.0257 21.4615 4.0557C21.1979 4.12964 21.0256 4.27473 20.9133 4.42399L20.7103 4.06895C20.5771 3.83667 20.3581 3.66927 20.1021 3.60022C19.9779 3.10708 19.5001 2.77994 18.991 2.85318L17.6092 3.05128C17.289 3.09732 17.0121 3.29402 16.8635 3.57999C16.6243 3.62324 16.2274 3.79691 15.2083 4.49095C14.9593 4.65975 14.8533 4.8697 14.7842 5.13615C14.5492 4.95202 14.2381 4.8962 13.0851 4.88434L12.3834 2.84622C12.4657 2.18498 12.4601 1.60813 11.7173 1.3933L9.39952 0.717402C9.16655 0.649743 8.91754 0.668576 8.69434 0.772505L8.13424 1.03548C7.89709 1.14778 7.8085 1.27612 7.67108 1.45538L7.27419 1.26427C6.87103 1.06826 6.3723 1.16731 6.07445 1.52304L5.47668 2.2359C5.40553 2.321 5.34973 2.41586 5.31067 2.51561H5.30858C5.16768 2.51561 5.02539 2.5456 4.89356 2.60559L3.66036 3.16847C3.55713 3.21521 3.46366 3.27938 3.38205 3.3575L2.48506 4.22171C2.36439 4.3375 2.2751 4.48257 2.22489 4.64162L2.00099 5.35448C1.95984 5.48422 1.94589 5.62024 1.95984 5.75556L1.02098 6.00038C0.0918988 6.24312 0.00818828 7.52933 0.89264 7.89208L1.71432 8.23037C1.83499 8.28059 1.96402 8.30571 2.09446 8.30571H4.07473C4.18982 8.30571 4.30072 8.28548 4.40606 8.24991L5.22634 8.62657C5.32539 8.6726 5.42932 8.7005 5.53535 8.71236L5.63858 8.99765C5.65881 9.05345 5.68461 9.10786 5.71391 9.15948L6.10173 9.8277V13.1667L5.6637 15.1784L5.45864 15.3841C5.22497 15.6192 5.12244 15.9554 5.18592 16.2804L5.42167 17.4955L4.29379 19.8636C3.26288 21.8515 3.26288 21.9415 3.26288 22.2087C3.26288 22.2749 3.26288 22.3754 3.64163 25.8817C3.65558 26.008 3.69255 26.1307 3.75253 26.243L4.56583 27.7748L4.80298 29.513C4.80996 29.5667 4.82182 29.6211 4.83925 29.6741L5.73625 32.564C5.76624 32.6602 5.81019 32.7509 5.86738 32.8339L6.95062 34.411C7.22684 34.812 7.75068 34.955 8.19289 34.7542C8.31007 34.7004 8.41261 34.6258 8.4977 34.5372L8.75438 35.0039V36.0606C8.75438 36.2908 8.8332 36.5133 8.97967 36.6919L9.98897 37.9307C10.0699 38.0297 10.1689 38.1127 10.2798 38.1748L13.6049 40.0135C13.8002 40.1202 14.0262 40.1634 14.2598 40.1237L14.9406 40.0058L15.7804 40.5847L16.1696 41.0967C16.2959 41.262 16.471 41.3834 16.6697 41.4468L18.3829 41.9756L19.1941 42.7645L19.3412 43.2074C19.4082 43.4083 19.5366 43.5833 19.7095 43.7061L21.3905 44.9072C21.4659 44.9609 21.5475 45.0042 21.6347 45.0356L22.6809 45.4108C22.7891 45.4499 22.9042 45.4701 23.0192 45.4701H23.5424C23.6847 45.4701 23.8221 45.4408 23.9483 45.3843L24.0237 45.4841L23.8849 46.4104L23.4566 46.8554C23.2655 47.0563 23.2278 47.2397 23.1434 47.5062L22.8114 47.7224C22.6021 47.8591 22.4515 48.0684 22.3887 48.3083L21.9778 49.884C21.9276 50.0758 21.936 50.2788 22.0009 50.465L22.1027 50.7607L21.9109 51.0677C21.7191 51.3725 21.7058 51.7554 21.8767 52.0735L24.8278 57.5525C24.8976 57.6823 24.9959 57.7953 25.1145 57.8838L28.1494 60.1228L27.5656 64.4935L26.0548 69.7535C26.0338 69.8274 26.0206 69.9028 26.0171 69.9816L25.8371 73.6352L25.095 75.8701C25.0078 76.1309 25.0329 76.4162 25.1626 76.6583L26.4328 79.0228C26.5416 79.2258 26.7167 79.3841 26.9294 79.472L28.0127 79.9219C28.1354 79.9749 28.2666 80 28.3977 80H29.9294C30.9673 80 31.3147 78.6071 30.4037 78.1188L29.7578 77.7708L29.6511 77.3055L31.065 75.9719C31.4563 75.6071 31.4961 74.9751 31.1082 74.5601L31.9564 73.6889C32.1971 73.4406 32.2396 73.1951 32.2396 72.884L32.5674 72.8652C32.9943 72.84 33.3584 72.5471 33.4714 72.1363L33.5614 71.8126L35.2103 71.5406C35.4921 71.4939 35.7404 71.3286 35.8932 71.0879L36.6039 69.9621C36.6897 69.8254 36.7406 69.6712 36.7532 69.515C37.1661 69.5841 37.4849 69.6461 37.8595 69.2597C41.5075 65.4777 41.5682 65.3877 41.6323 65.2902C41.7265 65.1473 41.7962 65.0419 42.085 63.7585L44.073 62.7304C45.0899 62.5525 45.1981 62.5176 45.2636 62.4953C45.5363 62.4025 45.6626 62.3614 46.7459 60.9566C46.7996 60.8868 46.8449 60.8094 46.8791 60.7278L48.0369 57.9126C48.0746 57.8198 48.0997 57.7215 48.1067 57.6224L48.265 55.8717L49.8937 53.9346C49.9649 53.8488 50.0228 53.7498 50.0639 53.6458C50.7259 51.8979 50.7259 51.7981 50.7259 51.6007C50.7238 51.4738 50.7238 51.3559 50.3938 50.0711V50.0708ZM26.8735 37.821C27.0283 37.821 28.0585 37.1437 28.0585 37.1437H29.2917L30.2264 37.821L28.3577 38.3449L26.865 37.8189C26.8657 37.821 26.8692 37.821 26.8734 37.821L26.8735 37.821ZM26.6014 37.1437H24.9574L22.1938 35.2667L23.6509 35.455L26.6014 37.1437ZM26.4898 8.16823L26.976 9.18241L28.62 10.2336V11.2478L27.1999 10.4965L28.394 11.9223V13.048L26.9 12.6728L25.5001 11.321L25.9297 10.0453L24.511 8.54421H22.5873C22.4192 8.54421 22.1953 7.75601 22.1953 7.64302C22.1953 7.53002 22.9793 6.70486 22.9793 6.70486L24.8235 7.0048L26.4898 8.16823ZM24.5967 11.7506C23.7555 11.7248 23.3509 12.3874 23.503 12.9928L23.7569 14.0007C23.5009 14.4688 23.2972 14.8336 23.6509 15.3448L23.9508 15.778L23.736 15.9328C23.6097 15.8366 23.4618 15.771 23.3028 15.7417L22.2928 15.5625L21.0017 14.4925C20.8239 14.3446 20.6006 14.2644 20.3726 14.2623L20.3586 14.1925L21.3484 13.0444L22.4895 12.5345C22.6883 12.4453 22.8536 12.2939 22.9583 12.1028L23.2442 11.5817L23.533 11.6047C24.4642 11.6717 24.557 10.9749 24.7167 10.2181L24.7899 10.2948C24.6128 10.8249 24.3714 11.2818 24.5967 11.7505L24.5967 11.7506ZM26.9766 2.23795L27.9468 0.999169L30.4496 1.4121L34.1841 3.84217L34.4833 4.5599L35.9404 5.61595V6.70477L35.3796 7.53342V8.50366L34.7079 9.29464L35.3796 12.4474H33.7746C33.6637 12.4474 31.1394 9.87569 30.9776 9.87569C30.9755 9.87569 30.9734 9.87569 30.9734 9.87638C30.9713 9.87708 30.9692 9.87708 30.9692 9.87708C30.8444 9.87708 30.188 7.71825 30.188 7.71825L27.7969 5.44853C27.7969 5.44853 26.4151 5.45481 26.3767 5.44853C26.27 5.43179 25.5725 4.56059 25.4204 4.56059C25.4142 4.56059 25.4093 4.56128 25.4051 4.56477L26.1507 3.84284V3.13905L26.9766 2.23795ZM22.4561 3.13915C22.4561 3.13915 24.7606 2.23795 24.8228 2.23795C24.8834 2.23795 26.1536 2.42628 26.1536 2.42628L24.8228 5.00438L24.4356 5.44731L22.7546 5.16622L23.3894 4.37802L22.4554 3.96509L22.4561 3.13915ZM22.4177 5.05317L22.8655 5.91599H24.2473L24.4342 6.70418C24.4342 6.70418 22.6047 6.40425 22.3793 6.32892C22.1554 6.25358 21.7815 5.16477 21.7076 5.05317C21.6839 5.01481 22.4177 5.05317 22.4177 5.05317H22.4177ZM19.1311 3.84229V4.37729L19.318 5.00296L19.8411 4.56423L20.185 5.16618L19.6159 5.44797C19.6159 5.44797 19.228 5.42216 18.9386 5.42216C18.7977 5.42216 18.6805 5.42844 18.6449 5.44588C18.6428 5.44658 18.6407 5.44797 18.6379 5.44797C18.504 5.44797 17.7479 4.039 17.7479 4.039L19.1311 3.84229ZM19.6172 8.50584C19.6172 8.50584 19.0313 8.73461 18.8625 8.73461C18.8507 8.73461 16.6283 8.12987 16.6283 8.12987L16.3675 6.66579L17.7493 5.91458L18.6079 6.5528L19.2796 6.32751C19.2796 6.55419 19.6172 8.5058 19.6172 8.5058L19.6172 8.50584ZM15.769 5.31616C15.769 5.31616 16.8739 4.56424 17.0643 4.56424C17.0692 4.56424 17.0734 4.56424 17.0762 4.56494C17.2254 4.60191 17.7479 5.16481 17.7479 5.16481V5.65307L16.0668 6.32897H15.5068L15.769 5.31616ZM49.1247 53.2855L47.2951 55.4623L47.1068 57.5264L45.9496 60.3402C45.9496 60.3402 45.0526 61.5043 44.9403 61.5413C44.828 61.5789 43.7455 61.7666 43.7455 61.7666L41.2058 63.0807C41.2058 63.0807 40.8696 64.6194 40.7949 64.7324C40.721 64.8454 37.1351 68.5605 37.1351 68.5605L35.1171 68.2222L35.7519 69.4233L35.0418 70.5505L32.7637 70.9257L32.5014 71.8639L31.2313 71.9378V72.9897L29.6256 74.6407L30.3726 75.2427L28.543 76.9697L28.8792 78.4345L29.9255 78.9974H28.3938L27.3119 78.5475L26.0411 76.1836L26.8251 73.8191L27.0134 70.0282L28.543 64.6984L29.2148 59.6687L25.7042 57.0788L22.7531 51.599L23.2009 50.8862L22.9386 50.1342L23.3494 48.5586L23.9842 48.1463L24.1711 47.5444L24.8191 46.8685L25.0674 45.2168L24.5073 44.4655L24.1334 43.5644L23.3118 43.9396L23.5357 44.4648H23.0125L21.9662 44.0896L20.2852 42.8885L20.0613 42.2126L18.9035 41.0868L16.9609 40.4855L16.4747 39.8473L15.1676 38.9461L14.0843 39.1344L10.7593 37.2958L9.74998 36.057V34.7428L7.62115 30.8773L7.06105 29.0756L6.50095 28.1374L6.46398 29.1886L7.47328 32.7167L7.77251 33.8424L6.68928 32.2654L5.79228 29.3755L5.53142 27.4615L4.63442 25.7728C4.63442 25.7728 4.26054 22.3201 4.26054 22.2071C4.26054 22.0941 5.19452 20.293 5.19452 20.293L6.4647 17.6278L6.16546 16.0891L6.5763 15.6762L7.09944 13.2739V9.55821L6.5763 8.65702L6.1285 7.41824L5.64232 7.71817L4.74602 7.30524L5.75532 6.74235L4.2982 6.89232L4.0743 7.30525H2.09403L1.27235 6.96696L3.14031 6.47869L2.95337 5.65284L3.17727 4.93998L4.07427 4.07576L5.30746 3.51288L6.01754 4.07576L6.50371 3.8128L6.24285 2.87464L6.84063 2.16178L7.69927 2.57471L7.40003 2.72467L7.66089 3.09994L8.55789 1.93579L9.11799 1.67283L11.4338 2.34872L11.3585 2.94859L12.3677 5.87667C12.3677 5.87667 14.1234 5.87667 14.1973 5.95201C14.2726 6.02734 16.0269 8.31655 16.0269 8.31655L18.1187 8.87943C18.1187 8.87943 19.0757 9.25749 19.2564 9.25749C19.2641 9.25749 19.2717 9.25679 19.2766 9.25539C19.3889 9.21842 20.1736 8.27958 20.1736 8.27958V9.5937L20.7714 9.21843L20.4721 8.28028L21.1439 7.45442C21.1439 7.45442 20.3968 7.45442 20.2469 7.52975C20.2427 7.53184 20.2392 7.53254 20.235 7.53254C20.106 7.53254 20.2469 6.32863 20.2469 6.32863H21.4047L22.0764 6.7039L21.1425 7.45512L21.6656 8.05638L21.4047 8.65763L22.2264 9.1459L22.2634 10.0087L22.9735 8.76993L23.9074 9.18286L23.6082 10.6086L22.6742 10.5333L22.0764 11.6221L20.7316 12.2219L19.2745 13.9106L19.5738 15.3747L20.3578 15.2617L21.8518 16.5005L23.122 16.7258L22.8228 17.8516L23.9437 19.1273L24.3915 18.3015L24.1306 16.8757L25.3255 16.0129L24.4668 14.7741L24.8156 14.1359L24.4668 12.7472L25.8486 12.7841L27.1927 13.5354L27.418 14.5865L28.165 14.8118L28.8012 13.7976L29.9953 15.5247L31.9002 16.6135L32.9821 17.4763L32.8342 18.1892L33.1704 17.9639L33.1334 19.0897L34.3283 18.9397C34.3283 18.9397 34.926 20.3668 34.926 20.4784C34.926 20.5265 34.4517 20.5405 33.9098 20.5405C33.1885 20.5405 32.3466 20.5154 32.3466 20.5154L32.7219 18.6767L32.5336 18.2638L31.2264 19.2766L29.6208 19.0883L28.052 20.514L29.3592 19.7628L30.2939 19.9127L29.6591 20.5886L30.3692 21.5268L31.9372 21.902L30.033 23.0662L29.4722 22.3533C29.4722 22.3533 28.1274 23.1415 28.0151 23.2161C27.9042 23.2915 28.1274 24.305 28.1274 24.305L26.9332 24.7932L25.9616 26.069L25.4964 28.2139L22.9372 30.3538C22.9372 30.3538 23.6473 32.9821 23.6473 33.0937C23.6473 33.2067 23.2364 34.2948 23.2364 34.2948L22.2655 31.8926L21.7054 31.0667L21.1822 31.2551L19.1273 30.7668L18.5296 31.4797C18.5296 31.4797 16.5877 31.0298 16.4007 31.0298C16.2138 31.0298 14.5328 31.8556 14.5328 31.8556L14.5697 33.0944L14.0466 34.1456L14.1219 36.2472L15.6537 37.8243L17.4832 37.1484L18.0064 36.0973L19.799 36.0219L19.2389 38.5742C19.2389 38.5742 18.4549 39.287 18.3419 39.3623C18.323 39.3742 18.3809 39.3805 18.4911 39.3805C19.0401 39.3805 20.8823 39.2507 20.8823 39.2507L21.704 39.7767L21.1439 42.5549L22.7879 43.6061L24.3936 43.1548L25.1036 44.0176L25.9623 42.7426L28.502 41.4285L28.2411 42.1413L29.7352 41.953L30.333 42.4782L32.9481 42.3289L35.1153 43.3801L36.7963 44.9558L39.5599 44.9927L41.054 47.0573L40.9801 48.257L44.0428 48.783L44.4167 49.2712L46.5839 49.1582L48.4888 50.3224H49.4228C49.4228 50.3224 49.7227 51.4865 49.7227 51.5974C49.7248 51.7097 49.1249 53.2854 49.1249 53.2854L49.1247 53.2855ZM31.3785 20.744L30.9823 20.6492C31.0932 20.5271 31.163 20.449 31.2306 20.2795H31.2327C31.2836 20.2795 31.3339 20.2753 31.3827 20.2683C31.3527 20.4337 31.3366 20.5536 31.3785 20.7441L31.3785 20.744Z" fill="white"/>
</svg>
