<svg width="100" height="80" viewBox="0 0 100 80" fill="none" xmlns="http://www.w3.org/2000/svg">
<mask id="path-1-outside-1_17_2696" maskUnits="userSpaceOnUse" x="3" y="3" width="93" height="63" fill="black">
<rect fill="white" x="3" y="3" width="93" height="63"/>
<path d="M94.4243 11.516L85.845 9.53587C85.7762 9.52014 85.7061 9.51228 85.6366 9.51228H78.1126L61.8547 7.56618C61.818 7.56159 61.7807 7.55963 61.7426 7.55963C61.7105 7.55963 61.5873 7.57208 61.5565 7.57864L56.7527 8.56313L54.3695 7.00905C54.2285 6.91598 54.0634 6.86354 53.8943 6.85764L45.2535 6.51157C45.3551 6.2566 45.34 5.97344 45.2122 5.73093C45.0844 5.48841 44.8582 5.31667 44.5908 5.25704L39.0267 4.02216C38.8569 3.98349 38.68 3.9966 38.5181 4.05232L29.5024 7.20839H24.1343C23.8597 7.20839 23.6014 7.32768 23.4238 7.53742C23.2461 7.74716 23.1708 8.02114 23.216 8.29184L23.5404 10.2039L21.3972 11.5089C21.0983 11.6904 20.9272 12.0208 20.9528 12.3708L21.5034 20.0815C21.5106 20.1805 21.5335 20.2781 21.5722 20.3725L21.9615 21.3046C22.1411 21.7352 22.6373 21.9705 23.0823 21.8394L24.2576 21.4861L25.3155 23.6576L19.598 24.4074C19.2906 24.4481 19.0251 24.6375 18.8868 24.9161C18.7485 25.194 18.7571 25.521 18.9104 25.7898L22.8746 32.7763L22.5285 35.735L20.7556 34.7387L20.8972 33.6704C20.9529 33.2528 20.7202 32.8491 20.3315 32.6885L14.9011 30.4343C14.4987 30.2659 14.0104 30.4153 13.7705 30.7784L12.7932 32.2545L9.54552 31.3382C9.39542 31.2969 9.23614 31.2923 9.08212 31.3277L4.71943 32.3423C4.47035 32.4 4.25406 32.56 4.12558 32.7808C3.9971 33.0017 3.96565 33.2692 4.03841 33.513L4.74302 35.893C4.84002 36.2201 5.10745 36.4672 5.44041 36.5386L10.8577 37.6857L8.59312 40.2969C8.32504 40.6063 8.2903 41.0474 8.50464 41.3935L17.6391 56.2526C17.9072 56.6885 18.5253 56.8242 18.95 56.5384L29.5669 49.4254C29.8114 49.2609 29.9609 48.9987 29.9786 48.7044C29.9956 48.4101 29.877 48.1341 29.6528 47.9421L27.1634 45.8223C26.9943 45.6788 26.7799 45.5995 26.5571 45.5995C26.5361 45.5995 26.4529 45.6054 26.4312 45.608L23.5296 46.0117L20.5866 43.078L21.0172 42.1977L26.2877 45.1493C26.3768 45.201 26.4738 45.2358 26.5735 45.2535L33.7966 46.6063L38.5257 49.2439L42.2625 60.2417C42.471 60.8513 43.3421 61.0624 43.8015 60.6009L45.2107 59.1917C45.391 59.0134 45.4906 58.7644 45.4841 58.5074L45.3759 54.6213L49.5525 49.5631L52.3658 48.6815L54.555 53.4617C54.7497 53.8871 55.2655 54.1079 55.7099 53.9519L57.0903 53.459L58.2452 60.2856C58.2727 60.4488 58.3429 60.6022 58.4517 60.7313L62.5122 65.5469C62.6892 65.7586 62.9474 65.8786 63.2188 65.8786C63.7346 65.8786 64.1534 65.4611 64.1534 64.9472V64.2839C64.1534 64.0872 64.0931 63.8985 63.9765 63.7392L60.2646 58.6135L60.5157 57.2181L63.4147 59.9402C63.7437 60.2476 64.2904 60.2673 64.6371 59.9854L67.175 57.9352C67.3618 57.7857 67.4824 57.5714 67.5132 57.3328L67.6882 56.0343C67.7289 55.7184 67.6096 55.4077 67.3671 55.2039L63.9974 52.352L64.8226 49.8581H67.2838C67.3972 49.8581 67.5093 49.8371 67.6214 49.7952L71.4938 48.2883C71.7416 48.1932 71.9362 47.9959 72.0293 47.7482L73.9517 42.6245C74.052 42.3538 74.0206 42.0458 73.8652 41.8006L71.0075 37.2956C70.997 37.2799 70.9557 37.2216 70.9452 37.2065L68.5358 34.2399L71.4598 33.547L75.3801 38.0868C75.6842 38.4407 76.2472 38.5049 76.6261 38.2362L77.4283 37.6633C77.6597 37.4982 77.8013 37.2412 77.8177 36.9574C77.8334 36.6736 77.72 36.4022 77.5096 36.2135L74.8425 33.8303L75.7031 31.7439L76.6109 31.9851C77.0874 32.1129 77.6013 31.8226 77.7416 31.3552L79.0617 26.988C79.1239 26.7802 79.1121 26.5547 79.0269 26.3529L77.4381 22.6449C77.3424 22.4221 77.1674 22.2484 76.9445 22.1546L72.2187 20.1647L72.2096 18.1755H78.4554C78.9496 18.1755 79.3586 17.7881 79.3835 17.2959L79.4458 16.0538L82.5552 15.6881L82.4582 19.4484C82.4523 19.7099 82.5572 19.9623 82.746 20.1438L86.796 24.0083C87.1644 24.3577 87.7871 24.3308 88.1266 23.9644C88.3023 23.7737 88.3868 23.5239 88.3665 23.2618L88.1306 20.2644C88.1129 20.0363 88.0132 19.8226 87.8467 19.6627L85.5953 17.5195L90.3087 15.5406C90.7635 15.3499 90.991 14.836 90.8265 14.3726L90.504 13.4976L94.2144 13.7605C94.7277 13.7605 95.1445 13.3423 95.1445 12.8291L95.1452 12.4233C95.1465 11.9874 94.8502 11.6138 94.4248 11.5162L94.4243 11.516ZM90.5047 12.5575C90.2039 12.5575 89.9201 12.705 89.7457 12.9515C89.5707 13.1979 89.5287 13.5145 89.6284 13.7983L89.9463 14.6733L85.2322 16.6515C84.9418 16.7734 84.7354 17.031 84.677 17.3404C84.62 17.6498 84.721 17.9644 84.9478 18.1813L87.1934 20.3338L87.4464 23.3273L83.399 19.4693L83.496 15.711C83.5025 15.4574 83.4088 15.2188 83.2331 15.0372C83.0581 14.8589 82.8156 14.7554 82.5672 14.7554C82.5482 14.7554 82.478 14.7593 82.461 14.7619L79.3424 15.1178C78.8914 15.1696 78.5434 15.536 78.5184 15.9909L78.4581 17.233H72.2123C71.6991 17.233 71.2822 17.6505 71.2822 18.1631V20.1615C71.2822 20.5364 71.505 20.8727 71.8505 21.0182L76.5763 23.0114L78.1651 26.7129L76.8555 31.0735L75.9477 30.8323C75.5092 30.7137 75.0241 30.951 74.8485 31.3737L73.9767 33.4653C73.8253 33.8311 73.9204 34.2525 74.2147 34.516L76.885 36.8953L76.0938 37.4702L72.1736 32.9298C71.9508 32.6715 71.5929 32.5529 71.2553 32.6322L68.3216 33.3218C68.0089 33.3958 67.7586 33.6213 67.6557 33.9261C67.5514 34.2302 67.6085 34.5612 67.811 34.8123L70.2158 37.792L73.0742 42.2923L71.157 47.4087L67.286 48.9156H64.8247C64.4243 48.9156 64.069 49.1705 63.9412 49.552L63.1088 52.0513C62.9869 52.4158 63.0976 52.8103 63.39 53.0548L66.7596 55.9087L66.5886 57.2L64.0617 59.2528L61.1627 56.5306C60.989 56.3674 60.7636 56.277 60.5276 56.277C60.0793 56.277 59.6938 56.5955 59.6106 57.034L59.3445 58.4341C59.2967 58.6851 59.355 58.9473 59.5044 59.1537L63.2162 64.2814L63.2235 64.9277L59.1734 60.1279L58.0185 53.3001C57.9424 52.8511 57.557 52.5247 57.1015 52.5247C56.996 52.5247 56.8918 52.5437 56.7934 52.5785L55.4111 53.0701L53.2205 48.2892C53.0298 47.8756 52.5428 47.6521 52.0984 47.7885L49.2747 48.6655C49.1017 48.7199 48.9496 48.8215 48.8342 48.9617L44.6524 54.0224C44.5096 54.1961 44.4342 54.4144 44.4394 54.6399L44.5476 58.5254L43.1534 59.9385L39.4148 48.94C39.3407 48.7237 39.1893 48.5415 38.9874 48.4281L34.2505 45.7846C34.1621 45.7355 34.069 45.7027 33.9726 45.685L26.7495 44.3308L21.4764 41.3773C21.0274 41.1276 20.4185 41.315 20.1891 41.7739L19.7466 42.6574C19.567 43.0166 19.6378 43.4485 19.9216 43.7323L22.8646 46.6746C23.0377 46.8503 23.2782 46.9499 23.524 46.9499C23.5456 46.9499 23.6295 46.9434 23.6512 46.9407L26.5535 46.5376L29.0436 48.6443L18.4391 55.7599L9.30345 40.912L11.5674 38.3007C11.7856 38.049 11.8518 37.7108 11.7456 37.3955C11.6401 37.0809 11.3832 36.8509 11.0587 36.7821L5.64344 35.6265L4.93227 33.2577L9.29043 32.2437L12.5395 33.1581C12.9268 33.2649 13.3463 33.1083 13.5666 32.7786L14.5419 31.3025L19.9657 33.5474L19.8241 34.6152C19.7723 34.994 19.9546 35.3604 20.2882 35.5492L22.0658 36.5547C22.621 36.8673 23.3721 36.4806 23.4468 35.8553L23.806 32.89C23.8303 32.6927 23.789 32.4895 23.6913 32.3185L19.7193 25.3398L25.4361 24.59C25.731 24.5513 25.9925 24.3717 26.1341 24.1095C26.2751 23.848 26.2829 23.5314 26.1538 23.264L25.1011 21.0793C24.9078 20.6801 24.43 20.4632 24 20.591L22.8248 20.9449L22.4367 20.0155L21.8816 12.3152L24.0248 11.0102C24.3519 10.8122 24.5216 10.4406 24.46 10.0617L24.131 8.15037H29.4991C29.6034 8.15037 29.7056 8.13268 29.8065 8.09859L38.821 4.94252L44.3622 6.20755C44.2494 6.48874 44.2802 6.80729 44.4447 7.06094C44.6093 7.31591 44.8885 7.47322 45.1906 7.48501L53.8511 7.80094L56.2356 9.35632C56.3877 9.4553 56.5634 9.50642 56.7443 9.50642C56.7764 9.50642 56.8996 9.49397 56.9304 9.48741L61.7374 8.50358L77.9947 10.4497C78.0143 10.4516 78.0884 10.4562 78.1074 10.4562H85.6293L94.2059 12.4233L94.2164 12.8205L90.5047 12.5575Z"/>
</mask>
<path d="M94.4243 11.516L85.845 9.53587C85.7762 9.52014 85.7061 9.51228 85.6366 9.51228H78.1126L61.8547 7.56618C61.818 7.56159 61.7807 7.55963 61.7426 7.55963C61.7105 7.55963 61.5873 7.57208 61.5565 7.57864L56.7527 8.56313L54.3695 7.00905C54.2285 6.91598 54.0634 6.86354 53.8943 6.85764L45.2535 6.51157C45.3551 6.2566 45.34 5.97344 45.2122 5.73093C45.0844 5.48841 44.8582 5.31667 44.5908 5.25704L39.0267 4.02216C38.8569 3.98349 38.68 3.9966 38.5181 4.05232L29.5024 7.20839H24.1343C23.8597 7.20839 23.6014 7.32768 23.4238 7.53742C23.2461 7.74716 23.1708 8.02114 23.216 8.29184L23.5404 10.2039L21.3972 11.5089C21.0983 11.6904 20.9272 12.0208 20.9528 12.3708L21.5034 20.0815C21.5106 20.1805 21.5335 20.2781 21.5722 20.3725L21.9615 21.3046C22.1411 21.7352 22.6373 21.9705 23.0823 21.8394L24.2576 21.4861L25.3155 23.6576L19.598 24.4074C19.2906 24.4481 19.0251 24.6375 18.8868 24.9161C18.7485 25.194 18.7571 25.521 18.9104 25.7898L22.8746 32.7763L22.5285 35.735L20.7556 34.7387L20.8972 33.6704C20.9529 33.2528 20.7202 32.8491 20.3315 32.6885L14.9011 30.4343C14.4987 30.2659 14.0104 30.4153 13.7705 30.7784L12.7932 32.2545L9.54552 31.3382C9.39542 31.2969 9.23614 31.2923 9.08212 31.3277L4.71943 32.3423C4.47035 32.4 4.25406 32.56 4.12558 32.7808C3.9971 33.0017 3.96565 33.2692 4.03841 33.513L4.74302 35.893C4.84002 36.2201 5.10745 36.4672 5.44041 36.5386L10.8577 37.6857L8.59312 40.2969C8.32504 40.6063 8.2903 41.0474 8.50464 41.3935L17.6391 56.2526C17.9072 56.6885 18.5253 56.8242 18.95 56.5384L29.5669 49.4254C29.8114 49.2609 29.9609 48.9987 29.9786 48.7044C29.9956 48.4101 29.877 48.1341 29.6528 47.9421L27.1634 45.8223C26.9943 45.6788 26.7799 45.5995 26.5571 45.5995C26.5361 45.5995 26.4529 45.6054 26.4312 45.608L23.5296 46.0117L20.5866 43.078L21.0172 42.1977L26.2877 45.1493C26.3768 45.201 26.4738 45.2358 26.5735 45.2535L33.7966 46.6063L38.5257 49.2439L42.2625 60.2417C42.471 60.8513 43.3421 61.0624 43.8015 60.6009L45.2107 59.1917C45.391 59.0134 45.4906 58.7644 45.4841 58.5074L45.3759 54.6213L49.5525 49.5631L52.3658 48.6815L54.555 53.4617C54.7497 53.8871 55.2655 54.1079 55.7099 53.9519L57.0903 53.459L58.2452 60.2856C58.2727 60.4488 58.3429 60.6022 58.4517 60.7313L62.5122 65.5469C62.6892 65.7586 62.9474 65.8786 63.2188 65.8786C63.7346 65.8786 64.1534 65.4611 64.1534 64.9472V64.2839C64.1534 64.0872 64.0931 63.8985 63.9765 63.7392L60.2646 58.6135L60.5157 57.2181L63.4147 59.9402C63.7437 60.2476 64.2904 60.2673 64.6371 59.9854L67.175 57.9352C67.3618 57.7857 67.4824 57.5714 67.5132 57.3328L67.6882 56.0343C67.7289 55.7184 67.6096 55.4077 67.3671 55.2039L63.9974 52.352L64.8226 49.8581H67.2838C67.3972 49.8581 67.5093 49.8371 67.6214 49.7952L71.4938 48.2883C71.7416 48.1932 71.9362 47.9959 72.0293 47.7482L73.9517 42.6245C74.052 42.3538 74.0206 42.0458 73.8652 41.8006L71.0075 37.2956C70.997 37.2799 70.9557 37.2216 70.9452 37.2065L68.5358 34.2399L71.4598 33.547L75.3801 38.0868C75.6842 38.4407 76.2472 38.5049 76.6261 38.2362L77.4283 37.6633C77.6597 37.4982 77.8013 37.2412 77.8177 36.9574C77.8334 36.6736 77.72 36.4022 77.5096 36.2135L74.8425 33.8303L75.7031 31.7439L76.6109 31.9851C77.0874 32.1129 77.6013 31.8226 77.7416 31.3552L79.0617 26.988C79.1239 26.7802 79.1121 26.5547 79.0269 26.3529L77.4381 22.6449C77.3424 22.4221 77.1674 22.2484 76.9445 22.1546L72.2187 20.1647L72.2096 18.1755H78.4554C78.9496 18.1755 79.3586 17.7881 79.3835 17.2959L79.4458 16.0538L82.5552 15.6881L82.4582 19.4484C82.4523 19.7099 82.5572 19.9623 82.746 20.1438L86.796 24.0083C87.1644 24.3577 87.7871 24.3308 88.1266 23.9644C88.3023 23.7737 88.3868 23.5239 88.3665 23.2618L88.1306 20.2644C88.1129 20.0363 88.0132 19.8226 87.8467 19.6627L85.5953 17.5195L90.3087 15.5406C90.7635 15.3499 90.991 14.836 90.8265 14.3726L90.504 13.4976L94.2144 13.7605C94.7277 13.7605 95.1445 13.3423 95.1445 12.8291L95.1452 12.4233C95.1465 11.9874 94.8502 11.6138 94.4248 11.5162L94.4243 11.516ZM90.5047 12.5575C90.2039 12.5575 89.9201 12.705 89.7457 12.9515C89.5707 13.1979 89.5287 13.5145 89.6284 13.7983L89.9463 14.6733L85.2322 16.6515C84.9418 16.7734 84.7354 17.031 84.677 17.3404C84.62 17.6498 84.721 17.9644 84.9478 18.1813L87.1934 20.3338L87.4464 23.3273L83.399 19.4693L83.496 15.711C83.5025 15.4574 83.4088 15.2188 83.2331 15.0372C83.0581 14.8589 82.8156 14.7554 82.5672 14.7554C82.5482 14.7554 82.478 14.7593 82.461 14.7619L79.3424 15.1178C78.8914 15.1696 78.5434 15.536 78.5184 15.9909L78.4581 17.233H72.2123C71.6991 17.233 71.2822 17.6505 71.2822 18.1631V20.1615C71.2822 20.5364 71.505 20.8727 71.8505 21.0182L76.5763 23.0114L78.1651 26.7129L76.8555 31.0735L75.9477 30.8323C75.5092 30.7137 75.0241 30.951 74.8485 31.3737L73.9767 33.4653C73.8253 33.8311 73.9204 34.2525 74.2147 34.516L76.885 36.8953L76.0938 37.4702L72.1736 32.9298C71.9508 32.6715 71.5929 32.5529 71.2553 32.6322L68.3216 33.3218C68.0089 33.3958 67.7586 33.6213 67.6557 33.9261C67.5514 34.2302 67.6085 34.5612 67.811 34.8123L70.2158 37.792L73.0742 42.2923L71.157 47.4087L67.286 48.9156H64.8247C64.4243 48.9156 64.069 49.1705 63.9412 49.552L63.1088 52.0513C62.9869 52.4158 63.0976 52.8103 63.39 53.0548L66.7596 55.9087L66.5886 57.2L64.0617 59.2528L61.1627 56.5306C60.989 56.3674 60.7636 56.277 60.5276 56.277C60.0793 56.277 59.6938 56.5955 59.6106 57.034L59.3445 58.4341C59.2967 58.6851 59.355 58.9473 59.5044 59.1537L63.2162 64.2814L63.2235 64.9277L59.1734 60.1279L58.0185 53.3001C57.9424 52.8511 57.557 52.5247 57.1015 52.5247C56.996 52.5247 56.8918 52.5437 56.7934 52.5785L55.4111 53.0701L53.2205 48.2892C53.0298 47.8756 52.5428 47.6521 52.0984 47.7885L49.2747 48.6655C49.1017 48.7199 48.9496 48.8215 48.8342 48.9617L44.6524 54.0224C44.5096 54.1961 44.4342 54.4144 44.4394 54.6399L44.5476 58.5254L43.1534 59.9385L39.4148 48.94C39.3407 48.7237 39.1893 48.5415 38.9874 48.4281L34.2505 45.7846C34.1621 45.7355 34.069 45.7027 33.9726 45.685L26.7495 44.3308L21.4764 41.3773C21.0274 41.1276 20.4185 41.315 20.1891 41.7739L19.7466 42.6574C19.567 43.0166 19.6378 43.4485 19.9216 43.7323L22.8646 46.6746C23.0377 46.8503 23.2782 46.9499 23.524 46.9499C23.5456 46.9499 23.6295 46.9434 23.6512 46.9407L26.5535 46.5376L29.0436 48.6443L18.4391 55.7599L9.30345 40.912L11.5674 38.3007C11.7856 38.049 11.8518 37.7108 11.7456 37.3955C11.6401 37.0809 11.3832 36.8509 11.0587 36.7821L5.64344 35.6265L4.93227 33.2577L9.29043 32.2437L12.5395 33.1581C12.9268 33.2649 13.3463 33.1083 13.5666 32.7786L14.5419 31.3025L19.9657 33.5474L19.8241 34.6152C19.7723 34.994 19.9546 35.3604 20.2882 35.5492L22.0658 36.5547C22.621 36.8673 23.3721 36.4806 23.4468 35.8553L23.806 32.89C23.8303 32.6927 23.789 32.4895 23.6913 32.3185L19.7193 25.3398L25.4361 24.59C25.731 24.5513 25.9925 24.3717 26.1341 24.1095C26.2751 23.848 26.2829 23.5314 26.1538 23.264L25.1011 21.0793C24.9078 20.6801 24.43 20.4632 24 20.591L22.8248 20.9449L22.4367 20.0155L21.8816 12.3152L24.0248 11.0102C24.3519 10.8122 24.5216 10.4406 24.46 10.0617L24.131 8.15037H29.4991C29.6034 8.15037 29.7056 8.13268 29.8065 8.09859L38.821 4.94252L44.3622 6.20755C44.2494 6.48874 44.2802 6.80729 44.4447 7.06094C44.6093 7.31591 44.8885 7.47322 45.1906 7.48501L53.8511 7.80094L56.2356 9.35632C56.3877 9.4553 56.5634 9.50642 56.7443 9.50642C56.7764 9.50642 56.8996 9.49397 56.9304 9.48741L61.7374 8.50358L77.9947 10.4497C78.0143 10.4516 78.0884 10.4562 78.1074 10.4562H85.6293L94.2059 12.4233L94.2164 12.8205L90.5047 12.5575Z" fill="white"/>
<path d="M94.4243 11.516L85.845 9.53587C85.7762 9.52014 85.7061 9.51228 85.6366 9.51228H78.1126L61.8547 7.56618C61.818 7.56159 61.7807 7.55963 61.7426 7.55963C61.7105 7.55963 61.5873 7.57208 61.5565 7.57864L56.7527 8.56313L54.3695 7.00905C54.2285 6.91598 54.0634 6.86354 53.8943 6.85764L45.2535 6.51157C45.3551 6.2566 45.34 5.97344 45.2122 5.73093C45.0844 5.48841 44.8582 5.31667 44.5908 5.25704L39.0267 4.02216C38.8569 3.98349 38.68 3.9966 38.5181 4.05232L29.5024 7.20839H24.1343C23.8597 7.20839 23.6014 7.32768 23.4238 7.53742C23.2461 7.74716 23.1708 8.02114 23.216 8.29184L23.5404 10.2039L21.3972 11.5089C21.0983 11.6904 20.9272 12.0208 20.9528 12.3708L21.5034 20.0815C21.5106 20.1805 21.5335 20.2781 21.5722 20.3725L21.9615 21.3046C22.1411 21.7352 22.6373 21.9705 23.0823 21.8394L24.2576 21.4861L25.3155 23.6576L19.598 24.4074C19.2906 24.4481 19.0251 24.6375 18.8868 24.9161C18.7485 25.194 18.7571 25.521 18.9104 25.7898L22.8746 32.7763L22.5285 35.735L20.7556 34.7387L20.8972 33.6704C20.9529 33.2528 20.7202 32.8491 20.3315 32.6885L14.9011 30.4343C14.4987 30.2659 14.0104 30.4153 13.7705 30.7784L12.7932 32.2545L9.54552 31.3382C9.39542 31.2969 9.23614 31.2923 9.08212 31.3277L4.71943 32.3423C4.47035 32.4 4.25406 32.56 4.12558 32.7808C3.9971 33.0017 3.96565 33.2692 4.03841 33.513L4.74302 35.893C4.84002 36.2201 5.10745 36.4672 5.44041 36.5386L10.8577 37.6857L8.59312 40.2969C8.32504 40.6063 8.2903 41.0474 8.50464 41.3935L17.6391 56.2526C17.9072 56.6885 18.5253 56.8242 18.95 56.5384L29.5669 49.4254C29.8114 49.2609 29.9609 48.9987 29.9786 48.7044C29.9956 48.4101 29.877 48.1341 29.6528 47.9421L27.1634 45.8223C26.9943 45.6788 26.7799 45.5995 26.5571 45.5995C26.5361 45.5995 26.4529 45.6054 26.4312 45.608L23.5296 46.0117L20.5866 43.078L21.0172 42.1977L26.2877 45.1493C26.3768 45.201 26.4738 45.2358 26.5735 45.2535L33.7966 46.6063L38.5257 49.2439L42.2625 60.2417C42.471 60.8513 43.3421 61.0624 43.8015 60.6009L45.2107 59.1917C45.391 59.0134 45.4906 58.7644 45.4841 58.5074L45.3759 54.6213L49.5525 49.5631L52.3658 48.6815L54.555 53.4617C54.7497 53.8871 55.2655 54.1079 55.7099 53.9519L57.0903 53.459L58.2452 60.2856C58.2727 60.4488 58.3429 60.6022 58.4517 60.7313L62.5122 65.5469C62.6892 65.7586 62.9474 65.8786 63.2188 65.8786C63.7346 65.8786 64.1534 65.4611 64.1534 64.9472V64.2839C64.1534 64.0872 64.0931 63.8985 63.9765 63.7392L60.2646 58.6135L60.5157 57.2181L63.4147 59.9402C63.7437 60.2476 64.2904 60.2673 64.6371 59.9854L67.175 57.9352C67.3618 57.7857 67.4824 57.5714 67.5132 57.3328L67.6882 56.0343C67.7289 55.7184 67.6096 55.4077 67.3671 55.2039L63.9974 52.352L64.8226 49.8581H67.2838C67.3972 49.8581 67.5093 49.8371 67.6214 49.7952L71.4938 48.2883C71.7416 48.1932 71.9362 47.9959 72.0293 47.7482L73.9517 42.6245C74.052 42.3538 74.0206 42.0458 73.8652 41.8006L71.0075 37.2956C70.997 37.2799 70.9557 37.2216 70.9452 37.2065L68.5358 34.2399L71.4598 33.547L75.3801 38.0868C75.6842 38.4407 76.2472 38.5049 76.6261 38.2362L77.4283 37.6633C77.6597 37.4982 77.8013 37.2412 77.8177 36.9574C77.8334 36.6736 77.72 36.4022 77.5096 36.2135L74.8425 33.8303L75.7031 31.7439L76.6109 31.9851C77.0874 32.1129 77.6013 31.8226 77.7416 31.3552L79.0617 26.988C79.1239 26.7802 79.1121 26.5547 79.0269 26.3529L77.4381 22.6449C77.3424 22.4221 77.1674 22.2484 76.9445 22.1546L72.2187 20.1647L72.2096 18.1755H78.4554C78.9496 18.1755 79.3586 17.7881 79.3835 17.2959L79.4458 16.0538L82.5552 15.6881L82.4582 19.4484C82.4523 19.7099 82.5572 19.9623 82.746 20.1438L86.796 24.0083C87.1644 24.3577 87.7871 24.3308 88.1266 23.9644C88.3023 23.7737 88.3868 23.5239 88.3665 23.2618L88.1306 20.2644C88.1129 20.0363 88.0132 19.8226 87.8467 19.6627L85.5953 17.5195L90.3087 15.5406C90.7635 15.3499 90.991 14.836 90.8265 14.3726L90.504 13.4976L94.2144 13.7605C94.7277 13.7605 95.1445 13.3423 95.1445 12.8291L95.1452 12.4233C95.1465 11.9874 94.8502 11.6138 94.4248 11.5162L94.4243 11.516ZM90.5047 12.5575C90.2039 12.5575 89.9201 12.705 89.7457 12.9515C89.5707 13.1979 89.5287 13.5145 89.6284 13.7983L89.9463 14.6733L85.2322 16.6515C84.9418 16.7734 84.7354 17.031 84.677 17.3404C84.62 17.6498 84.721 17.9644 84.9478 18.1813L87.1934 20.3338L87.4464 23.3273L83.399 19.4693L83.496 15.711C83.5025 15.4574 83.4088 15.2188 83.2331 15.0372C83.0581 14.8589 82.8156 14.7554 82.5672 14.7554C82.5482 14.7554 82.478 14.7593 82.461 14.7619L79.3424 15.1178C78.8914 15.1696 78.5434 15.536 78.5184 15.9909L78.4581 17.233H72.2123C71.6991 17.233 71.2822 17.6505 71.2822 18.1631V20.1615C71.2822 20.5364 71.505 20.8727 71.8505 21.0182L76.5763 23.0114L78.1651 26.7129L76.8555 31.0735L75.9477 30.8323C75.5092 30.7137 75.0241 30.951 74.8485 31.3737L73.9767 33.4653C73.8253 33.8311 73.9204 34.2525 74.2147 34.516L76.885 36.8953L76.0938 37.4702L72.1736 32.9298C71.9508 32.6715 71.5929 32.5529 71.2553 32.6322L68.3216 33.3218C68.0089 33.3958 67.7586 33.6213 67.6557 33.9261C67.5514 34.2302 67.6085 34.5612 67.811 34.8123L70.2158 37.792L73.0742 42.2923L71.157 47.4087L67.286 48.9156H64.8247C64.4243 48.9156 64.069 49.1705 63.9412 49.552L63.1088 52.0513C62.9869 52.4158 63.0976 52.8103 63.39 53.0548L66.7596 55.9087L66.5886 57.2L64.0617 59.2528L61.1627 56.5306C60.989 56.3674 60.7636 56.277 60.5276 56.277C60.0793 56.277 59.6938 56.5955 59.6106 57.034L59.3445 58.4341C59.2967 58.6851 59.355 58.9473 59.5044 59.1537L63.2162 64.2814L63.2235 64.9277L59.1734 60.1279L58.0185 53.3001C57.9424 52.8511 57.557 52.5247 57.1015 52.5247C56.996 52.5247 56.8918 52.5437 56.7934 52.5785L55.4111 53.0701L53.2205 48.2892C53.0298 47.8756 52.5428 47.6521 52.0984 47.7885L49.2747 48.6655C49.1017 48.7199 48.9496 48.8215 48.8342 48.9617L44.6524 54.0224C44.5096 54.1961 44.4342 54.4144 44.4394 54.6399L44.5476 58.5254L43.1534 59.9385L39.4148 48.94C39.3407 48.7237 39.1893 48.5415 38.9874 48.4281L34.2505 45.7846C34.1621 45.7355 34.069 45.7027 33.9726 45.685L26.7495 44.3308L21.4764 41.3773C21.0274 41.1276 20.4185 41.315 20.1891 41.7739L19.7466 42.6574C19.567 43.0166 19.6378 43.4485 19.9216 43.7323L22.8646 46.6746C23.0377 46.8503 23.2782 46.9499 23.524 46.9499C23.5456 46.9499 23.6295 46.9434 23.6512 46.9407L26.5535 46.5376L29.0436 48.6443L18.4391 55.7599L9.30345 40.912L11.5674 38.3007C11.7856 38.049 11.8518 37.7108 11.7456 37.3955C11.6401 37.0809 11.3832 36.8509 11.0587 36.7821L5.64344 35.6265L4.93227 33.2577L9.29043 32.2437L12.5395 33.1581C12.9268 33.2649 13.3463 33.1083 13.5666 32.7786L14.5419 31.3025L19.9657 33.5474L19.8241 34.6152C19.7723 34.994 19.9546 35.3604 20.2882 35.5492L22.0658 36.5547C22.621 36.8673 23.3721 36.4806 23.4468 35.8553L23.806 32.89C23.8303 32.6927 23.789 32.4895 23.6913 32.3185L19.7193 25.3398L25.4361 24.59C25.731 24.5513 25.9925 24.3717 26.1341 24.1095C26.2751 23.848 26.2829 23.5314 26.1538 23.264L25.1011 21.0793C24.9078 20.6801 24.43 20.4632 24 20.591L22.8248 20.9449L22.4367 20.0155L21.8816 12.3152L24.0248 11.0102C24.3519 10.8122 24.5216 10.4406 24.46 10.0617L24.131 8.15037H29.4991C29.6034 8.15037 29.7056 8.13268 29.8065 8.09859L38.821 4.94252L44.3622 6.20755C44.2494 6.48874 44.2802 6.80729 44.4447 7.06094C44.6093 7.31591 44.8885 7.47322 45.1906 7.48501L53.8511 7.80094L56.2356 9.35632C56.3877 9.4553 56.5634 9.50642 56.7443 9.50642C56.7764 9.50642 56.8996 9.49397 56.9304 9.48741L61.7374 8.50358L77.9947 10.4497C78.0143 10.4516 78.0884 10.4562 78.1074 10.4562H85.6293L94.2059 12.4233L94.2164 12.8205L90.5047 12.5575Z" stroke="white" stroke-width="0.2" mask="url(#path-1-outside-1_17_2696)"/>
<path d="M73.4421 70.0476L74.8113 66.7821M73.4421 70.0476C73.3071 70.3701 73.0062 70.5877 72.6575 70.6152M73.4421 70.0476L73.4882 70.0669M73.4421 70.0476L73.4882 70.0669L73.4882 70.0669M74.8113 66.7821L72.6575 70.6152M74.8113 66.7821C74.8402 66.7087 74.8611 66.6346 74.8716 66.5612L74.8113 66.7821ZM72.6575 70.6152L72.6614 70.665L68.9043 70.9613L68.9032 70.9614L68.9032 70.9614C68.8913 70.962 68.8431 70.9641 68.8284 70.9641V70.9641C68.4264 70.9641 68.0578 70.7129 67.9126 70.3376L66.7682 67.3796C66.7682 67.3796 66.7682 67.3796 66.7682 67.3796C66.6219 67.002 66.7186 66.5791 67.0176 66.3036L72.3371 61.4015L72.6575 70.6152ZM73.4882 70.0669L74.8574 66.8014L74.8575 66.8014L74.8579 66.8004C74.8879 66.7241 74.91 66.6462 74.9211 66.5683L74.9211 66.5683L75.3399 63.6314M73.4882 70.0669L75.3399 63.6314M75.3399 63.6314C75.3399 63.6313 75.34 63.6313 75.34 63.6312C75.3848 63.3258 75.2805 63.0152 75.0631 62.7964L75.063 62.7963L73.6957 61.429C73.3346 61.068 72.7103 61.0561 72.3372 61.4014L75.3399 63.6314ZM67.748 67.0436L72.995 62.1977L74.308 63.5056L73.8942 66.4116L72.5497 69.6306L68.8679 69.9202L67.748 67.0436Z" fill="white" stroke="white" stroke-width="0.1"/>
<path d="M76.2717 73.4657C76.7432 73.5467 77.075 73.9334 77.0825 74.4162C77.0825 74.4162 77.0825 74.4163 77.0825 74.4163L77.0325 74.4171C77.0403 74.8877 76.7218 75.2704 76.2584 75.3491L76.2717 73.4657ZM76.2717 73.4657L76.2715 73.4651L76.237 73.4603L65.668 71.9979M76.2717 73.4657L65.668 71.9979M65.668 71.9979L65.9934 70.1207L65.668 71.9979ZM65.468 73.01L65.468 73.01C65.2043 72.9734 64.9693 72.8339 64.8118 72.617C64.6537 72.4002 64.5922 72.1355 64.6384 71.8711L65.468 73.01ZM65.468 73.01L75.7731 74.4298L72.3389 75.0097L65.4732 73.4616L61.3465 68.4431L59.2877 65.0226L60.9197 66.3666L64.9679 69.9702L64.6384 71.871L65.468 73.01ZM65.2194 74.4671L72.1234 76.0257L65.9934 70.1205C66.0528 69.7848 65.9345 69.4484 65.6806 69.2207L65.6805 69.2206L61.595 65.5776L61.5951 65.5776L61.5936 65.5763L59.7216 64.0341L59.7216 64.0341C59.2565 63.6513 58.5326 63.8003 58.2405 64.3127L58.2404 64.3128C58.0668 64.6192 58.0733 64.9858 58.2567 65.2925L60.4518 68.9761L60.4517 68.9761L60.4531 68.9783C60.46 68.9885 60.477 69.0133 60.4942 69.0377C60.5102 69.0604 60.5289 69.0864 60.5392 69.0983L64.6785 74.1342L64.6786 74.1343C64.8162 74.3008 65.0074 74.4181 65.2191 74.4671L65.2194 74.4671Z" fill="white" stroke="white" stroke-width="0.1"/>
<path d="M85.0462 29.3281L85.0459 29.3278L80.7448 24.8314L80.7448 24.8313C80.2958 24.3636 79.4801 24.493 79.1727 25.038L79.1726 25.0381C79.0002 25.3455 79.0111 25.7135 79.1991 26.022L79.1992 26.0221L81.2795 29.4143L82.2697 34.4627L81.2443 36.8231L78.1007 38.8868C77.8741 39.0354 77.7174 39.2749 77.6718 39.5423C77.6262 39.8096 77.6946 40.0879 77.861 40.3047L77.8611 40.3048L78.4444 41.0638L78.4445 41.0638C78.6316 41.3062 78.9156 41.4458 79.2214 41.4458C79.4198 41.4458 79.6118 41.3856 79.7759 41.2739L79.7761 41.2738L85.0111 37.6813L85.0112 37.6812C85.3694 37.4348 85.5222 36.9912 85.3903 36.5774L83.8618 31.7527L84.9934 30.7347C84.9934 30.7347 84.9934 30.7347 84.9934 30.7347C85.1917 30.5564 85.3057 30.3103 85.316 30.0434L85.2661 30.0414L85.316 30.0435C85.3271 29.776 85.2295 29.5224 85.0462 29.3281ZM80.3216 25.8926L84.2596 29.9967L83.1424 31.0017L83.1423 31.0018C82.8584 31.2581 82.7493 31.66 82.864 32.0253L82.864 32.0254L84.3931 36.8444L79.2338 40.3848L78.7163 39.7258L81.8261 37.6845C81.8261 37.6844 81.8261 37.6844 81.8262 37.6844L81.8262 37.6844L81.7988 37.6426L80.3216 25.8926Z" fill="white" stroke="white" stroke-width="0.1"/>
<path d="M75.0484 51.7078L75.0484 51.7078C75.6211 51.3643 76.4116 51.7389 76.5196 52.3881M75.0484 51.7078L76.8039 54.4013M75.0484 51.7078L74.2181 52.2059C74.218 52.2059 74.218 52.2059 74.218 52.2059C73.8203 52.4434 73.6448 52.9182 73.7912 53.3572L73.7912 53.3572L76.3848 61.1354M75.0484 51.7078L78.9632 62.9226M76.5196 52.3881L76.4703 52.3963L76.5196 52.3881L76.5196 52.3881ZM76.5196 52.3881L76.8515 54.383M76.8515 54.383L76.8461 54.3744L76.8039 54.4013M76.8515 54.383L80.7041 60.432L80.7043 60.4323C80.8685 60.6932 80.9018 61.0189 80.794 61.3044M76.8515 54.383L76.8532 54.3931L76.8039 54.4013M76.8039 54.4013L80.794 61.3044M80.794 61.3044L80.794 61.3043L80.7472 61.2867M80.794 61.3044L80.662 60.4589C80.818 60.7067 80.8494 61.016 80.7472 61.2867M80.794 61.3044C80.7939 61.3044 80.7939 61.3044 80.7939 61.3044M80.794 61.3044L78.9632 62.9226M80.7472 61.2867L80.7939 61.3044M80.7472 61.2867L80.329 62.403C80.194 62.7641 79.8433 63.0073 79.4572 63.0073C79.2927 63.0073 79.1301 62.9634 78.9886 62.8795L80.7939 61.3044M80.7939 61.3044L80.3758 62.4205C80.2335 62.8012 79.8641 63.0573 79.4572 63.0573C79.2839 63.0573 79.1126 63.0111 78.9632 62.9226M78.9632 62.9226C78.9632 62.9226 78.9631 62.9225 78.9631 62.9225L76.8206 61.6727L76.8205 61.6726C76.6128 61.5505 76.4594 61.3599 76.3848 61.1354M76.3848 61.1354L76.4322 61.1196L76.3848 61.1354L76.3848 61.1354ZM79.812 60.9629L79.4278 61.9911L77.3652 60.791L74.7856 53.0766L75.5058 52.6319L75.8272 54.5632C75.8272 54.5632 75.8272 54.5633 75.8272 54.5633C75.848 54.6914 75.8964 54.8171 75.9681 54.9289C75.9681 54.9289 75.9682 54.9289 75.9682 54.929L79.812 60.9629Z" fill="white" stroke="white" stroke-width="0.1"/>
<path d="M76.9699 67.3653C77.2708 67.4645 77.531 67.6973 77.6177 68.0217L76.9699 67.3653ZM76.9699 67.3653C76.669 67.2661 76.3209 67.2984 76.0561 67.512M76.9699 67.3653L76.0561 67.512M76.0561 67.512C76.056 67.512 76.056 67.512 76.056 67.512M76.0561 67.512L76.056 67.512M76.056 67.512L74.7066 68.5999C74.7066 68.6 74.7066 68.6 74.7066 68.6C74.4732 68.7865 74.3392 69.0656 74.3392 69.3646V71.7354C74.3392 72.2762 74.7791 72.7155 75.3193 72.7155H77.5989C77.9069 72.7155 78.191 72.5745 78.3774 72.33L78.3376 72.2997C78.5152 72.0683 78.5736 71.7747 78.4975 71.4935L78.5458 71.4806C78.6259 71.7768 78.5644 72.0865 78.3773 72.3302L76.056 67.512ZM78.5458 71.4805L77.6177 68.0218L78.5458 71.4805ZM76.6334 68.3661L77.5258 71.677L75.3789 71.6864L75.3751 69.396L76.6334 68.3661Z" fill="white" stroke="white" stroke-width="0.1"/>
</svg>
