<svg width="78" height="80" viewBox="0 0 78 80" fill="none" xmlns="http://www.w3.org/2000/svg">
<path d="M60.9387 64.4681H17.8824C14.5096 64.4681 11.7656 61.724 11.7656 58.3514V47.0711C11.7656 43.6984 14.5097 40.9544 17.8824 40.9544H60.9387C64.3115 40.9544 67.0554 43.6985 67.0554 47.0711V58.3514C67.0554 61.7242 64.3113 64.4681 60.9387 64.4681ZM17.8824 42.226C15.2103 42.226 13.0366 44.3998 13.0366 47.0717V58.352C13.0366 61.024 15.2105 63.1977 17.8824 63.1977H60.9387C63.6107 63.1977 65.7844 61.0239 65.7844 58.352V47.0717C65.7844 44.3997 63.6106 42.226 60.9387 42.226H17.8824Z" fill="white"/>
<path d="M60.0657 42.2245H18.7568C18.4056 42.2245 18.1213 41.9402 18.1213 41.589V29.0904C18.1213 26.8713 19.9269 25.0657 22.146 25.0657H56.6757C58.8948 25.0657 60.7004 26.8713 60.7004 29.0904V41.589C60.7004 41.9402 60.4161 42.2245 60.0649 42.2245H60.0657ZM19.3931 40.9535H59.4295V29.0904C59.4295 27.572 58.1942 26.3368 56.6758 26.3368H22.1462C20.6278 26.3368 19.3925 27.572 19.3925 29.0904L19.3931 40.9535Z" fill="white"/>
<path d="M66.4208 46.9905C66.0696 46.9905 65.7853 46.7062 65.7853 46.355V11.1368C65.7853 9.00498 64.0512 7.27102 61.9196 7.27102H16.9037C14.7718 7.27102 13.0379 9.00513 13.0379 11.1368V46.355C13.0379 46.7062 12.7536 46.9905 12.4024 46.9905C12.0511 46.9905 11.7668 46.7062 11.7668 46.355V11.1368C11.7668 8.30425 14.0711 6 16.9037 6H61.9196C64.7521 6 67.0564 8.30425 67.0564 11.1368V46.355C67.0564 46.7062 66.7721 46.9905 66.4208 46.9905Z" fill="white"/>
<path d="M71.1867 42.2245H66.4204C66.0692 42.2245 65.7849 41.9403 65.7849 41.589V30.4677C65.7849 30.1164 66.0692 29.8322 66.4204 29.8322H71.1867C71.5379 29.8322 71.8222 30.1164 71.8222 30.4677V41.589C71.8222 41.9403 71.5379 42.2245 71.1867 42.2245ZM67.0558 40.9535H70.551V31.1032H67.0558V40.9535Z" fill="white"/>
<path d="M12.4018 43.8136H7.63551C7.28427 43.8136 7 43.5294 7 43.1781V32.0568C7 31.7055 7.28427 31.4213 7.63551 31.4213H12.4018C12.753 31.4213 13.0373 31.7055 13.0373 32.0568V43.1781C13.0373 43.5294 12.753 43.8136 12.4018 43.8136ZM8.27087 42.5426H11.7661V32.6923H8.27087V42.5426Z" fill="white"/>
<path d="M22.7298 74C20.1895 74 18.1223 71.933 18.1223 69.3925V63.8319C18.1223 63.4806 18.4066 63.1964 18.7578 63.1964H26.7018C27.053 63.1964 27.3373 63.4806 27.3373 63.8319V69.3925C27.3373 71.9328 25.2702 74 22.7298 74ZM19.3933 64.4674V69.3925C19.3933 71.2321 20.8902 72.729 22.7298 72.729C24.5694 72.729 26.0663 71.2321 26.0663 69.3925V64.4674H19.3933Z" fill="white"/>
<path d="M56.093 74C53.5527 74 51.4855 71.933 51.4855 69.3925V63.8319C51.4855 63.4806 51.7697 63.1964 52.121 63.1964H60.0649C60.4162 63.1964 60.7004 63.4806 60.7004 63.8319V69.3925C60.7004 71.9328 58.6334 74 56.093 74ZM52.7565 64.4674V69.3925C52.7565 71.2321 54.2534 72.729 56.093 72.729C57.9325 72.729 59.4294 71.2321 59.4294 69.3925V64.4674H52.7565Z" fill="white"/>
<path d="M69.5976 74H9.22487C8.87363 74 8.58936 73.7157 8.58936 73.3645C8.58936 73.0132 8.87363 72.7289 9.22487 72.7289H69.5976C69.9488 72.7289 70.2331 73.0132 70.2331 73.3645C70.2331 73.7157 69.9488 74 69.5976 74Z" fill="white"/>
<path d="M21.9353 56.5238C19.8329 56.5238 18.1222 54.8131 18.1222 52.7108C18.1222 50.6084 19.8329 48.8977 21.9353 48.8977C24.0376 48.8977 25.7483 50.6084 25.7483 52.7108C25.7483 54.8131 24.0376 56.5238 21.9353 56.5238ZM21.9353 50.1687C20.5337 50.1687 19.3932 51.3092 19.3932 52.7108C19.3932 54.1123 20.5337 55.2528 21.9353 55.2528C23.3368 55.2528 24.4773 54.1123 24.4773 52.7108C24.4773 51.3092 23.3368 50.1687 21.9353 50.1687Z" fill="white"/>
<path d="M56.8874 56.5238C54.7851 56.5238 53.0743 54.8131 53.0743 52.7108C53.0743 50.6084 54.7851 48.8977 56.8874 48.8977C58.9897 48.8977 60.7005 50.6084 60.7005 52.7108C60.7005 54.8131 58.9897 56.5238 56.8874 56.5238ZM56.8874 50.1687C55.4859 50.1687 54.3454 51.3092 54.3454 52.7108C54.3454 54.1123 55.4859 55.2528 56.8874 55.2528C58.2889 55.2528 59.4294 54.1123 59.4294 52.7108C59.4294 51.3092 58.2889 50.1687 56.8874 50.1687Z" fill="white"/>
<path d="M47.3555 53.3469H31.4671C31.1158 53.3469 30.8315 53.0627 30.8315 52.7114C30.8315 52.3602 31.1158 52.0759 31.4671 52.0759H47.3555C47.7068 52.0759 47.991 52.3602 47.991 52.7114C47.991 53.0627 47.7068 53.3469 47.3555 53.3469Z" fill="white"/>
<path d="M44.1772 58.113H34.6445C34.2933 58.113 34.009 57.8287 34.009 57.4775C34.009 57.1263 34.2933 56.842 34.6445 56.842H44.1772C44.5284 56.842 44.8127 57.1263 44.8127 57.4775C44.8127 57.8287 44.5284 58.113 44.1772 58.113Z" fill="white"/>
<path d="M44.1772 48.5796H34.6445C34.2933 48.5796 34.009 48.2953 34.009 47.9441C34.009 47.5929 34.2933 47.3086 34.6445 47.3086H44.1772C44.5284 47.3086 44.8127 47.5929 44.8127 47.9441C44.8127 48.2953 44.5284 48.5796 44.1772 48.5796Z" fill="white"/>
<path d="M41.0005 37.4586C40.8076 37.4586 40.6163 37.3706 40.4915 37.2044C40.281 36.9235 40.3377 36.5252 40.6186 36.3146L46.9737 31.5484C47.2546 31.3379 47.6529 31.3946 47.8634 31.6755C48.0739 31.9564 48.0172 32.3547 47.7363 32.5652L41.3812 37.3315C41.2672 37.4171 41.1333 37.4586 41.0005 37.4586Z" fill="white"/>
<path d="M33.5864 37.4585C33.3935 37.4585 33.2023 37.3706 33.0774 37.2043C32.8669 36.9235 32.9237 36.5251 33.2046 36.3146L37.4415 33.1371C37.7218 32.9266 38.1207 32.9833 38.3312 33.2642C38.5417 33.5451 38.485 33.9434 38.2041 34.1539L33.9672 37.3314C33.8531 37.4171 33.7192 37.4585 33.5864 37.4585Z" fill="white"/>
</svg>
