<svg width="74" height="82" viewBox="0 0 74 82" fill="none" xmlns="http://www.w3.org/2000/svg">
<mask id="path-1-outside-1_3_422" maskUnits="userSpaceOnUse" x="-0.604004" y="0" width="75" height="82" fill="black">
<rect fill="white" x="-0.604004" width="75" height="82"/>
<path d="M59.0808 37.0649C60.7795 37.2853 60.4308 40.1196 60.4013 42.3329C60.3821 42.7738 59.9331 43.0908 59.9257 43.2419C59.9058 43.657 59.8867 44.1717 59.8992 44.6959L71.8736 53.1181C72.6647 54.095 73.5731 55.1509 73.6041 56.2921V59.5244C73.4972 60.2669 72.1309 59.4263 71.0811 58.9493C64.5205 55.9861 57.9734 52.9131 51.1416 50.707C50.2008 50.404 49.2549 50.0626 48.2875 50.0161C46.2526 49.9542 44.214 50.0655 42.1694 49.9704C42.1694 49.9704 42.0669 50.8191 42.0684 51.3352C42.0787 53.3053 42.1134 55.2753 42.1296 57.2453C42.1525 61.2134 42.1444 65.3409 41.0583 69.0061C40.8497 69.7094 40.3571 70.6812 40.3571 70.6812C40.9942 70.9886 41.6305 71.2998 42.2667 71.6095C45.1304 73.0118 48.1408 74.2667 50.8084 75.9197C51.4402 76.3105 51.1615 77.9237 51.1615 77.9237C51.1107 78.3122 50.8917 78.3137 50.6823 78.2791C47.1049 77.1775 43.5446 75.9595 39.8896 75.2104C39.8896 75.2104 39.7245 75.1138 39.6212 75.2959C38.7505 76.9239 38.5802 78.9331 37.6718 80.5248C37.6718 80.5248 37.2376 81.3056 36.5777 80.8655C36.0166 80.4887 35.9163 79.6305 35.6671 78.9042C35.2402 77.6338 34.9556 76.2419 34.3238 75.2015C34.3238 75.2015 32.2468 75.6475 30.2413 76.2175C27.9253 76.8759 25.6192 77.5704 23.318 78.279C23.318 78.279 22.8844 78.2775 22.8395 77.9236C22.8402 77.6339 22.8432 77.3441 22.8498 77.0551C22.8955 75.503 24.5124 75.2 25.7797 74.5592C28.2297 73.3213 30.6946 72.1121 33.1638 70.9126C33.1638 70.9126 33.6814 70.8521 33.3791 70.1945C32.4811 68.2487 32.2687 66.0227 32.0637 63.8427C31.6457 59.4071 31.8477 54.9286 31.9104 50.4555L31.9163 49.9652C31.6383 49.9799 31.5815 49.9851 30.7587 50.0013C30.3532 50.0065 29.9469 50.0101 29.5414 50.0124C27.2034 50.0212 24.9193 50.0308 22.6617 50.7718C15.2939 53.1887 8.23789 56.5139 1.16132 59.7498C1.16132 59.7498 0.471213 60.0433 0.395996 59.5242V56.2919C0.42475 55.2139 1.24684 54.2458 1.97088 53.3125C1.97088 53.3125 2.02175 53.2151 2.20166 53.0485L14.4394 44.4567C14.3878 44.2023 14.4128 43.288 14.4128 43.288C14.2934 43.1516 14.3539 43.3183 14.1703 42.9157C13.7544 42.0037 14.0346 40.1286 14.0346 38.5465C14.0538 37.7768 14.6613 37.1184 15.4296 37.0594C17.1497 37.0137 19.1375 36.982 19.1772 38.5465V41.1315L31.903 32.1991V10.8931C31.9635 5.93921 35.0529 -0.825555 38.2137 1.45642C40.3495 2.99886 41.2691 5.97601 41.842 8.77422C41.9857 9.47244 42.0875 10.1802 42.0956 10.8933V32.1993L55.2571 41.4384V38.5467C55.2762 37.777 55.8845 37.1186 56.6528 37.0596C57.4764 37.0367 58.1281 36.9903 59.0792 37.0648L59.0808 37.0649ZM41.9008 49.2118C44.5773 49.4175 47.4806 48.9508 49.7583 49.5296C54.5942 50.7601 59.1927 52.9329 63.8406 54.9369C66.5613 56.1114 69.2694 57.3155 71.968 58.5393L72.8646 58.9485C72.8646 57.572 73.0164 56.2279 72.4613 55.2502C72.0638 54.549 71.3302 53.623 71.3302 53.623L59.1191 45.0349C58.9576 44.7687 59.2533 44.4687 59.2599 44.1885V43.157C59.3197 42.7375 59.622 43.2418 59.661 42.3113C59.678 41.0454 59.692 39.7779 59.6603 38.5112C59.5902 37.5778 57.9564 37.7651 56.6918 37.7983C56.3062 37.8277 56.0084 38.1618 55.9988 38.5547V42.1498C55.9383 42.5893 55.7503 42.6239 55.4163 42.4529L41.5138 32.694C41.4261 32.6143 41.3708 32.5141 41.3575 32.3917V10.8988C41.3206 7.75861 40.2811 4.32734 38.1863 2.32623C36.6255 0.836148 35.5395 2.14485 34.7254 3.39309C33.287 5.59919 32.675 8.36399 32.6449 10.8989V32.3917C32.6308 32.509 32.5792 32.6115 32.4871 32.694L19.021 42.1462C18.6265 42.3497 18.4894 42.2162 18.4385 41.8439C18.4385 40.7335 18.465 39.6218 18.4378 38.5114C18.3677 37.5779 16.7339 37.7652 15.4693 37.7984C15.0985 37.8264 14.8057 38.1353 14.777 38.5114C14.7453 39.7913 14.6922 41.0757 14.7792 42.3533C14.819 42.7847 15.111 42.8237 15.1545 43.1371C15.1545 43.7719 15.2444 44.5483 15.2444 44.5483C15.2452 44.6854 15.1965 44.8071 15.0911 44.9051L2.67044 53.6231C1.96852 54.4901 1.15751 55.5621 1.13759 56.3016V58.9484C8.32931 55.6593 15.599 52.1882 23.0212 49.8796C25.9822 48.9587 29.1032 49.4417 32.0943 49.2116C32.0943 49.2116 32.6082 49.1578 32.6613 49.5677C32.5868 55.6011 32.0501 61.6307 33.3698 67.6957C33.594 68.7287 33.8225 69.8384 34.4846 70.5719C34.4846 70.5719 34.666 70.959 34.3689 71.1536C30.8438 72.8406 27.2959 74.5232 23.8748 76.3789C23.4332 76.6245 23.5865 77.2165 23.5836 77.4222C27.1145 76.3421 30.6269 75.074 34.203 74.4406C34.203 74.4406 34.6483 74.3639 34.9093 74.7451C35.7159 75.9218 35.7992 78.2701 37.0188 80.266C37.2798 79.8074 37.7553 78.2643 38.3054 76.6171C38.3791 76.3996 38.3791 76.4003 38.4558 76.1828C38.7293 75.4175 39.3295 74.4848 39.3295 74.4848C39.6118 74.3226 39.3309 74.3447 40.0336 74.4841C43.1863 75.1122 46.274 76.1666 49.384 77.1073L50.4177 77.4221C50.3934 75.9416 50.1258 76.3781 49.9083 76.2616C46.6493 74.5127 43.3153 72.9319 39.9923 71.3255C39.9923 71.3255 39.1783 71.161 39.7439 70.2667C41.0924 68.0408 41.1484 65.0723 41.304 62.3806C41.5325 58.4117 41.3261 54.4191 41.3276 50.4407L41.3475 49.4579C41.4382 49.2581 41.4647 49.1703 41.9005 49.2116L41.9008 49.2118Z"/>
</mask>
<path d="M59.0808 37.0649C60.7795 37.2853 60.4308 40.1196 60.4013 42.3329C60.3821 42.7738 59.9331 43.0908 59.9257 43.2419C59.9058 43.657 59.8867 44.1717 59.8992 44.6959L71.8736 53.1181C72.6647 54.095 73.5731 55.1509 73.6041 56.2921V59.5244C73.4972 60.2669 72.1309 59.4263 71.0811 58.9493C64.5205 55.9861 57.9734 52.9131 51.1416 50.707C50.2008 50.404 49.2549 50.0626 48.2875 50.0161C46.2526 49.9542 44.214 50.0655 42.1694 49.9704C42.1694 49.9704 42.0669 50.8191 42.0684 51.3352C42.0787 53.3053 42.1134 55.2753 42.1296 57.2453C42.1525 61.2134 42.1444 65.3409 41.0583 69.0061C40.8497 69.7094 40.3571 70.6812 40.3571 70.6812C40.9942 70.9886 41.6305 71.2998 42.2667 71.6095C45.1304 73.0118 48.1408 74.2667 50.8084 75.9197C51.4402 76.3105 51.1615 77.9237 51.1615 77.9237C51.1107 78.3122 50.8917 78.3137 50.6823 78.2791C47.1049 77.1775 43.5446 75.9595 39.8896 75.2104C39.8896 75.2104 39.7245 75.1138 39.6212 75.2959C38.7505 76.9239 38.5802 78.9331 37.6718 80.5248C37.6718 80.5248 37.2376 81.3056 36.5777 80.8655C36.0166 80.4887 35.9163 79.6305 35.6671 78.9042C35.2402 77.6338 34.9556 76.2419 34.3238 75.2015C34.3238 75.2015 32.2468 75.6475 30.2413 76.2175C27.9253 76.8759 25.6192 77.5704 23.318 78.279C23.318 78.279 22.8844 78.2775 22.8395 77.9236C22.8402 77.6339 22.8432 77.3441 22.8498 77.0551C22.8955 75.503 24.5124 75.2 25.7797 74.5592C28.2297 73.3213 30.6946 72.1121 33.1638 70.9126C33.1638 70.9126 33.6814 70.8521 33.3791 70.1945C32.4811 68.2487 32.2687 66.0227 32.0637 63.8427C31.6457 59.4071 31.8477 54.9286 31.9104 50.4555L31.9163 49.9652C31.6383 49.9799 31.5815 49.9851 30.7587 50.0013C30.3532 50.0065 29.9469 50.0101 29.5414 50.0124C27.2034 50.0212 24.9193 50.0308 22.6617 50.7718C15.2939 53.1887 8.23789 56.5139 1.16132 59.7498C1.16132 59.7498 0.471213 60.0433 0.395996 59.5242V56.2919C0.42475 55.2139 1.24684 54.2458 1.97088 53.3125C1.97088 53.3125 2.02175 53.2151 2.20166 53.0485L14.4394 44.4567C14.3878 44.2023 14.4128 43.288 14.4128 43.288C14.2934 43.1516 14.3539 43.3183 14.1703 42.9157C13.7544 42.0037 14.0346 40.1286 14.0346 38.5465C14.0538 37.7768 14.6613 37.1184 15.4296 37.0594C17.1497 37.0137 19.1375 36.982 19.1772 38.5465V41.1315L31.903 32.1991V10.8931C31.9635 5.93921 35.0529 -0.825555 38.2137 1.45642C40.3495 2.99886 41.2691 5.97601 41.842 8.77422C41.9857 9.47244 42.0875 10.1802 42.0956 10.8933V32.1993L55.2571 41.4384V38.5467C55.2762 37.777 55.8845 37.1186 56.6528 37.0596C57.4764 37.0367 58.1281 36.9903 59.0792 37.0648L59.0808 37.0649ZM41.9008 49.2118C44.5773 49.4175 47.4806 48.9508 49.7583 49.5296C54.5942 50.7601 59.1927 52.9329 63.8406 54.9369C66.5613 56.1114 69.2694 57.3155 71.968 58.5393L72.8646 58.9485C72.8646 57.572 73.0164 56.2279 72.4613 55.2502C72.0638 54.549 71.3302 53.623 71.3302 53.623L59.1191 45.0349C58.9576 44.7687 59.2533 44.4687 59.2599 44.1885V43.157C59.3197 42.7375 59.622 43.2418 59.661 42.3113C59.678 41.0454 59.692 39.7779 59.6603 38.5112C59.5902 37.5778 57.9564 37.7651 56.6918 37.7983C56.3062 37.8277 56.0084 38.1618 55.9988 38.5547V42.1498C55.9383 42.5893 55.7503 42.6239 55.4163 42.4529L41.5138 32.694C41.4261 32.6143 41.3708 32.5141 41.3575 32.3917V10.8988C41.3206 7.75861 40.2811 4.32734 38.1863 2.32623C36.6255 0.836148 35.5395 2.14485 34.7254 3.39309C33.287 5.59919 32.675 8.36399 32.6449 10.8989V32.3917C32.6308 32.509 32.5792 32.6115 32.4871 32.694L19.021 42.1462C18.6265 42.3497 18.4894 42.2162 18.4385 41.8439C18.4385 40.7335 18.465 39.6218 18.4378 38.5114C18.3677 37.5779 16.7339 37.7652 15.4693 37.7984C15.0985 37.8264 14.8057 38.1353 14.777 38.5114C14.7453 39.7913 14.6922 41.0757 14.7792 42.3533C14.819 42.7847 15.111 42.8237 15.1545 43.1371C15.1545 43.7719 15.2444 44.5483 15.2444 44.5483C15.2452 44.6854 15.1965 44.8071 15.0911 44.9051L2.67044 53.6231C1.96852 54.4901 1.15751 55.5621 1.13759 56.3016V58.9484C8.32931 55.6593 15.599 52.1882 23.0212 49.8796C25.9822 48.9587 29.1032 49.4417 32.0943 49.2116C32.0943 49.2116 32.6082 49.1578 32.6613 49.5677C32.5868 55.6011 32.0501 61.6307 33.3698 67.6957C33.594 68.7287 33.8225 69.8384 34.4846 70.5719C34.4846 70.5719 34.666 70.959 34.3689 71.1536C30.8438 72.8406 27.2959 74.5232 23.8748 76.3789C23.4332 76.6245 23.5865 77.2165 23.5836 77.4222C27.1145 76.3421 30.6269 75.074 34.203 74.4406C34.203 74.4406 34.6483 74.3639 34.9093 74.7451C35.7159 75.9218 35.7992 78.2701 37.0188 80.266C37.2798 79.8074 37.7553 78.2643 38.3054 76.6171C38.3791 76.3996 38.3791 76.4003 38.4558 76.1828C38.7293 75.4175 39.3295 74.4848 39.3295 74.4848C39.6118 74.3226 39.3309 74.3447 40.0336 74.4841C43.1863 75.1122 46.274 76.1666 49.384 77.1073L50.4177 77.4221C50.3934 75.9416 50.1258 76.3781 49.9083 76.2616C46.6493 74.5127 43.3153 72.9319 39.9923 71.3255C39.9923 71.3255 39.1783 71.161 39.7439 70.2667C41.0924 68.0408 41.1484 65.0723 41.304 62.3806C41.5325 58.4117 41.3261 54.4191 41.3276 50.4407L41.3475 49.4579C41.4382 49.2581 41.4647 49.1703 41.9005 49.2116L41.9008 49.2118Z" fill="white"/>
<path d="M59.0808 37.0649C60.7795 37.2853 60.4308 40.1196 60.4013 42.3329C60.3821 42.7738 59.9331 43.0908 59.9257 43.2419C59.9058 43.657 59.8867 44.1717 59.8992 44.6959L71.8736 53.1181C72.6647 54.095 73.5731 55.1509 73.6041 56.2921V59.5244C73.4972 60.2669 72.1309 59.4263 71.0811 58.9493C64.5205 55.9861 57.9734 52.9131 51.1416 50.707C50.2008 50.404 49.2549 50.0626 48.2875 50.0161C46.2526 49.9542 44.214 50.0655 42.1694 49.9704C42.1694 49.9704 42.0669 50.8191 42.0684 51.3352C42.0787 53.3053 42.1134 55.2753 42.1296 57.2453C42.1525 61.2134 42.1444 65.3409 41.0583 69.0061C40.8497 69.7094 40.3571 70.6812 40.3571 70.6812C40.9942 70.9886 41.6305 71.2998 42.2667 71.6095C45.1304 73.0118 48.1408 74.2667 50.8084 75.9197C51.4402 76.3105 51.1615 77.9237 51.1615 77.9237C51.1107 78.3122 50.8917 78.3137 50.6823 78.2791C47.1049 77.1775 43.5446 75.9595 39.8896 75.2104C39.8896 75.2104 39.7245 75.1138 39.6212 75.2959C38.7505 76.9239 38.5802 78.9331 37.6718 80.5248C37.6718 80.5248 37.2376 81.3056 36.5777 80.8655C36.0166 80.4887 35.9163 79.6305 35.6671 78.9042C35.2402 77.6338 34.9556 76.2419 34.3238 75.2015C34.3238 75.2015 32.2468 75.6475 30.2413 76.2175C27.9253 76.8759 25.6192 77.5704 23.318 78.279C23.318 78.279 22.8844 78.2775 22.8395 77.9236C22.8402 77.6339 22.8432 77.3441 22.8498 77.0551C22.8955 75.503 24.5124 75.2 25.7797 74.5592C28.2297 73.3213 30.6946 72.1121 33.1638 70.9126C33.1638 70.9126 33.6814 70.8521 33.3791 70.1945C32.4811 68.2487 32.2687 66.0227 32.0637 63.8427C31.6457 59.4071 31.8477 54.9286 31.9104 50.4555L31.9163 49.9652C31.6383 49.9799 31.5815 49.9851 30.7587 50.0013C30.3532 50.0065 29.9469 50.0101 29.5414 50.0124C27.2034 50.0212 24.9193 50.0308 22.6617 50.7718C15.2939 53.1887 8.23789 56.5139 1.16132 59.7498C1.16132 59.7498 0.471213 60.0433 0.395996 59.5242V56.2919C0.42475 55.2139 1.24684 54.2458 1.97088 53.3125C1.97088 53.3125 2.02175 53.2151 2.20166 53.0485L14.4394 44.4567C14.3878 44.2023 14.4128 43.288 14.4128 43.288C14.2934 43.1516 14.3539 43.3183 14.1703 42.9157C13.7544 42.0037 14.0346 40.1286 14.0346 38.5465C14.0538 37.7768 14.6613 37.1184 15.4296 37.0594C17.1497 37.0137 19.1375 36.982 19.1772 38.5465V41.1315L31.903 32.1991V10.8931C31.9635 5.93921 35.0529 -0.825555 38.2137 1.45642C40.3495 2.99886 41.2691 5.97601 41.842 8.77422C41.9857 9.47244 42.0875 10.1802 42.0956 10.8933V32.1993L55.2571 41.4384V38.5467C55.2762 37.777 55.8845 37.1186 56.6528 37.0596C57.4764 37.0367 58.1281 36.9903 59.0792 37.0648L59.0808 37.0649ZM41.9008 49.2118C44.5773 49.4175 47.4806 48.9508 49.7583 49.5296C54.5942 50.7601 59.1927 52.9329 63.8406 54.9369C66.5613 56.1114 69.2694 57.3155 71.968 58.5393L72.8646 58.9485C72.8646 57.572 73.0164 56.2279 72.4613 55.2502C72.0638 54.549 71.3302 53.623 71.3302 53.623L59.1191 45.0349C58.9576 44.7687 59.2533 44.4687 59.2599 44.1885V43.157C59.3197 42.7375 59.622 43.2418 59.661 42.3113C59.678 41.0454 59.692 39.7779 59.6603 38.5112C59.5902 37.5778 57.9564 37.7651 56.6918 37.7983C56.3062 37.8277 56.0084 38.1618 55.9988 38.5547V42.1498C55.9383 42.5893 55.7503 42.6239 55.4163 42.4529L41.5138 32.694C41.4261 32.6143 41.3708 32.5141 41.3575 32.3917V10.8988C41.3206 7.75861 40.2811 4.32734 38.1863 2.32623C36.6255 0.836148 35.5395 2.14485 34.7254 3.39309C33.287 5.59919 32.675 8.36399 32.6449 10.8989V32.3917C32.6308 32.509 32.5792 32.6115 32.4871 32.694L19.021 42.1462C18.6265 42.3497 18.4894 42.2162 18.4385 41.8439C18.4385 40.7335 18.465 39.6218 18.4378 38.5114C18.3677 37.5779 16.7339 37.7652 15.4693 37.7984C15.0985 37.8264 14.8057 38.1353 14.777 38.5114C14.7453 39.7913 14.6922 41.0757 14.7792 42.3533C14.819 42.7847 15.111 42.8237 15.1545 43.1371C15.1545 43.7719 15.2444 44.5483 15.2444 44.5483C15.2452 44.6854 15.1965 44.8071 15.0911 44.9051L2.67044 53.6231C1.96852 54.4901 1.15751 55.5621 1.13759 56.3016V58.9484C8.32931 55.6593 15.599 52.1882 23.0212 49.8796C25.9822 48.9587 29.1032 49.4417 32.0943 49.2116C32.0943 49.2116 32.6082 49.1578 32.6613 49.5677C32.5868 55.6011 32.0501 61.6307 33.3698 67.6957C33.594 68.7287 33.8225 69.8384 34.4846 70.5719C34.4846 70.5719 34.666 70.959 34.3689 71.1536C30.8438 72.8406 27.2959 74.5232 23.8748 76.3789C23.4332 76.6245 23.5865 77.2165 23.5836 77.4222C27.1145 76.3421 30.6269 75.074 34.203 74.4406C34.203 74.4406 34.6483 74.3639 34.9093 74.7451C35.7159 75.9218 35.7992 78.2701 37.0188 80.266C37.2798 79.8074 37.7553 78.2643 38.3054 76.6171C38.3791 76.3996 38.3791 76.4003 38.4558 76.1828C38.7293 75.4175 39.3295 74.4848 39.3295 74.4848C39.6118 74.3226 39.3309 74.3447 40.0336 74.4841C43.1863 75.1122 46.274 76.1666 49.384 77.1073L50.4177 77.4221C50.3934 75.9416 50.1258 76.3781 49.9083 76.2616C46.6493 74.5127 43.3153 72.9319 39.9923 71.3255C39.9923 71.3255 39.1783 71.161 39.7439 70.2667C41.0924 68.0408 41.1484 65.0723 41.304 62.3806C41.5325 58.4117 41.3261 54.4191 41.3276 50.4407L41.3475 49.4579C41.4382 49.2581 41.4647 49.1703 41.9005 49.2116L41.9008 49.2118Z" stroke="white" stroke-width="0.4" mask="url(#path-1-outside-1_3_422)"/>
<path d="M32.9824 14.6302H32.8824V14.7302V15.6393V15.7393H32.9824H33.6283H33.7283V15.6393V14.7302V14.6302H33.6283H32.9824Z" fill="white" stroke="white" stroke-width="0.2"/>
<path d="M32.9824 15.6872H32.8824V15.7872V16.6963V16.7963H32.9824H33.6283H33.7283V16.6963V15.7872V15.6872H33.6283H32.9824Z" fill="white" stroke="white" stroke-width="0.2"/>
<path d="M32.9824 16.7442H32.8824V16.8442V17.7533V17.8533H32.9824H33.6283H33.7283V17.7533V16.8442V16.7442H33.6283H32.9824Z" fill="white" stroke="white" stroke-width="0.2"/>
<path d="M32.9824 17.8012H32.8824V17.9012V18.8103V18.9103H32.9824H33.6283H33.7283V18.8103V17.9012V17.8012H33.6283H32.9824Z" fill="white" stroke="white" stroke-width="0.2"/>
<path d="M32.9824 18.8582H32.8824V18.9582V19.8673V19.9673H32.9824H33.6283H33.7283V19.8673V18.9582V18.8582H33.6283H32.9824Z" fill="white" stroke="white" stroke-width="0.2"/>
<path d="M32.9824 19.9152H32.8824V20.0152V20.9243V21.0243H32.9824H33.6283H33.7283V20.9243V20.0152V19.9152H33.6283H32.9824Z" fill="white" stroke="white" stroke-width="0.2"/>
<path d="M32.9824 20.9722H32.8824V21.0722V21.9813V22.0813H32.9824H33.6283H33.7283V21.9813V21.0722V20.9722H33.6283H32.9824Z" fill="white" stroke="white" stroke-width="0.2"/>
<path d="M32.9824 22.0292H32.8824V22.1292V23.0382V23.1382H32.9824H33.6283H33.7283V23.0382V22.1292V22.0292H33.6283H32.9824Z" fill="white" stroke="white" stroke-width="0.2"/>
<path d="M32.9824 23.0862H32.8824V23.1862V24.0952V24.1952H32.9824H33.6283H33.7283V24.0952V23.1862V23.0862H33.6283H32.9824Z" fill="white" stroke="white" stroke-width="0.2"/>
<path d="M32.9824 24.1432H32.8824V24.2432V25.1523V25.2523H32.9824H33.6283H33.7283V25.1523V24.2432V24.1432H33.6283H32.9824Z" fill="white" stroke="white" stroke-width="0.2"/>
<path d="M32.9824 25.2002H32.8824V25.3002V26.2093V26.3093H32.9824H33.6283H33.7283V26.2093V25.3002V25.2002H33.6283H32.9824Z" fill="white" stroke="white" stroke-width="0.2"/>
<path d="M32.9824 26.2571H32.8824V26.3571V27.2662V27.3662H32.9824H33.6283H33.7283V27.2662V26.3571V26.2571H33.6283H32.9824Z" fill="white" stroke="white" stroke-width="0.2"/>
<path d="M32.9824 27.3141H32.8824V27.4141V28.3232V28.4232H32.9824H33.6283H33.7283V28.3232V27.4141V27.3141H33.6283H32.9824Z" fill="white" stroke="white" stroke-width="0.2"/>
<path d="M32.9824 28.3711H32.8824V28.4711V29.3802V29.4802H32.9824H33.6283H33.7283V29.3802V28.4711V28.3711H33.6283H32.9824Z" fill="white" stroke="white" stroke-width="0.2"/>
<path d="M32.9824 29.4281H32.8824V29.5281V30.4372V30.5372H32.9824H33.6283H33.7283V30.4372V29.5281V29.4281H33.6283H32.9824Z" fill="white" stroke="white" stroke-width="0.2"/>
<path d="M32.9824 30.4851H32.8824V30.5851V31.4942V31.5942H32.9824H33.6283H33.7283V31.4942V30.5851V30.4851H33.6283H32.9824Z" fill="white" stroke="white" stroke-width="0.2"/>
<path d="M32.9824 31.5422H32.8824V31.6422V32.5512V32.6512H32.9824H33.6283H33.7283V32.5512V31.6422V31.5422H33.6283H32.9824Z" fill="white" stroke="white" stroke-width="0.2"/>
<path d="M32.9824 33.6561H32.8824V33.7561V34.6652V34.7652H32.9824H33.6283H33.7283V34.6652V33.7561V33.6561H33.6283H32.9824Z" fill="white" stroke="white" stroke-width="0.2"/>
<path d="M32.9824 34.7131H32.8824V34.8131V35.7222V35.8222H32.9824H33.6283H33.7283V35.7222V34.8131V34.7131H33.6283H32.9824Z" fill="white" stroke="white" stroke-width="0.2"/>
<path d="M32.9824 36.8271H32.8824V36.9271V37.8362V37.9362H32.9824H33.6283H33.7283V37.8362V36.9271V36.8271H33.6283H32.9824Z" fill="white" stroke="white" stroke-width="0.2"/>
<path d="M32.9824 37.8841H32.8824V37.9841V38.8932V38.9932H32.9824H33.6283H33.7283V38.8932V37.9841V37.8841H33.6283H32.9824Z" fill="white" stroke="white" stroke-width="0.2"/>
<path d="M32.9824 39.998H32.8824V40.098V41.0071V41.1071H32.9824H33.6283H33.7283V41.0071V40.098V39.998H33.6283H32.9824Z" fill="white" stroke="white" stroke-width="0.2"/>
<path d="M32.9824 41.0551H32.8824V41.1551V42.0642V42.1642H32.9824H33.6283H33.7283V42.0642V41.1551V41.0551H33.6283H32.9824Z" fill="white" stroke="white" stroke-width="0.2"/>
<path d="M32.9824 43.169H32.8824V43.269V44.1781V44.2781H32.9824H33.6283H33.7283V44.1781V43.269V43.169H33.6283H32.9824Z" fill="white" stroke="white" stroke-width="0.2"/>
<path d="M32.9824 44.226H32.8824V44.326V45.2351V45.3351H32.9824H33.6283H33.7283V45.2351V44.326V44.226H33.6283H32.9824Z" fill="white" stroke="white" stroke-width="0.2"/>
<path d="M32.9824 45.2831H32.8824V45.3831V46.2921V46.3921H32.9824H33.6283H33.7283V46.2921V45.3831V45.2831H33.6283H32.9824Z" fill="white" stroke="white" stroke-width="0.2"/>
<path d="M32.9824 46.3401H32.8824V46.4401V47.3492V47.4492H32.9824H33.6283H33.7283V47.3492V46.4401V46.3401H33.6283H32.9824Z" fill="white" stroke="white" stroke-width="0.2"/>
<path d="M32.9824 47.397H32.8824V47.497V48.4061V48.5061H32.9824H33.6283H33.7283V48.4061V47.497V47.397H33.6283H32.9824Z" fill="white" stroke="white" stroke-width="0.2"/>
<path d="M32.9824 48.4541H32.8824V48.5541V49.4632V49.5632H32.9824H33.6283H33.7283V49.4632V48.5541V48.4541H33.6283H32.9824Z" fill="white" stroke="white" stroke-width="0.2"/>
<path d="M32.9824 49.511H32.8824V49.611V50.5201V50.6201H32.9824H33.6283H33.7283V50.5201V49.611V49.511H33.6283H32.9824Z" fill="white" stroke="white" stroke-width="0.2"/>
<path d="M32.9824 50.568H32.8824V50.668V51.5771V51.6771H32.9824H33.6283H33.7283V51.5771V50.668V50.568H33.6283H32.9824Z" fill="white" stroke="white" stroke-width="0.2"/>
<path d="M32.9824 51.625H32.8824V51.725V52.6341V52.7341H32.9824H33.6283H33.7283V52.6341V51.725V51.625H33.6283H32.9824Z" fill="white" stroke="white" stroke-width="0.2"/>
<path d="M32.9824 52.682H32.8824V52.782V53.6911V53.7911H32.9824H33.6283H33.7283V53.6911V52.782V52.682H33.6283H32.9824Z" fill="white" stroke="white" stroke-width="0.2"/>
<path d="M32.9824 53.739H32.8824V53.839V54.7481V54.8481H32.9824H33.6283H33.7283V54.7481V53.839V53.739H33.6283H32.9824Z" fill="white" stroke="white" stroke-width="0.2"/>
<path d="M32.9824 54.796H32.8824V54.896V55.8051V55.9051H32.9824H33.6283H33.7283V55.8051V54.896V54.796H33.6283H32.9824Z" fill="white" stroke="white" stroke-width="0.2"/>
<path d="M32.9824 55.853H32.8824V55.953V56.8621V56.9621H32.9824H33.6283H33.7283V56.8621V55.953V55.853H33.6283H32.9824Z" fill="white" stroke="white" stroke-width="0.2"/>
<path d="M32.9824 56.9099H32.8824V57.0099V57.919V58.019H32.9824H33.6283H33.7283V57.919V57.0099V56.9099H33.6283H32.9824Z" fill="white" stroke="white" stroke-width="0.2"/>
<path d="M32.9824 57.967H32.8824V58.067V58.976V59.076H32.9824H33.6283H33.7283V58.976V58.067V57.967H33.6283H32.9824Z" fill="white" stroke="white" stroke-width="0.2"/>
<path d="M32.9824 59.024H32.8824V59.124V60.0331V60.1331H32.9824H33.6283H33.7283V60.0331V59.124V59.024H33.6283H32.9824Z" fill="white" stroke="white" stroke-width="0.2"/>
<path d="M40.3813 36.8271H40.2813V36.9271V37.8362V37.9362H40.3813H41.0272H41.1272V37.8362V36.9271V36.8271H41.0272H40.3813Z" fill="white" stroke="white" stroke-width="0.2"/>
<path d="M40.3813 37.8841H40.2813V37.9841V38.8932V38.9932H40.3813H41.0272H41.1272V38.8932V37.9841V37.8841H41.0272H40.3813Z" fill="white" stroke="white" stroke-width="0.2"/>
<path d="M40.3813 39.998H40.2813V40.098V41.0071V41.1071H40.3813H41.0272H41.1272V41.0071V40.098V39.998H41.0272H40.3813Z" fill="white" stroke="white" stroke-width="0.2"/>
<path d="M40.3813 41.0551H40.2813V41.1551V42.0642V42.1642H40.3813H41.0272H41.1272V42.0642V41.1551V41.0551H41.0272H40.3813Z" fill="white" stroke="white" stroke-width="0.2"/>
<path d="M40.3813 43.169H40.2813V43.269V44.1781V44.2781H40.3813H41.0272H41.1272V44.1781V43.269V43.169H41.0272H40.3813Z" fill="white" stroke="white" stroke-width="0.2"/>
<path d="M40.3813 44.226H40.2813V44.326V45.2351V45.3351H40.3813H41.0272H41.1272V45.2351V44.326V44.226H41.0272H40.3813Z" fill="white" stroke="white" stroke-width="0.2"/>
<path d="M40.3813 45.2831H40.2813V45.3831V46.2921V46.3921H40.3813H41.0272H41.1272V46.2921V45.3831V45.2831H41.0272H40.3813Z" fill="white" stroke="white" stroke-width="0.2"/>
<path d="M40.3813 46.3401H40.2813V46.4401V47.3492V47.4492H40.3813H41.0272H41.1272V47.3492V46.4401V46.3401H41.0272H40.3813Z" fill="white" stroke="white" stroke-width="0.2"/>
<path d="M40.3813 47.397H40.2813V47.497V48.4061V48.5061H40.3813H41.0272H41.1272V48.4061V47.497V47.397H41.0272H40.3813Z" fill="white" stroke="white" stroke-width="0.2"/>
<path d="M40.3813 48.4541H40.2813V48.5541V49.4632V49.5632H40.3813H41.0272H41.1272V49.4632V48.5541V48.4541H41.0272H40.3813Z" fill="white" stroke="white" stroke-width="0.2"/>
<path d="M40.3813 49.511H40.2813V49.611V50.5201V50.6201H40.3813H41.0272H41.1272V50.5201V49.611V49.511H41.0272H40.3813Z" fill="white" stroke="white" stroke-width="0.2"/>
<path d="M40.3813 50.568H40.2813V50.668V51.5771V51.6771H40.3813H41.0272H41.1272V51.5771V50.668V50.568H41.0272H40.3813Z" fill="white" stroke="white" stroke-width="0.2"/>
<path d="M40.3813 51.625H40.2813V51.725V52.6341V52.7341H40.3813H41.0272H41.1272V52.6341V51.725V51.625H41.0272H40.3813Z" fill="white" stroke="white" stroke-width="0.2"/>
<path d="M40.3813 52.682H40.2813V52.782V53.6911V53.7911H40.3813H41.0272H41.1272V53.6911V52.782V52.682H41.0272H40.3813Z" fill="white" stroke="white" stroke-width="0.2"/>
<path d="M40.3813 53.739H40.2813V53.839V54.7481V54.8481H40.3813H41.0272H41.1272V54.7481V53.839V53.739H41.0272H40.3813Z" fill="white" stroke="white" stroke-width="0.2"/>
<path d="M40.3813 54.796H40.2813V54.896V55.8051V55.9051H40.3813H41.0272H41.1272V55.8051V54.896V54.796H41.0272H40.3813Z" fill="white" stroke="white" stroke-width="0.2"/>
<path d="M40.3813 55.853H40.2813V55.953V56.8621V56.9621H40.3813H41.0272H41.1272V56.8621V55.953V55.853H41.0272H40.3813Z" fill="white" stroke="white" stroke-width="0.2"/>
<path d="M40.3813 56.9099H40.2813V57.0099V57.919V58.019H40.3813H41.0272H41.1272V57.919V57.0099V56.9099H41.0272H40.3813Z" fill="white" stroke="white" stroke-width="0.2"/>
<path d="M40.3813 57.967H40.2813V58.067V58.976V59.076H40.3813H41.0272H41.1272V58.976V58.067V57.967H41.0272H40.3813Z" fill="white" stroke="white" stroke-width="0.2"/>
<path d="M40.3813 59.024H40.2813V59.124V60.0331V60.1331H40.3813H41.0272H41.1272V60.0331V59.124V59.024H41.0272H40.3813Z" fill="white" stroke="white" stroke-width="0.2"/>
<path d="M32.9824 61.138H32.8824V61.238V62.1471V62.2471H32.9824H33.6283H33.7283V62.1471V61.238V61.138H33.6283H32.9824Z" fill="white" stroke="white" stroke-width="0.2"/>
<path d="M40.3813 61.138H40.2813V61.238V62.1471V62.2471H40.3813H41.0272H41.1272V62.1471V61.238V61.138H41.0272H40.3813Z" fill="white" stroke="white" stroke-width="0.2"/>
<path d="M40.3813 14.6302H40.2813V14.7302V15.6393V15.7393H40.3813H41.0272H41.1272V15.6393V14.7302V14.6302H41.0272H40.3813Z" fill="white" stroke="white" stroke-width="0.2"/>
<path d="M40.3813 15.6872H40.2813V15.7872V16.6963V16.7963H40.3813H41.0272H41.1272V16.6963V15.7872V15.6872H41.0272H40.3813Z" fill="white" stroke="white" stroke-width="0.2"/>
<path d="M32.9824 11.4592H32.8824V11.5592V12.4683V12.5683H32.9824H33.6283H33.7283V12.4683V11.5592V11.4592H33.6283H32.9824Z" fill="white" stroke="white" stroke-width="0.2"/>
<path d="M32.9824 12.5162H32.8824V12.6162V13.5253V13.6253H32.9824H33.6283H33.7283V13.5253V12.6162V12.5162H33.6283H32.9824Z" fill="white" stroke="white" stroke-width="0.2"/>
<path d="M40.3813 11.4592H40.2813V11.5592V12.4683V12.5683H40.3813H41.0272H41.1272V12.4683V11.5592V11.4592H41.0272H40.3813Z" fill="white" stroke="white" stroke-width="0.2"/>
<path d="M40.3813 12.5162H40.2813V12.6162V13.5253V13.6253H40.3813H41.0272H41.1272V13.5253V12.6162V12.5162H41.0272H40.3813Z" fill="white" stroke="white" stroke-width="0.2"/>
<path d="M40.3813 16.7442H40.2813V16.8442V17.7533V17.8533H40.3813H41.0272H41.1272V17.7533V16.8442V16.7442H41.0272H40.3813Z" fill="white" stroke="white" stroke-width="0.2"/>
<path d="M40.3813 17.8012H40.2813V17.9012V18.8103V18.9103H40.3813H41.0272H41.1272V18.8103V17.9012V17.8012H41.0272H40.3813Z" fill="white" stroke="white" stroke-width="0.2"/>
<path d="M40.3813 18.8582H40.2813V18.9582V19.8673V19.9673H40.3813H41.0272H41.1272V19.8673V18.9582V18.8582H41.0272H40.3813Z" fill="white" stroke="white" stroke-width="0.2"/>
<path d="M40.3813 19.9152H40.2813V20.0152V20.9243V21.0243H40.3813H41.0272H41.1272V20.9243V20.0152V19.9152H41.0272H40.3813Z" fill="white" stroke="white" stroke-width="0.2"/>
<path d="M40.3813 20.9722H40.2813V21.0722V21.9813V22.0813H40.3813H41.0272H41.1272V21.9813V21.0722V20.9722H41.0272H40.3813Z" fill="white" stroke="white" stroke-width="0.2"/>
<path d="M40.3813 22.0292H40.2813V22.1292V23.0382V23.1382H40.3813H41.0272H41.1272V23.0382V22.1292V22.0292H41.0272H40.3813Z" fill="white" stroke="white" stroke-width="0.2"/>
<path d="M40.3813 23.0862H40.2813V23.1862V24.0952V24.1952H40.3813H41.0272H41.1272V24.0952V23.1862V23.0862H41.0272H40.3813Z" fill="white" stroke="white" stroke-width="0.2"/>
<path d="M40.3813 24.1432H40.2813V24.2432V25.1523V25.2523H40.3813H41.0272H41.1272V25.1523V24.2432V24.1432H41.0272H40.3813Z" fill="white" stroke="white" stroke-width="0.2"/>
<path d="M40.3813 25.2002H40.2813V25.3002V26.2093V26.3093H40.3813H41.0272H41.1272V26.2093V25.3002V25.2002H41.0272H40.3813Z" fill="white" stroke="white" stroke-width="0.2"/>
<path d="M40.3813 26.2571H40.2813V26.3571V27.2662V27.3662H40.3813H41.0272H41.1272V27.2662V26.3571V26.2571H41.0272H40.3813Z" fill="white" stroke="white" stroke-width="0.2"/>
<path d="M40.3813 27.3141H40.2813V27.4141V28.3232V28.4232H40.3813H41.0272H41.1272V28.3232V27.4141V27.3141H41.0272H40.3813Z" fill="white" stroke="white" stroke-width="0.2"/>
<path d="M40.3813 28.3711H40.2813V28.4711V29.3802V29.4802H40.3813H41.0272H41.1272V29.3802V28.4711V28.3711H41.0272H40.3813Z" fill="white" stroke="white" stroke-width="0.2"/>
<path d="M40.3813 29.4281H40.2813V29.5281V30.4372V30.5372H40.3813H41.0272H41.1272V30.4372V29.5281V29.4281H41.0272H40.3813Z" fill="white" stroke="white" stroke-width="0.2"/>
<path d="M40.3813 30.4851H40.2813V30.5851V31.4942V31.5942H40.3813H41.0272H41.1272V31.4942V30.5851V30.4851H41.0272H40.3813Z" fill="white" stroke="white" stroke-width="0.2"/>
<path d="M40.3813 31.5422H40.2813V31.6422V32.5512V32.6512H40.3813H41.0272H41.1272V32.5512V31.6422V31.5422H41.0272H40.3813Z" fill="white" stroke="white" stroke-width="0.2"/>
<path d="M40.3813 33.6561H40.2813V33.7561V34.6652V34.7652H40.3813H41.0272H41.1272V34.6652V33.7561V33.6561H41.0272H40.3813Z" fill="white" stroke="white" stroke-width="0.2"/>
<path d="M40.3813 34.7131H40.2813V34.8131V35.7222V35.8222H40.3813H41.0272H41.1272V35.7222V34.8131V34.7131H41.0272H40.3813Z" fill="white" stroke="white" stroke-width="0.2"/>
<path d="M40.5918 9.24563L40.7869 9.24536C40.8268 9.06806 40.8483 8.88449 40.8483 8.69475C40.8483 7.32776 39.738 6.21915 38.3712 6.21915H35.6307C34.2639 6.21915 33.1544 7.32782 33.1544 8.69475C33.1544 8.88422 33.1751 9.06794 33.2159 9.24576L33.4109 9.24556C33.6411 8.23277 34.5481 7.47571 35.6307 7.47571H38.3713C39.4538 7.47571 40.3609 8.23277 40.5918 9.24563Z" fill="white" stroke="white" stroke-width="0.2"/>
<path d="M14.4736 38.171H14.3736V38.271V39.0046V39.1046H14.4736H18.5995H18.6995V39.0046V38.271V38.171H18.5995H14.4736Z" fill="white" stroke="white" stroke-width="0.2"/>
<path d="M55.6965 38.171H55.5965V38.271V39.0046V39.1046H55.6965H59.8224H59.9224V39.0046V38.271V38.171H59.8224H55.6965Z" fill="white" stroke="white" stroke-width="0.2"/>
</svg>
