<svg width="84" height="80" viewBox="0 0 84 80" fill="none" xmlns="http://www.w3.org/2000/svg">
<path d="M34.4274 2.00177C34.2833 2.00177 34.1393 2.04365 34.0159 2.12596L2.41151 19.245C2.16461 19.4096 2 19.6572 2 19.9864V57.8458C2 58.175 2.16461 58.4205 2.41151 58.5851L34.0159 77.6794C34.1805 77.7617 34.2628 77.7617 34.4274 77.7617C34.592 77.7617 34.7566 77.7617 34.8389 77.6794L47.4319 70.1067H45.7858L45.6205 69.2021L35.3325 75.4051V37.5758L65.208 21.3063V39.1609L65.4542 39.0786L66.8541 41.9591V19.9847C66.8541 19.6555 66.6895 19.4078 66.4426 19.2432L34.8382 2.12419C34.7148 2.04189 34.5708 2 34.4267 2L34.4274 2.00177ZM34.4274 3.77203L43.8694 8.89607L14.2177 25.3875L4.36562 20.0893L34.4274 3.77203ZM45.6317 9.85285L51.5377 13.0598L21.9181 29.5328C21.6712 29.6974 21.5066 29.945 21.5066 30.2742V36.3631L15.25 32.9072V26.7345L45.6203 9.86233C45.6247 9.85939 45.6269 9.85572 45.6313 9.85278L45.6317 9.85285ZM53.3027 14.0158L64.196 19.9299L34.4635 36.1208L23.6804 30.3947L53.3027 14.0158ZM3.64625 21.6243L13.6042 26.982V33.4009C13.6042 33.7301 13.7689 33.977 14.0158 34.1416L21.9184 38.4206C22.083 38.5029 22.1653 38.5044 22.3299 38.5044C22.4945 38.5044 22.5768 38.5029 22.7414 38.4206C22.9883 38.256 23.1529 38.0106 23.1529 37.6814V32.034L33.6047 37.5975V75.4568L3.64644 57.4339L3.64625 21.6243ZM63.6456 42.9479L58.1319 44.1824V49.0389L56.2383 50.3551L51.6294 48.709L48.5835 53.4833L52.041 56.9393L51.6294 59.2445L47.1851 61.3022L48.5019 66.7342H53.3577L54.6746 68.6271L53.0285 73.236L57.8021 76.2806L61.2588 72.8246L63.5633 73.2361L65.621 77.6805L71.053 76.446V71.5902L72.9466 70.2733L77.5548 71.9194L80.6001 67.1458L77.1434 63.6891L77.5549 61.3846L82 59.3269L80.7655 53.8127H75.9089L74.5928 51.9198L76.2389 47.3109L71.4645 44.2663L68.0086 47.7223L65.7033 47.3108L63.6456 42.9479ZM62.6587 44.6777L64.551 48.6275L68.5839 49.3682L71.7122 46.2399L74.2629 47.886L72.7815 52.0012L75.086 55.2933H79.5311L80.1888 58.2577L76.239 60.15L75.4975 64.1829L78.6243 67.3112L76.9782 69.8619L72.8631 68.3805L69.571 70.685V75.1301L66.6088 75.7878L64.7165 71.838L60.683 71.0965L57.5555 74.2233L55.0042 72.5772L56.4864 68.4621L54.1811 65.17H49.7368L49.0791 62.2078L53.0289 60.3155L53.7696 56.282L50.6413 53.1545L52.2874 50.6032L56.4025 52.0854L59.6947 49.7801V45.3358L62.6587 44.6777ZM64.6325 52.4127C63.7271 52.4127 62.8225 52.5787 61.9171 52.908C57.8842 54.3894 55.7437 58.9154 57.2252 63.0306C58.3774 66.1581 61.3403 68.2156 64.6325 68.2156C65.5378 68.2156 66.4439 68.0517 67.3491 67.7225C71.3821 66.241 73.5212 61.7137 72.0397 57.5985C70.8875 54.471 67.9246 52.4128 64.6325 52.4128V52.4127ZM64.6325 54.0587C67.2662 54.0587 69.5721 55.7048 70.4774 58.1739C71.7119 61.466 69.9836 65.0881 66.7737 66.2403C66.1152 66.4872 65.373 66.6518 64.6323 66.6518C62.081 66.6518 59.6948 65.0058 58.7894 62.5367C57.5549 59.2446 59.2832 55.6225 62.4931 54.4702C63.1516 54.2233 63.8916 54.0587 64.6323 54.0587H64.6325Z" fill="white"/>
</svg>
