<svg width="81" height="80" viewBox="0 0 81 80" fill="none" xmlns="http://www.w3.org/2000/svg">
<path d="M32.6271 44.9123H9.07558C8.29176 44.9161 7.54051 45.2293 6.98605 45.7838C6.43155 46.3383 6.11826 47.0896 6.1145 47.8734V71.4249C6.11826 72.2088 6.43155 72.96 6.98605 73.5145C7.54055 74.069 8.29181 74.3823 9.07558 74.386H32.6271C33.411 74.3822 34.1622 74.069 34.7167 73.5145C35.2712 72.96 35.5845 72.2087 35.5882 71.4249V47.8734C35.5845 47.0895 35.2712 46.3383 34.7167 45.7838C34.1622 45.2293 33.4109 44.916 32.6271 44.9123ZM34.1848 47.8734V71.425C34.1823 71.5841 34.1491 71.7414 34.0864 71.888L21.8477 59.6493L34.0864 47.4106C34.1491 47.5573 34.1823 47.7145 34.1848 47.8737V47.8734ZM32.6271 46.3158C32.7863 46.3183 32.9436 46.3515 33.0902 46.4142L20.8515 58.6529L8.61278 46.4142C8.7594 46.3515 8.91666 46.3183 9.07581 46.3158H32.6271ZM7.61594 71.8884C7.55329 71.7418 7.52008 71.5845 7.51757 71.4254V47.8738C7.52008 47.7147 7.55329 47.5574 7.61594 47.4108L19.8546 59.6495L7.61594 71.8884ZM9.01944 72.983C8.8603 72.9805 8.70302 72.9473 8.55642 72.8846L20.8508 60.6459L33.0895 72.8846C32.9428 72.9473 32.7856 72.9805 32.6264 72.983H9.01944Z" fill="white"/>
<path d="M77.5393 39.2983H60.4021C60.6953 38.8315 60.8507 38.2914 60.8514 37.7406V2.96108C60.8476 2.17726 60.5343 1.42601 59.9798 0.87155C59.4253 0.317047 58.6741 0.00375336 57.8903 0H23.1107C22.3269 0.00375946 21.5756 0.317047 21.0212 0.87155C20.4667 1.42605 20.1534 2.1773 20.1496 2.96108V37.7406C20.1471 38.2939 20.3082 38.8359 20.6127 39.2983H3.46108C2.67726 39.302 1.92601 39.6153 1.37155 40.1698C0.817047 40.7243 0.503753 41.4756 0.5 42.2594V77.0389C0.503759 77.8227 0.817047 78.574 1.37155 79.1284C1.92605 79.683 2.6773 79.9962 3.46108 80H38.2406C39.1147 79.9969 39.9423 79.6065 40.5 78.9336C41.0577 79.6065 41.8854 79.9969 42.7594 80H77.539C78.3228 79.9962 79.0741 79.683 79.6285 79.1284C80.183 78.5739 80.4963 77.8227 80.5001 77.0389V42.2594C80.4963 41.4755 80.183 40.7243 79.6285 40.1698C79.074 39.6153 78.3228 39.302 77.539 39.2983H77.5393ZM21.5532 37.7406V2.96108C21.5532 2.10081 22.2506 1.40345 23.1108 1.40345H57.8904C58.7507 1.40345 59.448 2.10082 59.448 2.96108V37.7406C59.448 38.6009 58.7507 39.2983 57.8904 39.2983H23.1108C22.2506 39.2983 21.5532 38.6009 21.5532 37.7406ZM38.2412 78.5962H3.46168C2.6014 78.5962 1.90405 77.8988 1.90405 77.0385V42.259C1.90405 41.3987 2.60142 40.7013 3.46168 40.7013H38.2412C38.6541 40.7013 39.0501 40.8655 39.3427 41.1575C39.6347 41.4501 39.7989 41.8461 39.7989 42.259V77.0385C39.7989 77.8988 39.1015 78.5962 38.2413 78.5962L38.2412 78.5962ZM79.0967 77.0385C79.0967 77.8988 78.3994 78.5962 77.5391 78.5962H42.7596C41.8993 78.5962 41.2019 77.8988 41.2019 77.0385V42.259C41.2019 41.8461 41.3661 41.4501 41.6581 41.1575C41.9507 40.8655 42.3467 40.7013 42.7596 40.7013H77.5391C77.952 40.7013 78.348 40.8655 78.6406 41.1575C78.9326 41.4501 79.0968 41.8461 79.0968 42.259L79.0967 77.0385Z" fill="white"/>
<path d="M71.9252 44.9123H48.3737C47.5899 44.9161 46.8386 45.2293 46.2842 45.7838C45.7296 46.3383 45.4164 47.0896 45.4126 47.8734V71.4249C45.4164 72.2088 45.7296 72.96 46.2842 73.5145C46.8387 74.069 47.5899 74.3823 48.3737 74.386H71.9252C72.7091 74.3822 73.4603 74.069 74.0148 73.5145C74.5693 72.96 74.8826 72.2087 74.8863 71.4249V47.8734C74.8826 47.0895 74.5693 46.3383 74.0148 45.7838C73.4603 45.2293 72.709 44.916 71.9252 44.9123ZM73.4829 47.8734V71.425C73.4804 71.5841 73.4471 71.7414 73.3845 71.888L61.1458 59.6493L73.3845 47.4106C73.4471 47.5573 73.4804 47.7145 73.4829 47.8737V47.8734ZM71.9252 46.3158C72.0844 46.3183 72.2417 46.3515 72.3883 46.4142L60.1496 58.6529L47.9109 46.4142C48.0575 46.3515 48.2148 46.3183 48.3739 46.3158H71.9252ZM46.914 71.8884C46.8514 71.7418 46.8182 71.5845 46.8157 71.4254V47.8738C46.8182 47.7147 46.8514 47.5574 46.914 47.4108L59.1527 59.6495L46.914 71.8884ZM48.3175 72.983C48.1584 72.9805 48.0011 72.9473 47.8545 72.8846L60.1489 60.6459L72.3876 72.8846C72.2409 72.9473 72.0837 72.9805 71.9245 72.983H48.3175Z" fill="white"/>
<path d="M55.2388 32.1268V8.57522C55.2351 7.79139 54.9218 7.04014 54.3673 6.48569C53.8128 5.93118 53.0615 5.61789 52.2778 5.61414H28.7262C27.9424 5.6179 27.1911 5.93118 26.6367 6.48569C26.0822 7.04019 25.7689 7.79144 25.7651 8.57522V32.1268C25.7689 32.9106 26.0822 33.6618 26.6367 34.2163C27.1912 34.7708 27.9424 35.0841 28.7262 35.0879H52.2778C53.0616 35.0841 53.8128 34.7708 54.3673 34.2163C54.9218 33.6618 55.2351 32.9105 55.2388 32.1268ZM53.737 8.11327C53.7996 8.25988 53.8328 8.41714 53.8353 8.57629V32.1278C53.8328 32.287 53.7996 32.4443 53.737 32.5909L41.4983 20.3522L53.737 8.11327ZM52.3335 7.01866C52.4926 7.02117 52.6499 7.05438 52.7965 7.11703L40.5022 19.3557L28.2635 7.11703C28.4101 7.05438 28.5673 7.02117 28.7265 7.01866H52.3335ZM27.2677 32.5913C27.2051 32.4446 27.1719 32.2874 27.1694 32.1282V8.57668C27.1719 8.41753 27.2051 8.26026 27.2677 8.11365L39.5064 20.3523L27.2677 32.5913ZM28.2502 33.5875L40.5027 21.3488L52.7552 33.5875C52.6029 33.6476 52.4419 33.6815 52.2783 33.6859H28.7268C28.5633 33.6815 28.4022 33.6476 28.25 33.5875H28.2502Z" fill="white"/>
</svg>
