<svg width="77" height="80" viewBox="0 0 77 80" fill="none" xmlns="http://www.w3.org/2000/svg">
<path d="M21.2101 24.7973H34.6792C35.0236 24.7973 35.3023 24.5185 35.3023 24.1742C35.3023 23.8299 35.0236 23.5511 34.6792 23.5511H21.2101C20.8657 23.5511 20.587 23.8299 20.587 24.1742C20.587 24.5185 20.8657 24.7973 21.2101 24.7973Z" fill="white" stroke="white" stroke-width="0.2"/>
<path d="M5.52307 24.7973H16.9627C17.307 24.7973 17.5858 24.5185 17.5858 24.1742C17.5858 23.8299 17.307 23.5511 16.9627 23.5511H5.52307C5.17873 23.5511 4.9 23.8299 4.9 24.1742C4.9 24.5185 5.17873 24.7973 5.52307 24.7973Z" fill="white" stroke="white" stroke-width="0.2"/>
<path d="M38.6022 24.7973H47.4944C47.8388 24.7973 48.1175 24.5185 48.1175 24.1742C48.1175 23.8299 47.8388 23.5511 47.4944 23.5511H38.6022C38.2578 23.5511 37.9791 23.8299 37.9791 24.1742C37.9791 24.5185 38.2578 24.7973 38.6022 24.7973Z" fill="white" stroke="white" stroke-width="0.2"/>
<path d="M51.0253 24.7973H63.1867C63.5311 24.7973 63.8098 24.5185 63.8098 24.1742C63.8098 23.8299 63.5311 23.5511 63.1867 23.5511H51.0253C50.6809 23.5511 50.4022 23.8299 50.4022 24.1742C50.4022 24.5185 50.6809 24.7973 51.0253 24.7973Z" fill="white" stroke="white" stroke-width="0.2"/>
<path d="M5.52307 15.972H35.7253C36.0697 15.972 36.3484 15.6926 36.3484 15.3489C36.3484 15.0045 36.0697 14.7258 35.7253 14.7258H5.52307C5.17873 14.7258 4.9 15.0045 4.9 15.3489C4.9 15.6932 5.17873 15.972 5.52307 15.972Z" fill="white" stroke="white" stroke-width="0.2"/>
<path d="M40.6945 15.972H50.6328C50.9773 15.972 51.2559 15.6926 51.2559 15.3489C51.2559 15.0045 50.9772 14.7258 50.6328 14.7258H40.6945C40.3501 14.7258 40.0714 15.0045 40.0714 15.3489C40.0714 15.6932 40.3501 15.972 40.6945 15.972Z" fill="white" stroke="white" stroke-width="0.2"/>
<path d="M54.1637 15.972H66.3251C66.6696 15.972 66.9482 15.6926 66.9482 15.3489C66.9482 15.0045 66.6695 14.7258 66.3251 14.7258H54.1637C53.8194 14.7258 53.5406 15.0045 53.5406 15.3489C53.5406 15.6932 53.8194 15.972 54.1637 15.972Z" fill="white" stroke="white" stroke-width="0.2"/>
<path d="M69.2889 15.972H72.4764C72.8208 15.972 73.0995 15.6926 73.0995 15.3489C73.0995 15.0045 72.8208 14.7258 72.4764 14.7258H69.2889C68.9446 14.7258 68.6659 15.0045 68.6659 15.3489C68.6659 15.6932 68.9446 15.972 69.2889 15.972Z" fill="white" stroke="white" stroke-width="0.2"/>
<path d="M5.52307 7.14615H23.1716C23.5159 7.14615 23.7946 6.86742 23.7946 6.52307C23.7946 6.17873 23.5159 5.9 23.1716 5.9H5.52307C5.17873 5.9 4.9 6.17873 4.9 6.52307C4.9 6.86742 5.17873 7.14615 5.52307 7.14615Z" fill="white" stroke="white" stroke-width="0.2"/>
<path d="M27.0946 7.14615H40.1714C40.5158 7.14615 40.7945 6.86742 40.7945 6.52307C40.7945 6.17873 40.5158 5.9 40.1714 5.9H27.0946C26.7503 5.9 26.4715 6.17873 26.4715 6.52307C26.4715 6.86742 26.7503 7.14615 27.0946 7.14615Z" fill="white" stroke="white" stroke-width="0.2"/>
<path d="M43.7023 7.14615H51.6791C52.0235 7.14615 52.3022 6.86742 52.3022 6.52307C52.3022 6.17873 52.0235 5.9 51.6791 5.9H43.7023C43.3579 5.9 43.0792 6.17873 43.0792 6.52307C43.0792 6.86742 43.3579 7.14615 43.7023 7.14615Z" fill="white" stroke="white" stroke-width="0.2"/>
<path d="M55.6884 7.14615H72.4764C72.8207 7.14615 73.0995 6.86742 73.0995 6.52307C73.0995 6.17873 72.8207 5.9 72.4764 5.9H55.6884C55.344 5.9 55.0653 6.17873 55.0653 6.52307C55.0653 6.86742 55.344 7.14615 55.6884 7.14615Z" fill="white" stroke="white" stroke-width="0.2"/>
<path d="M63.8334 31.9136V72.8539H31.7389V32.8917C31.7389 30.4843 33.6971 28.5262 36.104 28.5262L68.4665 28.5257C68.8109 28.5257 69.0896 28.247 69.0896 27.9027C69.0896 27.5583 68.8109 27.2796 68.4665 27.2796H36.104C33.0098 27.2796 30.4928 29.7967 30.4928 32.8912V73.4764C30.4928 73.8208 30.7715 74.0995 31.1158 74.0995H64.3565V74.1H64.4565C64.8009 74.1 65.0796 73.8213 65.0796 73.4769V31.9136C65.0796 31.5692 64.8009 31.2905 64.4565 31.2905C64.1122 31.2905 63.8334 31.5692 63.8334 31.9136Z" fill="white" stroke="white" stroke-width="0.2"/>
<path d="M64.4562 34.5408H72.4765C72.8209 34.5408 73.0995 34.2615 73.0995 33.9177V31.9127C73.0995 29.3582 71.0212 27.2793 68.4666 27.2793C65.9114 27.2793 63.8331 29.3576 63.8331 31.9127V33.9177C63.8331 34.262 64.1118 34.5408 64.4562 34.5408ZM71.8534 31.9127V33.2946H65.0793V31.9127C65.0793 30.0453 66.5991 28.5254 68.4666 28.5254C70.334 28.5254 71.8534 30.0453 71.8534 31.9127Z" fill="white" stroke="white" stroke-width="0.2"/>
<path d="M34.317 33.7562H61.2553C61.5997 33.7562 61.8784 33.4769 61.8784 33.1331C61.8784 32.7888 61.5996 32.51 61.2553 32.51H34.317C33.9727 32.51 33.6939 32.7888 33.6939 33.1331C33.6939 33.4775 33.9727 33.7562 34.317 33.7562Z" fill="white" stroke="white" stroke-width="0.2"/>
<path d="M34.317 38.8705H61.2553C61.5997 38.8705 61.8784 38.5912 61.8784 38.2474C61.8784 37.9031 61.5996 37.6244 61.2553 37.6244H34.317C33.9727 37.6244 33.6939 37.9031 33.6939 38.2474C33.6939 38.5918 33.9727 38.8705 34.317 38.8705Z" fill="white" stroke="white" stroke-width="0.2"/>
<path d="M34.317 43.9849H61.2553C61.5997 43.9849 61.8784 43.7056 61.8784 43.3618C61.8784 43.0175 61.5996 42.7387 61.2553 42.7387H34.317C33.9727 42.7387 33.6939 43.0175 33.6939 43.3618C33.6939 43.7062 33.9727 43.9849 34.317 43.9849Z" fill="white" stroke="white" stroke-width="0.2"/>
<path d="M53.0333 49.0979H61.2564C61.6008 49.0979 61.8795 48.8192 61.8795 48.4749C61.8795 48.1305 61.6008 47.8518 61.2564 47.8518H53.0333C52.689 47.8518 52.4103 48.1305 52.4103 48.4749C52.4103 48.8192 52.689 49.0979 53.0333 49.0979Z" fill="white" stroke="white" stroke-width="0.2"/>
<path d="M34.3182 49.0979H42.5357C42.8801 49.0979 43.1588 48.8192 43.1588 48.4749C43.1588 48.1305 42.8801 47.8518 42.5357 47.8518H34.3182C33.9739 47.8518 33.6952 48.1305 33.6952 48.4749C33.6952 48.8192 33.9739 49.0979 34.3182 49.0979Z" fill="white" stroke="white" stroke-width="0.2"/>
<path d="M55.6918 53.4483L54.4025 55.2989L55.6918 53.4483ZM55.6918 53.4483C55.8169 53.2684 55.8169 53.0299 55.6918 52.8501V53.4483ZM47.7854 58.934C47.847 58.934 47.9077 58.9431 47.9663 58.9606L47.9667 58.9608L49.862 59.5376L51.0554 57.9578C51.1298 57.8591 51.232 57.7849 51.3486 57.7442L51.3488 57.7441L53.2204 57.0963L53.2594 55.1166L53.2594 55.1166C53.2618 54.9935 53.3008 54.8738 53.3712 54.7724L53.3713 54.7723L54.5033 53.1474L53.3713 51.5224L53.3712 51.5223C53.3008 51.421 53.2618 51.3017 53.2594 51.1781L53.2204 49.1985L51.349 48.5506C51.349 48.5506 51.349 48.5506 51.349 48.5506L51.3488 48.5506L47.7854 58.934ZM47.7854 58.934C47.7232 58.934 47.6622 58.9438 47.6038 58.9619C47.6037 58.9619 47.6037 58.9619 47.6036 58.9619L45.7093 59.5386L44.5161 57.959C44.516 57.959 44.516 57.9589 44.5159 57.9588M47.7854 58.934L44.5159 57.9588M44.5159 57.9588C44.4416 57.8596 44.3393 57.7854 44.2225 57.7452L44.5159 57.9588ZM54.458 57.5566L54.5019 55.3312L55.7738 53.5054L55.7739 53.5054C55.9229 53.2912 55.9229 53.0071 55.7739 52.793L55.7738 52.7929L54.5019 50.9672L54.458 48.7417L54.458 48.7416C54.4525 48.4808 54.2854 48.2502 54.0388 48.165C54.0388 48.165 54.0388 48.165 54.0388 48.165L51.9354 47.4368L50.594 45.6609L50.5939 45.6608C50.4367 45.4532 50.1655 45.3633 49.9153 45.4407C49.9152 45.4407 49.9151 45.4407 49.915 45.4407L47.7854 46.0891L45.6563 45.4408C45.6562 45.4407 45.6561 45.4407 45.656 45.4407C45.4065 45.3633 45.1347 45.4525 44.9773 45.6609C44.9773 45.6609 44.9773 45.6609 44.9773 45.6609L43.6359 47.4368L41.5325 48.165L41.5323 48.165C41.286 48.2508 41.1187 48.4807 41.1133 48.7416L41.1133 48.7417L41.0694 50.9672L39.7975 52.7929L39.7974 52.793C39.6484 53.0071 39.6484 53.2912 39.7974 53.5054L39.7975 53.5054L41.0694 55.3312L41.1133 57.5561L41.1133 57.5562C41.1187 57.817 41.2859 58.0476 41.5325 58.1329L43.6359 58.861L44.9773 60.6369L44.9774 60.637C45.135 60.8452 45.4063 60.9327 45.6556 60.8573L45.6558 60.8572L47.7854 60.2087L49.9155 60.8572L49.9163 60.8575C49.9428 60.8653 49.9697 60.8715 49.9969 60.8759V60.884H50.0969C50.2884 60.884 50.4739 60.7953 50.5938 60.6377L50.594 60.6374L51.9354 58.8616L54.0388 58.1334L54.039 58.1333C54.2853 58.0476 54.4525 57.8177 54.458 57.5567L54.458 57.5566ZM54.0061 48.2595C54.213 48.331 54.3534 48.5246 54.358 48.7437L54.0061 48.2595ZM49.862 46.7571L51.0553 48.3367L44.2223 57.7451L42.3509 57.0973L42.312 55.1176C42.3095 54.994 42.2705 54.8748 42.2001 54.7734L42.2 54.7733L41.0681 53.1484L42.2 51.5235L42.2001 51.5234C42.2706 51.4219 42.3095 51.3022 42.312 51.1792L42.312 51.1792L42.3509 49.1994L44.2225 48.5506L44.2227 48.5505C44.3393 48.5098 44.4415 48.4357 44.5159 48.3369L45.7093 46.7571L47.6041 47.3339L47.6041 47.3339C47.7221 47.3698 47.8487 47.3698 47.9667 47.3339L47.9667 47.3339L49.862 46.7571Z" fill="white" stroke="white" stroke-width="0.2"/>
<path d="M43.639 53.1486C43.639 55.4356 45.4992 57.2958 47.7862 57.2958C50.0731 57.2958 51.9338 55.4356 51.9338 53.1486C51.9338 50.8617 50.0731 49.0015 47.7862 49.0015C45.4992 49.0015 43.639 50.8617 43.639 53.1486ZM44.8852 53.1486C44.8852 51.5494 46.1869 50.2476 47.7862 50.2476C49.3859 50.2476 50.6877 51.5494 50.6877 53.1486C50.6877 54.7479 49.3859 56.0497 47.7862 56.0497C46.1869 56.0497 44.8852 54.7479 44.8852 53.1486Z" fill="white" stroke="white" stroke-width="0.2"/>
<path d="M51.271 70.8643L47.7872 68.6572L44.3034 70.8642C44.111 70.9866 43.8681 70.9932 43.6693 70.8838C43.4703 70.7742 43.3468 70.5649 43.3468 70.338V58.3175C43.3468 57.9732 43.6255 57.6944 43.9699 57.6944C44.3142 57.6944 44.5929 57.9732 44.5929 58.3175V69.2056L47.4537 67.3934L51.271 70.8643ZM51.271 70.8643C51.3727 70.9288 51.4884 70.9611 51.6045 70.9611C51.7079 70.9611 51.8114 70.9355 51.9052 70.8837C52.1041 70.7742 52.2276 70.5655 52.2276 70.338V58.3175C52.2276 57.9732 51.9489 57.6944 51.6045 57.6944C51.2602 57.6944 50.9814 57.9732 50.9814 58.3175V69.2056M51.271 70.8643L50.9814 69.2056M50.9814 69.2056L48.1207 67.3934L50.9814 69.2056ZM48.1206 67.3933C47.9173 67.2644 47.657 67.2644 47.4537 67.3933H48.1206Z" fill="white" stroke="white" stroke-width="0.2"/>
<path d="M5.52356 32.4485H18.464C18.8084 32.4485 19.0871 32.1692 19.0871 31.8254C19.0871 31.4811 18.8083 31.2024 18.464 31.2024H5.52356C5.17922 31.2024 4.90049 31.4811 4.90049 31.8254C4.90049 32.1698 5.17922 32.4485 5.52356 32.4485Z" fill="white" stroke="white" stroke-width="0.2"/>
<path d="M21.8639 32.4485H27.9446C28.289 32.4485 28.5677 32.1692 28.5677 31.8254C28.5677 31.4811 28.289 31.2024 27.9446 31.2024H21.8639C21.5195 31.2024 21.2408 31.4811 21.2408 31.8254C21.2408 32.1698 21.5195 32.4485 21.8639 32.4485Z" fill="white" stroke="white" stroke-width="0.2"/>
<path d="M5.52356 40.0998H14.2794C14.6238 40.0998 14.9025 39.821 14.9025 39.4767C14.9025 39.1323 14.6238 38.8536 14.2794 38.8536H5.52356C5.17922 38.8536 4.90049 39.1323 4.90049 39.4767C4.90049 39.821 5.17922 40.0998 5.52356 40.0998Z" fill="white" stroke="white" stroke-width="0.2"/>
<path d="M17.6793 40.0998H27.9446C28.289 40.0998 28.5677 39.821 28.5677 39.4767C28.5677 39.1323 28.289 38.8536 27.9446 38.8536H17.6793C17.335 38.8536 17.0562 39.1323 17.0562 39.4767C17.0562 39.821 17.335 40.0998 17.6793 40.0998Z" fill="white" stroke="white" stroke-width="0.2"/>
<path d="M5.52307 47.751H20.5562C20.9005 47.751 21.1793 47.4723 21.1793 47.1279C21.1793 46.7836 20.9005 46.5049 20.5562 46.5049H5.52307C5.17873 46.5049 4.9 46.7836 4.9 47.1279C4.9 47.4723 5.17873 47.751 5.52307 47.751Z" fill="white" stroke="white" stroke-width="0.2"/>
</svg>
