<svg width="84" height="80" viewBox="0 0 84 80" fill="none" xmlns="http://www.w3.org/2000/svg">
<path d="M70.337 8H14.0173C7.90057 8 2.92383 12.9767 2.92383 19.0934V60.9066C2.92383 67.0233 7.90057 72 14.0173 72H70.337C76.4537 72 81.4304 67.0233 81.4304 60.9066V19.0934C81.4304 12.9767 76.4537 8 70.337 8ZM79.7233 60.9064C79.7233 66.082 75.5126 70.2933 70.3364 70.2933H14.0167C8.84106 70.2933 4.62972 66.0826 4.62972 60.9064V19.0933C4.62972 13.9177 8.84045 9.70635 14.0167 9.70635H70.3364C75.512 9.70635 79.7233 13.9171 79.7233 19.0933V60.9064Z" fill="white"/>
<path d="M63.6172 33.8071C57.9708 33.8071 53.3774 38.4006 53.3774 44.0469C53.3774 44.5184 53.759 44.9005 54.231 44.9005C54.7024 44.9005 55.0846 44.519 55.0846 44.0469C55.0846 39.3422 58.9131 35.5136 63.6179 35.5136C68.3226 35.5136 72.1512 39.3422 72.1512 44.0469C72.1512 44.5184 72.5327 44.9005 73.0047 44.9005C73.4762 44.9005 73.8583 44.519 73.8583 44.0469C73.8571 38.4005 69.2644 33.8071 63.6173 33.8071H63.6172Z" fill="white"/>
<path d="M63.6172 33.2372C66.8322 33.2372 69.4482 30.6212 69.4482 27.4056C69.4482 24.1907 66.8322 21.5746 63.6172 21.5746C60.4013 21.5746 57.7856 24.1907 57.7856 27.4056C57.7856 30.6216 60.4017 33.2372 63.6172 33.2372ZM63.6172 23.2819C65.8917 23.2819 67.7416 25.132 67.7416 27.4062C67.7416 29.6801 65.8915 31.5306 63.6172 31.5306C61.343 31.5306 59.4923 29.6799 59.4923 27.4056C59.4923 25.1318 61.3434 23.2819 63.6172 23.2819Z" fill="white"/>
<path d="M15.8672 23.2822H31.3689C31.8403 23.2822 32.2225 22.9007 32.2225 22.4286C32.2225 21.9572 31.8409 21.5751 31.3689 21.5751H15.8672C15.3958 21.5751 15.0137 21.9566 15.0137 22.4286C15.0137 22.9001 15.3952 23.2822 15.8672 23.2822Z" fill="white"/>
<path d="M15.8672 32.4631H31.3689C31.8403 32.4631 32.2225 32.0816 32.2225 31.6096C32.2225 31.1381 31.8409 30.756 31.3689 30.756L15.8672 30.7566C15.3958 30.7566 15.0137 31.1381 15.0137 31.6101C15.0137 32.0816 15.3952 32.4631 15.8672 32.4631V32.4631Z" fill="white"/>
<path d="M22.9775 40.7877C22.9775 40.3162 22.5959 39.9341 22.1239 39.9341H15.8663C15.3948 39.9341 15.0127 40.3156 15.0127 40.7877C15.0127 41.2591 15.3942 41.6412 15.8663 41.6412H22.1239C22.5959 41.6412 22.9775 41.2597 22.9775 40.7877Z" fill="white"/>
<path d="M73.0038 54.6131H54.2305C53.7591 54.6131 53.377 54.9946 53.377 55.4667C53.377 55.9381 53.7585 56.3202 54.2305 56.3202H73.0038C73.4752 56.3202 73.8573 55.9387 73.8573 55.4667C73.8567 54.9952 73.4752 54.6131 73.0038 54.6131Z" fill="white"/>
<path d="M38.2641 55.9297C36.5789 54.2445 33.8356 54.2445 32.151 55.9297L31.0844 56.9963C30.0642 58.0165 28.4046 58.0165 27.3844 56.9963C25.6993 55.3111 22.956 55.3111 21.2714 56.9963L17.5381 60.7296C17.2048 61.063 17.2048 61.6028 17.5381 61.9362C17.7041 62.1034 17.9226 62.1868 18.1411 62.1868C18.3595 62.1868 18.578 62.1034 18.7446 61.9368L22.4779 58.2035C23.4982 57.1832 25.1577 57.1832 26.1779 58.2035C27.8631 59.8886 30.6064 59.8886 32.2909 58.2035L33.3576 57.1368C34.3778 56.1166 36.0373 56.1166 37.0575 57.1368L38.2135 58.2915C38.5468 58.6249 39.0867 58.6249 39.42 58.2915C39.7533 57.9582 39.7533 57.4171 39.42 57.085L38.2641 55.9297Z" fill="white"/>
<path d="M42.1773 21.5756C41.7059 21.5756 41.3237 21.9571 41.3237 22.4291V40.0001C41.3237 40.4715 41.7053 40.8537 42.1773 40.8537C42.6487 40.8537 43.0309 40.4721 43.0309 40.0001V22.4291C43.0309 21.9577 42.6487 21.5756 42.1773 21.5756Z" fill="white"/>
</svg>
