<svg width="74" height="82" viewBox="0 0 74 82" fill="none" xmlns="http://www.w3.org/2000/svg">
<path d="M24.7393 14.8981C26.2133 16.8531 27.0085 19.2392 26.9997 21.6921C26.9997 21.6922 26.9997 21.6923 26.9997 21.6924L26.8997 21.692C26.8976 24.0175 26.1764 26.2854 24.8347 28.184C23.5263 30.0355 21.6902 31.4483 19.5682 32.2397L24.7393 14.8981ZM24.7393 14.8981H29.6276H29.8273L29.7077 14.7382L26.0632 9.86614L29.5234 3.73522C29.9508 3.17556 30.0043 2.41604 29.66 1.80146L29.66 1.80137C29.3141 1.18533 28.6353 0.835012 27.9333 0.910034L27.9333 0.909863L27.9275 0.910829L4.29071 4.84994L4.28669 4.85061C3.70866 4.9028 3.19213 5.23675 2.90777 5.74399L24.7393 14.8981ZM8.51199 28.8073C6.64497 26.9443 5.58251 24.4263 5.54902 21.792M8.51199 28.8073C10.4019 30.6937 12.9629 31.7544 15.6333 31.7571C18.2692 31.7633 20.8028 30.735 22.6886 28.8931L5.54902 21.792M8.51199 28.8073L8.58263 28.7365C6.71076 26.8687 5.65574 24.3358 5.64825 21.6919L5.64807 21.629M8.51199 28.8073L8.58264 28.7365C10.4538 30.6042 12.9894 31.6544 15.6334 31.6571H15.6335C18.2432 31.6632 20.7516 30.6452 22.6187 28.8216L22.6187 28.8216C24.4864 26.998 25.5638 24.514 25.6195 21.905C25.675 19.3096 24.7154 16.7962 22.9467 14.8981M5.54902 21.792H5.6484L5.64807 21.6919L5.64807 21.6917C5.64801 21.6708 5.64801 21.6499 5.64807 21.629M5.54902 21.792L5.64807 21.629M5.64807 21.629L8.27615 14.7981M5.64807 21.629C5.65584 19.1284 6.61039 16.7237 8.31939 14.8981M5.64807 21.629L5.54807 21.6276C5.55624 19.0876 6.53146 16.6457 8.27615 14.7981M22.9467 14.8981H22.99V14.7981L22.9172 14.8666C22.927 14.8771 22.9369 14.8876 22.9467 14.8981ZM22.9467 14.8981H8.31939M8.31939 14.8981C8.32919 14.8876 8.33901 14.8772 8.34886 14.8668L8.27615 14.7981M8.31939 14.8981H8.27615V14.7981M26.8253 36.9241C24.9728 34.7044 22.5014 33.0899 19.7294 32.2855L4.117 37.7308C2.19757 40.3187 1.16223 43.4555 1.16504 46.6774H1.06504L1.06504 46.6775L1.06504 81V81.1H1.16504H30.1007H30.2007V81V49.6035L48.7958 52.8919L48.8044 52.8935H48.8053C50.1622 53.1264 51.5582 52.8857 52.7593 52.2122C53.9472 51.5463 54.8731 50.4973 55.3868 49.2371L72.8547 45.7412L72.9351 45.7252V45.6432L72.9344 14.8274V14.7493L72.8586 14.7304L54.57 10.1701L54.4458 10.1392L54.4458 10.2672L54.4455 20.2504L50.2513 21.091L50.171 21.1071L50.171 21.189L50.1717 40.8963L26.8253 36.9241ZM4.32646 21.7014L4.22646 21.7016C4.22646 21.7017 4.22646 21.7017 4.22646 21.7017C4.22646 21.7017 4.22646 21.7018 4.22646 21.7018L4.32646 21.7014ZM24.4661 10.0414L27.0657 13.5357L5.09594 13.5356C5.09573 13.5356 5.09553 13.5356 5.09532 13.5356C5.01833 13.5345 4.94567 13.4981 4.89849 13.4366L4.89853 13.4366L4.89664 13.4343C4.85039 13.3777 4.83507 13.3014 4.85601 13.2305L4.8561 13.2305L4.85714 13.2263C5.3953 11.0639 5.14463 8.77997 4.15023 6.78578L4.15034 6.78572L4.14795 6.78148C4.08627 6.67152 4.086 6.53756 4.14713 6.42739C4.21967 6.3089 4.34741 6.23487 4.48668 6.23102L4.4867 6.23197L4.50036 6.2297L28.1309 2.29163C28.267 2.29823 28.3907 2.37485 28.4562 2.49433C28.525 2.62854 28.5064 2.78987 28.4091 2.90508L28.4029 2.91235L28.3983 2.92064L24.4592 9.93271L24.4274 9.9893L24.4661 10.0414ZM54.3678 47.7433L54.3677 47.7437C54.1518 48.9664 53.4577 50.0519 52.4388 50.7615L52.438 50.762C51.4355 51.474 50.1897 51.7551 48.9778 51.5433L28.9361 47.9875L28.8186 47.9666V48.0859V71.1795H23.1081H23.0081V71.2795V72.4611V72.5611H23.1081H28.8186V79.7181H2.42723V72.5611H17.7701H17.8701V72.4611V71.2795V71.1795H17.7701H2.44728V66.7856L26.7039 38.2958L50.5687 42.3729L50.5686 42.3731C51.7839 42.5829 52.8668 43.2662 53.5789 44.2729C54.2903 45.2796 54.5742 46.5277 54.3679 47.7427C54.3678 47.7429 54.3678 47.7431 54.3678 47.7433ZM2.44745 46.6777C2.44745 39.4606 8.11933 33.3527 15.0835 33.0682H15.6331C19.428 33.0668 23.0357 34.709 25.5272 37.568L2.44757 64.6559L2.44745 46.6777ZM54.8832 43.7534L54.7987 43.8068L54.8832 43.7534C54.1128 42.5352 52.93 41.6349 51.5524 41.2157V22.2659L71.5228 18.2678L71.5224 44.6166L55.7581 47.7827C55.9506 46.3799 55.6414 44.9528 54.8832 43.7534ZM71.5224 16.8233L55.8268 19.9939V11.9019L71.5224 15.7914V16.8233Z" fill="white" stroke="white" stroke-width="0.2"/>
<path d="M61.9424 26.6574H61.9964C62.7619 26.6774 63.4671 27.1232 63.9884 27.851C64.5217 28.5957 64.8563 29.6287 64.8563 30.7721C64.8563 31.9155 64.5219 32.9485 63.9887 33.6931C63.4552 34.438 62.7291 34.8875 61.9424 34.8875C61.155 34.8875 60.429 34.4472 59.896 33.7079C59.3631 32.9687 59.0286 31.9361 59.0286 30.7728C59.0286 29.6091 59.3608 28.5763 59.8924 27.837C60.4241 27.0978 61.1501 26.6574 61.9424 26.6574ZM61.9424 36.2595C64.3241 36.2595 66.2378 33.7774 66.2378 30.7721C66.2378 27.7677 64.3236 25.275 61.9424 25.275C59.5605 25.275 57.6471 27.7675 57.6471 30.7721C57.6471 33.7773 59.5509 36.2595 61.9424 36.2595Z" fill="white" stroke="white" stroke-width="0.2"/>
</svg>
