<svg width="79" height="80" viewBox="0 0 79 80" fill="none" xmlns="http://www.w3.org/2000/svg">
<path d="M11.6618 18.4516C10.3078 18.4516 9.03536 18.9786 8.07753 19.9364C7.1197 20.8941 6.59277 22.1653 6.59277 23.5193C6.59277 24.8733 7.11978 26.1464 8.07753 27.1036C9.03404 28.0613 10.3065 28.5883 11.6605 28.5883C13.0145 28.5883 14.2869 28.0613 15.2447 27.1036C17.2207 25.1276 17.2207 21.9125 15.2447 19.9365C14.2882 18.9794 13.0158 18.4518 11.6618 18.4518V18.4516ZM14.2678 26.1253C13.5723 26.8208 12.646 27.2046 11.6618 27.2046C10.6775 27.2046 9.75242 26.8214 9.05574 26.1253C8.35902 25.4298 7.97642 24.5041 7.97642 23.5193C7.97642 22.5344 8.35965 21.6087 9.05574 20.9132C9.75121 20.2178 10.6775 19.8339 11.6618 19.8339C12.6461 19.8339 13.5711 20.2171 14.2678 20.9132C15.7038 22.3499 15.7038 24.6886 14.2678 26.1253Z" fill="white"/>
<path d="M29.8373 42.3933C28.4667 42.3933 27.1775 42.9271 26.208 43.8966C24.2074 45.8972 24.2074 49.1519 26.208 51.1532C27.1775 52.1215 28.466 52.6553 29.836 52.6553C31.2066 52.6553 32.4945 52.1215 33.464 51.1532C35.4646 49.1526 35.4659 45.8968 33.4646 43.896C32.4964 42.9271 31.2085 42.3933 29.8373 42.3933L29.8373 42.3933ZM32.4866 50.1751C31.7788 50.8829 30.8371 51.2729 29.8362 51.2729C28.8352 51.2729 27.8935 50.8829 27.1857 50.1751C25.7244 48.7138 25.7244 46.3348 27.1857 44.8741C27.8942 44.1656 28.8365 43.7762 29.8368 43.7762C30.8377 43.7762 31.7795 44.1663 32.4872 44.8728C33.9491 46.3341 33.9491 48.7125 32.4866 50.1749L32.4866 50.1751Z" fill="white"/>
<path d="M42.6826 43.5814C41.312 43.5814 40.0241 44.1152 39.0552 45.0834C37.0552 47.0834 37.0552 50.3381 39.0552 52.3388C40.0234 53.3082 41.3132 53.842 42.6832 53.842C44.0538 53.842 45.3417 53.3082 46.3112 52.3388C48.3112 50.3387 48.3112 47.084 46.3112 45.084C45.3417 44.1158 44.0538 43.5814 42.6826 43.5814V43.5814ZM45.3336 51.3618C44.6258 52.0697 43.6841 52.4597 42.6832 52.4597C41.6816 52.4597 40.7405 52.0697 40.0328 51.3618C38.5721 49.9005 38.5721 47.5215 40.0328 46.0608C40.7406 45.353 41.6818 44.963 42.6821 44.963C43.683 44.963 44.6248 45.353 45.3331 46.0615C46.7951 47.524 46.7951 49.9005 45.3337 51.3618L45.3336 51.3618Z" fill="white"/>
<path d="M36.163 60.8517L34.9751 35.4486L36.3562 35.3838L37.5441 60.7869L36.163 60.8517Z" fill="white"/>
<path d="M76.634 11.7485L78.012 10.7093L76.2989 10.51C70.6468 9.85401 68.7534 14.6983 67.3773 18.238C66.7688 19.8018 66.1406 21.4192 65.4705 21.5815C65.1064 21.6679 64.5775 21.2952 64.2017 20.9631C62.0745 19.0859 61.0205 16.8909 61.0693 14.4397C61.2014 7.82685 69.1337 1.29219 69.2139 1.22742L70.7215 0H68.7782C58.0301 0 56.2762 8.07859 54.8673 14.57C54.0096 18.5226 53.2684 21.937 50.8284 22.8342C49.601 23.2865 48.7013 23.2433 48.0793 22.704C46.1459 21.0303 46.9086 15.084 47.3659 12.9339L47.5998 11.8342L46.5131 12.1218C46.381 12.157 43.2709 13.016 41.3017 16.5879C39.504 19.8493 39.2615 24.211 40.5636 29.5723L23.0737 12.084L1.30416 13.1621L0.226074 34.9332L45.2928 80L45.781 79.5119C47.1935 78.0993 49.072 77.3212 51.069 77.3212C53.066 77.3212 54.945 78.0987 56.357 79.5119L56.8452 80L68.142 68.7057L67.6538 68.2176C66.2413 66.8051 65.4631 64.9266 65.4631 62.9289C65.4631 60.9319 66.2407 59.0529 67.6538 57.6409L68.142 57.1528L60.5071 49.518C61.1687 49.6895 61.837 49.7833 62.5116 49.7833C63.0793 49.7833 63.6514 49.7222 64.2264 49.6007C70.9208 48.185 75.7929 39.0617 77.106 35.667C78.2403 32.7302 78.2526 30.8512 77.1418 29.9224C75.5639 28.6018 72.4005 29.9915 70.7912 30.8493C68.3629 18.1617 76.2865 12.0103 76.6333 11.748L76.634 11.7485ZM66.2061 57.1707C64.8299 58.7739 64.0801 60.7945 64.0801 62.9295C64.0801 65.0646 64.8306 67.0846 66.2061 68.6884L56.8286 78.0641C55.2254 76.6892 53.2048 75.9388 51.0698 75.9388C48.9347 75.9388 46.9154 76.6892 45.3109 78.0641L1.63756 34.3907L2.62246 14.4822L22.531 13.4973L55.4349 46.4012L66.2061 57.1707ZM57.4599 37.2717C57.6339 37.2815 61.3902 37.4975 64.622 34.7495C64.7695 35.9973 64.7473 38.0331 63.5118 39.8067C61.9635 42.0295 58.9421 43.2854 54.5478 43.5575L49.0185 38.0282C51.0204 37.2587 55.0446 35.0464 56.4028 29.406C56.9366 31.6079 57.4081 34.4966 56.8434 36.3824L56.5947 37.2118L57.4599 37.2717ZM69.6347 32.0688L69.8457 33.0061L70.6671 32.5075C72.4006 31.456 75.3751 30.2434 76.2544 30.9814C76.5228 31.2054 77.0153 32.0632 75.8156 35.1679C74.6616 38.1534 70.0024 46.9664 63.9406 48.2475C61.3667 48.7942 58.8322 47.842 56.4113 45.4217L55.8251 44.8354C60.0338 44.3812 63.007 42.9582 64.6547 40.5823C66.9713 37.2407 65.7667 33.327 65.7143 33.1622L65.3533 32.0242L64.5467 32.9042C62.4121 35.2319 59.7043 35.7553 58.3689 35.867C58.9632 31.9668 56.902 26.1124 56.807 25.8451L55.6074 22.4776L55.4654 26.0494C55.1334 34.3864 49.4153 36.5327 47.9391 36.9493L42.5438 31.554C40.6623 25.4811 40.6406 20.6787 42.492 17.2883C43.488 15.4647 44.8413 14.4564 45.7775 13.9387C45.3794 16.4608 44.8716 21.755 47.1715 23.7489C48.1947 24.6356 49.585 24.7665 51.3036 24.1321C54.4564 22.9719 55.3117 19.033 56.2165 14.8631C57.4908 8.99008 58.9238 2.38892 66.8567 1.4867C64.4061 3.83727 59.7952 8.97223 59.6852 14.4089C59.6272 17.2872 60.838 19.8407 63.2854 22C64.2024 22.809 65.0232 23.1133 65.7959 22.9244C67.1665 22.5918 67.8267 20.8904 68.6635 18.7386C69.8329 15.7315 71.1368 12.3763 74.4692 11.8924C72.0033 14.5101 67.1918 21.2378 69.6348 32.068L69.6347 32.0688Z" fill="white"/>
</svg>
