<svg width="102" height="80" viewBox="0 0 102 80" fill="none" xmlns="http://www.w3.org/2000/svg">
<g clip-path="url(#clip0_17_3107)">
<path d="M96.5858 9H36.6862C33.0551 9 29.9631 11.4785 29.1658 15.0294L28.0581 20.0022H27.5294C24.9484 20.0022 22.5473 21.3188 21.1272 23.4513L5.071 23.4504C3.4737 23.4504 1.98257 24.1665 0.980222 25.4142C-0.02685 26.6683 -0.404491 28.2851 -0.0566897 29.8546L7.83007 65.3438C8.54806 68.6212 11.5086 71 14.8692 71H76.8957C80.4838 71 83.6467 68.4637 84.4161 64.9706L84.7303 63.5552C84.8264 63.1225 84.5541 62.6945 84.1205 62.5985C83.6832 62.5006 83.2579 62.7747 83.1638 63.2083L82.8495 64.6256C82.5325 66.0616 81.6998 67.2832 80.5799 68.1344C81.8649 66.4392 82.3413 64.2965 81.8751 62.2161L81.3819 59.9987H86.0515C89.6405 59.9987 92.8034 57.4624 93.5718 53.9693L102.047 15.8186C102.42 14.1486 102.02 12.4282 100.952 11.0948C99.8856 9.76414 98.2938 9.00045 96.5865 9.00045L96.5858 9ZM27.5292 21.6061H27.6989L27.2868 23.4496H23.1588C24.2936 22.2886 25.8677 21.6061 27.5293 21.6061H27.5292ZM9.39654 64.9989L1.50978 29.5074C1.26827 28.4164 1.53122 27.29 2.23149 26.4182C2.92805 25.552 3.96308 25.055 5.07096 25.055H39.5217C42.1298 25.055 44.4386 26.905 45.0065 29.4422C45.0839 29.8115 45.1921 30.1696 45.3208 30.482C45.7637 31.6597 46.5283 32.7087 47.5288 33.5098C48.7905 34.5401 50.3953 35.1071 52.0476 35.1071H71.2844C73.0076 35.1071 74.4716 36.2838 74.8455 37.9678L80.3124 62.5645V62.5654C80.6854 64.2327 80.2872 65.9539 79.2177 67.2893C78.1472 68.6265 76.5508 69.3929 74.8398 69.3929L14.8709 69.3939C12.2582 69.3967 9.95677 67.5476 9.39819 64.9992L9.39654 64.9989ZM100.481 15.4712L92.0062 53.6243C91.3982 56.3891 88.8927 58.3957 86.0525 58.3957H81.0264L76.4088 37.6224C75.8699 35.199 73.7615 33.5056 71.2813 33.5056L52.0446 33.5046C50.7615 33.5046 49.5166 33.0664 48.5358 32.2626C47.7534 31.6369 47.1613 30.8266 46.8116 29.8969C46.7091 29.6479 46.6298 29.3878 46.5711 29.1043C45.895 26.0794 43.3084 23.8453 40.2779 23.5171L40.9437 20.5267C41.0202 20.1873 41.3195 19.9495 41.6711 19.9495H55.0921C55.203 19.9495 55.2702 20.0111 55.2991 20.0484C55.3289 20.0847 55.3755 20.1621 55.3513 20.2712L53.4556 28.8183C53.3763 29.1605 53.0761 29.4001 52.7274 29.4001L50.3338 29.3992C49.8899 29.3992 49.5319 29.7591 49.5319 30.2011C49.5319 30.644 49.8918 31.003 50.3338 31.003H52.7264C53.8276 31.003 54.7704 30.2515 55.0203 29.1717L56.9187 20.6163C57.0418 20.0605 56.9085 19.4871 56.5513 19.0432C56.1942 18.5994 55.6618 18.3457 55.092 18.3457H41.671C40.5642 18.3457 39.6215 19.0982 39.3799 20.1678L38.6489 23.452H28.9317L29.4865 20.9818C29.4874 20.9734 29.4856 20.9641 29.4865 20.9566L30.7295 15.3806C31.3607 12.5693 33.8093 10.6073 36.6851 10.6073H96.5847C97.8025 10.6073 98.9392 11.1509 99.6992 12.102C100.462 13.0522 100.746 14.2803 100.481 15.4719L100.481 15.4712Z" fill="white"/>
<path d="M80.0374 19.2692C79.5966 19.2692 79.2189 19.6654 79.2189 20.1071L79.2152 20.1108C79.1855 20.1294 79.1531 20.1377 79.1262 20.1591L61.8659 20.1321C61.8353 20.0978 61.8158 20.0551 61.7796 20.0254C61.7796 19.5837 61.4215 19.2274 60.9816 19.2274C60.5408 19.2274 60.1836 19.5856 60.1836 20.0254C60.1836 20.5367 60.4128 21.0165 60.8099 21.3477C60.8127 21.3505 60.8136 21.3533 60.8164 21.3561C60.8174 21.357 60.8192 21.357 60.8192 21.357C60.8201 21.3579 60.822 21.3607 60.8248 21.3626C60.8647 21.396 60.9101 21.4127 60.9538 21.4359C61.2386 21.6326 61.5616 21.7551 61.9142 21.7551H79.1281C79.4593 21.7551 79.7776 21.6345 80.0569 21.4461C80.0978 21.4247 80.1405 21.4118 80.1794 21.3821C80.1859 21.3765 80.1915 21.3691 80.198 21.3635C80.2017 21.3598 80.2082 21.3579 80.2128 21.3552C80.2212 21.3487 80.223 21.3394 80.2305 21.3329C80.6211 21.0137 80.8587 20.5321 80.8587 20.0254C80.8559 19.5874 80.4782 19.2692 80.0375 19.2692L80.0374 19.2692Z" fill="white"/>
<path d="M72.9935 25.569C72.5518 25.569 72.1955 25.9271 72.1955 26.367C72.1955 26.4412 72.1352 26.5015 72.0609 26.5015H60.9249C60.8507 26.5015 60.7904 26.4412 60.7904 26.367C60.7904 25.9253 60.4322 25.569 59.9924 25.569C59.5516 25.569 59.1943 25.9271 59.1943 26.367C59.1943 27.3209 59.971 28.0976 60.9249 28.0976H72.0609C73.0148 28.0976 73.7915 27.3209 73.7915 26.367C73.7924 25.9271 73.4352 25.569 72.9935 25.569H72.9935Z" fill="white"/>
<path d="M24.2587 56.3005L19.8289 36.3743C19.724 35.902 19.5134 35.4687 19.2192 35.1049C18.6383 34.3431 17.7039 33.8865 16.7221 33.8865H12.2393C11.2613 33.8865 10.352 34.3245 9.74129 35.0854C9.13443 35.8408 8.90987 36.816 9.11865 37.7578L13.5484 57.6812C13.8677 59.1547 15.1463 60.1857 16.6561 60.1857H21.1388C22.0751 60.1857 22.9613 59.7774 23.5689 59.0666C24.1739 58.3577 24.4393 57.4261 24.3048 56.6336C24.3057 56.4889 24.276 56.3664 24.2584 56.3005H24.2587ZM22.3564 58.0302C22.0521 58.3865 21.6085 58.5906 21.139 58.5906H16.6562C15.9046 58.5906 15.2671 58.0784 15.1066 57.3398L10.6768 37.4126C10.5729 36.944 10.6852 36.4615 10.9867 36.0848C11.2911 35.7034 11.7485 35.4844 12.2385 35.4844H16.7213C17.2084 35.4844 17.6668 35.7053 17.9637 36.0941C18.1178 36.2843 18.218 36.4903 18.27 36.7223L22.7176 56.7599C22.7909 57.2137 22.6591 57.6776 22.3566 58.0302L22.3564 58.0302Z" fill="white"/>
</g>
<defs>
<clipPath id="clip0_17_3107">
<rect width="102" height="80" fill="white"/>
</clipPath>
</defs>
</svg>
