<svg width="68" height="82" viewBox="0 0 68 82" fill="none" xmlns="http://www.w3.org/2000/svg">
<mask id="path-1-outside-1_17_2621" maskUnits="userSpaceOnUse" x="3.79395" y="34.32" width="64" height="47" fill="black">
<rect fill="white" x="3.79395" y="34.32" width="64" height="47"/>
<path d="M8.94066 81C8.56843 81 8.21956 80.801 8.03037 80.4816L7.8246 80.1321C7.76994 80.0393 7.66798 79.9804 7.55865 79.9804H5.85226C5.26937 79.9804 4.79456 79.5068 4.79456 78.9239L4.79395 70.1061C4.79395 69.5232 5.26874 69.0496 5.85165 69.0496H13.906C14.0313 69.0496 14.1431 68.9747 14.1904 68.8604L15.3661 66.0804C15.4011 65.9957 15.3986 65.9023 15.3581 65.8218L13.3237 61.7642C13.2954 61.7089 13.2524 61.6629 13.1978 61.634L12.414 61.201C12 60.9719 11.7949 60.5247 11.8907 60.0616C11.9865 59.5985 12.3532 59.2698 12.8243 59.2244L13.6652 59.1427C13.7954 59.1292 13.9047 59.0346 13.9367 58.9056C14.0853 58.2766 14.64 57.9308 15.1958 58.0439L15.7806 58.1655C15.9477 58.171 16.0263 58.1292 16.0852 58.0537L18.3124 55.2466C18.4359 55.0918 18.5986 54.9745 18.7854 54.9076L20.7606 54.2012C20.8251 54.1785 20.8823 54.1336 20.9191 54.0734L23.5432 49.8894C23.7802 49.5141 24.2341 49.3249 24.666 49.4183L25.4067 49.5811C25.5142 49.5866 25.5535 49.5811 25.5897 49.5651L27.253 48.8845C27.3304 48.8538 27.3894 48.7936 27.4213 48.7187C27.4533 48.6419 27.4533 48.5578 27.4207 48.481L26.8446 47.0959L25.8084 43.9744C25.7457 43.787 25.7378 43.5862 25.7844 43.3933L26.3391 41.101C26.4177 40.7798 26.6443 40.5101 26.9465 40.3787L27.7776 40.0206C28.4318 39.7356 29.213 40.2294 29.2523 40.9327L29.3605 42.889C29.3684 43.0474 29.3408 43.2053 29.2812 43.3484L28.2886 45.7654C28.2487 45.8612 28.2598 45.9705 28.3175 46.0571L29.3039 47.5159C29.3611 47.6013 29.4569 47.6517 29.5601 47.6517L32.0728 47.4146C32.0851 47.4127 32.1606 47.409 32.1723 47.409C32.5771 47.409 32.9413 47.6363 33.1207 47.9999L33.9498 49.6915C34.0266 49.8482 34.1685 49.8641 34.2256 49.8641C34.2742 49.8641 34.4351 49.85 34.51 49.6768L35.2698 47.8981C35.3976 47.5996 35.6494 47.3797 35.9626 47.2931L39.0479 46.4503C39.2451 46.3994 39.4453 46.5087 39.5049 46.7022L39.6406 47.1487C39.6805 47.2771 39.8015 47.3674 39.9367 47.3674H41.7745C41.9084 47.3674 42.0257 47.282 42.0675 47.1567L42.9249 44.5641L43.7978 40.9672C43.9138 40.4906 44.3364 40.1589 44.8278 40.1589C45.0778 40.1589 45.3216 40.2498 45.5127 40.4144L46.2129 41.0139C46.434 41.2031 46.5943 41.0765 46.6772 40.9402L47.4211 39.7191C47.4764 39.6276 47.4807 39.5115 47.4327 39.4169L46.6183 37.8451C46.4764 37.5712 46.4604 37.2505 46.5753 36.9655L46.9678 35.984C47.1299 35.5804 47.5144 35.32 47.9487 35.32H51.6285C51.8047 35.32 51.9571 35.4422 51.9939 35.6148C52.032 35.7868 51.9436 35.9619 51.7833 36.035L51.1131 36.3396C50.9663 36.4066 50.8945 36.5773 50.9504 36.7278L51.6586 38.6424C51.6954 38.7394 51.7175 38.8469 51.7237 38.9575L51.9208 43.1208C51.927 43.2627 52.0289 43.3812 52.1671 43.4095L54.8703 43.9592C55.3432 44.0544 55.6921 44.4586 55.7154 44.9407L55.7885 46.3952C55.7922 46.4769 55.8297 46.5555 55.8917 46.6102L57.3781 47.9357C57.6668 48.1937 57.7903 48.5739 57.7068 48.9516C57.6232 49.3312 57.3517 49.6242 56.9801 49.736L56.5999 49.8515C56.4457 49.8987 56.3524 50.0584 56.3886 50.2163L56.6361 51.3047C56.6687 51.4454 56.7928 51.5443 56.9383 51.5443H58.8155C59.3394 51.5443 59.7786 51.9202 59.8609 52.438L60.074 53.7972C60.0857 53.8648 60.1183 53.9274 60.1692 53.976L62.0986 55.7775C62.1318 55.8082 62.1699 55.8309 62.2122 55.845L66.4805 57.2522C66.9154 57.396 67.2072 57.7989 67.2072 58.2559V59.2736C67.2072 59.6232 67.0346 59.9499 66.7459 60.1471L61.3365 63.8416C61.4562 63.9061 61.5637 63.994 61.6528 64.1014L61.8451 64.3348C62.0441 64.5744 62.1251 64.8889 62.0705 65.1954C62.0152 65.5007 61.8303 65.766 61.5613 65.922L60.4704 66.5559C59.9471 66.8599 59.2229 66.6247 58.9754 66.0768L58.6628 65.3839C58.5018 65.0259 58.551 64.61 58.7911 64.2998C58.8501 64.2243 58.871 64.1272 58.8464 64.0339C58.8225 63.9405 58.7573 63.865 58.6695 63.8263L57.5786 63.3558C57.54 63.338 57.4988 63.33 57.4552 63.33L54.9368 63.8459C54.8416 63.8656 54.7599 63.9313 54.7194 64.0204L52.0942 69.7842C52.0592 69.8635 52.0574 69.9544 52.0918 70.0342L52.1298 70.1214C52.2613 70.4285 52.2429 70.7707 52.077 71.06C51.9124 71.3499 51.6299 71.5415 51.2994 71.5858L50.4727 71.6975C50.3652 71.7135 50.2737 71.7823 50.2307 71.8818L49.9389 72.5556C49.7037 73.098 49.0071 73.3455 48.4789 73.0728L48.2246 72.9401C48.1454 72.8978 48.0465 72.8935 47.9605 72.9285L45.7069 73.8824C45.5969 73.929 45.5226 74.0353 45.5183 74.1545L45.4268 76.486C45.425 76.526 45.4305 76.5634 45.4434 76.5991L46.178 78.7254C46.2892 79.0461 46.2425 79.39 46.0502 79.6683C45.858 79.9471 45.5546 80.1148 45.2155 80.1271L44.9557 80.1369H44.9532C44.5454 80.1369 44.1977 79.9379 44.0092 79.6191L43.8188 79.2997C43.64 78.9988 43.6216 78.6296 43.7703 78.3127C43.8255 78.1923 43.9029 78.0854 43.9975 77.9964L43.2905 77.7095C43.0891 77.6285 42.9189 77.4884 42.7998 77.3054L41.0468 74.5898C40.9351 74.4178 40.8767 74.2188 40.8767 74.0149V71.3006C40.8767 71.2091 40.8362 71.1225 40.7655 71.0629L38.7208 69.3523C38.6759 69.3142 38.6219 69.2908 38.5648 69.2829L37.0759 69.0709C36.7774 69.0279 36.5108 68.8603 36.3449 68.6103L35.7197 67.6736L33.5595 64.5681C33.4415 64.4022 33.1719 64.3998 33.0533 64.5674L31.9938 66.076C31.925 66.1749 31.9189 66.3057 31.9791 66.4089L34.3003 70.394C34.3205 70.429 34.3488 70.4604 34.382 70.4856L35.8727 71.6163L37.7332 72.6034C37.9101 72.6968 38.0556 72.8386 38.1551 73.0112L39.0869 74.6278C39.1582 74.6954 39.203 74.7925 39.203 74.8993C39.203 75.1051 39.0359 75.2734 38.8277 75.2734C38.8234 75.2734 38.8161 75.274 38.8099 75.2734C38.7485 75.2734 38.6858 75.2587 38.6293 75.2267L37.6503 74.6887L37.5716 74.7194L37.9316 75.8379C38.0292 76.1425 37.9869 76.4693 37.8124 76.7371L36.8542 78.2223C36.7633 78.3617 36.5938 78.4238 36.4335 78.3783C36.2744 78.3316 36.1651 78.1854 36.1651 78.0202V76.3931L35.8377 74.8624C35.8199 74.7826 35.7707 74.712 35.7019 74.6677L32.1278 72.408C32.0848 72.3816 32.0418 72.349 32.0001 72.314L30.0652 70.6341C29.8828 70.4756 29.76 70.2582 29.7176 70.0211L29.3724 68.0832C29.354 67.977 29.2809 67.8885 29.1795 67.8492L27.5684 67.2196C27.4714 67.1834 27.3547 67.1987 27.2681 67.2626L26.6403 67.7417C26.3903 67.9327 26.0574 68.0021 25.7546 67.9291L25.3136 67.824C25.1477 67.8265 25.0538 67.8621 24.9966 67.9383L24.4052 68.7263C24.2442 68.9419 24.009 69.0863 23.7418 69.1342L20.4925 69.7066C20.3562 69.7306 20.2511 69.843 20.2383 69.9806L20.0964 71.459C20.062 71.8079 19.8574 72.1168 19.5522 72.2851L17.1118 73.6229C17.0393 73.6628 16.9859 73.7292 16.9638 73.8084L16.0031 77.1934C15.9626 77.3352 15.8938 77.4661 15.7979 77.5809L13.8214 79.9531C13.6261 80.1883 13.338 80.3265 13.0309 80.3333L10.4438 80.3806C10.3953 80.3812 10.3462 80.3947 10.3019 80.4174L9.43833 80.8818C9.28724 80.9567 9.11464 80.9997 8.94081 80.9997L8.94066 81ZM5.85165 69.7972C5.68151 69.7972 5.54146 69.9354 5.54146 70.1061V78.9239C5.54146 79.094 5.68089 79.2328 5.85165 79.2328H7.55803C7.93025 79.2328 8.27913 79.4319 8.46832 79.7525L8.67347 80.1014C8.75455 80.2371 8.94374 80.2949 9.08439 80.2156L9.94983 79.7513C10.0966 79.6739 10.2613 79.6309 10.4289 79.626L13.0167 79.5787C13.1063 79.5768 13.1899 79.5363 13.2476 79.4675L15.2254 77.0941C15.2524 77.0615 15.2739 77.0228 15.2844 76.9823L16.245 73.5974C16.3224 73.3246 16.503 73.098 16.7524 72.9592L19.1932 71.6208C19.2829 71.5716 19.3419 71.4814 19.3523 71.3794L19.4942 69.9028C19.539 69.4323 19.8965 69.0453 20.3627 68.963L23.6126 68.3906C23.6912 68.3764 23.7594 68.3353 23.8061 68.2726L24.3976 67.4846C24.6439 67.1535 25.0837 66.9908 25.4884 67.0909L25.9288 67.1959C26.059 67.2039 26.1334 67.1812 26.1874 67.1406L26.8151 66.6628C27.1051 66.4429 27.5049 66.387 27.8391 66.5172L29.452 67.1474C29.7948 67.28 30.0454 67.5878 30.1087 67.9477L30.4532 69.8837C30.4667 69.9531 30.5024 70.0163 30.5546 70.0624L32.4894 71.7424L36.1005 74.0298C36.3382 74.1796 36.5083 74.4235 36.5673 74.698L36.8879 76.1617C36.9045 76.2367 36.9119 76.3122 36.9119 76.3878V76.7452L37.1822 76.3263C37.2331 76.2477 37.2454 76.1531 37.2172 76.0628L36.7497 74.6133C36.6902 74.4259 36.7841 74.2238 36.9666 74.1507L37.5347 73.9235C37.6262 73.8872 37.7282 73.8885 37.8173 73.9253L37.5046 73.3811C37.4758 73.3301 37.4321 73.2896 37.3805 73.2614L35.563 72.3013C35.512 72.2749 35.4629 72.243 35.4168 72.2086L33.9261 71.0778C33.8131 70.9918 33.7215 70.8874 33.6503 70.7664L31.3291 66.7812C31.1233 66.4262 31.1418 65.9791 31.3782 65.6418L32.4378 64.1333C32.8333 63.5688 33.7774 63.5707 34.1706 64.137L36.9648 68.1927C37.0139 68.2658 37.0913 68.3149 37.1785 68.3266L38.6674 68.5385C38.8621 68.5656 39.0451 68.6479 39.1975 68.7756L41.2429 70.4875C41.483 70.689 41.6212 70.9844 41.6212 71.2983V74.0113C41.6212 74.0703 41.639 74.1293 41.6716 74.1784L43.4302 76.8921C43.4652 76.9455 43.5149 76.9861 43.5727 77.01L44.9946 77.5868L44.7367 76.838C44.6937 76.714 44.6752 76.5837 44.6801 76.4517L44.7717 74.1207C44.7882 73.7141 45.0413 73.3474 45.4154 73.1883L47.6696 72.2344C47.9613 72.1128 48.2955 72.127 48.5713 72.2713L48.8268 72.404C48.9816 72.4887 49.1843 72.4126 49.2531 72.2535L49.5448 71.5797C49.6929 71.2369 50.0024 71.0029 50.3728 70.9519L51.2008 70.8402C51.2966 70.8266 51.3795 70.7714 51.4268 70.6872C51.4753 70.6018 51.4815 70.5023 51.4428 70.4114L51.4047 70.3242C51.2874 70.0503 51.2911 69.7395 51.4145 69.4692L54.0397 63.7041C54.1797 63.3976 54.4586 63.174 54.7872 63.1071L57.2428 62.5973C57.4584 62.5524 57.6789 62.5764 57.8779 62.6624L58.9688 63.1329C59.2716 63.2649 59.4927 63.5229 59.5738 63.8423C59.6555 64.1611 59.5873 64.4927 59.3834 64.7526C59.314 64.8441 59.2986 64.9645 59.3466 65.0695L59.6592 65.7624C59.7304 65.9214 59.938 65.9921 60.0953 65.9024L61.1862 65.2685C61.2936 65.2059 61.3256 65.1082 61.3348 65.0566C61.3446 65.0032 61.3489 64.9006 61.2697 64.8048L61.0774 64.5726C61.0185 64.5013 60.9312 64.4596 60.8385 64.4596L60.3133 64.4633C60.1487 64.4633 60.0044 64.357 59.9559 64.1991C59.9073 64.0425 59.9675 63.8724 60.1021 63.7802L66.3285 59.5261C66.4139 59.4677 66.4643 59.3731 66.4643 59.2705V58.2528C66.4643 58.1201 66.3783 58.0015 66.2511 57.9598L61.984 56.5526C61.836 56.5041 61.7052 56.4261 61.5928 56.3204L59.6634 54.5189C59.4914 54.358 59.3772 54.1418 59.3403 53.9114L59.1272 52.5509C59.1032 52.3992 58.9749 52.2892 58.8219 52.2892H56.9448C56.4491 52.2892 56.0247 51.952 55.9135 51.4686L55.666 50.3796C55.5425 49.8409 55.8607 49.293 56.3895 49.1327L56.7697 49.0173C56.9264 48.9687 56.9706 48.841 56.9817 48.7875C56.9933 48.7341 57.0075 48.599 56.8858 48.4909L55.3994 47.1654C55.1888 46.9768 55.0604 46.7078 55.0475 46.4283L54.9744 44.9744C54.9676 44.8338 54.8663 44.7158 54.7287 44.6882L52.0243 44.1379C51.5495 44.0408 51.2018 43.6348 51.1791 43.1514L50.9819 38.9888C50.9801 38.9568 50.974 38.9273 50.9635 38.8997L50.2547 36.9809C50.1386 36.6676 50.1822 36.3304 50.3462 36.0626H47.9538C47.8273 36.0626 47.7149 36.1394 47.6676 36.2573L47.2751 37.2389C47.2419 37.3224 47.2462 37.4158 47.2886 37.4962L48.1024 39.0674C48.2714 39.3923 48.2585 39.7898 48.0674 40.1036L47.3236 41.3247C46.9981 41.8566 46.2082 41.9844 45.7322 41.5784L45.0319 40.9776C44.9595 40.9162 44.8839 40.9027 44.8329 40.9027C44.7107 40.9027 44.5694 40.9758 44.5301 41.1398L43.6647 44.7134C43.6622 44.7257 43.6426 44.7908 43.6389 44.8031L42.7833 47.3889C42.6408 47.8214 42.2372 48.1125 41.7796 48.1125H39.9418C39.4731 48.1125 39.0671 47.8121 38.9308 47.3638L38.9007 47.2649L36.1667 48.0124C36.0752 48.037 36.0009 48.1021 35.964 48.1887L35.2042 49.9674C35.0353 50.363 34.6625 50.6093 34.2319 50.6093C33.8259 50.6093 33.4623 50.382 33.2835 50.0178L32.455 48.3268C32.4028 48.2218 32.294 48.1542 32.1786 48.1542L29.6658 48.3913C29.6536 48.3931 29.5786 48.3968 29.567 48.3968C29.2162 48.3968 28.8882 48.2236 28.6911 47.9324L27.704 46.4718C27.5056 46.177 27.4682 45.8054 27.6027 45.4774L28.5959 43.0592C28.6143 43.0162 28.6217 42.9695 28.6186 42.9234L28.5105 40.9677C28.4982 40.7318 28.258 40.6243 28.0805 40.7017L27.2495 41.0598C27.1616 41.0979 27.0953 41.1771 27.0726 41.2711L26.5179 43.5621C26.5038 43.6186 26.5063 43.6763 26.5247 43.7304L27.5339 46.7788L28.1186 48.186C28.228 48.4477 28.228 48.7364 28.1186 48.9986C28.0105 49.2609 27.806 49.4636 27.5425 49.5699L25.8798 50.2504C25.6814 50.3303 25.4609 50.3493 25.2508 50.3039L24.5119 50.1411C24.3461 50.1435 24.2398 50.1878 24.1833 50.2787L21.5582 54.464C21.4317 54.6648 21.24 54.8178 21.0177 54.8982L19.0424 55.6046C18.9877 55.6242 18.9404 55.658 18.9048 55.7022L16.6776 58.5093C16.4301 58.8201 16.0272 58.9688 15.6359 58.8889L15.0506 58.7673C14.8429 58.763 14.7213 58.8582 14.6875 58.9983C14.5653 59.5099 14.1937 59.8336 13.7447 59.8778L12.9038 59.9595C12.6944 59.9798 12.6422 60.1524 12.6311 60.2046C12.6207 60.2568 12.5992 60.4356 12.784 60.5363L13.566 60.9687C13.7515 61.0701 13.9026 61.2267 13.999 61.4196L16.0334 65.4778C16.1728 65.7554 16.182 66.0791 16.0604 66.3635L14.886 69.1435C14.7195 69.536 14.3363 69.7891 13.9118 69.7891L5.85196 69.7916L5.85165 69.7972ZM45.2548 78.3311C45.2124 78.3582 45.1639 78.3778 45.1123 78.3864L44.6842 78.4552C44.5822 78.4718 44.4975 78.5351 44.4532 78.6284C44.409 78.7218 44.4145 78.8274 44.4674 78.9165L44.6578 79.2359C44.713 79.3292 44.8156 79.3876 44.9243 79.3876L45.1946 79.3778C45.2941 79.3741 45.3832 79.3249 45.4385 79.2439C45.4937 79.1628 45.5079 79.0627 45.4765 78.9681L45.2548 78.3311Z"/>
</mask>
<path d="M8.94066 81C8.56843 81 8.21956 80.801 8.03037 80.4816L7.8246 80.1321C7.76994 80.0393 7.66798 79.9804 7.55865 79.9804H5.85226C5.26937 79.9804 4.79456 79.5068 4.79456 78.9239L4.79395 70.1061C4.79395 69.5232 5.26874 69.0496 5.85165 69.0496H13.906C14.0313 69.0496 14.1431 68.9747 14.1904 68.8604L15.3661 66.0804C15.4011 65.9957 15.3986 65.9023 15.3581 65.8218L13.3237 61.7642C13.2954 61.7089 13.2524 61.6629 13.1978 61.634L12.414 61.201C12 60.9719 11.7949 60.5247 11.8907 60.0616C11.9865 59.5985 12.3532 59.2698 12.8243 59.2244L13.6652 59.1427C13.7954 59.1292 13.9047 59.0346 13.9367 58.9056C14.0853 58.2766 14.64 57.9308 15.1958 58.0439L15.7806 58.1655C15.9477 58.171 16.0263 58.1292 16.0852 58.0537L18.3124 55.2466C18.4359 55.0918 18.5986 54.9745 18.7854 54.9076L20.7606 54.2012C20.8251 54.1785 20.8823 54.1336 20.9191 54.0734L23.5432 49.8894C23.7802 49.5141 24.2341 49.3249 24.666 49.4183L25.4067 49.5811C25.5142 49.5866 25.5535 49.5811 25.5897 49.5651L27.253 48.8845C27.3304 48.8538 27.3894 48.7936 27.4213 48.7187C27.4533 48.6419 27.4533 48.5578 27.4207 48.481L26.8446 47.0959L25.8084 43.9744C25.7457 43.787 25.7378 43.5862 25.7844 43.3933L26.3391 41.101C26.4177 40.7798 26.6443 40.5101 26.9465 40.3787L27.7776 40.0206C28.4318 39.7356 29.213 40.2294 29.2523 40.9327L29.3605 42.889C29.3684 43.0474 29.3408 43.2053 29.2812 43.3484L28.2886 45.7654C28.2487 45.8612 28.2598 45.9705 28.3175 46.0571L29.3039 47.5159C29.3611 47.6013 29.4569 47.6517 29.5601 47.6517L32.0728 47.4146C32.0851 47.4127 32.1606 47.409 32.1723 47.409C32.5771 47.409 32.9413 47.6363 33.1207 47.9999L33.9498 49.6915C34.0266 49.8482 34.1685 49.8641 34.2256 49.8641C34.2742 49.8641 34.4351 49.85 34.51 49.6768L35.2698 47.8981C35.3976 47.5996 35.6494 47.3797 35.9626 47.2931L39.0479 46.4503C39.2451 46.3994 39.4453 46.5087 39.5049 46.7022L39.6406 47.1487C39.6805 47.2771 39.8015 47.3674 39.9367 47.3674H41.7745C41.9084 47.3674 42.0257 47.282 42.0675 47.1567L42.9249 44.5641L43.7978 40.9672C43.9138 40.4906 44.3364 40.1589 44.8278 40.1589C45.0778 40.1589 45.3216 40.2498 45.5127 40.4144L46.2129 41.0139C46.434 41.2031 46.5943 41.0765 46.6772 40.9402L47.4211 39.7191C47.4764 39.6276 47.4807 39.5115 47.4327 39.4169L46.6183 37.8451C46.4764 37.5712 46.4604 37.2505 46.5753 36.9655L46.9678 35.984C47.1299 35.5804 47.5144 35.32 47.9487 35.32H51.6285C51.8047 35.32 51.9571 35.4422 51.9939 35.6148C52.032 35.7868 51.9436 35.9619 51.7833 36.035L51.1131 36.3396C50.9663 36.4066 50.8945 36.5773 50.9504 36.7278L51.6586 38.6424C51.6954 38.7394 51.7175 38.8469 51.7237 38.9575L51.9208 43.1208C51.927 43.2627 52.0289 43.3812 52.1671 43.4095L54.8703 43.9592C55.3432 44.0544 55.6921 44.4586 55.7154 44.9407L55.7885 46.3952C55.7922 46.4769 55.8297 46.5555 55.8917 46.6102L57.3781 47.9357C57.6668 48.1937 57.7903 48.5739 57.7068 48.9516C57.6232 49.3312 57.3517 49.6242 56.9801 49.736L56.5999 49.8515C56.4457 49.8987 56.3524 50.0584 56.3886 50.2163L56.6361 51.3047C56.6687 51.4454 56.7928 51.5443 56.9383 51.5443H58.8155C59.3394 51.5443 59.7786 51.9202 59.8609 52.438L60.074 53.7972C60.0857 53.8648 60.1183 53.9274 60.1692 53.976L62.0986 55.7775C62.1318 55.8082 62.1699 55.8309 62.2122 55.845L66.4805 57.2522C66.9154 57.396 67.2072 57.7989 67.2072 58.2559V59.2736C67.2072 59.6232 67.0346 59.9499 66.7459 60.1471L61.3365 63.8416C61.4562 63.9061 61.5637 63.994 61.6528 64.1014L61.8451 64.3348C62.0441 64.5744 62.1251 64.8889 62.0705 65.1954C62.0152 65.5007 61.8303 65.766 61.5613 65.922L60.4704 66.5559C59.9471 66.8599 59.2229 66.6247 58.9754 66.0768L58.6628 65.3839C58.5018 65.0259 58.551 64.61 58.7911 64.2998C58.8501 64.2243 58.871 64.1272 58.8464 64.0339C58.8225 63.9405 58.7573 63.865 58.6695 63.8263L57.5786 63.3558C57.54 63.338 57.4988 63.33 57.4552 63.33L54.9368 63.8459C54.8416 63.8656 54.7599 63.9313 54.7194 64.0204L52.0942 69.7842C52.0592 69.8635 52.0574 69.9544 52.0918 70.0342L52.1298 70.1214C52.2613 70.4285 52.2429 70.7707 52.077 71.06C51.9124 71.3499 51.6299 71.5415 51.2994 71.5858L50.4727 71.6975C50.3652 71.7135 50.2737 71.7823 50.2307 71.8818L49.9389 72.5556C49.7037 73.098 49.0071 73.3455 48.4789 73.0728L48.2246 72.9401C48.1454 72.8978 48.0465 72.8935 47.9605 72.9285L45.7069 73.8824C45.5969 73.929 45.5226 74.0353 45.5183 74.1545L45.4268 76.486C45.425 76.526 45.4305 76.5634 45.4434 76.5991L46.178 78.7254C46.2892 79.0461 46.2425 79.39 46.0502 79.6683C45.858 79.9471 45.5546 80.1148 45.2155 80.1271L44.9557 80.1369H44.9532C44.5454 80.1369 44.1977 79.9379 44.0092 79.6191L43.8188 79.2997C43.64 78.9988 43.6216 78.6296 43.7703 78.3127C43.8255 78.1923 43.9029 78.0854 43.9975 77.9964L43.2905 77.7095C43.0891 77.6285 42.9189 77.4884 42.7998 77.3054L41.0468 74.5898C40.9351 74.4178 40.8767 74.2188 40.8767 74.0149V71.3006C40.8767 71.2091 40.8362 71.1225 40.7655 71.0629L38.7208 69.3523C38.6759 69.3142 38.6219 69.2908 38.5648 69.2829L37.0759 69.0709C36.7774 69.0279 36.5108 68.8603 36.3449 68.6103L35.7197 67.6736L33.5595 64.5681C33.4415 64.4022 33.1719 64.3998 33.0533 64.5674L31.9938 66.076C31.925 66.1749 31.9189 66.3057 31.9791 66.4089L34.3003 70.394C34.3205 70.429 34.3488 70.4604 34.382 70.4856L35.8727 71.6163L37.7332 72.6034C37.9101 72.6968 38.0556 72.8386 38.1551 73.0112L39.0869 74.6278C39.1582 74.6954 39.203 74.7925 39.203 74.8993C39.203 75.1051 39.0359 75.2734 38.8277 75.2734C38.8234 75.2734 38.8161 75.274 38.8099 75.2734C38.7485 75.2734 38.6858 75.2587 38.6293 75.2267L37.6503 74.6887L37.5716 74.7194L37.9316 75.8379C38.0292 76.1425 37.9869 76.4693 37.8124 76.7371L36.8542 78.2223C36.7633 78.3617 36.5938 78.4238 36.4335 78.3783C36.2744 78.3316 36.1651 78.1854 36.1651 78.0202V76.3931L35.8377 74.8624C35.8199 74.7826 35.7707 74.712 35.7019 74.6677L32.1278 72.408C32.0848 72.3816 32.0418 72.349 32.0001 72.314L30.0652 70.6341C29.8828 70.4756 29.76 70.2582 29.7176 70.0211L29.3724 68.0832C29.354 67.977 29.2809 67.8885 29.1795 67.8492L27.5684 67.2196C27.4714 67.1834 27.3547 67.1987 27.2681 67.2626L26.6403 67.7417C26.3903 67.9327 26.0574 68.0021 25.7546 67.9291L25.3136 67.824C25.1477 67.8265 25.0538 67.8621 24.9966 67.9383L24.4052 68.7263C24.2442 68.9419 24.009 69.0863 23.7418 69.1342L20.4925 69.7066C20.3562 69.7306 20.2511 69.843 20.2383 69.9806L20.0964 71.459C20.062 71.8079 19.8574 72.1168 19.5522 72.2851L17.1118 73.6229C17.0393 73.6628 16.9859 73.7292 16.9638 73.8084L16.0031 77.1934C15.9626 77.3352 15.8938 77.4661 15.7979 77.5809L13.8214 79.9531C13.6261 80.1883 13.338 80.3265 13.0309 80.3333L10.4438 80.3806C10.3953 80.3812 10.3462 80.3947 10.3019 80.4174L9.43833 80.8818C9.28724 80.9567 9.11464 80.9997 8.94081 80.9997L8.94066 81ZM5.85165 69.7972C5.68151 69.7972 5.54146 69.9354 5.54146 70.1061V78.9239C5.54146 79.094 5.68089 79.2328 5.85165 79.2328H7.55803C7.93025 79.2328 8.27913 79.4319 8.46832 79.7525L8.67347 80.1014C8.75455 80.2371 8.94374 80.2949 9.08439 80.2156L9.94983 79.7513C10.0966 79.6739 10.2613 79.6309 10.4289 79.626L13.0167 79.5787C13.1063 79.5768 13.1899 79.5363 13.2476 79.4675L15.2254 77.0941C15.2524 77.0615 15.2739 77.0228 15.2844 76.9823L16.245 73.5974C16.3224 73.3246 16.503 73.098 16.7524 72.9592L19.1932 71.6208C19.2829 71.5716 19.3419 71.4814 19.3523 71.3794L19.4942 69.9028C19.539 69.4323 19.8965 69.0453 20.3627 68.963L23.6126 68.3906C23.6912 68.3764 23.7594 68.3353 23.8061 68.2726L24.3976 67.4846C24.6439 67.1535 25.0837 66.9908 25.4884 67.0909L25.9288 67.1959C26.059 67.2039 26.1334 67.1812 26.1874 67.1406L26.8151 66.6628C27.1051 66.4429 27.5049 66.387 27.8391 66.5172L29.452 67.1474C29.7948 67.28 30.0454 67.5878 30.1087 67.9477L30.4532 69.8837C30.4667 69.9531 30.5024 70.0163 30.5546 70.0624L32.4894 71.7424L36.1005 74.0298C36.3382 74.1796 36.5083 74.4235 36.5673 74.698L36.8879 76.1617C36.9045 76.2367 36.9119 76.3122 36.9119 76.3878V76.7452L37.1822 76.3263C37.2331 76.2477 37.2454 76.1531 37.2172 76.0628L36.7497 74.6133C36.6902 74.4259 36.7841 74.2238 36.9666 74.1507L37.5347 73.9235C37.6262 73.8872 37.7282 73.8885 37.8173 73.9253L37.5046 73.3811C37.4758 73.3301 37.4321 73.2896 37.3805 73.2614L35.563 72.3013C35.512 72.2749 35.4629 72.243 35.4168 72.2086L33.9261 71.0778C33.8131 70.9918 33.7215 70.8874 33.6503 70.7664L31.3291 66.7812C31.1233 66.4262 31.1418 65.9791 31.3782 65.6418L32.4378 64.1333C32.8333 63.5688 33.7774 63.5707 34.1706 64.137L36.9648 68.1927C37.0139 68.2658 37.0913 68.3149 37.1785 68.3266L38.6674 68.5385C38.8621 68.5656 39.0451 68.6479 39.1975 68.7756L41.2429 70.4875C41.483 70.689 41.6212 70.9844 41.6212 71.2983V74.0113C41.6212 74.0703 41.639 74.1293 41.6716 74.1784L43.4302 76.8921C43.4652 76.9455 43.5149 76.9861 43.5727 77.01L44.9946 77.5868L44.7367 76.838C44.6937 76.714 44.6752 76.5837 44.6801 76.4517L44.7717 74.1207C44.7882 73.7141 45.0413 73.3474 45.4154 73.1883L47.6696 72.2344C47.9613 72.1128 48.2955 72.127 48.5713 72.2713L48.8268 72.404C48.9816 72.4887 49.1843 72.4126 49.2531 72.2535L49.5448 71.5797C49.6929 71.2369 50.0024 71.0029 50.3728 70.9519L51.2008 70.8402C51.2966 70.8266 51.3795 70.7714 51.4268 70.6872C51.4753 70.6018 51.4815 70.5023 51.4428 70.4114L51.4047 70.3242C51.2874 70.0503 51.2911 69.7395 51.4145 69.4692L54.0397 63.7041C54.1797 63.3976 54.4586 63.174 54.7872 63.1071L57.2428 62.5973C57.4584 62.5524 57.6789 62.5764 57.8779 62.6624L58.9688 63.1329C59.2716 63.2649 59.4927 63.5229 59.5738 63.8423C59.6555 64.1611 59.5873 64.4927 59.3834 64.7526C59.314 64.8441 59.2986 64.9645 59.3466 65.0695L59.6592 65.7624C59.7304 65.9214 59.938 65.9921 60.0953 65.9024L61.1862 65.2685C61.2936 65.2059 61.3256 65.1082 61.3348 65.0566C61.3446 65.0032 61.3489 64.9006 61.2697 64.8048L61.0774 64.5726C61.0185 64.5013 60.9312 64.4596 60.8385 64.4596L60.3133 64.4633C60.1487 64.4633 60.0044 64.357 59.9559 64.1991C59.9073 64.0425 59.9675 63.8724 60.1021 63.7802L66.3285 59.5261C66.4139 59.4677 66.4643 59.3731 66.4643 59.2705V58.2528C66.4643 58.1201 66.3783 58.0015 66.2511 57.9598L61.984 56.5526C61.836 56.5041 61.7052 56.4261 61.5928 56.3204L59.6634 54.5189C59.4914 54.358 59.3772 54.1418 59.3403 53.9114L59.1272 52.5509C59.1032 52.3992 58.9749 52.2892 58.8219 52.2892H56.9448C56.4491 52.2892 56.0247 51.952 55.9135 51.4686L55.666 50.3796C55.5425 49.8409 55.8607 49.293 56.3895 49.1327L56.7697 49.0173C56.9264 48.9687 56.9706 48.841 56.9817 48.7875C56.9933 48.7341 57.0075 48.599 56.8858 48.4909L55.3994 47.1654C55.1888 46.9768 55.0604 46.7078 55.0475 46.4283L54.9744 44.9744C54.9676 44.8338 54.8663 44.7158 54.7287 44.6882L52.0243 44.1379C51.5495 44.0408 51.2018 43.6348 51.1791 43.1514L50.9819 38.9888C50.9801 38.9568 50.974 38.9273 50.9635 38.8997L50.2547 36.9809C50.1386 36.6676 50.1822 36.3304 50.3462 36.0626H47.9538C47.8273 36.0626 47.7149 36.1394 47.6676 36.2573L47.2751 37.2389C47.2419 37.3224 47.2462 37.4158 47.2886 37.4962L48.1024 39.0674C48.2714 39.3923 48.2585 39.7898 48.0674 40.1036L47.3236 41.3247C46.9981 41.8566 46.2082 41.9844 45.7322 41.5784L45.0319 40.9776C44.9595 40.9162 44.8839 40.9027 44.8329 40.9027C44.7107 40.9027 44.5694 40.9758 44.5301 41.1398L43.6647 44.7134C43.6622 44.7257 43.6426 44.7908 43.6389 44.8031L42.7833 47.3889C42.6408 47.8214 42.2372 48.1125 41.7796 48.1125H39.9418C39.4731 48.1125 39.0671 47.8121 38.9308 47.3638L38.9007 47.2649L36.1667 48.0124C36.0752 48.037 36.0009 48.1021 35.964 48.1887L35.2042 49.9674C35.0353 50.363 34.6625 50.6093 34.2319 50.6093C33.8259 50.6093 33.4623 50.382 33.2835 50.0178L32.455 48.3268C32.4028 48.2218 32.294 48.1542 32.1786 48.1542L29.6658 48.3913C29.6536 48.3931 29.5786 48.3968 29.567 48.3968C29.2162 48.3968 28.8882 48.2236 28.6911 47.9324L27.704 46.4718C27.5056 46.177 27.4682 45.8054 27.6027 45.4774L28.5959 43.0592C28.6143 43.0162 28.6217 42.9695 28.6186 42.9234L28.5105 40.9677C28.4982 40.7318 28.258 40.6243 28.0805 40.7017L27.2495 41.0598C27.1616 41.0979 27.0953 41.1771 27.0726 41.2711L26.5179 43.5621C26.5038 43.6186 26.5063 43.6763 26.5247 43.7304L27.5339 46.7788L28.1186 48.186C28.228 48.4477 28.228 48.7364 28.1186 48.9986C28.0105 49.2609 27.806 49.4636 27.5425 49.5699L25.8798 50.2504C25.6814 50.3303 25.4609 50.3493 25.2508 50.3039L24.5119 50.1411C24.3461 50.1435 24.2398 50.1878 24.1833 50.2787L21.5582 54.464C21.4317 54.6648 21.24 54.8178 21.0177 54.8982L19.0424 55.6046C18.9877 55.6242 18.9404 55.658 18.9048 55.7022L16.6776 58.5093C16.4301 58.8201 16.0272 58.9688 15.6359 58.8889L15.0506 58.7673C14.8429 58.763 14.7213 58.8582 14.6875 58.9983C14.5653 59.5099 14.1937 59.8336 13.7447 59.8778L12.9038 59.9595C12.6944 59.9798 12.6422 60.1524 12.6311 60.2046C12.6207 60.2568 12.5992 60.4356 12.784 60.5363L13.566 60.9687C13.7515 61.0701 13.9026 61.2267 13.999 61.4196L16.0334 65.4778C16.1728 65.7554 16.182 66.0791 16.0604 66.3635L14.886 69.1435C14.7195 69.536 14.3363 69.7891 13.9118 69.7891L5.85196 69.7916L5.85165 69.7972ZM45.2548 78.3311C45.2124 78.3582 45.1639 78.3778 45.1123 78.3864L44.6842 78.4552C44.5822 78.4718 44.4975 78.5351 44.4532 78.6284C44.409 78.7218 44.4145 78.8274 44.4674 78.9165L44.6578 79.2359C44.713 79.3292 44.8156 79.3876 44.9243 79.3876L45.1946 79.3778C45.2941 79.3741 45.3832 79.3249 45.4385 79.2439C45.4937 79.1628 45.5079 79.0627 45.4765 78.9681L45.2548 78.3311Z" fill="white"/>
<path d="M8.94066 81C8.56843 81 8.21956 80.801 8.03037 80.4816L7.8246 80.1321C7.76994 80.0393 7.66798 79.9804 7.55865 79.9804H5.85226C5.26937 79.9804 4.79456 79.5068 4.79456 78.9239L4.79395 70.1061C4.79395 69.5232 5.26874 69.0496 5.85165 69.0496H13.906C14.0313 69.0496 14.1431 68.9747 14.1904 68.8604L15.3661 66.0804C15.4011 65.9957 15.3986 65.9023 15.3581 65.8218L13.3237 61.7642C13.2954 61.7089 13.2524 61.6629 13.1978 61.634L12.414 61.201C12 60.9719 11.7949 60.5247 11.8907 60.0616C11.9865 59.5985 12.3532 59.2698 12.8243 59.2244L13.6652 59.1427C13.7954 59.1292 13.9047 59.0346 13.9367 58.9056C14.0853 58.2766 14.64 57.9308 15.1958 58.0439L15.7806 58.1655C15.9477 58.171 16.0263 58.1292 16.0852 58.0537L18.3124 55.2466C18.4359 55.0918 18.5986 54.9745 18.7854 54.9076L20.7606 54.2012C20.8251 54.1785 20.8823 54.1336 20.9191 54.0734L23.5432 49.8894C23.7802 49.5141 24.2341 49.3249 24.666 49.4183L25.4067 49.5811C25.5142 49.5866 25.5535 49.5811 25.5897 49.5651L27.253 48.8845C27.3304 48.8538 27.3894 48.7936 27.4213 48.7187C27.4533 48.6419 27.4533 48.5578 27.4207 48.481L26.8446 47.0959L25.8084 43.9744C25.7457 43.787 25.7378 43.5862 25.7844 43.3933L26.3391 41.101C26.4177 40.7798 26.6443 40.5101 26.9465 40.3787L27.7776 40.0206C28.4318 39.7356 29.213 40.2294 29.2523 40.9327L29.3605 42.889C29.3684 43.0474 29.3408 43.2053 29.2812 43.3484L28.2886 45.7654C28.2487 45.8612 28.2598 45.9705 28.3175 46.0571L29.3039 47.5159C29.3611 47.6013 29.4569 47.6517 29.5601 47.6517L32.0728 47.4146C32.0851 47.4127 32.1606 47.409 32.1723 47.409C32.5771 47.409 32.9413 47.6363 33.1207 47.9999L33.9498 49.6915C34.0266 49.8482 34.1685 49.8641 34.2256 49.8641C34.2742 49.8641 34.4351 49.85 34.51 49.6768L35.2698 47.8981C35.3976 47.5996 35.6494 47.3797 35.9626 47.2931L39.0479 46.4503C39.2451 46.3994 39.4453 46.5087 39.5049 46.7022L39.6406 47.1487C39.6805 47.2771 39.8015 47.3674 39.9367 47.3674H41.7745C41.9084 47.3674 42.0257 47.282 42.0675 47.1567L42.9249 44.5641L43.7978 40.9672C43.9138 40.4906 44.3364 40.1589 44.8278 40.1589C45.0778 40.1589 45.3216 40.2498 45.5127 40.4144L46.2129 41.0139C46.434 41.2031 46.5943 41.0765 46.6772 40.9402L47.4211 39.7191C47.4764 39.6276 47.4807 39.5115 47.4327 39.4169L46.6183 37.8451C46.4764 37.5712 46.4604 37.2505 46.5753 36.9655L46.9678 35.984C47.1299 35.5804 47.5144 35.32 47.9487 35.32H51.6285C51.8047 35.32 51.9571 35.4422 51.9939 35.6148C52.032 35.7868 51.9436 35.9619 51.7833 36.035L51.1131 36.3396C50.9663 36.4066 50.8945 36.5773 50.9504 36.7278L51.6586 38.6424C51.6954 38.7394 51.7175 38.8469 51.7237 38.9575L51.9208 43.1208C51.927 43.2627 52.0289 43.3812 52.1671 43.4095L54.8703 43.9592C55.3432 44.0544 55.6921 44.4586 55.7154 44.9407L55.7885 46.3952C55.7922 46.4769 55.8297 46.5555 55.8917 46.6102L57.3781 47.9357C57.6668 48.1937 57.7903 48.5739 57.7068 48.9516C57.6232 49.3312 57.3517 49.6242 56.9801 49.736L56.5999 49.8515C56.4457 49.8987 56.3524 50.0584 56.3886 50.2163L56.6361 51.3047C56.6687 51.4454 56.7928 51.5443 56.9383 51.5443H58.8155C59.3394 51.5443 59.7786 51.9202 59.8609 52.438L60.074 53.7972C60.0857 53.8648 60.1183 53.9274 60.1692 53.976L62.0986 55.7775C62.1318 55.8082 62.1699 55.8309 62.2122 55.845L66.4805 57.2522C66.9154 57.396 67.2072 57.7989 67.2072 58.2559V59.2736C67.2072 59.6232 67.0346 59.9499 66.7459 60.1471L61.3365 63.8416C61.4562 63.9061 61.5637 63.994 61.6528 64.1014L61.8451 64.3348C62.0441 64.5744 62.1251 64.8889 62.0705 65.1954C62.0152 65.5007 61.8303 65.766 61.5613 65.922L60.4704 66.5559C59.9471 66.8599 59.2229 66.6247 58.9754 66.0768L58.6628 65.3839C58.5018 65.0259 58.551 64.61 58.7911 64.2998C58.8501 64.2243 58.871 64.1272 58.8464 64.0339C58.8225 63.9405 58.7573 63.865 58.6695 63.8263L57.5786 63.3558C57.54 63.338 57.4988 63.33 57.4552 63.33L54.9368 63.8459C54.8416 63.8656 54.7599 63.9313 54.7194 64.0204L52.0942 69.7842C52.0592 69.8635 52.0574 69.9544 52.0918 70.0342L52.1298 70.1214C52.2613 70.4285 52.2429 70.7707 52.077 71.06C51.9124 71.3499 51.6299 71.5415 51.2994 71.5858L50.4727 71.6975C50.3652 71.7135 50.2737 71.7823 50.2307 71.8818L49.9389 72.5556C49.7037 73.098 49.0071 73.3455 48.4789 73.0728L48.2246 72.9401C48.1454 72.8978 48.0465 72.8935 47.9605 72.9285L45.7069 73.8824C45.5969 73.929 45.5226 74.0353 45.5183 74.1545L45.4268 76.486C45.425 76.526 45.4305 76.5634 45.4434 76.5991L46.178 78.7254C46.2892 79.0461 46.2425 79.39 46.0502 79.6683C45.858 79.9471 45.5546 80.1148 45.2155 80.1271L44.9557 80.1369H44.9532C44.5454 80.1369 44.1977 79.9379 44.0092 79.6191L43.8188 79.2997C43.64 78.9988 43.6216 78.6296 43.7703 78.3127C43.8255 78.1923 43.9029 78.0854 43.9975 77.9964L43.2905 77.7095C43.0891 77.6285 42.9189 77.4884 42.7998 77.3054L41.0468 74.5898C40.9351 74.4178 40.8767 74.2188 40.8767 74.0149V71.3006C40.8767 71.2091 40.8362 71.1225 40.7655 71.0629L38.7208 69.3523C38.6759 69.3142 38.6219 69.2908 38.5648 69.2829L37.0759 69.0709C36.7774 69.0279 36.5108 68.8603 36.3449 68.6103L35.7197 67.6736L33.5595 64.5681C33.4415 64.4022 33.1719 64.3998 33.0533 64.5674L31.9938 66.076C31.925 66.1749 31.9189 66.3057 31.9791 66.4089L34.3003 70.394C34.3205 70.429 34.3488 70.4604 34.382 70.4856L35.8727 71.6163L37.7332 72.6034C37.9101 72.6968 38.0556 72.8386 38.1551 73.0112L39.0869 74.6278C39.1582 74.6954 39.203 74.7925 39.203 74.8993C39.203 75.1051 39.0359 75.2734 38.8277 75.2734C38.8234 75.2734 38.8161 75.274 38.8099 75.2734C38.7485 75.2734 38.6858 75.2587 38.6293 75.2267L37.6503 74.6887L37.5716 74.7194L37.9316 75.8379C38.0292 76.1425 37.9869 76.4693 37.8124 76.7371L36.8542 78.2223C36.7633 78.3617 36.5938 78.4238 36.4335 78.3783C36.2744 78.3316 36.1651 78.1854 36.1651 78.0202V76.3931L35.8377 74.8624C35.8199 74.7826 35.7707 74.712 35.7019 74.6677L32.1278 72.408C32.0848 72.3816 32.0418 72.349 32.0001 72.314L30.0652 70.6341C29.8828 70.4756 29.76 70.2582 29.7176 70.0211L29.3724 68.0832C29.354 67.977 29.2809 67.8885 29.1795 67.8492L27.5684 67.2196C27.4714 67.1834 27.3547 67.1987 27.2681 67.2626L26.6403 67.7417C26.3903 67.9327 26.0574 68.0021 25.7546 67.9291L25.3136 67.824C25.1477 67.8265 25.0538 67.8621 24.9966 67.9383L24.4052 68.7263C24.2442 68.9419 24.009 69.0863 23.7418 69.1342L20.4925 69.7066C20.3562 69.7306 20.2511 69.843 20.2383 69.9806L20.0964 71.459C20.062 71.8079 19.8574 72.1168 19.5522 72.2851L17.1118 73.6229C17.0393 73.6628 16.9859 73.7292 16.9638 73.8084L16.0031 77.1934C15.9626 77.3352 15.8938 77.4661 15.7979 77.5809L13.8214 79.9531C13.6261 80.1883 13.338 80.3265 13.0309 80.3333L10.4438 80.3806C10.3953 80.3812 10.3462 80.3947 10.3019 80.4174L9.43833 80.8818C9.28724 80.9567 9.11464 80.9997 8.94081 80.9997L8.94066 81ZM5.85165 69.7972C5.68151 69.7972 5.54146 69.9354 5.54146 70.1061V78.9239C5.54146 79.094 5.68089 79.2328 5.85165 79.2328H7.55803C7.93025 79.2328 8.27913 79.4319 8.46832 79.7525L8.67347 80.1014C8.75455 80.2371 8.94374 80.2949 9.08439 80.2156L9.94983 79.7513C10.0966 79.6739 10.2613 79.6309 10.4289 79.626L13.0167 79.5787C13.1063 79.5768 13.1899 79.5363 13.2476 79.4675L15.2254 77.0941C15.2524 77.0615 15.2739 77.0228 15.2844 76.9823L16.245 73.5974C16.3224 73.3246 16.503 73.098 16.7524 72.9592L19.1932 71.6208C19.2829 71.5716 19.3419 71.4814 19.3523 71.3794L19.4942 69.9028C19.539 69.4323 19.8965 69.0453 20.3627 68.963L23.6126 68.3906C23.6912 68.3764 23.7594 68.3353 23.8061 68.2726L24.3976 67.4846C24.6439 67.1535 25.0837 66.9908 25.4884 67.0909L25.9288 67.1959C26.059 67.2039 26.1334 67.1812 26.1874 67.1406L26.8151 66.6628C27.1051 66.4429 27.5049 66.387 27.8391 66.5172L29.452 67.1474C29.7948 67.28 30.0454 67.5878 30.1087 67.9477L30.4532 69.8837C30.4667 69.9531 30.5024 70.0163 30.5546 70.0624L32.4894 71.7424L36.1005 74.0298C36.3382 74.1796 36.5083 74.4235 36.5673 74.698L36.8879 76.1617C36.9045 76.2367 36.9119 76.3122 36.9119 76.3878V76.7452L37.1822 76.3263C37.2331 76.2477 37.2454 76.1531 37.2172 76.0628L36.7497 74.6133C36.6902 74.4259 36.7841 74.2238 36.9666 74.1507L37.5347 73.9235C37.6262 73.8872 37.7282 73.8885 37.8173 73.9253L37.5046 73.3811C37.4758 73.3301 37.4321 73.2896 37.3805 73.2614L35.563 72.3013C35.512 72.2749 35.4629 72.243 35.4168 72.2086L33.9261 71.0778C33.8131 70.9918 33.7215 70.8874 33.6503 70.7664L31.3291 66.7812C31.1233 66.4262 31.1418 65.9791 31.3782 65.6418L32.4378 64.1333C32.8333 63.5688 33.7774 63.5707 34.1706 64.137L36.9648 68.1927C37.0139 68.2658 37.0913 68.3149 37.1785 68.3266L38.6674 68.5385C38.8621 68.5656 39.0451 68.6479 39.1975 68.7756L41.2429 70.4875C41.483 70.689 41.6212 70.9844 41.6212 71.2983V74.0113C41.6212 74.0703 41.639 74.1293 41.6716 74.1784L43.4302 76.8921C43.4652 76.9455 43.5149 76.9861 43.5727 77.01L44.9946 77.5868L44.7367 76.838C44.6937 76.714 44.6752 76.5837 44.6801 76.4517L44.7717 74.1207C44.7882 73.7141 45.0413 73.3474 45.4154 73.1883L47.6696 72.2344C47.9613 72.1128 48.2955 72.127 48.5713 72.2713L48.8268 72.404C48.9816 72.4887 49.1843 72.4126 49.2531 72.2535L49.5448 71.5797C49.6929 71.2369 50.0024 71.0029 50.3728 70.9519L51.2008 70.8402C51.2966 70.8266 51.3795 70.7714 51.4268 70.6872C51.4753 70.6018 51.4815 70.5023 51.4428 70.4114L51.4047 70.3242C51.2874 70.0503 51.2911 69.7395 51.4145 69.4692L54.0397 63.7041C54.1797 63.3976 54.4586 63.174 54.7872 63.1071L57.2428 62.5973C57.4584 62.5524 57.6789 62.5764 57.8779 62.6624L58.9688 63.1329C59.2716 63.2649 59.4927 63.5229 59.5738 63.8423C59.6555 64.1611 59.5873 64.4927 59.3834 64.7526C59.314 64.8441 59.2986 64.9645 59.3466 65.0695L59.6592 65.7624C59.7304 65.9214 59.938 65.9921 60.0953 65.9024L61.1862 65.2685C61.2936 65.2059 61.3256 65.1082 61.3348 65.0566C61.3446 65.0032 61.3489 64.9006 61.2697 64.8048L61.0774 64.5726C61.0185 64.5013 60.9312 64.4596 60.8385 64.4596L60.3133 64.4633C60.1487 64.4633 60.0044 64.357 59.9559 64.1991C59.9073 64.0425 59.9675 63.8724 60.1021 63.7802L66.3285 59.5261C66.4139 59.4677 66.4643 59.3731 66.4643 59.2705V58.2528C66.4643 58.1201 66.3783 58.0015 66.2511 57.9598L61.984 56.5526C61.836 56.5041 61.7052 56.4261 61.5928 56.3204L59.6634 54.5189C59.4914 54.358 59.3772 54.1418 59.3403 53.9114L59.1272 52.5509C59.1032 52.3992 58.9749 52.2892 58.8219 52.2892H56.9448C56.4491 52.2892 56.0247 51.952 55.9135 51.4686L55.666 50.3796C55.5425 49.8409 55.8607 49.293 56.3895 49.1327L56.7697 49.0173C56.9264 48.9687 56.9706 48.841 56.9817 48.7875C56.9933 48.7341 57.0075 48.599 56.8858 48.4909L55.3994 47.1654C55.1888 46.9768 55.0604 46.7078 55.0475 46.4283L54.9744 44.9744C54.9676 44.8338 54.8663 44.7158 54.7287 44.6882L52.0243 44.1379C51.5495 44.0408 51.2018 43.6348 51.1791 43.1514L50.9819 38.9888C50.9801 38.9568 50.974 38.9273 50.9635 38.8997L50.2547 36.9809C50.1386 36.6676 50.1822 36.3304 50.3462 36.0626H47.9538C47.8273 36.0626 47.7149 36.1394 47.6676 36.2573L47.2751 37.2389C47.2419 37.3224 47.2462 37.4158 47.2886 37.4962L48.1024 39.0674C48.2714 39.3923 48.2585 39.7898 48.0674 40.1036L47.3236 41.3247C46.9981 41.8566 46.2082 41.9844 45.7322 41.5784L45.0319 40.9776C44.9595 40.9162 44.8839 40.9027 44.8329 40.9027C44.7107 40.9027 44.5694 40.9758 44.5301 41.1398L43.6647 44.7134C43.6622 44.7257 43.6426 44.7908 43.6389 44.8031L42.7833 47.3889C42.6408 47.8214 42.2372 48.1125 41.7796 48.1125H39.9418C39.4731 48.1125 39.0671 47.8121 38.9308 47.3638L38.9007 47.2649L36.1667 48.0124C36.0752 48.037 36.0009 48.1021 35.964 48.1887L35.2042 49.9674C35.0353 50.363 34.6625 50.6093 34.2319 50.6093C33.8259 50.6093 33.4623 50.382 33.2835 50.0178L32.455 48.3268C32.4028 48.2218 32.294 48.1542 32.1786 48.1542L29.6658 48.3913C29.6536 48.3931 29.5786 48.3968 29.567 48.3968C29.2162 48.3968 28.8882 48.2236 28.6911 47.9324L27.704 46.4718C27.5056 46.177 27.4682 45.8054 27.6027 45.4774L28.5959 43.0592C28.6143 43.0162 28.6217 42.9695 28.6186 42.9234L28.5105 40.9677C28.4982 40.7318 28.258 40.6243 28.0805 40.7017L27.2495 41.0598C27.1616 41.0979 27.0953 41.1771 27.0726 41.2711L26.5179 43.5621C26.5038 43.6186 26.5063 43.6763 26.5247 43.7304L27.5339 46.7788L28.1186 48.186C28.228 48.4477 28.228 48.7364 28.1186 48.9986C28.0105 49.2609 27.806 49.4636 27.5425 49.5699L25.8798 50.2504C25.6814 50.3303 25.4609 50.3493 25.2508 50.3039L24.5119 50.1411C24.3461 50.1435 24.2398 50.1878 24.1833 50.2787L21.5582 54.464C21.4317 54.6648 21.24 54.8178 21.0177 54.8982L19.0424 55.6046C18.9877 55.6242 18.9404 55.658 18.9048 55.7022L16.6776 58.5093C16.4301 58.8201 16.0272 58.9688 15.6359 58.8889L15.0506 58.7673C14.8429 58.763 14.7213 58.8582 14.6875 58.9983C14.5653 59.5099 14.1937 59.8336 13.7447 59.8778L12.9038 59.9595C12.6944 59.9798 12.6422 60.1524 12.6311 60.2046C12.6207 60.2568 12.5992 60.4356 12.784 60.5363L13.566 60.9687C13.7515 61.0701 13.9026 61.2267 13.999 61.4196L16.0334 65.4778C16.1728 65.7554 16.182 66.0791 16.0604 66.3635L14.886 69.1435C14.7195 69.536 14.3363 69.7891 13.9118 69.7891L5.85196 69.7916L5.85165 69.7972ZM45.2548 78.3311C45.2124 78.3582 45.1639 78.3778 45.1123 78.3864L44.6842 78.4552C44.5822 78.4718 44.4975 78.5351 44.4532 78.6284C44.409 78.7218 44.4145 78.8274 44.4674 78.9165L44.6578 79.2359C44.713 79.3292 44.8156 79.3876 44.9243 79.3876L45.1946 79.3778C45.2941 79.3741 45.3832 79.3249 45.4385 79.2439C45.4937 79.1628 45.5079 79.0627 45.4765 78.9681L45.2548 78.3311Z" stroke="white" stroke-width="0.4" mask="url(#path-1-outside-1_17_2621)"/>
<path d="M35.3538 79.9663L35.3537 79.9664H35.5493C35.7972 79.9664 36.0022 79.7755 36.0224 79.5287L36.0224 79.5283L36.1643 77.6843L36.1644 77.6838C36.176 77.5218 36.1037 77.3641 35.9724 77.267L35.9723 77.2669C35.8409 77.1699 35.6712 77.1489 35.5183 77.2065L35.5183 77.2065L35.5168 77.2071L33.2197 78.1143L33.2197 78.1143L33.219 78.1146C33.0751 78.1726 32.9677 78.296 32.9318 78.4478L32.9318 78.4478L32.9317 78.4484C32.8968 78.6006 32.938 78.7593 33.0429 78.8751L33.043 78.8753L33.8937 79.8113L33.8939 79.8115C33.9832 79.9094 34.1101 79.9663 34.2441 79.9663H35.3538ZM35.5536 77.3001C35.6758 77.254 35.8097 77.2712 35.9129 77.3474L35.5536 77.3001ZM35.1597 78.3683L35.1097 79.0182H34.454L34.2051 78.7457L35.1597 78.3683Z" fill="white" stroke="white" stroke-width="0.2"/>
<path d="M27.3423 75.8827H27.2231C27.1781 75.8827 27.1322 75.8757 27.089 75.8626C26.9393 75.8188 26.8222 75.7036 26.7734 75.5585L26.7732 75.558L26.2192 73.8843L27.3423 75.8827ZM27.3423 75.8827L27.3398 75.8683M27.3423 75.8827L27.3398 75.8683M27.3398 75.8683C27.4051 75.8519 27.4671 75.8217 27.5207 75.7781C27.5208 75.778 27.5209 75.7779 27.5209 75.7779L28.7539 74.785L28.754 74.7849C28.9211 74.6497 28.9772 74.4201 28.8901 74.2227L28.89 74.2224L28.2095 72.6912L28.2095 72.6912L28.2093 72.6907C28.1496 72.5583 28.0338 72.4601 27.8927 72.4242L27.3398 75.8683ZM27.4883 72.5078L27.4883 72.5078C27.6035 72.4204 27.7539 72.3889 27.8927 72.4242L27.4883 72.5078ZM27.4883 72.5078L27.4878 72.5082M27.4883 72.5078L27.4878 72.5082M27.4878 72.5082L26.3809 73.3589C26.3809 73.3589 26.3809 73.3589 26.3809 73.3589M27.4878 72.5082L26.3809 73.3589M26.3809 73.3589C26.2202 73.4823 26.1554 73.6919 26.2192 73.8842L26.3809 73.3589ZM27.4583 74.6096L27.2249 73.9054L27.587 73.6269L27.875 74.2746L27.4583 74.6096Z" fill="white" stroke="white" stroke-width="0.2"/>
<path d="M27.7916 73.1773C27.8081 73.1807 27.8245 73.1829 27.8404 73.1842L27.8422 73.186H27.8837C27.9997 73.186 28.1107 73.1439 28.1986 73.0675L28.1986 73.0675L28.1995 73.0667L28.5177 72.7834C28.5178 72.7834 28.5179 72.7833 28.518 72.7832C28.6195 72.694 28.6777 72.5641 28.6777 72.4294V71.3226C28.6777 71.1246 28.5546 70.9482 28.3698 70.8783L28.3699 70.8783L28.3691 70.878C28.1824 70.8091 27.9737 70.8623 27.8448 71.0121C27.8447 71.0122 27.8447 71.0123 27.8446 71.0123L27.2055 71.7497L27.2054 71.7498C27.0812 71.8934 27.0537 72.0986 27.1379 72.2696C27.1379 72.2696 27.1379 72.2697 27.138 72.2697L27.4572 72.9218L27.4572 72.9218L27.4576 72.9225C27.5234 73.0541 27.6466 73.1491 27.7916 73.1773ZM27.7916 73.1773C27.7914 73.1773 27.7912 73.1772 27.7911 73.1772L27.8112 73.0792M27.7916 73.1773C27.7918 73.1773 27.792 73.1774 27.7922 73.1774L27.8112 73.0792M27.8112 73.0792C27.6969 73.0571 27.5992 72.9822 27.547 72.8778L27.8836 73.086C27.8597 73.086 27.8351 73.0841 27.8112 73.0792Z" fill="white" stroke="white" stroke-width="0.2"/>
<path d="M11.3102 39.2174C11.3136 39.2178 11.3169 39.2183 11.3201 39.2187C11.3513 39.2227 11.387 39.2282 11.4081 39.2332L11.4101 39.2337L11.4101 39.2337L13.0531 39.6643L11.3102 39.2174ZM11.3102 39.2174L12.144 37.9735C12.144 37.9735 12.144 37.9735 12.144 37.9735L12.1441 37.9734L12.061 37.9177C12.1378 37.8035 12.1458 37.6555 12.0807 37.5332M11.3102 39.2174L8.19852 40.9866L8.19812 40.9859L8.19813 40.9859C8.0747 40.7648 8.0761 40.4911 8.20597 40.2699L8.20617 40.2695L8.20617 40.2695L9.79573 37.5867L9.79584 37.5865C9.92491 37.3697 10.1595 37.2348 10.4137 37.2348H11.7502C11.9251 37.2348 12.0864 37.3305 12.169 37.4863M12.0807 37.5332L12.169 37.4864C12.169 37.4864 12.169 37.4863 12.169 37.4863M12.0807 37.5332C12.0156 37.4104 11.8884 37.3348 11.7502 37.3348H10.4137C10.195 37.3348 9.99293 37.4509 9.88176 37.6377L12.169 37.4863M12.0807 37.5332L12.1689 37.4862C12.169 37.4862 12.169 37.4863 12.169 37.4863M12.4927 54.4173C12.4929 54.4172 12.4931 54.4172 12.4934 54.4172L12.6269 54.4069M12.4927 54.4173L11.5735 43.8443C11.5804 43.8422 11.5897 43.8421 11.5995 43.8419C11.6073 43.8418 11.6153 43.8417 11.6227 43.8406C11.8168 43.9057 12.3923 44.1876 13.1472 44.6041L15.1556 47.4798L15.4296 50.2979C15.4339 50.3391 15.4652 50.4582 15.483 50.4969M12.4927 54.4173L12.492 54.4173L12.4997 54.517L12.4927 54.4173ZM12.6269 54.4069L12.5057 54.5166L15.9075 54.2547M12.6269 54.4069L15.8511 54.1588M12.6269 54.4069L13.1392 53.9438L13.1397 53.9433C13.3447 53.7555 13.4234 53.474 13.345 53.2075L13.3448 53.2068C13.2644 52.9408 13.0451 52.7477 12.7714 52.7028L12.7713 52.7028L11.123 52.4351L12.8715 50.3743L12.8715 50.3743L12.8726 50.3731C12.9933 50.2261 13.0541 50.0348 13.0355 49.8436L13.0355 49.8438L12.9359 49.8533L13.0355 49.8436L10.8615 38.1816M15.9075 54.2547L17.3367 52.0994M15.9075 54.2547L15.8998 54.155L15.8511 54.1588M15.9075 54.2547L15.8241 54.1995L15.8511 54.1588M17.3367 52.0994L17.2015 51.4679L17.1082 51.5096M17.3367 52.0994L17.2534 52.0442L17.2302 52.0792M17.3367 52.0994L17.239 52.1204L17.2302 52.0792M17.1082 51.5096L17.0868 51.4096L16.6543 51.6031C16.3478 51.7327 15.9867 51.5872 15.8503 51.2948L15.483 50.4969M17.1082 51.5096L16.6952 51.6944L16.6933 51.6953L16.6933 51.6952C16.3365 51.8461 15.9185 51.6775 15.7597 51.3371L15.7595 51.3366L15.3922 50.5387L15.483 50.4969M17.1082 51.5096L17.2302 52.0792M15.483 50.4969L15.3922 50.5387C15.3793 50.5107 15.3651 50.4636 15.3546 50.4241C15.344 50.3842 15.3332 50.3375 15.3301 50.3083L15.33 50.3076L15.0586 47.5156L13.0785 44.6804C12.3552 44.282 11.8081 44.0136 11.609 43.9417L11.5983 43.9419L11.5957 43.942L11.5882 43.9443H11.5735C11.3963 43.9443 11.2321 43.8449 11.151 43.6865L11.1509 43.6862C11.1499 43.6843 11.1489 43.6824 11.1479 43.6804C11.1211 43.6278 11.088 43.563 11.0964 43.4721C11.1043 43.386 11.1478 43.2873 11.2289 43.1508C11.396 42.8691 11.7631 42.3636 12.4945 41.3564L12.5365 41.2986L12.6196 40.5299L11.2039 40.1589L10.3165 40.5555L10.3137 40.5567L10.3137 40.5567C10.1209 40.636 9.89789 40.5801 9.76552 40.4197L9.76503 40.4191L9.76503 40.4191C9.63392 40.2578 9.62169 40.0283 9.7395 39.8548C9.73956 39.8547 9.73963 39.8546 9.73969 39.8545L10.8615 38.1816M10.8615 38.1816H10.5452L9.09201 40.6356L10.8805 43.8237C10.8805 43.8238 10.8806 43.8239 10.8806 43.824C10.9466 43.9403 10.9791 44.0771 10.972 44.2166L10.972 44.2177L10.9719 44.2177L10.8773 45.7533L10.8615 38.1816ZM17.2302 52.0792L15.8511 54.1588M10.5682 53.3088L12.1472 53.5643L11.4703 54.1809L9.33119 55.2089L9.3309 55.209C9.15622 55.2936 9.04854 55.4771 9.06415 55.673C9.07972 55.8685 9.21371 56.0333 9.4008 56.09L9.40106 56.0901L10.9857 56.5655L10.987 56.5659C10.998 56.569 11.0126 56.5722 11.0284 56.5753L11.0165 56.5958H11.1906C11.389 56.5958 11.5801 56.5132 11.7197 56.3728L11.7198 56.3729L11.7222 56.3702L12.6562 55.3609L16.0414 55.1004L16.0421 55.1004C16.2636 55.0818 16.4608 54.9647 16.5828 54.78L18.0777 52.5241L18.0779 52.5238C18.1833 52.3635 18.2213 52.1654 18.1812 51.9786L18.1811 51.9785L17.9803 51.0449L17.9802 51.0447C17.8879 50.6207 17.3998 50.3621 16.9957 50.5375L16.9949 50.5379L16.5303 50.7444L16.2747 50.2012L16.0024 47.3979L16.0024 47.3971C15.9896 47.2755 15.9472 47.1585 15.8787 47.0604C15.8787 47.0604 15.8786 47.0604 15.8786 47.0604L13.844 44.1186L13.844 44.1186L13.8426 44.1166C13.7797 44.0301 13.706 43.9607 13.6142 43.9096C13.0187 43.5712 12.609 43.3566 12.3232 43.2213C12.6038 42.8258 13.0067 42.2679 13.3212 41.8358L13.3212 41.8357C13.3906 41.7403 13.4332 41.6299 13.4494 41.5096L13.4495 41.5088L13.5833 40.4528C13.5833 40.4527 13.5833 40.4525 13.5833 40.4524C13.6303 40.0937 13.4028 39.7557 13.0531 39.6643L10.5682 53.3088ZM10.8451 55.5328L11.4781 55.2286L11.1204 55.6153L10.8451 55.5328ZM12.6774 46.0805C12.6774 46.0804 12.6774 46.0804 12.6774 46.0804L12.6774 46.0805Z" fill="white" stroke="white" stroke-width="0.2"/>
<path d="M5.10009 50.5403C5.20331 50.6515 5.26903 50.793 5.2872 50.9451L5.28723 50.9454C5.3108 51.1468 5.24729 51.3505 5.11331 51.5037L5.11311 51.504L4.11697 52.6359L4.30616 52.8236L7.49791 50.9438L7.31451 49.3775C7.3145 49.3774 7.31448 49.3773 7.31447 49.3772L7.31447 49.3772L7.41379 49.3655L5.10009 50.5403ZM5.10009 50.5403C5.17479 50.4709 5.25862 50.3921 5.35169 50.3044L5.3517 50.3044L5.35234 50.3038C5.48483 50.1767 5.53346 49.9854 5.47507 49.8107C5.41714 49.6349 5.26267 49.5117 5.08099 49.4892L5.0805 49.4892L4.52931 49.4239L4.51137 48.162L5.452 46.8585L7.56006 46.2997L8.02923 47.6103L7.3788 48.9841C7.37876 48.9842 7.37873 48.9842 7.37869 48.9843L5.10009 50.5403ZM4.23642 51.0655L3.2629 52.1708C3.26288 52.1708 3.26286 52.1708 3.26284 52.1708C3.011 52.4556 3.02456 52.8879 3.2943 53.1562L3.29444 53.1563L3.76357 53.6211C3.7636 53.6212 3.76363 53.6212 3.76365 53.6212C3.89913 53.7559 4.0786 53.8296 4.26886 53.8296L4.23642 51.0655ZM3.58789 49.8471C3.58789 50.079 3.75424 50.2744 3.97942 50.314L8.10816 51.6831C8.35371 51.5389 8.49051 51.2628 8.45772 50.9798L8.45773 50.9798L8.45757 50.9786L8.24941 49.3647L8.9309 47.9287L8.93116 47.9282C9.01148 47.7562 9.02122 47.5555 8.95667 47.38C8.95661 47.3799 8.95655 47.3797 8.95648 47.3795L8.38621 45.7848L8.38611 45.7845C8.28341 45.4999 8.01186 45.3088 7.70977 45.3088C7.68667 45.3088 7.64938 45.3124 7.61784 45.3163C7.58653 45.3202 7.54921 45.3258 7.52675 45.3316L7.52646 45.3317L5.13168 45.9619L5.13146 45.962C4.97008 46.0048 4.82907 46.1031 4.73284 46.2357L4.73268 46.2359L3.72515 47.6321C3.72508 47.6322 3.725 47.6323 3.72493 47.6324C3.6349 47.7554 3.58789 47.902 3.58789 48.0542V49.8471ZM4.63602 53.7281L8.10805 51.6832L4.26896 53.8296C4.39794 53.8296 4.52488 53.7947 4.63561 53.7284C4.63575 53.7283 4.63589 53.7282 4.63602 53.7281Z" fill="white" stroke="white" stroke-width="0.2"/>
<mask id="path-7-outside-2_17_2621" maskUnits="userSpaceOnUse" x="21.5195" y="0" width="35" height="46" fill="black">
<rect fill="white" x="21.5195" width="35" height="46"/>
<path d="M33.5477 44.825C33.2952 44.825 33.0704 44.6733 32.9752 44.4405L29.1209 35.0588L28.1019 37.6871C28.0104 37.923 27.7795 38.0815 27.5258 38.0815H24.096C23.9013 38.0815 23.7226 37.9924 23.604 37.8382C23.4861 37.684 23.448 37.4887 23.499 37.3014L25.2783 30.7015L23.6298 31.2574C23.5911 31.2696 23.4738 31.2893 23.4333 31.2893C23.1544 31.2893 22.9087 31.1007 22.8362 30.8305L22.5414 29.7335C22.4867 29.5338 22.5359 29.3195 22.6735 29.1635L26.0671 25.332C26.1279 25.2625 26.2071 25.206 26.2962 25.1692L30.1215 23.6213L29.7641 23.4874C29.5976 23.426 29.4649 23.2927 29.401 23.1238L29.116 22.348C29.011 22.0594 29.1345 21.735 29.4023 21.5901L30.6227 20.9341L34.6656 12.513C34.6736 12.497 34.7006 12.4504 34.7104 12.4356L38.7594 6.58765C38.8055 6.52008 38.8712 6.45743 38.948 6.41075L43.0952 3.88875L47.9488 1.29175C48.0305 1.24753 48.1238 1.22234 48.2184 1.21866L54.2219 1H54.2225C54.5069 1 54.7409 1.16584 54.8281 1.41276L55.0572 2.06199C55.1359 2.2868 55.0781 2.53862 54.9117 2.70508L53.3018 4.31555L52.8749 9.28218L54.3092 10.7164C54.4492 10.8571 54.5137 11.0573 54.4812 11.2526L53.8866 15.0362L55.0788 18.3505C55.1273 18.4826 55.1273 18.6306 55.0782 18.7651L54.3933 20.719L55.1126 24.5573L56.1813 25.8932C56.3545 26.1162 56.3564 26.4257 56.1875 26.6487L51.7196 32.5342C51.6078 32.6823 51.4358 32.7719 51.2491 32.7781L48.3955 32.8862L46.2708 33.6374C46.2309 33.6515 46.1081 33.6724 46.0663 33.6724C45.9263 33.6724 45.7887 33.6239 45.6806 33.5367L43.7125 31.9642C43.5811 31.8586 43.4976 31.702 43.4828 31.5343L43.1014 26.7452C43.0879 26.5793 43.1401 26.4202 43.2476 26.2943L45.9625 23.1366L48.3611 20.2044L46.9398 17.1658L44.6352 17.6388L43.3116 20.4981L42.9406 23.2756C42.9197 23.4402 42.8343 23.5858 42.7016 23.6853L38.5795 26.8307L37.1318 33.5L39.0813 33.2604C39.327 33.2598 39.5021 33.3311 39.6181 33.4631C39.7355 33.5946 39.7907 33.7702 39.7705 33.9447L39.6544 34.9477C39.6274 35.1971 39.4449 35.4084 39.2011 35.4741L37.2884 35.9864L36.6981 42.9597C36.6785 43.1747 36.5538 43.3596 36.3646 43.4572L33.8259 44.7563C33.7424 44.8006 33.6447 44.8251 33.5477 44.8251L33.5477 44.825ZM29.1166 34.0884C29.3685 34.0884 29.5933 34.2389 29.6878 34.4723L33.6128 44.0266L35.9597 42.8258L36.5512 35.834C36.5733 35.5761 36.7558 35.3568 37.0076 35.2892L38.9241 34.7757L39.0113 34.0245L37.0439 34.2659C36.7718 34.2623 36.6047 34.1867 36.4855 34.0399C36.3682 33.8931 36.3234 33.7045 36.3639 33.5203L37.8602 26.6255C37.8927 26.4794 37.9744 26.3528 38.0911 26.2644L42.2071 23.1227L42.5793 20.3629C42.5848 20.3249 42.6155 20.2186 42.6321 20.1836L43.9822 17.2672C44.0651 17.0903 44.2273 16.9607 44.4189 16.9214L46.8906 16.4172C46.9151 16.4116 46.9895 16.4049 47.0146 16.4049C47.2536 16.4049 47.4723 16.5443 47.5736 16.7599L49.0729 19.9662C49.1724 20.1812 49.1405 20.4373 48.9912 20.6197L46.5356 23.6215L43.8515 26.743L44.2231 31.4185L46.091 32.9116L48.1867 32.177C48.2217 32.1647 48.331 32.1438 48.3691 32.142L51.1614 32.0364L55.5316 26.2805L54.4997 24.9667C54.4365 24.8856 54.3947 24.7916 54.3775 24.694L53.6625 20.7906C53.6441 20.6868 53.6509 20.5775 53.6853 20.4774L54.3591 18.5609L53.1755 15.2263C53.1423 15.1323 53.1312 15.0279 53.1472 14.9272L53.732 11.2013L52.302 9.77139C52.1737 9.64302 52.1086 9.46428 52.1233 9.28185L52.56 4.20657C52.5717 4.06284 52.6356 3.92402 52.7412 3.82022L54.3246 2.2368L54.1545 1.75402L48.245 1.969L43.4775 4.53393L39.3364 7.05341L35.3309 12.8578L31.2427 21.3188C31.1874 21.4349 31.0965 21.5301 30.981 21.5928L29.8594 22.1966L30.0848 22.8083L31.2856 23.2592C31.43 23.3138 31.5258 23.4502 31.5277 23.605C31.5295 23.7598 31.4368 23.898 31.2936 23.9563L26.5806 25.8635L23.2841 29.606L23.5273 30.5095L25.2711 29.9211C25.3098 29.9088 25.4277 29.8892 25.4683 29.8892C25.6587 29.8892 25.8417 29.9801 25.959 30.1324C26.0764 30.2866 26.1151 30.4813 26.0641 30.6686L24.2674 37.3324H27.4374L28.5424 34.4811C28.6333 34.244 28.8593 34.0886 29.1167 34.0886L29.1166 34.0884Z"/>
</mask>
<path d="M33.5477 44.825C33.2952 44.825 33.0704 44.6733 32.9752 44.4405L29.1209 35.0588L28.1019 37.6871C28.0104 37.923 27.7795 38.0815 27.5258 38.0815H24.096C23.9013 38.0815 23.7226 37.9924 23.604 37.8382C23.4861 37.684 23.448 37.4887 23.499 37.3014L25.2783 30.7015L23.6298 31.2574C23.5911 31.2696 23.4738 31.2893 23.4333 31.2893C23.1544 31.2893 22.9087 31.1007 22.8362 30.8305L22.5414 29.7335C22.4867 29.5338 22.5359 29.3195 22.6735 29.1635L26.0671 25.332C26.1279 25.2625 26.2071 25.206 26.2962 25.1692L30.1215 23.6213L29.7641 23.4874C29.5976 23.426 29.4649 23.2927 29.401 23.1238L29.116 22.348C29.011 22.0594 29.1345 21.735 29.4023 21.5901L30.6227 20.9341L34.6656 12.513C34.6736 12.497 34.7006 12.4504 34.7104 12.4356L38.7594 6.58765C38.8055 6.52008 38.8712 6.45743 38.948 6.41075L43.0952 3.88875L47.9488 1.29175C48.0305 1.24753 48.1238 1.22234 48.2184 1.21866L54.2219 1H54.2225C54.5069 1 54.7409 1.16584 54.8281 1.41276L55.0572 2.06199C55.1359 2.2868 55.0781 2.53862 54.9117 2.70508L53.3018 4.31555L52.8749 9.28218L54.3092 10.7164C54.4492 10.8571 54.5137 11.0573 54.4812 11.2526L53.8866 15.0362L55.0788 18.3505C55.1273 18.4826 55.1273 18.6306 55.0782 18.7651L54.3933 20.719L55.1126 24.5573L56.1813 25.8932C56.3545 26.1162 56.3564 26.4257 56.1875 26.6487L51.7196 32.5342C51.6078 32.6823 51.4358 32.7719 51.2491 32.7781L48.3955 32.8862L46.2708 33.6374C46.2309 33.6515 46.1081 33.6724 46.0663 33.6724C45.9263 33.6724 45.7887 33.6239 45.6806 33.5367L43.7125 31.9642C43.5811 31.8586 43.4976 31.702 43.4828 31.5343L43.1014 26.7452C43.0879 26.5793 43.1401 26.4202 43.2476 26.2943L45.9625 23.1366L48.3611 20.2044L46.9398 17.1658L44.6352 17.6388L43.3116 20.4981L42.9406 23.2756C42.9197 23.4402 42.8343 23.5858 42.7016 23.6853L38.5795 26.8307L37.1318 33.5L39.0813 33.2604C39.327 33.2598 39.5021 33.3311 39.6181 33.4631C39.7355 33.5946 39.7907 33.7702 39.7705 33.9447L39.6544 34.9477C39.6274 35.1971 39.4449 35.4084 39.2011 35.4741L37.2884 35.9864L36.6981 42.9597C36.6785 43.1747 36.5538 43.3596 36.3646 43.4572L33.8259 44.7563C33.7424 44.8006 33.6447 44.8251 33.5477 44.8251L33.5477 44.825ZM29.1166 34.0884C29.3685 34.0884 29.5933 34.2389 29.6878 34.4723L33.6128 44.0266L35.9597 42.8258L36.5512 35.834C36.5733 35.5761 36.7558 35.3568 37.0076 35.2892L38.9241 34.7757L39.0113 34.0245L37.0439 34.2659C36.7718 34.2623 36.6047 34.1867 36.4855 34.0399C36.3682 33.8931 36.3234 33.7045 36.3639 33.5203L37.8602 26.6255C37.8927 26.4794 37.9744 26.3528 38.0911 26.2644L42.2071 23.1227L42.5793 20.3629C42.5848 20.3249 42.6155 20.2186 42.6321 20.1836L43.9822 17.2672C44.0651 17.0903 44.2273 16.9607 44.4189 16.9214L46.8906 16.4172C46.9151 16.4116 46.9895 16.4049 47.0146 16.4049C47.2536 16.4049 47.4723 16.5443 47.5736 16.7599L49.0729 19.9662C49.1724 20.1812 49.1405 20.4373 48.9912 20.6197L46.5356 23.6215L43.8515 26.743L44.2231 31.4185L46.091 32.9116L48.1867 32.177C48.2217 32.1647 48.331 32.1438 48.3691 32.142L51.1614 32.0364L55.5316 26.2805L54.4997 24.9667C54.4365 24.8856 54.3947 24.7916 54.3775 24.694L53.6625 20.7906C53.6441 20.6868 53.6509 20.5775 53.6853 20.4774L54.3591 18.5609L53.1755 15.2263C53.1423 15.1323 53.1312 15.0279 53.1472 14.9272L53.732 11.2013L52.302 9.77139C52.1737 9.64302 52.1086 9.46428 52.1233 9.28185L52.56 4.20657C52.5717 4.06284 52.6356 3.92402 52.7412 3.82022L54.3246 2.2368L54.1545 1.75402L48.245 1.969L43.4775 4.53393L39.3364 7.05341L35.3309 12.8578L31.2427 21.3188C31.1874 21.4349 31.0965 21.5301 30.981 21.5928L29.8594 22.1966L30.0848 22.8083L31.2856 23.2592C31.43 23.3138 31.5258 23.4502 31.5277 23.605C31.5295 23.7598 31.4368 23.898 31.2936 23.9563L26.5806 25.8635L23.2841 29.606L23.5273 30.5095L25.2711 29.9211C25.3098 29.9088 25.4277 29.8892 25.4683 29.8892C25.6587 29.8892 25.8417 29.9801 25.959 30.1324C26.0764 30.2866 26.1151 30.4813 26.0641 30.6686L24.2674 37.3324H27.4374L28.5424 34.4811C28.6333 34.244 28.8593 34.0886 29.1167 34.0886L29.1166 34.0884Z" fill="white"/>
<path d="M33.5477 44.825C33.2952 44.825 33.0704 44.6733 32.9752 44.4405L29.1209 35.0588L28.1019 37.6871C28.0104 37.923 27.7795 38.0815 27.5258 38.0815H24.096C23.9013 38.0815 23.7226 37.9924 23.604 37.8382C23.4861 37.684 23.448 37.4887 23.499 37.3014L25.2783 30.7015L23.6298 31.2574C23.5911 31.2696 23.4738 31.2893 23.4333 31.2893C23.1544 31.2893 22.9087 31.1007 22.8362 30.8305L22.5414 29.7335C22.4867 29.5338 22.5359 29.3195 22.6735 29.1635L26.0671 25.332C26.1279 25.2625 26.2071 25.206 26.2962 25.1692L30.1215 23.6213L29.7641 23.4874C29.5976 23.426 29.4649 23.2927 29.401 23.1238L29.116 22.348C29.011 22.0594 29.1345 21.735 29.4023 21.5901L30.6227 20.9341L34.6656 12.513C34.6736 12.497 34.7006 12.4504 34.7104 12.4356L38.7594 6.58765C38.8055 6.52008 38.8712 6.45743 38.948 6.41075L43.0952 3.88875L47.9488 1.29175C48.0305 1.24753 48.1238 1.22234 48.2184 1.21866L54.2219 1H54.2225C54.5069 1 54.7409 1.16584 54.8281 1.41276L55.0572 2.06199C55.1359 2.2868 55.0781 2.53862 54.9117 2.70508L53.3018 4.31555L52.8749 9.28218L54.3092 10.7164C54.4492 10.8571 54.5137 11.0573 54.4812 11.2526L53.8866 15.0362L55.0788 18.3505C55.1273 18.4826 55.1273 18.6306 55.0782 18.7651L54.3933 20.719L55.1126 24.5573L56.1813 25.8932C56.3545 26.1162 56.3564 26.4257 56.1875 26.6487L51.7196 32.5342C51.6078 32.6823 51.4358 32.7719 51.2491 32.7781L48.3955 32.8862L46.2708 33.6374C46.2309 33.6515 46.1081 33.6724 46.0663 33.6724C45.9263 33.6724 45.7887 33.6239 45.6806 33.5367L43.7125 31.9642C43.5811 31.8586 43.4976 31.702 43.4828 31.5343L43.1014 26.7452C43.0879 26.5793 43.1401 26.4202 43.2476 26.2943L45.9625 23.1366L48.3611 20.2044L46.9398 17.1658L44.6352 17.6388L43.3116 20.4981L42.9406 23.2756C42.9197 23.4402 42.8343 23.5858 42.7016 23.6853L38.5795 26.8307L37.1318 33.5L39.0813 33.2604C39.327 33.2598 39.5021 33.3311 39.6181 33.4631C39.7355 33.5946 39.7907 33.7702 39.7705 33.9447L39.6544 34.9477C39.6274 35.1971 39.4449 35.4084 39.2011 35.4741L37.2884 35.9864L36.6981 42.9597C36.6785 43.1747 36.5538 43.3596 36.3646 43.4572L33.8259 44.7563C33.7424 44.8006 33.6447 44.8251 33.5477 44.8251L33.5477 44.825ZM29.1166 34.0884C29.3685 34.0884 29.5933 34.2389 29.6878 34.4723L33.6128 44.0266L35.9597 42.8258L36.5512 35.834C36.5733 35.5761 36.7558 35.3568 37.0076 35.2892L38.9241 34.7757L39.0113 34.0245L37.0439 34.2659C36.7718 34.2623 36.6047 34.1867 36.4855 34.0399C36.3682 33.8931 36.3234 33.7045 36.3639 33.5203L37.8602 26.6255C37.8927 26.4794 37.9744 26.3528 38.0911 26.2644L42.2071 23.1227L42.5793 20.3629C42.5848 20.3249 42.6155 20.2186 42.6321 20.1836L43.9822 17.2672C44.0651 17.0903 44.2273 16.9607 44.4189 16.9214L46.8906 16.4172C46.9151 16.4116 46.9895 16.4049 47.0146 16.4049C47.2536 16.4049 47.4723 16.5443 47.5736 16.7599L49.0729 19.9662C49.1724 20.1812 49.1405 20.4373 48.9912 20.6197L46.5356 23.6215L43.8515 26.743L44.2231 31.4185L46.091 32.9116L48.1867 32.177C48.2217 32.1647 48.331 32.1438 48.3691 32.142L51.1614 32.0364L55.5316 26.2805L54.4997 24.9667C54.4365 24.8856 54.3947 24.7916 54.3775 24.694L53.6625 20.7906C53.6441 20.6868 53.6509 20.5775 53.6853 20.4774L54.3591 18.5609L53.1755 15.2263C53.1423 15.1323 53.1312 15.0279 53.1472 14.9272L53.732 11.2013L52.302 9.77139C52.1737 9.64302 52.1086 9.46428 52.1233 9.28185L52.56 4.20657C52.5717 4.06284 52.6356 3.92402 52.7412 3.82022L54.3246 2.2368L54.1545 1.75402L48.245 1.969L43.4775 4.53393L39.3364 7.05341L35.3309 12.8578L31.2427 21.3188C31.1874 21.4349 31.0965 21.5301 30.981 21.5928L29.8594 22.1966L30.0848 22.8083L31.2856 23.2592C31.43 23.3138 31.5258 23.4502 31.5277 23.605C31.5295 23.7598 31.4368 23.898 31.2936 23.9563L26.5806 25.8635L23.2841 29.606L23.5273 30.5095L25.2711 29.9211C25.3098 29.9088 25.4277 29.8892 25.4683 29.8892C25.6587 29.8892 25.8417 29.9801 25.959 30.1324C26.0764 30.2866 26.1151 30.4813 26.0641 30.6686L24.2674 37.3324H27.4374L28.5424 34.4811C28.6333 34.244 28.8593 34.0886 29.1167 34.0886L29.1166 34.0884Z" stroke="white" stroke-width="0.4" mask="url(#path-7-outside-2_17_2621)"/>
<path d="M3.72194 6.70679V6.70681C3.69111 6.70681 3.64218 6.70016 3.60118 6.69318C3.56071 6.68628 3.51252 6.67643 3.48353 6.6661C3.48334 6.66603 3.48315 6.66597 3.48297 6.6659L1.17439 5.86345L1.17408 5.86335C0.843554 5.74723 0.644122 5.4126 0.702606 5.06635L0.702591 5.06644L0.801226 5.08291L0.702625 5.06624L3.72194 6.70679ZM3.72194 6.70679C3.72188 6.70679 3.72182 6.70679 3.72176 6.70679V6.60938M3.72194 6.70679V6.60681L3.72176 6.60938M3.72176 6.60938L3.72176 6.60681C3.72065 6.6068 3.71948 6.60679 3.71827 6.60676L3.71478 6.70655L3.71496 6.70656L3.72176 6.60938ZM0.939612 3.64677L1.03831 3.66282L0.93968 3.64636L0.939647 3.64655C0.939635 3.64663 0.939623 3.6467 0.939612 3.64677ZM3.99526 3.0946L3.91808 3.11544L3.94415 3.21198L4.03271 3.16556C4.02008 3.14145 4.0076 3.1178 3.99526 3.0946ZM6.05483 5.50559C6.05486 5.50558 6.05488 5.50556 6.05491 5.50555C6.23855 5.40304 6.36783 5.22628 6.40872 5.02067C6.45097 4.81444 6.3992 4.60177 6.26992 4.43555L6.26962 4.43516L5.29688 3.19714C5.29683 3.19707 5.29677 3.197 5.29672 3.19693L6.05483 5.50559ZM4.05736 4.05382L4.05736 4.05382L4.05826 4.05358L4.64058 3.89637L5.35618 4.80718L3.69999 5.73714L1.66588 5.02972L1.82969 3.90713C2.26757 3.47753 2.61552 3.16141 2.83274 2.98265C2.92746 3.12575 3.06222 3.35237 3.23694 3.69143L3.23694 3.69143L3.23726 3.69204C3.36131 3.92873 3.60477 4.0773 3.87373 4.0773C3.89683 4.0773 3.93456 4.07339 3.96612 4.06935C3.99767 4.06531 4.03512 4.0596 4.05736 4.05382Z" fill="white" stroke="white" stroke-width="0.2"/>
</svg>
