<svg width="77" height="80" viewBox="0 0 77 80" fill="none" xmlns="http://www.w3.org/2000/svg">
<path d="M11.5713 56.6776C14.0929 56.017 23.9444 53.8219 33.7855 56.8502C38.8265 58.4009 42.8701 58.1533 45.8365 57.9713L45.8457 58.1211L45.8365 57.9713L45.856 57.9702C47.4279 57.874 48.7765 57.7914 49.8605 58.007C50.9104 58.2158 51.7225 58.7061 52.2637 59.722C57.351 55.9769 61.5457 53.3302 64.8235 51.7977C66.4776 51.0244 67.9041 50.532 69.0981 50.3272C70.2262 50.1337 71.1608 50.1947 71.8843 50.5333L71.8867 50.5297L72.0065 50.5932C72.8145 51.0213 73.1949 51.7311 73.369 52.4117C73.5423 53.0892 73.5145 53.7502 73.4996 54.1012C73.4996 54.1012 73.4996 54.1012 73.4996 54.1013L73.3498 54.0949C73.3467 54.1678 73.3443 54.2279 73.3443 54.274C73.3443 54.6699 72.9309 55.3871 67.9844 59.3414C64.8764 61.8262 60.6887 65.0185 56.6245 68.1168L56.486 68.2224L56.3624 68.3166C54.4112 69.8039 52.3994 71.3375 50.54 72.7669L11.5713 56.6776ZM11.5713 56.6776V54.7932C11.5713 53.2878 10.3463 52.0634 8.84145 52.0634H6.29018C4.78471 52.0634 3.56094 53.2884 3.56094 54.7932V74.6497C3.56094 76.1556 4.78462 77.3807 6.29018 77.3807H8.84145C10.3469 77.3807 11.5713 76.1556 11.5713 74.6497V73.0521V56.6776ZM55.9956 67.5815L55.9956 67.5815C59.62 64.8196 63.6845 61.7216 66.8851 59.1831C68.4855 57.9137 69.8683 56.7855 70.8714 55.9099C71.3732 55.4718 71.7779 55.0987 72.0668 54.8038C72.2113 54.6562 72.3249 54.5301 72.4067 54.4267C72.4793 54.3347 72.5192 54.2697 72.5369 54.2289C72.5369 54.2253 72.537 54.2216 72.5371 54.2178L72.5349 54.2178L72.5413 54.0621C72.5547 53.7393 72.5754 53.221 72.455 52.7099C72.3352 52.201 72.08 51.7173 71.5536 51.4384L71.6238 51.3059L71.5536 51.4383C70.736 51.005 69.1631 50.9601 66.1786 52.2238C63.2171 53.4778 58.903 56.0044 52.6309 60.6355C52.6961 60.8517 52.7519 61.0827 52.7993 61.3269M55.9956 67.5815L52.652 61.3555M55.9956 67.5815L55.6781 67.8236C53.7878 69.265 51.8471 70.7449 50.0473 72.1289L50.1387 72.2478M55.9956 67.5815L50.1387 72.2478M52.7993 61.3269L52.652 61.3555M52.7993 61.3269C52.7992 61.3268 52.7992 61.3267 52.7992 61.3266L52.652 61.3555M52.7993 61.3269C53.024 62.4735 52.78 63.4885 52.0664 64.3292M52.652 61.3555C52.8688 62.461 52.6338 63.4289 51.952 64.2322M52.0664 64.3292L51.952 64.2322M52.0664 64.3292C51.3749 65.1447 50.2818 65.7276 48.9979 66.146C47.7114 66.5652 46.2173 66.8243 44.7063 66.9812C41.6866 67.2948 38.5775 67.2025 36.8802 67.1521L36.8763 67.1519M52.0664 64.3292C52.0663 64.3292 52.0663 64.3292 52.0663 64.3293L51.952 64.2322M51.952 64.2322L36.8763 67.1519M36.8763 67.1519L36.8805 67.002L36.876 67.1519C36.8761 67.1519 36.8762 67.1519 36.8763 67.1519ZM50.1387 72.2478L50.0473 72.1289C45.3453 75.7455 41.4413 77.01 38.0934 77.1631C34.7413 77.3164 31.931 76.3571 29.4029 75.4926L29.4025 75.4925M50.1387 72.2478L29.4025 75.4925M29.4025 75.4925L29.1879 75.4197C26.8153 74.6092 22.8667 73.8359 19.2741 73.2339C15.8233 72.6557 12.6894 72.2338 11.5701 72.0875V57.6693C13.5188 57.1359 23.529 54.6975 33.5018 57.7653L33.5459 57.6219M29.4025 75.4925L33.5459 57.6219M33.5459 57.6219L33.5018 57.7653C38.7061 59.3657 42.8609 59.1118 45.8828 58.9271L45.8931 58.9265L45.884 58.7768L45.8931 58.9265C47.5432 58.8254 48.791 58.7502 49.7261 58.9552C50.1887 59.0566 50.5663 59.2253 50.8741 59.4883C51.1769 59.7472 51.4211 60.1051 51.6088 60.6016L33.5459 57.6219ZM36.9044 66.1963L36.9043 66.1963L36.8999 66.3463L36.9047 66.1963C36.9046 66.1963 36.9045 66.1963 36.9044 66.1963ZM51.3372 63.7114L51.4516 63.8084L51.3372 63.7113C51.3372 63.7114 51.3372 63.7114 51.3372 63.7114ZM10.6138 74.6507C10.6138 75.6291 9.81822 76.4242 8.84098 76.4242H6.28972C5.31262 76.4242 4.51811 75.6287 4.51811 74.6507V54.7942C4.51811 53.8168 5.31263 53.0213 6.28972 53.0213H8.84098C9.81824 53.0213 10.6138 53.817 10.6138 54.7942V74.6507Z" fill="white" stroke="white" stroke-width="0.3"/>
<path d="M30.3745 44.981C30.4303 44.8067 30.58 44.6802 30.7609 44.6537L30.7611 44.6537L35.8366 43.9164L38.1064 39.3175L38.1066 39.3171C38.187 39.1555 38.3529 39.0511 38.5354 39.0511C38.7173 39.0511 38.8835 39.1537 38.9648 39.3171L38.965 39.3175L41.2342 43.9164L46.3097 44.6537L46.3113 44.6539L46.3113 44.6539C46.4522 44.676 46.5751 44.7579 46.6483 44.8768H46.6623L46.6961 44.9802C46.7528 45.154 46.7055 45.3433 46.5753 45.4709L46.575 45.4712L42.9017 49.0512L43.7692 54.1054C43.7692 54.1056 43.7693 54.1058 43.7693 54.1061C43.8012 54.2865 43.725 54.4671 43.5798 54.5738L43.5798 54.5738C43.4956 54.6356 43.3961 54.6654 43.2979 54.6654C43.2203 54.6654 43.1448 54.6465 43.0752 54.61L43.0751 54.61L38.5354 52.2235L33.9965 54.6095C33.9964 54.6096 33.9962 54.6097 33.9961 54.6098C33.8358 54.695 33.6391 54.6804 33.4926 54.5745L33.4916 54.5738C33.3454 54.4663 33.272 54.2869 33.3019 54.1071L33.302 54.1064L34.1685 49.0513L30.4952 45.4712L30.4942 45.4702C30.3659 45.3428 30.3189 45.1541 30.3745 44.981ZM30.3745 44.981C30.3745 44.981 30.3745 44.9809 30.3745 44.9809L30.5173 45.0268L30.3745 44.9811C30.3745 44.9811 30.3745 44.981 30.3745 44.981ZM42.0541 48.54L42.0542 48.5399L45.2122 45.4618L40.8475 44.8273L40.8471 44.8273C40.6918 44.8043 40.5571 44.707 40.4873 44.5646L38.5357 40.6099L36.5842 44.5646C36.5842 44.5647 36.5841 44.5647 36.5841 44.5648L36.584 44.5649L36.4495 44.4986L42.0541 48.54ZM42.0541 48.54C41.9407 48.6507 41.8905 48.8092 41.9169 48.9639L41.917 48.9641M42.0541 48.54L41.917 48.9641M41.917 48.9641L42.6628 53.3116M41.917 48.9641L42.6628 53.3116M42.6628 53.3116L38.7581 51.2588L38.7581 51.2588C38.6185 51.1855 38.4528 51.1855 38.3132 51.2588L38.3131 51.2588L34.4085 53.3116L35.1543 48.9641L35.1543 48.9639C35.1808 48.8084 35.1288 48.6499 35.0176 48.5404L35.017 48.5399L31.8583 45.4618L42.6628 53.3116Z" fill="white" stroke="white" stroke-width="0.3"/>
<path d="M58.084 40.3666L58.0844 40.3666C58.2259 40.3876 58.3484 40.47 58.422 40.5885H58.4373L58.4701 40.6913L58.4706 40.6928C58.5266 40.8677 58.4772 41.0562 58.346 41.1831C58.3459 41.1832 58.3459 41.1832 58.3458 41.1833L55.4501 44.0052L56.1337 47.9903C56.1337 47.9905 56.1337 47.9907 56.1338 47.991C56.1657 48.1714 56.0895 48.3519 55.9443 48.4586L55.9433 48.4594C55.7959 48.5659 55.6008 48.5787 55.4405 48.495L55.4401 48.4948L51.8621 46.6129L48.283 48.4945C48.2828 48.4946 48.2827 48.4947 48.2825 48.4948C48.2119 48.5322 48.1354 48.5497 48.0596 48.5497C47.9602 48.5497 47.8627 48.5186 47.78 48.4604L47.778 48.4589L47.778 48.4589C47.63 48.3508 47.5588 48.1707 47.5886 47.9919L47.5887 47.9913L48.2718 44.0052L45.377 41.1829C45.377 41.1829 45.377 41.1829 45.377 41.1829L45.3769 41.1829L45.4816 41.0754C45.3911 40.9874 45.3584 40.8575 45.3978 40.7385L58.084 40.3666ZM58.084 40.3666L54.0813 39.7853L52.2921 36.1593C52.2921 36.1591 52.292 36.159 52.2919 36.1588C52.2116 35.9942 52.0447 35.8921 51.8628 35.8921C51.6802 35.8921 51.5146 35.9965 51.4337 36.1575L51.4332 36.1585L49.643 39.7853L45.6416 40.3666L45.6414 40.3666C45.4613 40.393 45.3114 40.5181 45.2552 40.6919L58.084 40.3666ZM54.6043 43.4952L54.6045 43.495L56.9875 41.1741L53.6971 40.6957C53.697 40.6957 53.6969 40.6957 53.6968 40.6957L53.6966 40.6957L53.7181 40.5472C53.6113 40.5321 53.519 40.4647 53.471 40.3681L54.6043 43.4952ZM54.6043 43.4952C54.4916 43.6053 54.4399 43.7636 54.4672 43.919C54.4673 43.9191 54.4673 43.9193 54.4673 43.9195L55.0296 47.1966L52.0868 45.6498C52.0867 45.6498 52.0866 45.6497 52.0865 45.6497C51.9475 45.5759 51.7804 45.5763 51.6412 45.6495L51.6412 45.6495L48.6978 47.1966L49.2602 43.9187L49.2602 43.9186C49.2869 43.7632 49.2344 43.6056 49.1239 43.496L49.1229 43.495L46.7413 41.1741L50.0318 40.6957L50.0321 40.6956C50.1873 40.6727 50.3217 40.5756 50.3917 40.4349L50.3918 40.4345L51.865 37.4515L54.6043 43.4952Z" fill="white" stroke="white" stroke-width="0.3"/>
<path d="M59.488 44.1427L59.4879 44.1432C59.4578 44.3218 59.5312 44.5026 59.6775 44.6101L59.6787 44.6109C59.7614 44.6706 59.8609 44.7012 59.9594 44.7012C60.0352 44.7012 60.1114 44.6835 60.1822 44.6463L60.1822 44.6463L63.7615 42.7643L67.3395 44.6463L67.3405 44.6468C67.5015 44.7299 67.6951 44.7175 67.8427 44.6108L67.8437 44.6101C67.9889 44.5034 68.0651 44.3221 68.0331 44.1422C68.0331 44.142 68.0331 44.1418 68.033 44.1416L67.3495 40.1567L70.2452 37.3348C70.2453 37.3347 70.2454 37.3346 70.2455 37.3345C70.3767 37.2075 70.423 37.0174 70.3676 36.8442L70.3676 36.8442L70.3671 36.8427C70.3099 36.6702 70.1608 36.5446 69.9814 36.5181L69.981 36.5181L65.9783 35.9356L64.1891 32.3107C64.189 32.3106 64.189 32.3105 64.1889 32.3103C64.1086 32.1457 63.9417 32.0436 63.7598 32.0436C63.5756 32.0436 63.4114 32.1483 63.3307 32.309L63.3302 32.31L61.54 35.9356L57.5385 36.5181L57.5384 36.5181C57.3582 36.5444 57.2083 36.6696 57.1522 36.8434C57.0947 37.0175 57.1431 37.2077 57.2741 37.3345C57.2742 37.3346 57.2743 37.3347 57.2743 37.3348L60.1717 40.1567L59.488 44.1427ZM61.93 36.8472L61.9305 36.8471C62.0846 36.8242 62.2202 36.7273 62.2897 36.5844C62.2898 36.5842 62.2898 36.584 62.2899 36.5838L63.7627 33.6028L65.2342 36.5848L65.2342 36.5848L65.2347 36.5858C65.3048 36.7251 65.4375 36.8232 65.593 36.847L65.5942 36.8472L68.8853 37.3256L66.5037 39.6472L66.5036 39.6473C66.3902 39.758 66.3399 39.9164 66.3664 40.0708L66.3664 40.0708L66.9289 43.3487L63.9854 41.8016L63.9854 41.8016L63.9834 41.8006C63.9163 41.7666 63.841 41.7468 63.7632 41.7468C63.685 41.7468 63.6097 41.7665 63.5425 41.8006L63.5424 41.8006L63.5404 41.8016L60.597 43.3487L61.1594 40.0708L61.1594 40.0708C61.1861 39.9153 61.1336 39.7577 61.0231 39.6481L61.0222 39.6472L58.6405 37.3256L61.93 36.8472Z" fill="white" stroke="white" stroke-width="0.3"/>
<path d="M27.9508 43.4952L27.9509 43.495L30.3323 41.1741L27.0423 40.6957C27.0422 40.6957 27.0421 40.6957 27.042 40.6957L27.0418 40.6957L27.0634 40.5472C26.9565 40.5321 26.8642 40.4647 26.8163 40.3681L27.9508 43.4952ZM27.9508 43.4952C27.8375 43.6058 27.7872 43.7642 27.8137 43.9186L27.8137 43.9187L28.3761 47.1966L25.4326 45.6495L25.4327 45.6495L25.4306 45.6484C25.3634 45.6144 25.2881 45.5946 25.2099 45.5946C25.1325 45.5946 25.0563 45.6143 24.989 45.6488L24.989 45.6488L24.9877 45.6495L22.0442 47.1966L22.6067 43.9187L22.6067 43.9186C22.6333 43.7632 22.5808 43.6056 22.4704 43.496L22.4694 43.495L20.0878 41.1741L23.3783 40.6957L23.3786 40.6956C23.5338 40.6727 23.6682 40.5756 23.7381 40.4349L23.7383 40.4345L25.2097 37.4516L27.9508 43.4952ZM31.4294 40.3666L31.4292 40.3666L27.4278 39.7853L25.6382 36.1585L25.638 36.1581C25.5568 35.9947 25.3905 35.8921 25.2087 35.8921C25.0261 35.8921 24.8602 35.9965 24.7799 36.1581L24.7797 36.1585L22.9901 39.7853L18.9887 40.3666L18.9884 40.3666C18.8086 40.3931 18.6591 40.5184 18.6024 40.6916C18.5445 40.8665 18.5944 41.0553 18.7218 41.1819L18.7228 41.1829L21.6189 44.0052L20.9358 47.9913L20.9357 47.9919C20.9057 48.1717 20.9792 48.3512 21.1254 48.4586L21.1254 48.4587L21.1278 48.4604C21.2104 48.5186 21.3079 48.5497 21.4073 48.5497C21.4825 48.5497 21.5595 48.5323 21.6303 48.4947C21.6304 48.4947 21.6306 48.4946 21.6307 48.4945L25.2094 46.6129L28.7887 48.4948L28.7891 48.495C28.9496 48.5788 29.1443 48.5656 29.2923 48.4598L29.2923 48.4599L29.294 48.4586C29.4403 48.3511 29.5137 48.1703 29.4836 47.9917L29.4835 47.9912L28.7998 44.0052L31.696 41.1829L31.696 41.1829L31.6973 41.1815C31.8247 41.0541 31.8716 40.8664 31.8161 40.6928L31.7828 40.5885H31.7679C31.6946 40.4695 31.5714 40.3874 31.4294 40.3666Z" fill="white" stroke="white" stroke-width="0.3"/>
<path d="M19.6902 37.2269C19.7801 37.1401 19.8123 37.0096 19.774 36.8899C19.7358 36.7709 19.6319 36.6847 19.5087 36.6665L16.7376 40.1043L19.6902 37.2269ZM19.6902 37.2269L19.7945 37.3348M19.6902 37.2269L16.8988 40.1567M16.8988 40.1567L17.5825 44.1427L17.5826 44.143C17.6127 44.3211 17.5393 44.5025 17.3929 44.6101L17.392 44.6108C17.2446 44.7173 17.0495 44.7302 16.8892 44.6465L16.8888 44.6463L13.3095 42.7643L9.73088 44.646C9.73073 44.646 9.73059 44.6461 9.73045 44.6462C9.65966 44.6837 9.58262 44.7012 9.50746 44.7012C9.40891 44.7012 9.30944 44.6706 9.2267 44.6109L9.22554 44.6101C9.07923 44.5026 9.00586 44.3218 9.03592 44.1432L9.036 44.1427L9.71969 40.1566L6.82511 37.3344C6.82508 37.3344 6.82505 37.3344 6.82502 37.3343C6.82501 37.3343 6.825 37.3343 6.82499 37.3343C6.69423 37.207 6.64752 37.017 6.70312 36.844L6.70333 36.8434C6.75993 36.67 6.90947 36.5446 7.08942 36.5181L7.08964 36.5181L11.0911 35.9356L12.8807 32.31L12.8809 32.3096C12.9613 32.1478 13.1279 32.0436 13.3097 32.0436C13.49 32.0436 13.6584 32.1454 13.7388 32.3103C13.7389 32.3105 13.7389 32.3106 13.739 32.3107L15.5288 35.9356L19.5303 36.5181L19.5306 36.5181C19.7092 36.5445 19.8607 36.6695 19.9168 36.844L19.9169 36.8442C19.9722 37.0174 19.926 37.2075 19.7947 37.3346C19.7946 37.3346 19.7945 37.3347 19.7945 37.3348M16.8988 40.1567L19.7945 37.3348M16.8988 40.1567L19.7945 37.3348M11.4781 36.8472L11.4784 36.8471L11.7036 36.5184L11.8381 36.5848L11.8382 36.5846C11.8382 36.5846 11.8382 36.5845 11.8383 36.5845L13.3095 33.6029L14.7816 36.5848L14.7817 36.5852C14.8515 36.7255 14.9854 36.8232 15.1404 36.847L15.1416 36.8472L18.4321 37.3256L16.0504 39.6472L16.0503 39.6473C15.937 39.758 15.8867 39.9164 15.9132 40.0708L15.9132 40.0708L16.4756 43.3487L13.5322 41.8016L13.5322 41.8016L13.5301 41.8006C13.4629 41.7665 13.3876 41.7468 13.3094 41.7468C13.2319 41.7468 13.156 41.7665 13.0886 41.8006L13.0886 41.8006L13.0866 41.8016L10.1438 43.3487L10.7062 40.0708L10.7062 40.0708C10.7329 39.9153 10.6804 39.7577 10.5699 39.6481L10.5689 39.6472L8.18727 37.3256L11.4781 36.8472Z" fill="white" stroke="white" stroke-width="0.3"/>
<path d="M38.5364 36.8487C48.1862 36.8487 56.0357 28.9991 56.0357 19.3494C56.0357 9.6995 48.1861 1.85 38.5364 1.85C28.8865 1.85 21.037 9.70029 21.037 19.3494C21.037 28.9992 28.8873 36.8487 38.5364 36.8487ZM38.5364 2.80593C47.6575 2.80593 55.0798 10.2269 55.0798 19.3494C55.0798 28.4704 47.6576 35.8913 38.5364 35.8913C29.4151 35.8913 21.9945 28.4703 21.9945 19.3494C21.9939 10.227 29.4154 2.80593 38.5364 2.80593Z" fill="white" stroke="white" stroke-width="0.3"/>
<path d="M27.5755 19.9415L27.5755 19.9415C27.763 19.7558 28.0652 19.7551 28.2522 19.942L34.3749 26.0635L48.8194 11.6191C49.006 11.4324 49.3099 11.4324 49.4966 11.6191V11.6191M27.5755 19.9415L49.4966 11.6191M27.5755 19.9415L27.575 19.942C27.388 20.129 27.3887 20.4313 27.5745 20.6188L27.575 20.6193L34.0363 27.0793C34.0363 27.0793 34.0363 27.0793 34.0363 27.0794C34.1298 27.1728 34.2521 27.2198 34.3749 27.2198C34.4978 27.2198 34.6201 27.1728 34.7135 27.0793L34.6075 26.9733L34.7136 27.0793L49.4966 12.2963C49.6833 12.1096 49.6833 11.8058 49.4966 11.6191M27.5755 19.9415L49.4966 11.6191" fill="white" stroke="white" stroke-width="0.3"/>
</svg>
