<svg width="79" height="80" viewBox="0 0 79 80" fill="none" xmlns="http://www.w3.org/2000/svg">
<g clip-path="url(#clip0_17_2374)">
<path d="M8.88344 11.774V69.3343L0.597418 69.3338C0.228006 69.3338 -0.05 69.6251 -0.05 69.9812V73.2718C-0.05 76.4562 2.54376 79.05 5.72816 79.05H54.9298C58.8084 79.05 61.9512 75.8953 61.9512 72.0286V60.403H77.1851C77.5546 60.403 77.8326 60.1117 77.8326 59.7556L77.832 19.2691C77.832 18.9005 77.5426 18.6098 77.1851 18.6098H77.1627L77.1625 18.61H61.951V11.774C61.951 11.4046 61.6597 11.1266 61.3036 11.1266H37.8656C37.7086 8.57191 36.6687 6.06868 34.7342 4.12155L34.6987 4.15679L34.7342 4.12154C32.7013 2.07662 29.9707 0.95 27.081 0.95C24.1917 0.95 21.4732 2.07665 19.4283 4.12144L19.4282 4.12155C17.5417 6.02001 16.4533 8.47571 16.2967 11.1266H9.53086C9.16145 11.1266 8.88344 11.4178 8.88344 11.774ZM33.8096 5.04517L33.8097 5.04529C37.5192 8.75486 37.5193 14.7932 33.8096 18.5148L33.8095 18.5149C32.0154 20.3215 29.6153 21.3033 27.081 21.3033C24.5349 21.3033 22.1466 20.3091 20.3523 18.5148C18.5455 16.708 17.5638 14.3203 17.5638 11.7861C17.5638 9.25174 18.5462 6.8396 20.3522 5.04555L20.3669 5.03088V5.03068C22.1719 3.23325 24.5536 2.25679 27.081 2.25679C29.6272 2.25679 32.0274 3.25105 33.8096 5.04517ZM49.9711 77.0127C50.251 77.2926 50.5406 77.535 50.8561 77.756L5.72946 77.7567C3.25855 77.7567 1.25808 75.7562 1.25808 73.2853L1.25754 70.6415H47.9091V72.0295C47.9091 73.8957 48.6458 75.6507 49.9706 77.0123L49.9711 77.0127ZM19.4276 19.4271L19.4279 19.4273C21.4725 21.4593 24.1909 22.5986 27.0804 22.5986C29.9697 22.5986 32.7007 21.46 34.7331 19.4272C36.6803 17.4799 37.7084 14.9766 37.8646 12.422H60.6439V18.6106L45.3988 18.6111C45.042 18.6111 44.7514 18.9017 44.7514 19.2585V59.7464C44.7514 60.1164 45.0553 60.3938 45.3988 60.3938H60.6439L60.6448 72.0295C60.6448 75.1827 58.0832 77.7567 54.9176 77.7567C53.4075 77.7567 51.9697 77.1647 50.8821 76.1017C49.7942 74.9893 49.1904 73.5518 49.1904 72.0297V69.9943C49.1904 69.6249 48.8991 69.3468 48.543 69.3468L10.1777 69.3474V12.422H16.2961C16.4534 15.0729 17.5411 17.5286 19.4276 19.4271ZM76.5256 59.0972H46.0472V19.9169H61.2923H61.3168H76.5256V59.0972Z" fill="white" stroke="white" stroke-width="0.1"/>
<path d="M72.9798 23.4001H49.4822C49.1128 23.4001 48.8348 23.6914 48.8348 24.0475V31.9204C48.8348 32.2772 49.1254 32.5678 49.4822 32.5678H72.9798C73.3499 32.5678 73.6273 32.2639 73.6273 31.9204V24.0484C73.6398 23.6896 73.3472 23.4001 72.9798 23.4001ZM72.3324 31.273H50.141V24.7063H72.3324V31.273Z" fill="white" stroke="white" stroke-width="0.1"/>
<path d="M58.4997 40.8189C58.8432 40.8189 59.1471 40.5415 59.1471 40.1715C59.1471 39.8008 58.8432 39.524 58.4997 39.524H55.3319V36.3688C55.3319 36.0126 55.0539 35.7214 54.6845 35.7214C54.341 35.7214 54.0371 35.9987 54.0371 36.3688V39.524H50.8818C50.5257 39.524 50.2344 39.802 50.2344 40.1715C50.2344 40.5276 50.5124 40.8189 50.8818 40.8189H54.0371V43.9741C54.0371 44.3309 54.3277 44.6215 54.6845 44.6215C55.0407 44.6215 55.3319 44.3435 55.3319 43.9741V40.8189H58.4997Z" fill="white" stroke="white" stroke-width="0.1"/>
<path d="M57.611 52.6638C57.9672 52.6638 58.2584 52.3858 58.2584 52.0164C58.2584 51.6628 57.9827 51.3564 57.6102 51.3689H51.761C51.4042 51.3689 51.1136 51.6596 51.1136 52.0164C51.1136 52.3725 51.3916 52.6638 51.761 52.6638H57.611Z" fill="white" stroke="white" stroke-width="0.1"/>
<path d="M71.7694 43.5716L71.7695 43.5717L71.7722 43.569C72.0218 43.3064 72.0231 42.8979 71.7714 42.6461C71.7714 42.6461 71.7713 42.646 71.7713 42.646L69.3201 40.1712L71.7952 37.696C72.0466 37.4447 72.0466 37.0354 71.7952 36.7841C71.532 36.5208 71.1347 36.5208 70.8714 36.7841L68.3964 39.2475L65.9218 36.7845C65.6705 36.5208 65.2609 36.5207 65.0095 36.7841C64.7461 37.0355 64.7462 37.4452 65.01 37.6964L67.4845 40.171L65.01 42.6456C64.7454 42.8976 64.7469 43.3072 65.0095 43.5699C65.1289 43.6892 65.2879 43.7553 65.4595 43.7553C65.6185 43.7553 65.7897 43.6896 65.9094 43.5699L68.3844 41.0948L70.8594 43.5699C70.9791 43.6896 71.1504 43.7553 71.3094 43.7553C71.4689 43.7553 71.6389 43.6893 71.7694 43.5716Z" fill="white" stroke="white" stroke-width="0.1"/>
<path d="M71.31 50.9464C71.6668 50.9464 71.9574 50.6557 71.9574 50.299C71.9574 49.9295 71.6661 49.6515 71.31 49.6515H65.46C65.1165 49.6515 64.8125 49.9289 64.8125 50.299C64.8125 50.6431 65.1025 50.9464 65.46 50.9464H71.31Z" fill="white" stroke="white" stroke-width="0.1"/>
<path d="M71.31 55.4189C71.6661 55.4189 71.9574 55.1409 71.9574 54.7715C71.9574 54.4147 71.6668 54.1241 71.31 54.1241H65.46C65.1158 54.1241 64.8125 54.414 64.8125 54.7715C64.8125 55.1283 65.1032 55.4189 65.46 55.4189H71.31Z" fill="white" stroke="white" stroke-width="0.1"/>
<path d="M55.5506 49.7877H55.5521L54.7219 48.97V48.92L54.7218 48.92L54.7099 48.92C54.2432 48.92 53.8797 49.2954 53.8797 49.7377C53.8797 50.2059 54.2692 50.5679 54.7219 50.5679C55.1472 50.5679 55.5241 50.2305 55.5506 49.7877Z" fill="white" stroke="white" stroke-width="0.1"/>
<path d="M55.5505 54.334H55.5521V54.284C55.5521 53.8293 55.1636 53.4537 54.7219 53.4537H54.7099C54.2422 53.4537 53.8797 53.8428 53.8797 54.284C53.8797 54.7401 54.2698 55.1017 54.7219 55.1017C55.1463 55.1017 55.5233 54.7659 55.5505 54.334Z" fill="white" stroke="white" stroke-width="0.1"/>
<path d="M23.9328 15.845L23.9328 15.845L23.9347 15.8432L30.5153 9.25062C30.7686 9.01009 30.7659 8.58891 30.5168 8.32701L30.5168 8.327L30.5159 8.32611C30.2646 8.07479 29.8554 8.07479 29.6041 8.32611L23.0108 14.9194C22.759 15.1712 22.7603 15.5798 23.0099 15.8423L23.0098 15.8424L23.0127 15.845C23.1439 15.9634 23.3267 16.0287 23.4847 16.0287C23.6451 16.0287 23.8031 15.962 23.9328 15.845Z" fill="white" stroke="white" stroke-width="0.1"/>
<path d="M25.5219 8.94635V8.89635H25.5208C25.4935 8.25698 24.9471 7.70212 24.2885 7.71404H24.277C23.5788 7.71404 23.0328 8.28521 23.0328 8.94635C23.0328 9.63364 23.6049 10.1787 24.2896 10.1787C24.9627 10.1787 25.5219 9.63266 25.5219 8.94635Z" fill="white" stroke="white" stroke-width="0.1"/>
<path d="M31.176 14.651H31.1771V14.601C31.1771 13.9034 30.6309 13.3564 29.9324 13.3687H29.9208C29.2226 13.3687 28.6885 13.9153 28.6885 14.601C28.6885 15.2624 29.2468 15.8333 29.9328 15.8333C30.6134 15.8333 31.1493 15.2906 31.176 14.651Z" fill="white" stroke="white" stroke-width="0.1"/>
<path d="M17.4466 46.39C17.4521 46.3845 17.4576 46.3789 17.4632 46.3733C17.4633 46.3732 17.4634 46.3731 17.4635 46.373L17.4283 46.3379L17.4281 51.5174C16.7333 50.8225 16.3557 49.9085 16.3557 48.9335C16.3557 47.9634 16.7205 47.0637 17.3928 46.3735L17.4243 46.412L17.4466 46.39ZM17.4466 46.39L17.4634 46.3735C18.1488 45.7 19.0383 45.3157 20.0116 45.328V45.328H20.0122C21.0097 45.328 21.9111 45.7368 22.5605 46.3979L22.5604 46.398L22.5614 46.3989C23.2345 47.0479 23.631 47.9489 23.631 48.9468C23.631 49.2903 23.9084 49.5942 24.2785 49.5942C24.6226 49.5942 24.9259 49.3043 24.9259 48.9468C24.9259 46.4613 23.0643 44.4274 20.6602 44.1008M17.4466 46.39C16.772 47.0733 16.4057 47.9678 16.4057 48.9335C16.4057 49.8953 16.778 50.7966 17.4635 51.4821C18.1365 52.1551 19.0504 52.5398 20.012 52.5398H20.0132L20.0132 52.5399C22.637 52.6015 24.7423 54.7937 24.7423 57.4529C24.7423 58.7578 24.2376 59.9892 23.3017 60.9253C22.5725 61.6545 21.6523 62.0952 20.6596 62.2726M20.6602 44.1008L20.6596 62.2306V62.2726M20.6602 44.1008V42.0847C20.6602 41.7412 20.3829 41.4373 20.0128 41.4373C19.6693 41.4373 19.3654 41.7147 19.3654 42.0847V44.1008C18.3114 44.2432 17.3303 44.6965 16.5524 45.4744L16.5524 45.4744C15.6288 46.3981 15.1242 47.6295 15.1242 48.9468C15.1242 50.2643 15.6289 51.4836 16.5521 52.419L16.5524 52.4192C17.4759 53.3426 18.719 53.8471 20.0116 53.8473C21.9089 53.8959 23.4601 55.5056 23.4601 57.4536C23.4601 58.4148 23.0756 59.3164 22.4022 60.0023C21.7168 60.6876 20.8156 61.0599 19.8419 61.0599C18.8443 61.0599 17.943 60.6511 17.2936 59.9899L17.293 59.9893C16.6321 59.3402 16.2356 58.439 16.2356 57.4411C16.2356 57.0969 15.9456 56.7936 15.5881 56.7936C15.2313 56.7936 14.9407 57.0843 14.9407 57.4411C14.9407 59.987 16.8873 62.0575 19.3647 62.3124M20.6602 44.1008L19.3647 62.3124M20.6596 62.2726V64.3025C20.6596 64.6719 20.3683 64.9499 20.0122 64.9499C19.6428 64.9499 19.3647 64.6586 19.3647 64.3025V62.3124M20.6596 62.2726L19.3647 62.3124" fill="white" stroke="white" stroke-width="0.1"/>
<path d="M36.004 48.4445H40.78H40.7821L40.7821 48.4445C41.1015 48.4576 41.4035 48.7473 41.4035 49.1039V49.1489L41.4018 49.1491C41.3783 49.4963 41.0853 49.7513 40.7559 49.7513H35.9799V53.1992C35.9799 53.5693 35.676 53.8466 35.3325 53.8466C34.9631 53.8466 34.6851 53.5554 34.6851 53.1992V49.7513H29.9091C29.5397 49.7513 29.2617 49.46 29.2617 49.1039C29.2617 48.7345 29.553 48.4565 29.9091 48.4565H34.6851V44.8274H29.9091C29.5397 44.8274 29.2617 44.5361 29.2617 44.18C29.2617 43.8232 29.5523 43.5325 29.9091 43.5325H34.6851L34.6856 42.0856L29.3549 33.3225L29.3549 33.3225L29.3976 33.2965C29.2268 33.0163 29.3122 32.6507 29.6049 32.4798L36.004 48.4445ZM36.004 48.4445V44.8154H40.78C41.1242 44.8154 41.4274 44.5254 41.4274 44.168C41.4274 43.8112 41.1368 43.5206 40.78 43.5206H36.004V42.0855L41.3224 33.3231C41.521 33.0179 41.4138 32.6218 41.1115 32.4373C40.7952 32.2395 40.3988 32.3453 40.2139 32.6486L40.2139 32.6486L35.3451 40.6586L30.4763 32.6486L30.4763 32.6486L30.4755 32.6473C30.2795 32.3469 29.8844 32.2386 29.5787 32.4373L36.004 48.4445Z" fill="white" stroke="white" stroke-width="0.1"/>
</g>
<defs>
<clipPath id="clip0_17_2374">
<rect width="78" height="80" fill="white" transform="translate(0.25)"/>
</clipPath>
</defs>
</svg>
