<svg width="69" height="82" viewBox="0 0 69 82" fill="none" xmlns="http://www.w3.org/2000/svg">
<path d="M37.1796 56.8318L37.1797 56.8318C37.285 56.1807 37.3764 55.5762 37.4619 55.0099C37.7564 53.0613 37.9827 51.5637 38.4783 50.1677C39.1207 48.3583 40.2138 46.7206 42.4758 44.4742L42.476 44.4739C43.02 43.9376 43.5734 43.3695 44.133 42.795C45.2691 41.6287 46.4305 40.4364 47.5894 39.4322L47.5896 39.432C47.947 39.1242 48.3326 38.9636 48.6812 38.9469C49.0311 38.9301 49.3449 39.0594 49.5395 39.33C49.7329 39.5991 49.796 39.9903 49.685 40.4746C49.574 40.9591 49.2876 41.5451 48.7687 42.2189L48.7682 42.2196L44.9887 47.0413C44.9886 47.0414 44.9886 47.0415 44.9885 47.0416C44.7154 47.3961 44.603 47.6926 44.594 47.9261C44.5852 48.1552 44.6754 48.3323 44.8303 48.4583C45.1486 48.7172 45.758 48.7696 46.3587 48.5196C47.5238 48.0276 49.4766 46.7355 51.3424 45.3231C53.2079 43.911 54.9705 42.3909 55.7584 41.4494C56.4615 40.6058 56.7512 39.7939 57.1015 38.8068C57.3321 38.1217 57.569 37.3757 57.8135 36.6056C58.4691 34.5413 59.1797 32.3037 59.9699 30.601L59.97 30.6007C60.221 30.0643 60.5483 29.7058 60.8974 29.5328C61.2501 29.358 61.6201 29.3761 61.9317 29.5854C62.2396 29.7922 62.4785 30.1768 62.5988 30.7132C62.7193 31.2506 62.7229 31.9479 62.5537 32.7953L37.1796 56.8318ZM37.1796 56.8318L37.1792 56.835L36.2878 63.7441L36.286 63.7447L36.2784 63.8067L36.2753 63.8314C36.2352 64.154 36.2031 64.4125 36.1961 64.6154C36.189 64.8212 36.2064 64.9907 36.2841 65.1191C36.3658 65.2542 36.5012 65.3241 36.6794 65.3615C36.855 65.3983 37.0885 65.407 37.3883 65.407H44.1208C44.4077 65.407 44.6351 65.3967 44.8132 65.3597C44.9937 65.3221 45.1335 65.2551 45.2348 65.1347C45.3341 65.0168 45.386 64.8598 45.418 64.6652C45.4501 64.4705 45.4642 64.2244 45.478 63.9192C45.5022 63.4697 45.5023 62.9984 45.5024 62.5257C45.5025 62.2197 45.5026 61.9133 45.5092 61.6117C45.5261 60.8372 45.5857 60.0823 45.7924 59.3993C45.9389 58.9185 46.2917 58.4235 46.7756 57.9247C47.2585 57.427 47.8646 56.9328 48.5071 56.4526C48.9974 56.0861 49.5065 55.7294 49.9965 55.3861C50.1488 55.2794 50.2992 55.174 50.4466 55.07C51.0668 54.6326 51.6353 54.2193 52.0579 53.843L52.0581 53.8428C53.4036 52.6367 54.7984 50.7766 55.9654 49.2201C56.0072 49.1644 56.0488 49.109 56.09 49.0541L37.1796 56.8318ZM38.5044 55.7641L38.5046 55.7639L38.5069 55.7494C38.5608 55.4152 38.6114 55.0865 38.6612 54.7627C39.0837 52.0164 39.4505 49.6323 41.318 47.3702L41.3181 47.3701C42.9369 45.402 46.3545 42.0159 48.3411 40.3001L48.3415 40.2997C48.4616 40.1949 48.5512 40.1497 48.6077 40.1383C48.6347 40.1328 48.6484 40.1361 48.6536 40.1382C48.6573 40.1397 48.6614 40.1422 48.6658 40.1511C48.6777 40.1746 48.6859 40.2335 48.6563 40.3366C48.6279 40.4354 48.5689 40.5598 48.4719 40.7005C47.8342 41.6222 47.0589 42.5546 46.2813 43.4897C46.2135 43.5712 46.1458 43.6527 46.078 43.7342C45.235 44.7493 44.4034 45.7666 43.7666 46.7672L43.7665 46.7675C43.4203 47.3145 43.3154 47.8176 43.3942 48.2545C43.473 48.6912 43.7328 49.0475 44.0887 49.3052C44.7966 49.818 45.9001 49.954 46.8104 49.5711L46.8105 49.571C48.0327 49.0564 50.2815 47.5873 52.397 45.9604C53.4562 45.1459 54.4849 44.2896 55.3382 43.4902C56.1894 42.6927 56.8722 41.9461 57.2339 41.351C57.7939 40.4403 58.3879 38.8416 58.9344 37.2061C59.2061 36.3931 59.4654 35.5729 59.704 34.8184C59.9484 34.0456 60.171 33.3417 60.3628 32.7845L60.3629 32.7842C60.4224 32.6094 60.5869 32.1316 60.7642 31.6772C60.8529 31.4497 60.9441 31.2298 61.0265 31.0571C61.0677 30.9707 61.1059 30.8978 61.1398 30.8424C61.1757 30.7835 61.2002 30.7555 61.2114 30.7471L61.2115 30.7471L61.2141 30.745C61.3139 30.6648 61.3774 30.6559 61.4132 30.6625C61.4494 30.6691 61.4883 30.6972 61.526 30.7602C61.6031 30.889 61.6359 31.1004 61.6323 31.2375L61.6323 31.2377C61.6265 31.4766 61.5518 31.9536 61.4349 32.5646C61.3187 33.1724 61.1625 33.9044 60.9969 34.6481C60.7136 35.921 60.4033 37.2259 60.2198 37.9975C60.1891 38.1267 60.1619 38.2409 60.1391 38.3376L60.1387 38.3389L60.1362 38.348L60.1264 38.3837L60.089 38.5194L59.9544 39.007C59.8424 39.4121 59.6915 39.9563 59.5358 40.5128C59.3802 41.0692 59.2199 41.6377 59.0891 42.0913C58.9576 42.5472 58.8578 42.8804 58.822 42.9734C58.4488 43.9159 57.7847 44.9399 57.0518 45.9411C56.6094 46.5453 56.1465 47.1354 55.709 47.6931C55.4199 48.0616 55.1419 48.416 54.8883 48.7509L54.8878 48.7515C53.6768 50.3769 52.3315 52.1725 50.7672 53.4366C50.1875 53.9027 49.5462 54.3326 48.8977 54.7674L48.8474 54.8012C48.1831 55.2465 47.513 55.698 46.9045 56.1953C45.6863 57.191 44.7034 58.3799 44.4917 60.0992L44.4917 60.0993C44.3875 60.9521 44.3457 62.0286 44.3248 62.8892C44.3173 63.1962 44.3125 63.4766 44.3085 63.7098C44.3069 63.8035 44.3054 63.8896 44.304 63.9667C44.3014 64.1016 44.2989 64.2085 44.2958 64.2814C44.2955 64.2881 44.2953 64.2944 44.295 64.3004C43.4926 64.2996 42.5354 64.2894 41.5511 64.2789C40.0923 64.2634 38.5741 64.2472 37.4127 64.2603C37.4122 64.2578 37.4117 64.2552 37.4111 64.2525C37.4018 64.2036 37.3965 64.1256 37.3964 64.0176C37.3964 63.8037 37.417 63.4941 37.4531 63.1166C37.5253 62.3625 37.6583 61.3489 37.8065 60.3127C37.9546 59.2769 38.1177 58.22 38.2497 57.3801C38.3047 57.0298 38.3545 56.7168 38.3954 56.4589C38.4498 56.1169 38.4888 55.8716 38.5044 55.7641ZM62.5204 32.9636L62.5537 32.7955L60.0749 42.869C60.0749 42.869 60.0749 42.869 60.0749 42.869C61.125 40.0161 61.9201 35.9979 62.5204 32.9636Z" fill="white" stroke="white" stroke-width="0.2"/>
<path d="M34.2917 26.266L34.1049 26.2064C32.232 25.593 29.5837 24.6114 27.4518 23.1886C25.2443 21.7152 23.6217 19.7909 23.9365 17.3353C24.2141 15.1772 25.5187 13.6625 27.2328 12.612C28.9489 11.5602 31.069 10.9783 32.9559 10.6889L33.0408 10.6759V10.5901V8.231H35.4825V10.55V10.6385L35.5703 10.6493C38.376 10.9953 40.7632 11.5651 43.0608 13.2838L41.8543 15.5118C41.7289 15.4375 41.6072 15.3653 41.4889 15.295C39.3713 14.037 38.3244 13.4151 35.8021 13.0847L35.8021 13.0847C34.2906 12.887 32.4283 13.1647 30.9051 13.9268C29.3819 14.6889 28.1824 15.9447 28.0345 17.7088C27.8065 19.4592 28.7045 20.7692 29.9751 21.7448C31.2442 22.7194 32.8987 23.3722 34.2216 23.8144L34.2218 23.8145C36.1158 24.4432 38.8758 25.4285 41.0799 26.8885C43.2869 28.3506 44.9058 30.2669 44.587 32.7548C44.3093 34.9044 43.0068 36.417 41.2936 37.4676C39.5784 38.5193 37.4583 39.1034 35.5676 39.3927L35.4827 39.4057V39.4915V41.8585H33.041V39.5233V39.4347L32.9529 39.424C30.1472 39.0858 27.7601 38.5161 25.4703 36.7898L26.6766 34.5619C26.7763 34.6216 26.8736 34.6799 26.9687 34.737C27.9888 35.3487 28.7627 35.8128 29.5622 36.166C30.4619 36.5635 31.3926 36.8202 32.7448 36.9963L32.7449 36.9963C34.3032 37.1978 36.118 36.9326 37.6033 36.1758C39.0901 35.4182 40.2557 34.1624 40.4881 32.3822C40.7364 30.4915 39.8968 29.1856 38.6412 28.2437C37.3915 27.3062 35.723 26.7232 34.2917 26.266ZM24.0655 37.1321C25.9982 38.8261 28.7454 40.0596 31.8937 40.4559V42.9063V43.0063H31.9937H36.5376H36.6376V42.9063V40.3897C41.45 39.6254 45.2256 36.7284 45.7242 32.8923C46.0444 30.4239 44.9053 28.429 42.8678 26.7818C40.8333 25.137 37.893 23.8294 34.5796 22.726C33.0076 22.2021 31.5727 21.562 30.5721 20.7605C29.5734 19.9606 29.0194 19.0112 29.1721 17.8607L29.1722 17.86C29.3185 16.6974 30.111 15.681 31.2881 15.0058C32.4646 14.331 34.018 14.0023 35.6649 14.2146C37.9461 14.5192 38.8472 15.057 41.0187 16.3531C41.3767 16.5668 41.7693 16.8011 42.2083 17.0584L42.2977 17.1108L42.3468 17.0196L44.4796 13.0648L44.5174 12.9947L44.4575 12.9421C42.5248 11.248 39.7776 10.0223 36.6376 9.62674V7.17639V7.07639H36.5376H31.9937H31.8937V7.17639V9.68527C27.0739 10.457 23.2974 13.3461 22.8072 17.1825C22.4868 19.6599 23.6848 21.6924 25.7491 23.3567C27.8114 25.0193 30.7495 26.325 33.9448 27.3568L34.1536 27.4242L34.1534 27.4238C36.0329 28.0414 37.3955 28.663 38.2596 29.4065C38.7059 29.7905 39.017 30.2052 39.1985 30.6667C39.38 31.1281 39.4345 31.6424 39.3587 32.2294C39.2087 33.388 38.4141 34.4026 37.2368 35.076C36.0602 35.7489 34.5088 36.0757 32.8662 35.8595C30.5644 35.5522 29.6616 35.0132 27.4513 33.6935C27.1097 33.4895 26.7368 33.2669 26.3227 33.0236L26.2335 32.9712L26.1842 33.0622L24.0435 37.0092L24.0055 37.0795L24.0655 37.1321Z" fill="white" stroke="white" stroke-width="0.2"/>
<path d="M29.9908 55.7818L29.9856 55.7491C29.9356 55.434 29.8884 55.1237 29.8419 54.8178C29.4206 52.0486 29.0553 49.6475 27.1824 47.3703L29.9908 55.7818ZM29.9908 55.7818L29.9917 55.7828M29.9908 55.7818L29.9917 55.7828M29.9917 55.7828C30.004 55.8607 30.0256 55.9943 30.0545 56.1731C30.1833 56.971 30.4574 58.6675 30.6934 60.3127C30.8421 61.3489 30.9754 62.3626 31.0477 63.1166C31.0839 63.4941 31.1045 63.8037 31.1044 64.0176C31.1044 64.1256 31.0991 64.2036 31.0897 64.2525C31.0892 64.2552 31.0887 64.2578 31.0882 64.2603C29.9276 64.2472 28.411 64.2633 26.9516 64.2789C25.9659 64.2894 25.0064 64.2996 24.2003 64.3004C24.2001 64.2946 24.1999 64.2885 24.1997 64.2822C24.1972 64.209 24.195 64.1019 24.1927 63.9669C24.1918 63.9122 24.1908 63.853 24.1898 63.7898C24.1858 63.5419 24.1808 63.2323 24.1725 62.8892C24.1516 62.0286 24.1097 60.9523 24.0098 60.0998L24.0097 60.099C23.7941 58.3798 22.8113 57.191 21.5941 56.1953C20.986 55.698 20.3167 55.2466 19.653 54.8012L19.6006 54.766C18.9534 54.3317 18.3133 53.9022 17.7342 53.4366C16.1724 52.1742 14.8282 50.3817 13.6105 48.7578L13.6056 48.7512L13.6053 48.7509C13.3564 48.4221 13.084 48.0743 12.8008 47.7128C12.3596 47.1493 11.892 46.5523 11.4458 45.9412C10.7148 44.9401 10.0527 43.916 9.67944 42.9735C9.64361 42.8806 9.54384 42.5473 9.41235 42.0913C9.28155 41.6377 9.12124 41.0692 8.96559 40.5128C8.80995 39.9563 8.65902 39.4121 8.54699 39.007L8.41242 38.5194L8.37504 38.3837L8.36523 38.348L8.36272 38.3389L8.36234 38.3375C8.33945 38.2409 8.31227 38.1266 8.28154 37.9973C8.09806 37.2257 7.78779 35.9209 7.50446 34.6481C7.33892 33.9044 7.18274 33.1724 7.06651 32.5646C6.94966 31.9536 6.87491 31.4766 6.86915 31.2377L6.86915 31.2375C6.8655 31.0996 6.89653 30.8882 6.97254 30.7598C7.00964 30.6971 7.04817 30.6692 7.08462 30.6625C7.12116 30.6559 7.18589 30.665 7.28804 30.7456L7.28804 30.7456L7.28861 30.746C7.29947 30.7545 7.32349 30.7827 7.35907 30.8418C7.39251 30.8974 7.43047 30.9705 7.47157 31.057C7.55367 31.2298 7.64519 31.4499 7.73439 31.6773C7.91264 32.1319 8.07915 32.6098 8.13849 32.7842L8.1385 32.7842C8.32024 33.3179 8.53273 33.9915 8.76652 34.7326L8.78498 34.7911C9.02589 35.5547 9.2887 36.3865 9.56253 37.2061C10.109 38.8416 10.703 40.4401 11.2589 41.3506C11.6205 41.9458 12.3034 42.6925 13.1549 43.4902C14.0082 44.2896 15.0372 45.1459 16.0968 45.9605C18.2132 47.5873 20.4639 49.0564 21.6904 49.571C22.5968 49.9541 23.6982 49.8179 24.405 49.3052C24.7603 49.0474 25.0199 48.6912 25.0985 48.2545C25.1772 47.8176 25.0723 47.3145 24.7261 46.7675C24.0934 45.7666 23.2617 44.7492 22.4176 43.7342C22.3458 43.6478 22.2739 43.5615 22.2021 43.4752C21.4275 42.545 20.6552 41.6177 20.0209 40.7009C19.9259 40.5603 19.8677 40.4358 19.8397 40.337C19.8105 40.2336 19.8185 40.1746 19.8304 40.151C19.8349 40.1422 19.8389 40.1397 19.8426 40.1382C19.8479 40.1361 19.8618 40.1327 19.8891 40.1383C19.9463 40.1498 20.0371 40.1952 20.1593 40.3001C22.1457 42.0159 25.555 45.4018 27.1822 47.3701L29.9917 55.7828ZM23.1132 63.9143C23.1688 65.14 23.2323 65.307 24.3705 65.307H31.1107C32.2977 65.307 32.2809 65.1656 32.1242 63.8424L32.1214 63.819L32.1213 63.8185L18.5685 55.3133C20.3382 56.5545 22.3752 57.9833 22.803 59.3703C23.0999 60.3511 23.0971 61.47 23.0944 62.563C23.0932 63.0221 23.0921 63.4765 23.1132 63.9143ZM23.1132 63.9143L23.0133 63.9191C23.0133 63.919 23.0133 63.9189 23.0133 63.9188C22.9921 63.4801 22.9932 63.0198 22.9943 62.5578C22.9951 62.241 22.9958 61.9235 22.9894 61.6116C22.9736 60.8372 22.914 60.0823 22.7073 59.3993C22.5588 58.9185 22.2046 58.4235 21.7197 57.9247C21.2359 57.427 20.6292 56.9328 19.9867 56.4526C19.501 56.0895 18.9972 55.7361 18.512 55.3958C18.3551 55.2858 18.2003 55.1771 18.0486 55.07C17.4294 54.6326 16.8624 54.2193 16.4418 53.843M23.1132 63.9143L16.4418 53.843M16.4418 53.843C15.0988 52.6527 13.7294 50.8254 12.5728 49.2821C12.5152 49.2053 12.4582 49.1292 12.4018 49.054M16.4418 53.843L12.4018 49.054M8.51079 42.8345C7.4783 40.0298 6.69954 36.0916 6.1022 33.0708C6.08256 32.9715 6.06311 32.8731 6.04386 32.7759L5.94579 32.7954C5.77675 31.9481 5.77989 31.2507 5.89966 30.7133C6.01918 30.177 6.257 29.7923 6.56387 29.5855C6.87463 29.3761 7.24363 29.358 7.5956 29.5328C7.94394 29.7058 8.27076 30.0643 8.52168 30.6007L8.52168 30.6007C9.30644 32.2789 10.0058 34.4772 10.6546 36.5166C10.9096 37.3182 11.1568 38.0954 11.3983 38.8067C11.7488 39.7938 12.0385 40.6058 12.7417 41.4495L12.7417 41.4496C13.5256 42.3909 15.288 43.9109 17.1535 45.3231C19.0193 46.7354 20.9719 48.0275 22.1333 48.5196C22.7342 48.7696 23.3459 48.7173 23.6663 48.4582C23.8223 48.332 23.9133 48.1548 23.9052 47.9258C23.8968 47.6925 23.7849 47.396 23.5119 47.0416C23.5118 47.0415 23.5117 47.0414 23.5117 47.0413L19.7322 42.2196L19.7316 42.2189C19.2128 41.5451 18.9259 40.9591 18.8142 40.4747C18.7026 39.9905 18.7648 39.5993 18.9577 39.3302C19.1517 39.0594 19.4654 38.9301 19.8157 38.9469C20.1646 38.9636 20.5511 39.1242 20.9105 39.4318L20.911 39.4322C22.0627 40.4302 23.2136 41.6141 24.3407 42.7736C24.9062 43.3553 25.4658 43.931 26.0165 44.4739L26.0168 44.4742C28.2788 46.7206 29.3738 48.3582 30.0182 50.1676C30.5171 51.5688 30.7448 53.0723 31.0414 55.0314C31.1262 55.5915 31.2167 56.1889 31.3207 56.8318L31.3212 56.835L31.3212 56.835L32.2202 63.8035L5.94576 32.7953C5.96524 32.8937 5.98492 32.9932 6.0048 33.0937C6.6016 36.1119 7.38165 40.0567 8.41694 42.869M8.51079 42.8345L8.41693 42.869C8.41694 42.869 8.41694 42.869 8.41694 42.869M8.51079 42.8345L8.41694 42.869M8.51079 42.8345C9.22942 44.7878 10.4359 46.3442 11.6728 47.9397L8.41694 42.869M8.41694 42.869C9.14142 44.8382 10.3594 46.4091 11.5968 48.0051C11.8658 48.3521 12.1358 48.7003 12.4018 49.054M8.41694 42.869L12.4018 49.054M7.34998 30.6671C6.89614 30.309 6.76139 30.9455 6.76918 31.2401C6.7914 32.163 7.78647 36.3476 8.18428 38.0206L7.34998 30.6671Z" fill="white" stroke="white" stroke-width="0.2"/>
<path d="M67.3763 10.9447C59.6683 9.52809 51.9934 7.16235 46.7509 1.02802L46.9767 0.9H46.5976H21.9127H21.8668L21.8368 0.934861C16.361 7.31312 8.64964 9.54469 0.655048 11.0321L0.57334 11.0473V11.1304L0.57334 28.2072L0.57334 28.2072C0.577622 40.6048 3.35854 51.1763 8.9549 59.9537C14.5513 68.7312 22.9587 75.7076 34.2045 80.9223L34.2466 80.9418L34.2887 80.9223C45.5349 75.7076 53.9425 68.729 59.5388 59.9505C65.1352 51.172 67.916 40.6006 67.9199 28.2072L67.9277 11.1305L67.9277 11.0473L67.846 11.0321L67.3766 10.9447L67.3763 10.9447ZM22.4896 2.29458H46.0004C51.1786 8.24357 58.9838 10.7599 66.5324 12.1929V28.2088C66.5324 40.182 63.8723 50.4461 58.5039 58.9859C53.1426 67.5144 45.0759 74.3298 34.2452 79.4099C23.4104 74.3294 15.3456 67.5179 9.98705 58.9915C4.62148 50.4538 1.96512 40.1899 1.96512 28.2088V12.1929C9.50681 10.7592 17.2262 8.2588 22.4896 2.29458Z" fill="white" stroke="white" stroke-width="0.2"/>
<mask id="path-5-outside-1_16_2182" maskUnits="userSpaceOnUse" x="-0.325439" y="79.922" width="2" height="2" fill="black">
<rect fill="white" x="-0.325439" y="79.922" width="2" height="2"/>
<path d="M0.699062 80.9487C0.697392 80.9504 0.695721 80.951 0.694607 80.951H0.690153C0.685698 80.951 0.6818 80.9504 0.679015 80.9487C0.675674 80.9459 0.674561 80.942 0.674561 80.9376C0.674561 80.9331 0.675674 80.9298 0.679015 80.9265C0.6818 80.9237 0.685698 80.922 0.690153 80.922H0.694607C0.695721 80.922 0.697392 80.9231 0.699062 80.9242V80.9309C0.697392 80.9298 0.695721 80.9287 0.694607 80.9287C0.692937 80.9276 0.691266 80.9265 0.690153 80.9265C0.686811 80.9265 0.684584 80.9276 0.68347 80.9287C0.6818 80.9303 0.681243 80.9331 0.681243 80.9376C0.681243 80.9409 0.6818 80.9432 0.68347 80.9443C0.684584 80.9459 0.686811 80.9465 0.690153 80.9465H0.694607C0.695721 80.9454 0.697392 80.9443 0.699062 80.9443V80.9487Z"/>
</mask>
<path d="M0.699062 80.9487C0.697392 80.9504 0.695721 80.951 0.694607 80.951H0.690153C0.685698 80.951 0.6818 80.9504 0.679015 80.9487C0.675674 80.9459 0.674561 80.942 0.674561 80.9376C0.674561 80.9331 0.675674 80.9298 0.679015 80.9265C0.6818 80.9237 0.685698 80.922 0.690153 80.922H0.694607C0.695721 80.922 0.697392 80.9231 0.699062 80.9242V80.9309C0.697392 80.9298 0.695721 80.9287 0.694607 80.9287C0.692937 80.9276 0.691266 80.9265 0.690153 80.9265C0.686811 80.9265 0.684584 80.9276 0.68347 80.9287C0.6818 80.9303 0.681243 80.9331 0.681243 80.9376C0.681243 80.9409 0.6818 80.9432 0.68347 80.9443C0.684584 80.9459 0.686811 80.9465 0.690153 80.9465H0.694607C0.695721 80.9454 0.697392 80.9443 0.699062 80.9443V80.9487Z" fill="white"/>
<path d="M0.699062 80.9487L0.840484 81.0901L0.899062 81.0316V80.9487H0.699062ZM0.679015 80.9487L0.550981 81.1024L0.562858 81.1123L0.576115 81.1202L0.679015 80.9487ZM0.679015 80.9265L0.820435 81.0679L0.820437 81.0679L0.679015 80.9265ZM0.699062 80.9242H0.899062V80.8172L0.809996 80.7578L0.699062 80.9242ZM0.699062 80.9309L0.588119 81.0973L0.899062 81.3046V80.9309H0.699062ZM0.694607 80.9287L0.583674 81.0951L0.634057 81.1287H0.694607V80.9287ZM0.68347 80.9287L0.542058 80.7872L0.542049 80.7873L0.68347 80.9287ZM0.68347 80.9443L0.849881 80.8333L0.827695 80.8001L0.794415 80.7779L0.68347 80.9443ZM0.694607 80.9465V81.1465H0.777454L0.836033 81.0879L0.694607 80.9465ZM0.699062 80.9443H0.899062V80.7443H0.699062V80.9443ZM0.557641 80.8073C0.586272 80.7787 0.63329 80.751 0.694607 80.751V81.151C0.758153 81.151 0.808511 81.1221 0.840484 81.0901L0.557641 80.8073ZM0.694607 80.751H0.690153V81.151H0.694607V80.751ZM0.690153 80.751C0.695461 80.751 0.706382 80.7512 0.720375 80.7538C0.734116 80.7564 0.756936 80.7622 0.781916 80.7772L0.576115 81.1202C0.627376 81.151 0.677307 81.151 0.690153 81.151V80.751ZM0.80705 80.7951C0.833945 80.8175 0.852438 80.8456 0.863085 80.8743C0.872991 80.9011 0.874561 80.924 0.874561 80.9376H0.474561C0.474561 80.9747 0.484885 81.0473 0.550981 81.1024L0.80705 80.7951ZM0.874561 80.9376C0.874561 80.9521 0.872756 80.976 0.862204 81.0034C0.851311 81.0317 0.835268 81.053 0.820435 81.0679L0.537596 80.785C0.519422 80.8032 0.501151 80.8279 0.488866 80.8598C0.476922 80.8909 0.474561 80.9187 0.474561 80.9376H0.874561ZM0.820437 81.0679C0.784534 81.1038 0.737049 81.122 0.690153 81.122V80.722C0.634347 80.722 0.579066 80.7436 0.537594 80.785L0.820437 81.0679ZM0.690153 81.122H0.694607V80.722H0.690153V81.122ZM0.694607 81.122C0.663445 81.122 0.639651 81.1146 0.627962 81.1104C0.615188 81.1058 0.605678 81.1009 0.600854 81.0983C0.592286 81.0936 0.585288 81.0887 0.588129 81.0906L0.809996 80.7578C0.809898 80.7577 0.807801 80.7563 0.805423 80.7548C0.803021 80.7533 0.798369 80.7504 0.792398 80.7471C0.78944 80.7455 0.749865 80.722 0.694607 80.722V81.122ZM0.499062 80.9242V80.9309H0.899062V80.9242H0.499062ZM0.810006 80.7645C0.809904 80.7644 0.807806 80.763 0.805425 80.7615C0.803021 80.76 0.798367 80.7571 0.792394 80.7538C0.789431 80.7522 0.74986 80.7287 0.694607 80.7287V81.1287C0.663449 81.1287 0.639658 81.1213 0.627967 81.1171C0.615193 81.1125 0.605683 81.1076 0.600858 81.105C0.592284 81.1003 0.585287 81.0954 0.588119 81.0973L0.810006 80.7645ZM0.805541 80.7623C0.805443 80.7622 0.803346 80.7608 0.800968 80.7593C0.798566 80.7577 0.793914 80.7548 0.787943 80.7516C0.784985 80.75 0.74541 80.7265 0.690153 80.7265V81.1265C0.65899 81.1265 0.635197 81.1191 0.623507 81.1149C0.610733 81.1103 0.601223 81.1054 0.5964 81.1027C0.587831 81.0981 0.580833 81.0932 0.583674 81.0951L0.805541 80.7623ZM0.690153 80.7265C0.643951 80.7265 0.58731 80.742 0.542058 80.7872L0.824883 81.0701C0.781858 81.1131 0.729672 81.1265 0.690153 81.1265V80.7265ZM0.542049 80.7873C0.476777 80.8525 0.481243 80.9346 0.481243 80.9376H0.881243C0.881243 80.9414 0.881247 80.9576 0.876291 80.9784C0.870799 81.0015 0.857475 81.0375 0.824892 81.0701L0.542049 80.7873ZM0.481243 80.9376C0.481243 80.9411 0.476393 81.0466 0.572526 81.1107L0.794415 80.7779C0.84065 80.8087 0.862938 80.8511 0.872626 80.8821C0.881074 80.9091 0.881243 80.931 0.881243 80.9376H0.481243ZM0.517059 81.0552C0.581153 81.1514 0.686634 81.1465 0.690153 81.1465V80.7465C0.69671 80.7465 0.718599 80.7467 0.745631 80.7551C0.776632 80.7648 0.819055 80.7871 0.849881 80.8333L0.517059 81.0552ZM0.690153 81.1465H0.694607V80.7465H0.690153V81.1465ZM0.836033 81.0879C0.825735 81.0982 0.811407 81.1102 0.792396 81.1205C0.774155 81.1305 0.741792 81.1443 0.699062 81.1443V80.7443C0.617585 80.7443 0.567284 80.791 0.553182 80.8051L0.836033 81.0879ZM0.499062 80.9443V80.9487H0.899062V80.9443H0.499062Z" fill="white" mask="url(#path-5-outside-1_16_2182)"/>
<path d="M0.782063 81.0044C0.776633 81.0095 0.770879 81.0138 0.764978 81.0173C0.756522 81.0219 0.74163 81.0282 0.721921 81.0287V80.951H0.728605L0.782063 81.0044ZM0.721921 80.8287H0.719694H0.713011H0.704102H0.604102V80.9287V80.951V81.051H0.704102H0.713011H0.813011V81.0354H0.821921V80.9354V80.9287V80.8287H0.813011H0.721921Z" fill="white" stroke="white" stroke-width="0.2"/>
<mask id="path-8-outside-2_16_2182" maskUnits="userSpaceOnUse" x="-0.276367" y="79.9287" width="2" height="2" fill="black">
<rect fill="white" x="-0.276367" y="79.9287" width="2" height="2"/>
<path d="M0.745908 80.9398V80.9421H0.730315V80.9465H0.736997H0.741452C0.742566 80.9454 0.744237 80.9443 0.745907 80.9443V80.9488C0.744237 80.9504 0.742566 80.951 0.741452 80.951H0.73477C0.731429 80.951 0.728644 80.9504 0.72586 80.9488C0.72419 80.946 0.723633 80.9432 0.723633 80.9398C0.723633 80.9371 0.72419 80.9348 0.72586 80.9332C0.728644 80.9304 0.731429 80.9287 0.73477 80.9287C0.737554 80.9287 0.739782 80.9304 0.741452 80.9332C0.744237 80.9348 0.745907 80.9371 0.745907 80.9398H0.745908ZM0.739226 80.9376C0.739226 80.9365 0.738112 80.9354 0.736998 80.9354C0.736998 80.9343 0.735884 80.9332 0.734771 80.9332C0.7331 80.9332 0.731429 80.9343 0.730316 80.9354V80.9376H0.739226Z"/>
</mask>
<path d="M0.745908 80.9398V80.9421H0.730315V80.9465H0.736997H0.741452C0.742566 80.9454 0.744237 80.9443 0.745907 80.9443V80.9488C0.744237 80.9504 0.742566 80.951 0.741452 80.951H0.73477C0.731429 80.951 0.728644 80.9504 0.72586 80.9488C0.72419 80.946 0.723633 80.9432 0.723633 80.9398C0.723633 80.9371 0.72419 80.9348 0.72586 80.9332C0.728644 80.9304 0.731429 80.9287 0.73477 80.9287C0.737554 80.9287 0.739782 80.9304 0.741452 80.9332C0.744237 80.9348 0.745907 80.9371 0.745907 80.9398H0.745908ZM0.739226 80.9376C0.739226 80.9365 0.738112 80.9354 0.736998 80.9354C0.736998 80.9343 0.735884 80.9332 0.734771 80.9332C0.7331 80.9332 0.731429 80.9343 0.730316 80.9354V80.9376H0.739226Z" fill="white"/>
<path d="M0.745908 80.9398H0.945908V80.7398H0.745908V80.9398ZM0.745908 80.9421V81.1421H0.945908V80.9421H0.745908ZM0.730315 80.9421V80.7421H0.530315V80.9421H0.730315ZM0.730315 80.9465H0.530315V81.1465H0.730315V80.9465ZM0.741452 80.9465V81.1465H0.824291L0.882869 81.088L0.741452 80.9465ZM0.745907 80.9443H0.945907V80.7443H0.745907V80.9443ZM0.745907 80.9488L0.887328 81.0902L0.945907 81.0316V80.9488H0.745907ZM0.72586 80.9488L0.554363 81.0517L0.580087 81.0945L0.62296 81.1203L0.72586 80.9488ZM0.72586 80.9332L0.584439 80.7917L0.584438 80.7917L0.72586 80.9332ZM0.741452 80.9332L0.569955 81.0361L0.595679 81.0789L0.638551 81.1047L0.741452 80.9332ZM0.745907 80.9398H0.545907V81.1398H0.745907V80.9398ZM0.739226 80.9376V81.1376H0.939226V80.9376H0.739226ZM0.736998 80.9354H0.536998V81.1354H0.736998V80.9354ZM0.730316 80.9354L0.588885 80.794L0.530316 80.8526V80.9354H0.730316ZM0.730316 80.9376H0.530316V81.1376H0.730316V80.9376ZM0.545908 80.9398V80.9421H0.945908V80.9398H0.545908ZM0.745908 80.7421H0.730315V81.1421H0.745908V80.7421ZM0.530315 80.9421V80.9465H0.930315V80.9421H0.530315ZM0.730315 81.1465H0.736997V80.7465H0.730315V81.1465ZM0.736997 81.1465H0.741452V80.7465H0.736997V81.1465ZM0.882869 81.088C0.872578 81.0982 0.858252 81.1102 0.839243 81.1206C0.821002 81.1305 0.788638 81.1443 0.745907 81.1443V80.7443C0.664426 80.7443 0.614125 80.791 0.600035 80.8051L0.882869 81.088ZM0.545907 80.9443V80.9488H0.945907V80.9443H0.545907ZM0.604486 80.8073C0.633115 80.7787 0.680132 80.751 0.741452 80.751V81.151C0.805 81.151 0.855358 81.1221 0.887328 81.0902L0.604486 80.8073ZM0.741452 80.751H0.73477V81.151H0.741452V80.751ZM0.73477 80.751C0.744083 80.751 0.758801 80.7517 0.77643 80.7559C0.794843 80.7603 0.812539 80.7675 0.828761 80.7773L0.62296 81.1203C0.664909 81.1454 0.705933 81.151 0.73477 81.151V80.751ZM0.897357 80.8459C0.907091 80.8621 0.914297 80.8798 0.918681 80.8982C0.922879 80.9158 0.923633 80.9305 0.923633 80.9398H0.523633C0.523633 80.9687 0.529192 81.0097 0.554363 81.0517L0.897357 80.8459ZM0.923633 80.9398C0.923633 80.9614 0.919438 81.0224 0.867283 81.0746L0.584438 80.7917C0.528941 80.8472 0.523633 80.9127 0.523633 80.9398H0.923633ZM0.867282 81.0746C0.852852 81.089 0.807553 81.1287 0.73477 81.1287V80.7287C0.655304 80.7287 0.604437 80.7717 0.584439 80.7917L0.867282 81.0746ZM0.73477 81.1287C0.693482 81.1287 0.65557 81.1156 0.625223 81.0947C0.596874 81.0752 0.579703 81.0523 0.569955 81.0361L0.912949 80.8303C0.889906 80.7919 0.832414 80.7287 0.73477 80.7287V81.1287ZM0.638551 81.1047C0.622304 81.0949 0.599405 81.0777 0.579916 81.0494C0.559052 81.019 0.545907 80.9811 0.545907 80.9398H0.945907C0.945907 80.8422 0.882757 80.7847 0.844354 80.7617L0.638551 81.1047ZM0.745907 81.1398H0.745908V80.7398H0.745907V81.1398ZM0.939226 80.9376C0.939226 80.872 0.908439 80.8232 0.879954 80.7947C0.851467 80.7662 0.802603 80.7354 0.736998 80.7354V81.1354C0.672507 81.1354 0.624757 81.1052 0.597105 81.0775C0.569455 81.0499 0.539226 81.0021 0.539226 80.9376H0.939226ZM0.936998 80.9354C0.936998 80.8698 0.906208 80.8209 0.87772 80.7924C0.849233 80.764 0.800372 80.7332 0.734771 80.7332V81.1332C0.670283 81.1332 0.622535 81.1029 0.594884 81.0753C0.567231 81.0476 0.536998 80.9999 0.536998 80.9354H0.936998ZM0.734771 80.7332C0.653296 80.7332 0.602995 80.7799 0.588885 80.794L0.871746 81.0768C0.861446 81.0871 0.847115 81.0991 0.828103 81.1094C0.80986 81.1194 0.777498 81.1332 0.734771 81.1332V80.7332ZM0.530316 80.9354V80.9376H0.930316V80.9354H0.530316ZM0.730316 81.1376H0.739226V80.7376H0.730316V81.1376Z" fill="white" mask="url(#path-8-outside-2_16_2182)"/>
<mask id="path-10-outside-3_16_2182" maskUnits="userSpaceOnUse" x="-0.249756" y="79.9287" width="2" height="2" fill="black">
<rect fill="white" x="-0.249756" y="79.9287" width="2" height="2"/>
<path d="M0.761381 80.9421H0.756926V80.9443V80.9465H0.759154H0.763609C0.764723 80.9454 0.765836 80.9437 0.765836 80.9421H0.761381ZM0.772518 80.9376V80.951H0.765836V80.9488C0.764166 80.9488 0.762495 80.9499 0.761381 80.951H0.756926H0.752472C0.750801 80.9499 0.750244 80.9476 0.750244 80.9443C0.750244 80.9415 0.750801 80.9398 0.752472 80.9398C0.753585 80.9387 0.756926 80.9376 0.761381 80.9376H0.765836C0.765836 80.9365 0.764723 80.9354 0.763609 80.9354C0.761938 80.9343 0.760268 80.9332 0.759154 80.9332H0.754699C0.753028 80.9332 0.752472 80.9343 0.752472 80.9354V80.9309C0.753585 80.9298 0.755256 80.9287 0.756926 80.9287H0.761381C0.764166 80.9287 0.766393 80.9298 0.768064 80.9309C0.770848 80.9326 0.772518 80.9348 0.772518 80.9376Z"/>
</mask>
<path d="M0.761381 80.9421H0.756926V80.9443V80.9465H0.759154H0.763609C0.764723 80.9454 0.765836 80.9437 0.765836 80.9421H0.761381ZM0.772518 80.9376V80.951H0.765836V80.9488C0.764166 80.9488 0.762495 80.9499 0.761381 80.951H0.756926H0.752472C0.750801 80.9499 0.750244 80.9476 0.750244 80.9443C0.750244 80.9415 0.750801 80.9398 0.752472 80.9398C0.753585 80.9387 0.756926 80.9376 0.761381 80.9376H0.765836C0.765836 80.9365 0.764723 80.9354 0.763609 80.9354C0.761938 80.9343 0.760268 80.9332 0.759154 80.9332H0.754699C0.753028 80.9332 0.752472 80.9343 0.752472 80.9354V80.9309C0.753585 80.9298 0.755256 80.9287 0.756926 80.9287H0.761381C0.764166 80.9287 0.766393 80.9298 0.768064 80.9309C0.770848 80.9326 0.772518 80.9348 0.772518 80.9376Z" fill="white"/>
<path d="M0.756926 80.9421V80.7421H0.556926V80.9421H0.756926ZM0.756926 80.9465H0.556926V81.1465H0.756926V80.9465ZM0.763609 80.9465V81.1465H0.846448L0.905026 81.088L0.763609 80.9465ZM0.765836 80.9421H0.965836V80.7421H0.765836V80.9421ZM0.772518 80.951V81.151H0.972518V80.951H0.772518ZM0.765836 80.951H0.565836V81.151H0.765836V80.951ZM0.765836 80.9488H0.965836V80.7488H0.765836V80.9488ZM0.761381 80.951V81.151H0.844228L0.902807 81.0924L0.761381 80.951ZM0.752472 80.951L0.641533 81.1174L0.691918 81.151H0.752472V80.951ZM0.752472 80.9398V81.1398H0.835314L0.893893 81.0813L0.752472 80.9398ZM0.765836 80.9376V81.1376H0.965836V80.9376H0.765836ZM0.763609 80.9354L0.652665 81.1018L0.703051 81.1354H0.763609V80.9354ZM0.752472 80.9309L0.611046 80.7895L0.552472 80.8481V80.9309H0.752472ZM0.768064 80.9309L0.656995 81.0975L0.665162 81.1024L0.768064 80.9309ZM0.761381 80.7421H0.756926V81.1421H0.761381V80.7421ZM0.556926 80.9421V80.9443H0.956926V80.9421H0.556926ZM0.556926 80.9443V80.9465H0.956926V80.9443H0.556926ZM0.756926 81.1465H0.759154V80.7465H0.756926V81.1465ZM0.759154 81.1465H0.763609V80.7465H0.759154V81.1465ZM0.905026 81.088C0.91913 81.0739 0.965836 81.0236 0.965836 80.9421H0.565836C0.565836 80.8993 0.57961 80.867 0.58956 80.8487C0.59993 80.8297 0.611894 80.8154 0.622192 80.8051L0.905026 81.088ZM0.765836 80.7421H0.761381V81.1421H0.765836V80.7421ZM0.572518 80.9376V80.951H0.972518V80.9376H0.572518ZM0.772518 80.751H0.765836V81.151H0.772518V80.751ZM0.965836 80.951V80.9488H0.565836V80.951H0.965836ZM0.765836 80.7488C0.684358 80.7488 0.634057 80.7955 0.619955 80.8096L0.902807 81.0924C0.892509 81.1027 0.87818 81.1147 0.85917 81.125C0.840929 81.135 0.808566 81.1488 0.765836 81.1488V80.7488ZM0.761381 80.751H0.756926V81.151H0.761381V80.751ZM0.756926 80.751H0.752472V81.151H0.756926V80.751ZM0.86341 80.7846C0.909653 80.8154 0.931941 80.8578 0.941628 80.8888C0.950075 80.9159 0.950244 80.9377 0.950244 80.9443H0.550244C0.550244 80.9478 0.54539 81.0533 0.641533 81.1174L0.86341 80.7846ZM0.950244 80.9443C0.950244 80.9488 0.950999 80.9838 0.932805 81.0238C0.922162 81.0472 0.902053 81.0789 0.865778 81.1042C0.828008 81.1306 0.787089 81.1398 0.752472 81.1398V80.7398C0.717018 80.7398 0.675404 80.7493 0.637059 80.7761C0.60021 80.8018 0.579649 80.8341 0.568658 80.8583C0.549768 80.8998 0.550244 80.937 0.550244 80.9443H0.950244ZM0.893893 81.0813C0.872745 81.1024 0.851755 81.1138 0.840819 81.1191C0.828187 81.1252 0.816918 81.1289 0.808297 81.1313C0.791024 81.136 0.775129 81.1376 0.761381 81.1376V80.7376C0.743178 80.7376 0.723386 80.7398 0.70305 80.7454C0.690759 80.7487 0.648794 80.7607 0.61105 80.7984L0.893893 81.0813ZM0.761381 81.1376H0.765836V80.7376H0.761381V81.1376ZM0.965836 80.9376C0.965836 80.872 0.93505 80.8232 0.906564 80.7947C0.878078 80.7662 0.829214 80.7354 0.763609 80.7354V81.1354C0.699117 81.1354 0.651367 81.1052 0.623716 81.0775C0.596065 81.0499 0.565836 81.0021 0.565836 80.9376H0.965836ZM0.874552 80.769C0.87445 80.7689 0.872352 80.7675 0.869971 80.766C0.867567 80.7645 0.862913 80.7615 0.856941 80.7583C0.853978 80.7567 0.814407 80.7332 0.759154 80.7332V81.1332C0.727995 81.1332 0.704204 81.1258 0.692514 81.1216C0.67974 81.117 0.670229 81.1121 0.665404 81.1094C0.656831 81.1048 0.649834 81.0999 0.652665 81.1018L0.874552 80.769ZM0.759154 80.7332H0.754699V81.1332H0.759154V80.7332ZM0.754699 80.7332C0.705773 80.7332 0.644328 80.7518 0.599315 80.8058C0.559649 80.8534 0.552472 80.9051 0.552472 80.9354H0.952472C0.952472 80.9645 0.945572 81.0151 0.906603 81.0619C0.862286 81.1151 0.801954 81.1332 0.754699 81.1332V80.7332ZM0.952472 80.9354V80.9309H0.552472V80.9354H0.952472ZM0.893897 81.0724C0.8836 81.0827 0.869271 81.0946 0.850259 81.105C0.832017 81.1149 0.799654 81.1287 0.756926 81.1287V80.7287C0.67545 80.7287 0.625149 80.7754 0.611046 80.7895L0.893897 81.0724ZM0.756926 81.1287H0.761381V80.7287H0.756926V81.1287ZM0.761381 81.1287C0.708579 81.1287 0.671699 81.1071 0.65712 81.0973L0.879007 80.7645C0.861087 80.7526 0.819752 80.7287 0.761381 80.7287V81.1287ZM0.665162 81.1024C0.648915 81.0927 0.626017 81.0755 0.606527 81.0472C0.585663 81.0168 0.572518 80.9789 0.572518 80.9376H0.972518C0.972518 80.84 0.909369 80.7825 0.870965 80.7594L0.665162 81.1024Z" fill="white" mask="url(#path-10-outside-3_16_2182)"/>
<path d="M0.89321 80.9287V80.8465V80.8287H0.886528V80.822H0.786528H0.779845H0.679845V80.8287H0.675391V80.9287V80.9331V81.0331H0.686528V81.0465H0.754469C0.770495 81.0512 0.783261 81.051 0.786107 81.051C0.786288 81.051 0.786429 81.051 0.786528 81.051H0.79321H0.89321V81.0331V80.951V80.9465V80.9331V80.9287Z" fill="white" stroke="white" stroke-width="0.2"/>
<mask id="path-13-outside-4_16_2182" maskUnits="userSpaceOnUse" x="-0.203369" y="79.9287" width="2" height="2" fill="black">
<rect fill="white" x="-0.203369" y="79.9287" width="2" height="2"/>
<path d="M0.818906 80.9398V80.9421H0.803313V80.9465H0.809995H0.81445C0.815564 80.9454 0.817235 80.9443 0.818905 80.9443V80.9488C0.817235 80.9504 0.815564 80.951 0.81445 80.951H0.807768C0.804427 80.951 0.801643 80.9504 0.798858 80.9488C0.797188 80.946 0.796631 80.9432 0.796631 80.9398C0.796631 80.9371 0.797188 80.9348 0.798858 80.9332C0.801643 80.9304 0.804427 80.9287 0.807768 80.9287C0.810552 80.9287 0.81278 80.9304 0.81445 80.9332C0.817235 80.9348 0.818905 80.9371 0.818905 80.9398H0.818906ZM0.812224 80.9376C0.812224 80.9365 0.81111 80.9354 0.809996 80.9354C0.809996 80.9343 0.808882 80.9332 0.807769 80.9332C0.806098 80.9332 0.804428 80.9343 0.803314 80.9354V80.9376H0.812224Z"/>
</mask>
<path d="M0.818906 80.9398V80.9421H0.803313V80.9465H0.809995H0.81445C0.815564 80.9454 0.817235 80.9443 0.818905 80.9443V80.9488C0.817235 80.9504 0.815564 80.951 0.81445 80.951H0.807768C0.804427 80.951 0.801643 80.9504 0.798858 80.9488C0.797188 80.946 0.796631 80.9432 0.796631 80.9398C0.796631 80.9371 0.797188 80.9348 0.798858 80.9332C0.801643 80.9304 0.804427 80.9287 0.807768 80.9287C0.810552 80.9287 0.81278 80.9304 0.81445 80.9332C0.817235 80.9348 0.818905 80.9371 0.818905 80.9398H0.818906ZM0.812224 80.9376C0.812224 80.9365 0.81111 80.9354 0.809996 80.9354C0.809996 80.9343 0.808882 80.9332 0.807769 80.9332C0.806098 80.9332 0.804428 80.9343 0.803314 80.9354V80.9376H0.812224Z" fill="white"/>
<path d="M0.818906 80.9398H1.01891V80.7398H0.818906V80.9398ZM0.818906 80.9421V81.1421H1.01891V80.9421H0.818906ZM0.803313 80.9421V80.7421H0.603313V80.9421H0.803313ZM0.803313 80.9465H0.603313V81.1465H0.803313V80.9465ZM0.81445 80.9465V81.1465H0.897289L0.955867 81.088L0.81445 80.9465ZM0.818905 80.9443H1.01891V80.7443H0.818905V80.9443ZM0.818905 80.9488L0.960327 81.0902L1.01891 81.0316V80.9488H0.818905ZM0.798858 80.9488L0.627361 81.0517L0.653085 81.0945L0.695958 81.1203L0.798858 80.9488ZM0.798858 80.9332L0.657437 80.7917L0.657436 80.7917L0.798858 80.9332ZM0.81445 80.9332L0.642953 81.0361L0.668677 81.0789L0.711549 81.1047L0.81445 80.9332ZM0.818905 80.9398H0.618905V81.1398H0.818905V80.9398ZM0.812224 80.9376V81.1376H1.01222V80.9376H0.812224ZM0.809996 80.9354H0.609996V81.1354H0.809996V80.9354ZM0.803314 80.9354L0.661883 80.794L0.603314 80.8526V80.9354H0.803314ZM0.803314 80.9376H0.603314V81.1376H0.803314V80.9376ZM0.618906 80.9398V80.9421H1.01891V80.9398H0.618906ZM0.818906 80.7421H0.803313V81.1421H0.818906V80.7421ZM0.603313 80.9421V80.9465H1.00331V80.9421H0.603313ZM0.803313 81.1465H0.809995V80.7465H0.803313V81.1465ZM0.809995 81.1465H0.81445V80.7465H0.809995V81.1465ZM0.955867 81.088C0.945576 81.0982 0.931251 81.1102 0.912241 81.1206C0.894 81.1305 0.861636 81.1443 0.818905 81.1443V80.7443C0.737424 80.7443 0.687123 80.791 0.673033 80.8051L0.955867 81.088ZM0.618905 80.9443V80.9488H1.01891V80.9443H0.618905ZM0.677484 80.8073C0.706113 80.7787 0.75313 80.751 0.81445 80.751V81.151C0.877998 81.151 0.928356 81.1221 0.960327 81.0902L0.677484 80.8073ZM0.81445 80.751H0.807768V81.151H0.81445V80.751ZM0.807768 80.751C0.817081 80.751 0.831799 80.7517 0.849428 80.7559C0.867841 80.7603 0.885537 80.7675 0.901759 80.7773L0.695958 81.1203C0.737907 81.1454 0.778931 81.151 0.807768 81.151V80.751ZM0.970355 80.8459C0.980089 80.8621 0.987295 80.8798 0.991679 80.8982C0.995877 80.9158 0.996631 80.9305 0.996631 80.9398H0.596631C0.596631 80.9687 0.60219 81.0097 0.627361 81.0517L0.970355 80.8459ZM0.996631 80.9398C0.996631 80.9614 0.992436 81.0224 0.940281 81.0746L0.657436 80.7917C0.601939 80.8472 0.596631 80.9127 0.596631 80.9398H0.996631ZM0.94028 81.0746C0.92585 81.089 0.880551 81.1287 0.807768 81.1287V80.7287C0.728302 80.7287 0.677435 80.7717 0.657437 80.7917L0.94028 81.0746ZM0.807768 81.1287C0.76648 81.1287 0.728568 81.1156 0.698221 81.0947C0.669872 81.0752 0.652702 81.0523 0.642953 81.0361L0.985947 80.8303C0.962904 80.7919 0.905412 80.7287 0.807768 80.7287V81.1287ZM0.711549 81.1047C0.695302 81.0949 0.672403 81.0777 0.652914 81.0494C0.63205 81.019 0.618905 80.9811 0.618905 80.9398H1.01891C1.01891 80.8422 0.955756 80.7847 0.917352 80.7617L0.711549 81.1047ZM0.818905 81.1398H0.818906V80.7398H0.818905V81.1398ZM1.01222 80.9376C1.01222 80.872 0.981438 80.8232 0.952952 80.7947C0.924465 80.7662 0.875601 80.7354 0.809996 80.7354V81.1354C0.745505 81.1354 0.697755 81.1052 0.670103 81.0775C0.642453 81.0499 0.612224 81.0021 0.612224 80.9376H1.01222ZM1.01 80.9354C1.01 80.8698 0.979206 80.8209 0.950718 80.7924C0.922232 80.764 0.87337 80.7332 0.807769 80.7332V81.1332C0.743281 81.1332 0.695533 81.1029 0.667882 81.0753C0.640229 81.0476 0.609996 80.9999 0.609996 80.9354H1.01ZM0.807769 80.7332C0.726294 80.7332 0.675993 80.7799 0.661883 80.794L0.944744 81.0768C0.934444 81.0871 0.920113 81.0991 0.901101 81.1094C0.882858 81.1194 0.850496 81.1332 0.807769 81.1332V80.7332ZM0.603314 80.9354V80.9376H1.00331V80.9354H0.603314ZM0.803314 81.1376H0.812224V80.7376H0.803314V81.1376Z" fill="white" mask="url(#path-13-outside-4_16_2182)"/>
<path d="M0.938834 80.8198V80.7073L0.826366 80.8198H0.738834V80.8827C0.737742 80.8845 0.736724 80.8863 0.735777 80.8881L0.729924 80.894V80.9014C0.724155 80.9173 0.723242 80.9315 0.723242 80.9398C0.723242 80.9509 0.724682 80.9647 0.729924 80.9795V81.0465H0.738834V81.051H0.828815C0.830161 81.051 0.831151 81.051 0.831731 81.051C0.831912 81.051 0.832053 81.051 0.832152 81.051H0.836607H0.838834H0.845517H0.878026H0.945517V80.951V80.9198V80.8198H0.938834ZM0.739104 80.9332H0.745517V80.9354V80.9398V80.9465V80.9488H0.740056C0.739939 80.948 0.739829 80.9473 0.739728 80.9465C0.739433 80.9443 0.739206 80.9421 0.739055 80.9398C0.738986 80.9388 0.738932 80.9378 0.738895 80.9367C0.738912 80.9363 0.738932 80.9358 0.738955 80.9354C0.738995 80.9347 0.739044 80.9339 0.739104 80.9332ZM0.895696 81.0034C0.895315 81.0037 0.894929 81.0041 0.894539 81.0045L0.845517 80.9554V80.9532V80.951H0.845519L0.89684 81.0023C0.896463 81.0027 0.896082 81.003 0.895696 81.0034Z" fill="white" stroke="white" stroke-width="0.2"/>
<mask id="path-16-outside-5_16_2182" maskUnits="userSpaceOnUse" x="-0.134277" y="79.9198" width="2" height="2" fill="black">
<rect fill="white" x="-0.134277" y="79.9198" width="2" height="2"/>
<path d="M0.879087 80.9465H0.881315C0.882428 80.9454 0.883542 80.9432 0.883542 80.9398C0.883542 80.9387 0.882428 80.9371 0.881315 80.9354C0.881315 80.9343 0.880201 80.9332 0.879087 80.9332C0.877417 80.9332 0.875746 80.9343 0.874632 80.9354V80.9398V80.9443C0.875746 80.946 0.877417 80.9465 0.879087 80.9465ZM0.874632 80.9332C0.874632 80.9321 0.875189 80.9309 0.87686 80.9309C0.877973 80.9298 0.879644 80.9287 0.881315 80.9287C0.884099 80.9287 0.886326 80.9304 0.887997 80.9332C0.889111 80.9348 0.890224 80.9371 0.890224 80.9398C0.890224 80.9432 0.889111 80.946 0.887997 80.9488C0.886326 80.9504 0.884099 80.951 0.881315 80.951H0.87686C0.875189 80.9499 0.874632 80.9488 0.874632 80.9488V80.951H0.865723V80.9198H0.874632V80.9332Z"/>
</mask>
<path d="M0.879087 80.9465H0.881315C0.882428 80.9454 0.883542 80.9432 0.883542 80.9398C0.883542 80.9387 0.882428 80.9371 0.881315 80.9354C0.881315 80.9343 0.880201 80.9332 0.879087 80.9332C0.877417 80.9332 0.875746 80.9343 0.874632 80.9354V80.9398V80.9443C0.875746 80.946 0.877417 80.9465 0.879087 80.9465ZM0.874632 80.9332C0.874632 80.9321 0.875189 80.9309 0.87686 80.9309C0.877973 80.9298 0.879644 80.9287 0.881315 80.9287C0.884099 80.9287 0.886326 80.9304 0.887997 80.9332C0.889111 80.9348 0.890224 80.9371 0.890224 80.9398C0.890224 80.9432 0.889111 80.946 0.887997 80.9488C0.886326 80.9504 0.884099 80.951 0.881315 80.951H0.87686C0.875189 80.9499 0.874632 80.9488 0.874632 80.9488V80.951H0.865723V80.9198H0.874632V80.9332Z" fill="white"/>
<path d="M0.881315 80.9465V81.1465H0.964161L1.02274 81.0879L0.881315 80.9465ZM0.881315 80.9354H0.681315V80.9959L0.7149 81.0463L0.881315 80.9354ZM0.874632 80.9354L0.733202 80.794L0.674632 80.8526V80.9354H0.874632ZM0.874632 80.9443H0.674632V81.0049L0.708221 81.0552L0.874632 80.9443ZM0.87686 80.9309V81.1309H0.95971L1.01829 81.0723L0.87686 80.9309ZM0.887997 80.9332L0.716306 81.0362L0.721589 81.0441L0.887997 80.9332ZM0.887997 80.9488L1.02942 81.0902L1.05844 81.0612L1.07369 81.023L0.887997 80.9488ZM0.87686 80.951L0.765921 81.1174L0.816306 81.151H0.87686V80.951ZM0.874632 80.9488L1.05352 80.8593L0.674632 80.9488H0.874632ZM0.874632 80.951V81.151H1.07463V80.951H0.874632ZM0.865723 80.951H0.665723V81.151H0.865723V80.951ZM0.865723 80.9198V80.7198H0.665723V80.9198H0.865723ZM0.874632 80.9198H1.07463V80.7198H0.874632V80.9198ZM0.879087 81.1465H0.881315V80.7465H0.879087V81.1465ZM1.02274 81.0879C1.06799 81.0427 1.08354 80.986 1.08354 80.9398H0.683542C0.683542 80.9003 0.696862 80.8481 0.739889 80.8051L1.02274 81.0879ZM1.08354 80.9398C1.08354 80.8846 1.06004 80.845 1.05842 80.8421C1.05517 80.8361 1.05225 80.8314 1.05072 80.829C1.0492 80.8267 1.04779 80.8246 1.04773 80.8245L0.7149 81.0463C0.716795 81.0492 0.711942 81.0422 0.707268 81.0336C0.704637 81.0288 0.699699 81.0193 0.695113 81.0065C0.690916 80.9948 0.683542 80.971 0.683542 80.9398H1.08354ZM1.08131 80.9354C1.08131 80.8698 1.05053 80.8209 1.02204 80.7924C0.993548 80.7639 0.944685 80.7332 0.879087 80.7332V81.1332C0.814604 81.1332 0.766854 81.1029 0.739197 81.0753C0.711541 81.0476 0.681315 80.9999 0.681315 80.9354H1.08131ZM0.879087 80.7332C0.797612 80.7332 0.747311 80.7799 0.733202 80.794L1.01606 81.0768C1.00576 81.0871 0.991431 81.0991 0.972419 81.1094C0.954176 81.1194 0.921815 81.1332 0.879087 81.1332V80.7332ZM0.674632 80.9354V80.9398H1.07463V80.9354H0.674632ZM0.674632 80.9398V80.9443H1.07463V80.9398H0.674632ZM0.708221 81.0552C0.75663 81.1279 0.831309 81.1465 0.879087 81.1465V80.7465C0.899855 80.7465 0.928528 80.7499 0.959411 80.764C0.991998 80.7788 1.02052 80.8026 1.04104 80.8334L0.708221 81.0552ZM1.07463 80.9332C1.07463 80.9623 1.06773 81.0129 1.02877 81.0597C0.984453 81.1128 0.924125 81.1309 0.87686 81.1309V80.7309C0.827924 80.7309 0.766482 80.7496 0.721474 80.8036C0.681813 80.8512 0.674632 80.9029 0.674632 80.9332H1.07463ZM1.01829 81.0723C1.00799 81.0827 0.993659 81.0946 0.974647 81.105C0.956404 81.1149 0.924042 81.1287 0.881315 81.1287V80.7287C0.79984 80.7287 0.749539 80.7754 0.735429 80.7895L1.01829 81.0723ZM0.881315 81.1287C0.840027 81.1287 0.802115 81.1156 0.771767 81.0947C0.743419 81.0752 0.726248 81.0523 0.7165 81.0361L1.05949 80.8303C1.03645 80.7919 0.978958 80.7287 0.881315 80.7287V81.1287ZM0.721589 81.0441C0.71187 81.0295 0.690224 80.9926 0.690224 80.9398H1.09022C1.09022 80.8815 1.06635 80.8401 1.0544 80.8222L0.721589 81.0441ZM0.690224 80.9398C0.690224 80.8993 0.704862 80.8681 0.702304 80.8745L1.07369 81.023C1.07381 81.0227 1.07506 81.0197 1.07636 81.0161C1.07778 81.0123 1.07981 81.0065 1.08183 80.9995C1.08603 80.9848 1.09022 80.9644 1.09022 80.9398H0.690224ZM0.746576 80.8073C0.798733 80.7552 0.859754 80.751 0.881315 80.751V81.151C0.908443 81.151 0.97392 81.1457 1.02942 81.0902L0.746576 80.8073ZM0.881315 80.751H0.87686V81.151H0.881315V80.751ZM0.987798 80.7846C1.00424 80.7955 1.01781 80.8083 1.02876 80.8214C1.03419 80.8279 1.0389 80.8344 1.04298 80.8408C1.04503 80.844 1.04692 80.8471 1.04867 80.8502C1.04954 80.8518 1.05038 80.8533 1.05119 80.8548C1.05159 80.8556 1.05199 80.8563 1.05238 80.8571C1.05257 80.8574 1.05277 80.8578 1.05296 80.8582C1.05305 80.8584 1.05315 80.8586 1.05324 80.8588C1.05329 80.8589 1.05333 80.8589 1.05338 80.859C1.0534 80.8591 1.05344 80.8592 1.05345 80.8592C1.05349 80.8592 1.05352 80.8593 0.874632 80.9488C0.695745 81.0382 0.69578 81.0383 0.695815 81.0383C0.695826 81.0384 0.695861 81.0384 0.695885 81.0385C0.695932 81.0386 0.695979 81.0387 0.696026 81.0388C0.69612 81.0389 0.696215 81.0391 0.69631 81.0393C0.696501 81.0397 0.696694 81.0401 0.696889 81.0404C0.697279 81.0412 0.697679 81.042 0.698087 81.0427C0.698905 81.0443 0.699759 81.0458 0.700653 81.0474C0.70244 81.0506 0.704387 81.0538 0.706508 81.0571C0.710749 81.0637 0.715702 81.0706 0.721475 81.0775C0.733121 81.0915 0.747808 81.1053 0.765921 81.1174L0.987798 80.7846ZM0.674632 80.9488V80.951H1.07463V80.9488H0.674632ZM0.874632 80.751H0.865723V81.151H0.874632V80.751ZM1.06572 80.951V80.9198H0.665723V80.951H1.06572ZM0.865723 81.1198H0.874632V80.7198H0.865723V81.1198ZM0.674632 80.9198V80.9332H1.07463V80.9198H0.674632Z" fill="white" mask="url(#path-16-outside-5_16_2182)"/>
<path d="M0.834234 80.8287H0.744144L0.796301 80.9591V80.9599V81.0599H0.845951L0.924093 81.2422L0.989877 81.012C0.991819 81.0091 0.993364 81.0065 0.994531 81.0044C0.999063 80.9961 1.0021 80.9878 1.00408 80.9801L1.01033 80.9629L1.05912 80.8287H0.964469H0.916347H0.909665H0.898528H0.891846H0.834234Z" fill="white" stroke="white" stroke-width="0.2"/>
<path d="M0.976286 80.8198L0.842992 80.6421L0.842992 80.8198H0.834082V80.9118L0.806025 80.9398L0.834082 80.9679V81.051H0.842992V81.2376L0.982968 81.051H1.04299H1.20001L1.08887 80.9398L1.20001 80.8287H1.04299V80.8198H0.976286Z" fill="white" stroke="white" stroke-width="0.2"/>
<path d="M1.06911 80.8287V80.8198H0.969115H0.960205H0.860205V80.8287V80.9198V80.9265V80.9287V80.951V81.0265V81.051H0.960205H0.969115H1.06911V81.0265V80.951V80.9287V80.9265V80.9198V80.8287Z" fill="white" stroke="white" stroke-width="0.2"/>
<mask id="path-21-outside-6_16_2182" maskUnits="userSpaceOnUse" x="-0.0258789" y="79.9287" width="2" height="2" fill="black">
<rect fill="white" x="-0.0258789" y="79.9287" width="2" height="2"/>
<path d="M0.991941 80.9309V80.9354H0.989713C0.989713 80.9343 0.988599 80.9332 0.987486 80.9332C0.985815 80.9332 0.984144 80.9343 0.983031 80.9354C0.98136 80.9371 0.980803 80.9387 0.980803 80.9398C0.980803 80.9415 0.98136 80.9432 0.983031 80.9443C0.984145 80.946 0.985815 80.9465 0.987486 80.9465H0.989713C0.990827 80.9454 0.991941 80.9443 0.991941 80.9443V80.951H0.989713H0.985258C0.981917 80.951 0.979133 80.9504 0.976349 80.9488C0.974678 80.946 0.974121 80.9432 0.974121 80.9398C0.974121 80.9371 0.974678 80.9348 0.976349 80.9332C0.979133 80.9304 0.981917 80.9287 0.985258 80.9287H0.989713C0.990827 80.9287 0.991941 80.9298 0.991941 80.9309Z"/>
</mask>
<path d="M0.991941 80.9309V80.9354H0.989713C0.989713 80.9343 0.988599 80.9332 0.987486 80.9332C0.985815 80.9332 0.984144 80.9343 0.983031 80.9354C0.98136 80.9371 0.980803 80.9387 0.980803 80.9398C0.980803 80.9415 0.98136 80.9432 0.983031 80.9443C0.984145 80.946 0.985815 80.9465 0.987486 80.9465H0.989713C0.990827 80.9454 0.991941 80.9443 0.991941 80.9443V80.951H0.989713H0.985258C0.981917 80.951 0.979133 80.9504 0.976349 80.9488C0.974678 80.946 0.974121 80.9432 0.974121 80.9398C0.974121 80.9371 0.974678 80.9348 0.976349 80.9332C0.979133 80.9304 0.981917 80.9287 0.985258 80.9287H0.989713C0.990827 80.9287 0.991941 80.9298 0.991941 80.9309Z" fill="white"/>
<path d="M0.991941 80.9354V81.1354H1.19194V80.9354H0.991941ZM0.989713 80.9354H0.789713V81.1354H0.989713V80.9354ZM0.983031 80.9354L1.12445 81.0768L1.12446 81.0768L0.983031 80.9354ZM0.983031 80.9443L1.14944 80.8334L1.12725 80.8001L1.09397 80.7779L0.983031 80.9443ZM0.989713 80.9465V81.1465H1.07256L1.13114 81.0879L0.989713 80.9465ZM0.991941 80.9443H1.19194V80.4615L0.850524 80.8029L0.991941 80.9443ZM0.991941 80.951V81.151H1.19194V80.951H0.991941ZM0.976349 80.9488L0.804851 81.0517L0.830576 81.0945L0.873448 81.1203L0.976349 80.9488ZM0.976349 80.9332L0.834927 80.7917L0.834926 80.7917L0.976349 80.9332ZM0.791941 80.9309V80.9354H1.19194V80.9309H0.791941ZM0.991941 80.7354H0.989713V81.1354H0.991941V80.7354ZM1.18971 80.9354C1.18971 80.8698 1.15893 80.8209 1.13044 80.7924C1.10195 80.7639 1.05308 80.7332 0.987486 80.7332V81.1332C0.923002 81.1332 0.875252 81.1029 0.847596 81.0753C0.819939 81.0476 0.789713 80.9999 0.789713 80.9354H1.18971ZM0.987486 80.7332C0.906011 80.7332 0.85571 80.7799 0.8416 80.794L1.12446 81.0768C1.11416 81.0871 1.09983 81.0991 1.08082 81.1094C1.06257 81.1194 1.03021 81.1332 0.987486 81.1332V80.7332ZM0.841609 80.794C0.809637 80.8259 0.780803 80.8763 0.780803 80.9398H1.1808C1.1808 81.0012 1.15308 81.0482 1.12445 81.0768L0.841609 80.794ZM0.780803 80.9398C0.780803 80.9876 0.799476 81.0623 0.872096 81.1107L1.09397 80.7779C1.12475 80.7984 1.14855 80.8269 1.16336 80.8595C1.1774 80.8904 1.1808 80.9191 1.1808 80.9398H0.780803ZM0.81662 81.0552C0.865029 81.1279 0.939707 81.1465 0.987486 81.1465V80.7465C1.00825 80.7465 1.03693 80.7499 1.06781 80.764C1.1004 80.7788 1.12892 80.8026 1.14944 80.8334L0.81662 81.0552ZM0.987486 81.1465H0.989713V80.7465H0.987486V81.1465ZM1.13114 81.0879C1.13169 81.0874 1.13225 81.0868 1.13266 81.0864C1.13287 81.0862 1.13305 81.086 1.13317 81.0859C1.13323 81.0859 1.13328 81.0858 1.13331 81.0858C1.13332 81.0858 1.13334 81.0857 1.13334 81.0857C1.13335 81.0857 1.13335 81.0857 1.13335 81.0857C1.13336 81.0857 1.13336 81.0857 1.13336 81.0857C1.13336 81.0857 1.13336 81.0857 1.13336 81.0857C1.13336 81.0857 1.13336 81.0857 1.13336 81.0857C1.13336 81.0857 1.13336 81.0857 1.13336 81.0857C1.13336 81.0857 1.13336 81.0857 0.991941 80.9443C0.850524 80.8029 0.850524 80.8029 0.850524 80.8029C0.850524 80.8029 0.850524 80.8029 0.850524 80.8029C0.850524 80.8029 0.850523 80.8029 0.850523 80.8029C0.850523 80.8029 0.850523 80.8029 0.850523 80.8029C0.850522 80.8029 0.850521 80.8029 0.85052 80.8029C0.850518 80.8029 0.850515 80.8029 0.850511 80.8029C0.850502 80.8029 0.850489 80.8029 0.850473 80.8029C0.85044 80.803 0.850392 80.803 0.850331 80.8031C0.850209 80.8032 0.850034 80.8034 0.849825 80.8036C0.849406 80.804 0.848847 80.8046 0.848287 80.8051L1.13114 81.0879ZM0.791941 80.9443V80.951H1.19194V80.9443H0.791941ZM0.991941 80.751H0.989713V81.151H0.991941V80.751ZM0.989713 80.751H0.985258V81.151H0.989713V80.751ZM0.985258 80.751C0.994572 80.751 1.00929 80.7517 1.02692 80.7559C1.04533 80.7603 1.06303 80.7675 1.07925 80.7773L0.873448 81.1203C0.915398 81.1454 0.956421 81.151 0.985258 81.151V80.751ZM1.14785 80.8459C1.15758 80.8621 1.16479 80.8798 1.16917 80.8982C1.17337 80.9158 1.17412 80.9305 1.17412 80.9398H0.774121C0.774121 80.9687 0.77968 81.0097 0.804851 81.0517L1.14785 80.8459ZM1.17412 80.9398C1.17412 80.9614 1.16993 81.0224 1.11777 81.0746L0.834926 80.7917C0.779429 80.8472 0.774121 80.9127 0.774121 80.9398H1.17412ZM1.11777 81.0746C1.10334 81.089 1.05804 81.1287 0.985258 81.1287V80.7287C0.905793 80.7287 0.854926 80.7717 0.834927 80.7917L1.11777 81.0746ZM0.985258 81.1287H0.989713V80.7287H0.985258V81.1287ZM0.989713 81.1287C0.925226 81.1287 0.877478 81.0985 0.849826 81.0708C0.822173 81.0432 0.791941 80.9954 0.791941 80.9309H1.19194C1.19194 80.8653 1.16115 80.8165 1.13266 80.788C1.10418 80.7595 1.05531 80.7287 0.989713 80.7287V81.1287Z" fill="white" mask="url(#path-21-outside-6_16_2182)"/>
<path d="M0.913151 80.8287H0.897559V80.9287V80.9421C0.897559 80.9422 0.897557 80.9423 0.897555 80.9425C0.897513 80.9457 0.897309 80.9618 0.904241 80.981V81.0443H0.906468V81.0465H0.913151V81.051H1.00313C1.00448 81.051 1.00547 81.051 1.00605 81.051C1.00623 81.051 1.00637 81.051 1.00647 81.051H1.0087H1.01315H1.01983H1.05012H1.11983V80.951V80.9287V80.8287H1.10424H1.01983H1.01315H1.00424H0.997559H0.913151Z" fill="white" stroke="white" stroke-width="0.2"/>
<path d="M1.05038 80.951L1.10384 81.0044L1.05038 80.951ZM1.05038 80.951H1.04815H1.04147V81.0287C1.04376 81.0287 1.04599 81.0286 1.04815 81.0285C1.06566 81.0273 1.07895 81.0215 1.08676 81.0173L1.05038 80.951ZM1.14815 81.051V80.951V80.9376C1.14815 80.9228 1.14523 80.9101 1.14147 80.8998V80.8354H1.13924V80.8332H1.13479V80.8287H1.04147H1.03479H1.02588H0.925879V80.9287V80.951V81.051H0.941471H1.02588H1.03479H1.04147H1.04815H1.13479H1.14815Z" fill="white" stroke="white" stroke-width="0.2"/>
<mask id="path-25-outside-7_16_2182" maskUnits="userSpaceOnUse" x="0.0544434" y="79.9287" width="2" height="2" fill="black">
<rect fill="white" x="0.0544434" y="79.9287" width="2" height="2"/>
<path d="M1.07004 80.9465C1.07004 80.9482 1.06892 80.9499 1.06781 80.951H1.06335C1.06001 80.951 1.05778 80.9504 1.05667 80.9488C1.055 80.946 1.05444 80.9432 1.05444 80.9398C1.05444 80.9371 1.055 80.9348 1.05667 80.9332C1.05778 80.9304 1.06001 80.9287 1.06335 80.9287C1.06447 80.9287 1.06614 80.9298 1.06781 80.9309C1.06892 80.9309 1.07004 80.9321 1.07004 80.9332V80.9287H1.07672V80.9488C1.07672 80.9515 1.07505 80.9538 1.07226 80.9554C1.07059 80.9582 1.06836 80.9599 1.06558 80.9599H1.0589L1.05667 80.9577V80.9532H1.0589C1.06001 80.9543 1.06168 80.9554 1.06335 80.9554C1.06614 80.9554 1.06781 80.9543 1.06781 80.9532C1.06892 80.9532 1.07004 80.9515 1.07004 80.9488V80.9465ZM1.06558 80.9332C1.06391 80.9332 1.06224 80.9343 1.06113 80.9354V80.9398V80.9443C1.06224 80.946 1.06391 80.9465 1.06558 80.9465C1.06669 80.9465 1.06781 80.946 1.06781 80.9443C1.06892 80.9432 1.07004 80.9415 1.07004 80.9398C1.07004 80.9387 1.06892 80.9371 1.06781 80.9354C1.06781 80.9343 1.06669 80.9332 1.06558 80.9332Z"/>
</mask>
<path d="M1.07004 80.9465C1.07004 80.9482 1.06892 80.9499 1.06781 80.951H1.06335C1.06001 80.951 1.05778 80.9504 1.05667 80.9488C1.055 80.946 1.05444 80.9432 1.05444 80.9398C1.05444 80.9371 1.055 80.9348 1.05667 80.9332C1.05778 80.9304 1.06001 80.9287 1.06335 80.9287C1.06447 80.9287 1.06614 80.9298 1.06781 80.9309C1.06892 80.9309 1.07004 80.9321 1.07004 80.9332V80.9287H1.07672V80.9488C1.07672 80.9515 1.07505 80.9538 1.07226 80.9554C1.07059 80.9582 1.06836 80.9599 1.06558 80.9599H1.0589L1.05667 80.9577V80.9532H1.0589C1.06001 80.9543 1.06168 80.9554 1.06335 80.9554C1.06614 80.9554 1.06781 80.9543 1.06781 80.9532C1.06892 80.9532 1.07004 80.9515 1.07004 80.9488V80.9465ZM1.06558 80.9332C1.06391 80.9332 1.06224 80.9343 1.06113 80.9354V80.9398V80.9443C1.06224 80.946 1.06391 80.9465 1.06558 80.9465C1.06669 80.9465 1.06781 80.946 1.06781 80.9443C1.06892 80.9432 1.07004 80.9415 1.07004 80.9398C1.07004 80.9387 1.06892 80.9371 1.06781 80.9354C1.06781 80.9343 1.06669 80.9332 1.06558 80.9332Z" fill="white"/>
<path d="M1.06781 80.951V81.151H1.15064L1.20922 81.0924L1.06781 80.951ZM1.05667 80.9488L0.884979 81.0518L0.890264 81.0597L1.05667 80.9488ZM1.05667 80.9332L1.19809 81.0746L1.22712 81.0456L1.24237 81.0074L1.05667 80.9332ZM1.06781 80.9309L0.956865 81.0973L1.00725 81.1309H1.06781V80.9309ZM1.07004 80.9287V80.7287H0.870035V80.9287H1.07004ZM1.07672 80.9287H1.27672V80.7287H1.07672V80.9287ZM1.07226 80.9554L0.969361 80.7839L0.92649 80.8097L0.900766 80.8525L1.07226 80.9554ZM1.0589 80.9599L0.917477 81.1013L0.976056 81.1599H1.0589V80.9599ZM1.05667 80.9577H0.856671V81.0405L0.915249 81.0991L1.05667 80.9577ZM1.05667 80.9532V80.7532H0.856671V80.9532H1.05667ZM1.0589 80.9532L1.20032 80.8118L1.14174 80.7532H1.0589V80.9532ZM1.06781 80.9532V80.7532H0.867808V80.9532H1.06781ZM1.06113 80.9354L0.919695 80.794L0.861126 80.8526V80.9354H1.06113ZM1.06113 80.9443H0.861126V81.0049L0.894715 81.0552L1.06113 80.9443ZM1.06781 80.9443L0.926391 80.8029L0.867808 80.8615V80.9443H1.06781ZM1.06781 80.9354H0.867808V80.996L0.9014 81.0463L1.06781 80.9354ZM0.870035 80.9465C0.870035 80.9038 0.883809 80.8714 0.893759 80.8532C0.904129 80.8342 0.916094 80.8199 0.926396 80.8096L1.20922 81.0924C1.22333 81.0783 1.27004 81.028 1.27004 80.9465H0.870035ZM1.06781 80.751H1.06335V81.151H1.06781V80.751ZM1.06335 80.751C1.06991 80.751 1.0918 80.7512 1.11883 80.7596C1.14983 80.7693 1.19225 80.7916 1.22308 80.8378L0.890264 81.0597C0.954356 81.1558 1.05983 81.151 1.06335 81.151V80.751ZM1.22817 80.8459C1.2379 80.8621 1.24511 80.8798 1.24949 80.8982C1.25369 80.9158 1.25444 80.9305 1.25444 80.9398H0.854443C0.854443 80.9687 0.860002 81.0097 0.885174 81.0517L1.22817 80.8459ZM1.25444 80.9398C1.25444 80.9614 1.25025 81.0224 1.19809 81.0746L0.915248 80.7917C0.859752 80.8472 0.854443 80.9127 0.854443 80.9398H1.25444ZM1.24237 81.0074C1.23078 81.0364 1.20908 81.0695 1.17248 81.0947C1.13555 81.1201 1.09602 81.1287 1.06335 81.1287V80.7287C1.02734 80.7287 0.985033 80.7382 0.945871 80.7651C0.90705 80.7918 0.883679 80.8271 0.870976 80.8589L1.24237 81.0074ZM1.06335 81.1287C1.0322 81.1287 1.00841 81.1213 0.996713 81.1171C0.983939 81.1126 0.974428 81.1076 0.969602 81.105C0.961029 81.1003 0.954031 81.0955 0.956865 81.0973L1.17875 80.7645C1.17865 80.7645 1.17655 80.7631 1.17417 80.7615C1.17177 80.76 1.16711 80.7571 1.16114 80.7538C1.15818 80.7522 1.11861 80.7287 1.06335 80.7287V81.1287ZM1.06781 81.1309C1.00332 81.1309 0.955566 81.1007 0.927915 81.0731C0.900265 81.0454 0.870035 80.9977 0.870035 80.9332H1.27004C1.27004 80.8676 1.23925 80.8187 1.21076 80.7902C1.18228 80.7617 1.13341 80.7309 1.06781 80.7309V81.1309ZM1.27004 80.9332V80.9287H0.870035V80.9332H1.27004ZM1.07004 81.1287H1.07672V80.7287H1.07004V81.1287ZM0.876718 80.9287V80.9488H1.27672V80.9287H0.876718ZM0.876718 80.9488C0.876718 80.9075 0.889862 80.8696 0.910726 80.8392C0.930216 80.8109 0.953115 80.7937 0.969361 80.7839L1.17516 81.1269C1.21357 81.1039 1.27672 81.0464 1.27672 80.9488H0.876718ZM0.900766 80.8525C0.910514 80.8363 0.927685 80.8134 0.956033 80.7939C0.98638 80.773 1.02429 80.7599 1.06558 80.7599V81.1599C1.16322 81.1599 1.22072 81.0967 1.24376 81.0583L0.900766 80.8525ZM1.06558 80.7599H1.0589V81.1599H1.06558V80.7599ZM1.20032 80.8185L1.19809 80.8162L0.915249 81.0991L0.917477 81.1013L1.20032 80.8185ZM1.25667 80.9577V80.9532H0.856671V80.9577H1.25667ZM1.05667 81.1532H1.0589V80.7532H1.05667V81.1532ZM0.917477 81.0946C0.931572 81.1087 0.981873 81.1554 1.06335 81.1554V80.7554C1.10608 80.7554 1.13845 80.7692 1.15669 80.7792C1.1757 80.7895 1.19003 80.8015 1.20032 80.8118L0.917477 81.0946ZM1.06335 81.1554C1.08916 81.1554 1.12522 81.1506 1.16239 81.1303C1.19205 81.1141 1.26781 81.0599 1.26781 80.9532H0.867808C0.867808 80.8476 0.942726 80.7945 0.970855 80.7792C1.0065 80.7597 1.04033 80.7554 1.06335 80.7554V81.1554ZM1.06781 81.1532C1.17452 81.1532 1.22874 81.0775 1.24492 81.0478C1.2652 81.0106 1.27004 80.9746 1.27004 80.9488H0.870035C0.870035 80.9257 0.874316 80.8919 0.893759 80.8563C0.909104 80.8281 0.962212 80.7532 1.06781 80.7532V81.1532ZM1.27004 80.9488V80.9465H0.870035V80.9488H1.27004ZM1.06558 80.7332C0.984106 80.7332 0.933805 80.7799 0.919695 80.794L1.20256 81.0768C1.19226 81.0871 1.17792 81.0991 1.15891 81.1094C1.14067 81.1194 1.10831 81.1332 1.06558 81.1332V80.7332ZM0.861126 80.9354V80.9398H1.26113V80.9354H0.861126ZM0.861126 80.9398V80.9443H1.26113V80.9398H0.861126ZM0.894715 81.0552C0.943124 81.1279 1.0178 81.1465 1.06558 81.1465V80.7465C1.08635 80.7465 1.11502 80.7499 1.1459 80.764C1.17849 80.7788 1.20702 80.8026 1.22754 80.8334L0.894715 81.0552ZM1.06558 81.1465C1.09585 81.1465 1.14755 81.1393 1.19515 81.0997C1.24916 81.0547 1.26781 80.9932 1.26781 80.9443H0.867808C0.867808 80.897 0.885901 80.8367 0.939077 80.7924C0.985836 80.7534 1.03642 80.7465 1.06558 80.7465V81.1465ZM1.20922 81.0857C1.22333 81.0716 1.27004 81.0213 1.27004 80.9398H0.870035C0.870035 80.8971 0.883809 80.8648 0.89376 80.8465C0.904129 80.8275 0.916093 80.8132 0.926391 80.8029L1.20922 81.0857ZM1.27004 80.9398C1.27004 80.8846 1.24654 80.845 1.24492 80.8421C1.24166 80.8361 1.23874 80.8314 1.23721 80.829C1.23569 80.8266 1.23428 80.8246 1.23422 80.8244L0.9014 81.0463C0.903289 81.0492 0.898436 81.0422 0.89376 81.0336C0.891128 81.0288 0.88619 81.0193 0.881604 81.0065C0.877407 80.9948 0.870035 80.971 0.870035 80.9398H1.27004ZM1.26781 80.9354C1.26781 80.8698 1.23702 80.8209 1.20853 80.7924C1.18004 80.764 1.13118 80.7332 1.06558 80.7332V81.1332C1.00109 81.1332 0.953345 81.1029 0.925693 81.0753C0.898041 81.0476 0.867808 80.9999 0.867808 80.9354H1.26781Z" fill="white" mask="url(#path-25-outside-7_16_2182)"/>
<mask id="path-27-outside-8_16_2182" maskUnits="userSpaceOnUse" x="-0.327637" y="79.9599" width="2" height="2" fill="black">
<rect fill="white" x="-0.327637" y="79.9599" width="2" height="2"/>
<path d="M0.690183 80.9599V80.9666H0.685728H0.6835V80.9688H0.690183V80.9733H0.6835V80.9911H0.676818V80.9733H0.672363V80.9688H0.676818C0.676818 80.966 0.677375 80.9638 0.679046 80.9621C0.680159 80.961 0.682387 80.9599 0.685728 80.9599H0.690183Z"/>
</mask>
<path d="M0.690183 80.9599V80.9666H0.685728H0.6835V80.9688H0.690183V80.9733H0.6835V80.9911H0.676818V80.9733H0.672363V80.9688H0.676818C0.676818 80.966 0.677375 80.9638 0.679046 80.9621C0.680159 80.961 0.682387 80.9599 0.685728 80.9599H0.690183Z" fill="white"/>
<path d="M0.690183 80.9599H0.890183V80.7599H0.690183V80.9599ZM0.690183 80.9666V81.1666H0.890183V80.9666H0.690183ZM0.6835 80.9666V80.7666H0.4835V80.9666H0.6835ZM0.6835 80.9688H0.4835V81.1688H0.6835V80.9688ZM0.690183 80.9688H0.890183V80.7688H0.690183V80.9688ZM0.690183 80.9733V81.1733H0.890183V80.9733H0.690183ZM0.6835 80.9733V80.7733H0.4835V80.9733H0.6835ZM0.6835 80.9911V81.1911H0.8835V80.9911H0.6835ZM0.676818 80.9911H0.476818V81.1911H0.676818V80.9911ZM0.676818 80.9733H0.876818V80.7733H0.676818V80.9733ZM0.672363 80.9733H0.472363V81.1733H0.672363V80.9733ZM0.672363 80.9688V80.7688H0.472363V80.9688H0.672363ZM0.676818 80.9688V81.1688H0.876818V80.9688H0.676818ZM0.679046 80.9621L0.820468 81.1035L0.820471 81.1035L0.679046 80.9621ZM0.490183 80.9599V80.9666H0.890183V80.9599H0.490183ZM0.690183 80.7666H0.685728V81.1666H0.690183V80.7666ZM0.685728 80.7666H0.6835V81.1666H0.685728V80.7666ZM0.4835 80.9666V80.9688H0.8835V80.9666H0.4835ZM0.6835 81.1688H0.690183V80.7688H0.6835V81.1688ZM0.490183 80.9688V80.9733H0.890183V80.9688H0.490183ZM0.690183 80.7733H0.6835V81.1733H0.690183V80.7733ZM0.4835 80.9733V80.9911H0.8835V80.9733H0.4835ZM0.6835 80.7911H0.676818V81.1911H0.6835V80.7911ZM0.876818 80.9911V80.9733H0.476818V80.9911H0.876818ZM0.676818 80.7733H0.672363V81.1733H0.676818V80.7733ZM0.872363 80.9733V80.9688H0.472363V80.9733H0.872363ZM0.672363 81.1688H0.676818V80.7688H0.672363V81.1688ZM0.876818 80.9688C0.876818 80.9904 0.872624 81.0514 0.820468 81.1035L0.537623 80.8207C0.482126 80.8762 0.476818 80.9417 0.476818 80.9688H0.876818ZM0.820471 81.1035C0.777433 81.1466 0.725232 81.1599 0.685728 81.1599V80.7599C0.639542 80.7599 0.582886 80.7754 0.53762 80.8207L0.820471 81.1035ZM0.685728 81.1599H0.690183V80.7599H0.685728V81.1599Z" fill="white" mask="url(#path-27-outside-8_16_2182)"/>
<path d="M0.769856 81.0445C0.764426 81.0496 0.758672 81.0539 0.752771 81.0574C0.744315 81.062 0.729423 81.0683 0.709714 81.0688V80.9911H0.716398L0.769856 81.0445ZM0.709714 80.8688H0.707487H0.700804H0.691895H0.591895V80.9688V80.9911V81.0911H0.691895H0.700804H0.800804V81.0755H0.809714V80.9755V80.9688V80.8688H0.800804H0.709714Z" fill="white" stroke="white" stroke-width="0.2"/>
<path d="M0.64343 80.9026C0.635122 80.9109 0.628981 80.9196 0.624449 80.9282L0.772849 81.0805C0.782778 81.0758 0.793091 81.0691 0.802672 81.0596L0.817186 81.0451L0.824809 81.026C0.824828 81.0259 0.824865 81.0259 0.824919 81.0257C0.826024 81.0231 0.834188 81.004 0.834188 80.9799C0.834188 80.9512 0.823113 80.9302 0.816372 80.9196C0.793965 80.8841 0.756803 80.8688 0.723051 80.8688C0.681648 80.8688 0.654822 80.8912 0.643431 80.9026L0.64343 80.9026Z" fill="white" stroke="white" stroke-width="0.2"/>
<path d="M0.861532 81.1601V81.0911H0.874897V80.9911V80.9777C0.874897 80.9601 0.87075 80.9454 0.865987 80.9342V80.8733H0.848168V80.8688H0.768214H0.75485H0.748168H0.739258H0.639258V80.9688V80.9911V81.0911H0.65485H0.668214H0.739258H0.748168H0.75485H0.757988L0.861532 81.1601Z" fill="white" stroke="white" stroke-width="0.2"/>
<path d="M0.909812 80.9688V80.8867V80.8688H0.903129V80.8622H0.803129H0.796447H0.696447V80.8688H0.691992V80.9688V80.9733V81.0733H0.703129V81.0867H0.771071C0.787097 81.0913 0.799862 81.0912 0.802708 81.0911C0.802889 81.0911 0.80303 81.0911 0.803129 81.0911H0.809812H0.909812V81.0733V80.9911V80.9867V80.9733V80.9688Z" fill="white" stroke="white" stroke-width="0.2"/>
<mask id="path-33-outside-9_16_2182" maskUnits="userSpaceOnUse" x="-0.186768" y="79.9599" width="2" height="2" fill="black">
<rect fill="white" x="-0.186768" y="79.9599" width="2" height="2"/>
<path d="M0.835507 80.9777V80.9911H0.828824V80.9822V80.9777V80.9755H0.826597V80.9733C0.824926 80.9733 0.823256 80.9744 0.822142 80.9755V80.9799V80.9911H0.813232V80.9599H0.822142V80.9733C0.822142 80.9722 0.822699 80.971 0.82437 80.971C0.825483 80.9699 0.827154 80.9688 0.828824 80.9688C0.829938 80.9688 0.831609 80.9699 0.833279 80.971C0.834393 80.9727 0.835507 80.9749 0.835507 80.9777Z"/>
</mask>
<path d="M0.835507 80.9777V80.9911H0.828824V80.9822V80.9777V80.9755H0.826597V80.9733C0.824926 80.9733 0.823256 80.9744 0.822142 80.9755V80.9799V80.9911H0.813232V80.9599H0.822142V80.9733C0.822142 80.9722 0.822699 80.971 0.82437 80.971C0.825483 80.9699 0.827154 80.9688 0.828824 80.9688C0.829938 80.9688 0.831609 80.9699 0.833279 80.971C0.834393 80.9727 0.835507 80.9749 0.835507 80.9777Z" fill="white"/>
<path d="M0.835507 80.9911V81.1911H1.03551V80.9911H0.835507ZM0.828824 80.9911H0.628824V81.1911H0.828824V80.9911ZM0.828824 80.9755H1.02882V80.7755H0.828824V80.9755ZM0.826597 80.9755H0.626597V81.1755H0.826597V80.9755ZM0.826597 80.9733H1.0266V80.7733H0.826597V80.9733ZM0.822142 80.9755L0.680712 80.8341L0.622142 80.8927V80.9755H0.822142ZM0.822142 80.9911V81.1911H1.02214V80.9911H0.822142ZM0.813232 80.9911H0.613232V81.1911H0.813232V80.9911ZM0.813232 80.9599V80.7599H0.613232V80.9599H0.813232ZM0.822142 80.9599H1.02214V80.7599H0.822142V80.9599ZM0.82437 80.971V81.171H0.90722L0.9658 81.1124L0.82437 80.971ZM0.833279 80.971L0.999694 80.8601L0.977506 80.8268L0.944223 80.8046L0.833279 80.971ZM0.635507 80.9777V80.9911H1.03551V80.9777H0.635507ZM0.835507 80.7911H0.828824V81.1911H0.835507V80.7911ZM1.02882 80.9911V80.9822H0.628824V80.9911H1.02882ZM1.02882 80.9822V80.9777H0.628824V80.9822H1.02882ZM1.02882 80.9777V80.9755H0.628824V80.9777H1.02882ZM0.828824 80.7755H0.826597V81.1755H0.828824V80.7755ZM1.0266 80.9755V80.9733H0.626597V80.9755H1.0266ZM0.826597 80.7733C0.745122 80.7733 0.694821 80.82 0.680712 80.8341L0.963573 81.1169C0.953272 81.1272 0.938941 81.1392 0.919929 81.1495C0.901686 81.1595 0.869324 81.1733 0.826597 81.1733V80.7733ZM0.622142 80.9755V80.9799H1.02214V80.9755H0.622142ZM0.622142 80.9799V80.9911H1.02214V80.9799H0.622142ZM0.822142 80.7911H0.813232V81.1911H0.822142V80.7911ZM1.01323 80.9911V80.9599H0.613232V80.9911H1.01323ZM0.813232 81.1599H0.822142V80.7599H0.813232V81.1599ZM0.622142 80.9599V80.9733H1.02214V80.9599H0.622142ZM1.02214 80.9733C1.02214 81.0024 1.01524 81.053 0.976275 81.0998C0.931963 81.1529 0.871635 81.171 0.82437 81.171V80.771C0.775434 80.771 0.713992 80.7897 0.668984 80.8437C0.629323 80.8913 0.622142 80.943 0.622142 80.9733H1.02214ZM0.9658 81.1124C0.955499 81.1228 0.941169 81.1347 0.922157 81.1451C0.903914 81.155 0.871552 81.1688 0.828824 81.1688V80.7688C0.747349 80.7688 0.697049 80.8155 0.682939 80.8296L0.9658 81.1124ZM0.828824 81.1688C0.797666 81.1688 0.773874 81.1614 0.762184 81.1572C0.74941 81.1527 0.7399 81.1477 0.735075 81.1451C0.726501 81.1404 0.719504 81.1356 0.722336 81.1374L0.944223 80.8046C0.944121 80.8046 0.942023 80.8032 0.939642 80.8016C0.937238 80.8001 0.932584 80.7972 0.926611 80.7939C0.923649 80.7923 0.884077 80.7688 0.828824 80.7688V81.1688ZM0.666865 81.082C0.657157 81.0674 0.635507 81.0305 0.635507 80.9777H1.03551C1.03551 80.9193 1.01163 80.878 0.999694 80.8601L0.666865 81.082Z" fill="white" mask="url(#path-33-outside-9_16_2182)"/>
<mask id="path-35-outside-10_16_2182" maskUnits="userSpaceOnUse" x="-0.158447" y="79.9688" width="2" height="2" fill="black">
<rect fill="white" x="-0.158447" y="79.9688" width="2" height="2"/>
<path d="M0.863828 80.9799V80.9822H0.848235V80.9866H0.854917H0.859372C0.860486 80.9855 0.862156 80.9844 0.863827 80.9844V80.9889C0.862156 80.9905 0.860486 80.9911 0.859372 80.9911H0.85269C0.849349 80.9911 0.846564 80.9905 0.84378 80.9889C0.84211 80.9861 0.841553 80.9833 0.841553 80.9799C0.841553 80.9772 0.84211 80.9749 0.84378 80.9733C0.846564 80.9705 0.849349 80.9688 0.85269 80.9688C0.855474 80.9688 0.857702 80.9705 0.859372 80.9733C0.862156 80.9749 0.863827 80.9772 0.863827 80.9799H0.863828ZM0.857145 80.9777C0.857145 80.9766 0.856032 80.9755 0.854918 80.9755C0.854918 80.9744 0.853804 80.9733 0.852691 80.9733C0.85102 80.9733 0.849349 80.9744 0.848236 80.9755V80.9777H0.857145Z"/>
</mask>
<path d="M0.863828 80.9799V80.9822H0.848235V80.9866H0.854917H0.859372C0.860486 80.9855 0.862156 80.9844 0.863827 80.9844V80.9889C0.862156 80.9905 0.860486 80.9911 0.859372 80.9911H0.85269C0.849349 80.9911 0.846564 80.9905 0.84378 80.9889C0.84211 80.9861 0.841553 80.9833 0.841553 80.9799C0.841553 80.9772 0.84211 80.9749 0.84378 80.9733C0.846564 80.9705 0.849349 80.9688 0.85269 80.9688C0.855474 80.9688 0.857702 80.9705 0.859372 80.9733C0.862156 80.9749 0.863827 80.9772 0.863827 80.9799H0.863828ZM0.857145 80.9777C0.857145 80.9766 0.856032 80.9755 0.854918 80.9755C0.854918 80.9744 0.853804 80.9733 0.852691 80.9733C0.85102 80.9733 0.849349 80.9744 0.848236 80.9755V80.9777H0.857145Z" fill="white"/>
<path d="M0.863828 80.9799H1.06383V80.7799H0.863828V80.9799ZM0.863828 80.9822V81.1822H1.06383V80.9822H0.863828ZM0.848235 80.9822V80.7822H0.648235V80.9822H0.848235ZM0.848235 80.9866H0.648235V81.1866H0.848235V80.9866ZM0.859372 80.9866V81.1866H0.942211L1.00079 81.1281L0.859372 80.9866ZM0.863827 80.9844H1.06383V80.7844H0.863827V80.9844ZM0.863827 80.9889L1.00525 81.1303L1.06383 81.0717V80.9889H0.863827ZM0.84378 80.9889L0.672283 81.0918L0.698007 81.1346L0.74088 81.1604L0.84378 80.9889ZM0.84378 80.9733L0.702359 80.8318L0.702358 80.8318L0.84378 80.9733ZM0.859372 80.9733L0.687875 81.0762L0.713599 81.119L0.75647 81.1448L0.859372 80.9733ZM0.863827 80.9799H0.663827V81.1799H0.863827V80.9799ZM0.857145 80.9777V81.1777H1.05715V80.9777H0.857145ZM0.854918 80.9755H0.654918V81.1755H0.854918V80.9755ZM0.848236 80.9755L0.706805 80.8341L0.648236 80.8927V80.9755H0.848236ZM0.848236 80.9777H0.648236V81.1777H0.848236V80.9777ZM0.663828 80.9799V80.9822H1.06383V80.9799H0.663828ZM0.863828 80.7822H0.848235V81.1822H0.863828V80.7822ZM0.648235 80.9822V80.9866H1.04824V80.9822H0.648235ZM0.848235 81.1866H0.854917V80.7866H0.848235V81.1866ZM0.854917 81.1866H0.859372V80.7866H0.854917V81.1866ZM1.00079 81.1281C0.990498 81.1383 0.976172 81.1503 0.957163 81.1607C0.938922 81.1706 0.906558 81.1844 0.863827 81.1844V80.7844C0.782346 80.7844 0.732045 80.8311 0.717955 80.8452L1.00079 81.1281ZM0.663827 80.9844V80.9889H1.06383V80.9844H0.663827ZM0.722406 80.8474C0.751035 80.8188 0.798052 80.7911 0.859372 80.7911V81.1911C0.92292 81.1911 0.973278 81.1622 1.00525 81.1303L0.722406 80.8474ZM0.859372 80.7911H0.85269V81.1911H0.859372V80.7911ZM0.85269 80.7911C0.862003 80.7911 0.876721 80.7918 0.89435 80.796C0.912763 80.8004 0.930459 80.8076 0.946681 80.8174L0.74088 81.1604C0.782829 81.1855 0.823853 81.1911 0.85269 81.1911V80.7911ZM1.01528 80.886C1.02501 80.9022 1.03222 80.9199 1.0366 80.9383C1.0408 80.9559 1.04155 80.9706 1.04155 80.9799H0.641553C0.641553 81.0088 0.647112 81.0498 0.672283 81.0918L1.01528 80.886ZM1.04155 80.9799C1.04155 81.0015 1.03736 81.0625 0.985203 81.1147L0.702358 80.8318C0.646861 80.8873 0.641553 80.9528 0.641553 80.9799H1.04155ZM0.985202 81.1147C0.970772 81.1291 0.925473 81.1688 0.85269 81.1688V80.7688C0.773224 80.7688 0.722357 80.8118 0.702359 80.8318L0.985202 81.1147ZM0.85269 81.1688C0.811402 81.1688 0.77349 81.1557 0.743142 81.1348C0.714794 81.1153 0.697623 81.0924 0.687875 81.0762L1.03087 80.8704C1.00783 80.832 0.950334 80.7688 0.85269 80.7688V81.1688ZM0.75647 81.1448C0.740224 81.135 0.717325 81.1178 0.697836 81.0895C0.676972 81.0591 0.663827 81.0212 0.663827 80.9799H1.06383C1.06383 80.8823 1.00068 80.8248 0.962274 80.8018L0.75647 81.1448ZM0.863827 81.1799H0.863828V80.7799H0.863827V81.1799ZM1.05715 80.9777C1.05715 80.9121 1.02636 80.8633 0.997874 80.8348C0.969387 80.8063 0.920523 80.7755 0.854918 80.7755V81.1755C0.790427 81.1755 0.742677 81.1453 0.715025 81.1176C0.687375 81.09 0.657145 81.0422 0.657145 80.9777H1.05715ZM1.05492 80.9755C1.05492 80.9099 1.02413 80.861 0.99564 80.8325C0.967153 80.8041 0.918292 80.7733 0.852691 80.7733V81.1733C0.788203 81.1733 0.740455 81.143 0.712804 81.1154C0.685151 81.0877 0.654918 81.04 0.654918 80.9755H1.05492ZM0.852691 80.7733C0.771216 80.7733 0.720915 80.82 0.706805 80.8341L0.989666 81.1169C0.979366 81.1272 0.965035 81.1392 0.946023 81.1495C0.92778 81.1595 0.895418 81.1733 0.852691 81.1733V80.7733ZM0.648236 80.9755V80.9777H1.04824V80.9755H0.648236ZM0.848236 81.1777H0.857145V80.7777H0.848236V81.1777Z" fill="white" mask="url(#path-35-outside-10_16_2182)"/>
<path d="M0.802341 80.8622H0.784521V80.9622V80.9911V81.0911H0.835127H0.848452L1.00234 81.3681V81.0911H1.00902V80.9911V80.9622V80.8622H0.950043H0.909023H0.902341H0.891204H0.884521H0.802341Z" fill="white" stroke="white" stroke-width="0.2"/>
<path d="M0.847288 80.9026C0.83898 80.9109 0.832839 80.9196 0.828307 80.9282L0.976707 81.0805C0.986635 81.0758 0.996948 81.0691 1.00653 81.0596L1.02104 81.0451L1.02867 81.026C1.02868 81.0259 1.02872 81.0259 1.02878 81.0257C1.02988 81.0231 1.03805 81.004 1.03805 80.9799C1.03805 80.9512 1.02697 80.9302 1.02023 80.9196C0.997823 80.8841 0.96066 80.8688 0.926909 80.8688C0.885505 80.8688 0.85868 80.8912 0.847288 80.9026L0.847288 80.9026Z" fill="white" stroke="white" stroke-width="0.2"/>
<path d="M0.858707 80.8688H0.843115V80.9688V80.9822C0.843115 80.9823 0.843113 80.9824 0.843111 80.9826C0.84307 80.9858 0.842866 81.0019 0.849798 81.0211V81.0844H0.852025V81.0866H0.858707V81.0911H0.948688C0.950034 81.0911 0.951024 81.0911 0.951604 81.0911C0.951785 81.0911 0.951926 81.0911 0.952025 81.0911H0.954252H0.958707H0.96539H0.995676H1.06539V80.9911V80.9688V80.8688H1.0498H0.96539H0.958707H0.949798H0.943115H0.858707Z" fill="white" stroke="white" stroke-width="0.2"/>
<path d="M0.995939 80.9911L1.0494 81.0445L0.995939 80.9911ZM0.995939 80.9911H0.99371H0.987028V81.0688C0.989318 81.0688 0.991546 81.0687 0.99371 81.0686C1.01121 81.0674 1.02451 81.0616 1.03231 81.0574L0.995939 80.9911ZM1.09371 81.0911V80.9911V80.9777C1.09371 80.9629 1.09079 80.9502 1.08703 80.9399V80.8755H1.0848V80.8733H1.08035V80.8688H0.987028H0.980345H0.971436H0.871436V80.9688V80.9911V81.0911H0.887028H0.971436H0.980345H0.987028H0.99371H1.08035H1.09371Z" fill="white" stroke="white" stroke-width="0.2"/>
<path d="M1.01587 80.8622H0.915869V80.9622V80.9911V81.0911H1.01587H1.02255H1.12255V81.0326L1.12876 81.0171C1.12878 81.0171 1.12882 81.017 1.12887 81.0169C1.12998 81.0143 1.13814 80.9951 1.13814 80.9711C1.13814 80.9405 1.12565 80.9187 1.11912 80.9089L1.10803 80.8923L1.09138 80.8812C1.07152 80.8679 1.04896 80.8622 1.02701 80.8622H1.01587ZM0.952712 81.0199C0.949679 81.0153 0.943682 81.0054 0.940407 80.9911H0.995824L0.952712 81.0199ZM0.980449 81.0476L1.01587 80.9945V81.0613C1.00498 81.0597 0.992589 81.0557 0.980449 81.0476Z" fill="white" stroke="white" stroke-width="0.2"/>
<path d="M1.12069 81.0445C1.11526 81.0496 1.1095 81.0539 1.1036 81.0574C1.09515 81.062 1.08025 81.0683 1.06054 81.0688V80.9911H1.06723L1.12069 81.0445ZM1.06054 80.8688H1.05832H1.05163H1.04272H0.942725V80.9688V80.9911V81.0911H1.04272H1.05163H1.15163V81.0755H1.16054V80.9755V80.9688V80.8688H1.15163H1.06054Z" fill="white" stroke="white" stroke-width="0.2"/>
<path d="M0.993772 80.9026C0.985464 80.9109 0.979323 80.9196 0.974791 80.9282L1.12319 81.0805C1.13312 81.0758 1.14343 81.0691 1.15301 81.0596L1.16753 81.0451L1.17515 81.026C1.17517 81.0259 1.17521 81.0259 1.17526 81.0257C1.17637 81.0231 1.18453 81.004 1.18453 80.9799C1.18453 80.9512 1.17345 80.9302 1.16671 80.9196C1.14431 80.8841 1.10714 80.8688 1.07339 80.8688C1.03199 80.8688 1.00516 80.8912 0.993773 80.9026L0.993772 80.9026Z" fill="white" stroke="white" stroke-width="0.2"/>
<path d="M1.19833 80.8688V80.8599H1.09833H1.08942H0.989416V80.8688V80.8955H0.984961V80.9955V81V81.1H1.08496H1.08942C1.11999 81.1 1.14178 81.0875 1.15157 81.081L1.16821 81.0699L1.17041 81.0666H1.19833V80.9911V80.9688V80.9666V80.9599V80.8688Z" fill="white" stroke="white" stroke-width="0.2"/>
<mask id="path-45-outside-11_16_2182" maskUnits="userSpaceOnUse" x="0.103271" y="79.9688" width="2" height="2" fill="black">
<rect fill="white" x="0.103271" y="79.9688" width="2" height="2"/>
<path d="M1.12555 80.9799V80.9822H1.10995V80.9866H1.11664H1.12109C1.1222 80.9855 1.12388 80.9844 1.12555 80.9844V80.9889C1.12388 80.9905 1.1222 80.9911 1.12109 80.9911H1.11441C1.11107 80.9911 1.10828 80.9905 1.1055 80.9889C1.10383 80.9861 1.10327 80.9833 1.10327 80.9799C1.10327 80.9772 1.10383 80.9749 1.1055 80.9733C1.10828 80.9705 1.11107 80.9688 1.11441 80.9688C1.11719 80.9688 1.11942 80.9705 1.12109 80.9733C1.12388 80.9749 1.12555 80.9772 1.12555 80.9799H1.12555ZM1.11886 80.9777C1.11886 80.9766 1.11775 80.9755 1.11664 80.9755C1.11664 80.9744 1.11552 80.9733 1.11441 80.9733C1.11274 80.9733 1.11107 80.9744 1.10995 80.9755V80.9777H1.11886Z"/>
</mask>
<path d="M1.12555 80.9799V80.9822H1.10995V80.9866H1.11664H1.12109C1.1222 80.9855 1.12388 80.9844 1.12555 80.9844V80.9889C1.12388 80.9905 1.1222 80.9911 1.12109 80.9911H1.11441C1.11107 80.9911 1.10828 80.9905 1.1055 80.9889C1.10383 80.9861 1.10327 80.9833 1.10327 80.9799C1.10327 80.9772 1.10383 80.9749 1.1055 80.9733C1.10828 80.9705 1.11107 80.9688 1.11441 80.9688C1.11719 80.9688 1.11942 80.9705 1.12109 80.9733C1.12388 80.9749 1.12555 80.9772 1.12555 80.9799H1.12555ZM1.11886 80.9777C1.11886 80.9766 1.11775 80.9755 1.11664 80.9755C1.11664 80.9744 1.11552 80.9733 1.11441 80.9733C1.11274 80.9733 1.11107 80.9744 1.10995 80.9755V80.9777H1.11886Z" fill="white"/>
<path d="M1.12555 80.9799H1.32555V80.7799H1.12555V80.9799ZM1.12555 80.9822V81.1822H1.32555V80.9822H1.12555ZM1.10995 80.9822V80.7822H0.909954V80.9822H1.10995ZM1.10995 80.9866H0.909954V81.1866H1.10995V80.9866ZM1.12109 80.9866V81.1866H1.20393L1.26251 81.1281L1.12109 80.9866ZM1.12555 80.9844H1.32555V80.7844H1.12555V80.9844ZM1.12555 80.9889L1.26697 81.1303L1.32555 81.0717V80.9889H1.12555ZM1.1055 80.9889L0.934002 81.0918L0.959726 81.1346L1.0026 81.1604L1.1055 80.9889ZM1.1055 80.9733L0.964078 80.8318L0.964076 80.8318L1.1055 80.9733ZM1.12109 80.9733L0.949594 81.0762L0.975318 81.119L1.01819 81.1448L1.12109 80.9733ZM1.12555 80.9799H0.925546V81.1799H1.12555V80.9799ZM1.11886 80.9777V81.1777H1.31886V80.9777H1.11886ZM1.11664 80.9755H0.916637V81.1755H1.11664V80.9755ZM1.10995 80.9755L0.968524 80.8341L0.909954 80.8927V80.9755H1.10995ZM1.10995 80.9777H0.909954V81.1777H1.10995V80.9777ZM0.925547 80.9799V80.9822H1.32555V80.9799H0.925547ZM1.12555 80.7822H1.10995V81.1822H1.12555V80.7822ZM0.909954 80.9822V80.9866H1.30995V80.9822H0.909954ZM1.10995 81.1866H1.11664V80.7866H1.10995V81.1866ZM1.11664 81.1866H1.12109V80.7866H1.11664V81.1866ZM1.26251 81.1281C1.25222 81.1383 1.23789 81.1503 1.21888 81.1607C1.20064 81.1706 1.16828 81.1844 1.12555 81.1844V80.7844C1.04406 80.7844 0.993763 80.8311 0.979674 80.8452L1.26251 81.1281ZM0.925546 80.9844V80.9889H1.32555V80.9844H0.925546ZM0.984124 80.8474C1.01275 80.8188 1.05977 80.7911 1.12109 80.7911V81.1911C1.18464 81.1911 1.235 81.1622 1.26697 81.1303L0.984124 80.8474ZM1.12109 80.7911H1.11441V81.1911H1.12109V80.7911ZM1.11441 80.7911C1.12372 80.7911 1.13844 80.7918 1.15607 80.796C1.17448 80.8004 1.19218 80.8076 1.2084 80.8174L1.0026 81.1604C1.04455 81.1855 1.08557 81.1911 1.11441 81.1911V80.7911ZM1.277 80.886C1.28673 80.9022 1.29394 80.9199 1.29832 80.9383C1.30252 80.9559 1.30327 80.9706 1.30327 80.9799H0.903271C0.903271 81.0088 0.90883 81.0498 0.934002 81.0918L1.277 80.886ZM1.30327 80.9799C1.30327 81.0015 1.29908 81.0625 1.24692 81.1147L0.964076 80.8318C0.90858 80.8873 0.903271 80.9528 0.903271 80.9799H1.30327ZM1.24692 81.1147C1.23249 81.1291 1.18719 81.1688 1.11441 81.1688V80.7688C1.03494 80.7688 0.984076 80.8118 0.964078 80.8318L1.24692 81.1147ZM1.11441 81.1688C1.07312 81.1688 1.03521 81.1557 1.00486 81.1348C0.976513 81.1153 0.959342 81.0924 0.949594 81.0762L1.29259 80.8704C1.26955 80.832 1.21205 80.7688 1.11441 80.7688V81.1688ZM1.01819 81.1448C1.00194 81.135 0.979044 81.1178 0.959554 81.0895C0.93869 81.0591 0.925546 81.0212 0.925546 80.9799H1.32555C1.32555 80.8823 1.2624 80.8248 1.22399 80.8018L1.01819 81.1448ZM1.12555 81.1799H1.12555V80.7799H1.12555V81.1799ZM1.31886 80.9777C1.31886 80.9121 1.28808 80.8633 1.25959 80.8348C1.23111 80.8063 1.18224 80.7755 1.11664 80.7755V81.1755C1.05215 81.1755 1.0044 81.1453 0.976744 81.1176C0.949093 81.09 0.918864 81.0422 0.918864 80.9777H1.31886ZM1.31664 80.9755C1.31664 80.9099 1.28585 80.861 1.25736 80.8325C1.22887 80.8041 1.18001 80.7733 1.11441 80.7733V81.1733C1.04992 81.1733 1.00217 81.143 0.974522 81.1154C0.94687 81.0877 0.916637 81.04 0.916637 80.9755H1.31664ZM1.11441 80.7733C1.03293 80.7733 0.982634 80.82 0.968524 80.8341L1.25138 81.1169C1.24108 81.1272 1.22675 81.1392 1.20774 81.1495C1.1895 81.1595 1.15714 81.1733 1.11441 81.1733V80.7733ZM0.909954 80.9755V80.9777H1.30995V80.9755H0.909954ZM1.10995 81.1777H1.11886V80.7777H1.10995V81.1777Z" fill="white" mask="url(#path-45-outside-11_16_2182)"/>
<mask id="path-47-outside-12_16_2182" maskUnits="userSpaceOnUse" x="0.130127" y="79.9688" width="2" height="2" fill="black">
<rect fill="white" x="0.130127" y="79.9688" width="2" height="2"/>
<path d="M1.14795 80.971V80.9755H1.14572C1.14572 80.9744 1.14461 80.9733 1.14349 80.9733C1.14182 80.9733 1.14015 80.9744 1.13904 80.9755C1.13737 80.9772 1.13681 80.9788 1.13681 80.9799C1.13681 80.9816 1.13737 80.9833 1.13904 80.9844C1.14015 80.9861 1.14182 80.9866 1.14349 80.9866H1.14572C1.14683 80.9855 1.14795 80.9844 1.14795 80.9844V80.9911H1.14572H1.14126C1.13792 80.9911 1.13514 80.9905 1.13235 80.9889C1.13068 80.9861 1.13013 80.9833 1.13013 80.9799C1.13013 80.9772 1.13068 80.9749 1.13235 80.9733C1.13514 80.9705 1.13792 80.9688 1.14126 80.9688H1.14572C1.14683 80.9688 1.14795 80.9699 1.14795 80.971Z"/>
</mask>
<path d="M1.14795 80.971V80.9755H1.14572C1.14572 80.9744 1.14461 80.9733 1.14349 80.9733C1.14182 80.9733 1.14015 80.9744 1.13904 80.9755C1.13737 80.9772 1.13681 80.9788 1.13681 80.9799C1.13681 80.9816 1.13737 80.9833 1.13904 80.9844C1.14015 80.9861 1.14182 80.9866 1.14349 80.9866H1.14572C1.14683 80.9855 1.14795 80.9844 1.14795 80.9844V80.9911H1.14572H1.14126C1.13792 80.9911 1.13514 80.9905 1.13235 80.9889C1.13068 80.9861 1.13013 80.9833 1.13013 80.9799C1.13013 80.9772 1.13068 80.9749 1.13235 80.9733C1.13514 80.9705 1.13792 80.9688 1.14126 80.9688H1.14572C1.14683 80.9688 1.14795 80.9699 1.14795 80.971Z" fill="white"/>
<path d="M1.14795 80.9755V81.1755H1.34795V80.9755H1.14795ZM1.14572 80.9755H0.945719V81.1755H1.14572V80.9755ZM1.13904 80.9755L1.28046 81.1169L1.28047 81.1169L1.13904 80.9755ZM1.13904 80.9844L1.30545 80.8735L1.28326 80.8402L1.24997 80.818L1.13904 80.9844ZM1.14572 80.9866V81.1866H1.22857L1.28714 81.128L1.14572 80.9866ZM1.14795 80.9844H1.34795V80.5016L1.00653 80.843L1.14795 80.9844ZM1.14795 80.9911V81.1911H1.34795V80.9911H1.14795ZM1.13235 80.9889L0.960857 81.0918L0.986582 81.1346L1.02945 81.1604L1.13235 80.9889ZM1.13235 80.9733L0.990933 80.8318L0.990932 80.8318L1.13235 80.9733ZM0.947946 80.971V80.9755H1.34795V80.971H0.947946ZM1.14795 80.7755H1.14572V81.1755H1.14795V80.7755ZM1.34572 80.9755C1.34572 80.9099 1.31494 80.861 1.28644 80.8325C1.25795 80.804 1.20909 80.7733 1.14349 80.7733V81.1733C1.07901 81.1733 1.03126 81.143 1.0036 81.1154C0.975945 81.0877 0.945719 81.04 0.945719 80.9755H1.34572ZM1.14349 80.7733C1.06202 80.7733 1.01172 80.82 0.997606 80.8341L1.28047 81.1169C1.27017 81.1272 1.25584 81.1392 1.23682 81.1495C1.21858 81.1595 1.18622 81.1733 1.14349 81.1733V80.7733ZM0.997615 80.8341C0.965643 80.866 0.936809 80.9164 0.936809 80.9799H1.33681C1.33681 81.0413 1.30909 81.0883 1.28046 81.1169L0.997615 80.8341ZM0.936809 80.9799C0.936809 81.0277 0.955482 81.1024 1.0281 81.1508L1.24997 80.818C1.28075 80.8385 1.30456 80.867 1.31937 80.8996C1.33341 80.9305 1.33681 80.9592 1.33681 80.9799H0.936809ZM0.972626 81.0953C1.02103 81.168 1.09571 81.1866 1.14349 81.1866V80.7866C1.16426 80.7866 1.19293 80.79 1.22382 80.8041C1.2564 80.8189 1.28493 80.8427 1.30545 80.8735L0.972626 81.0953ZM1.14349 81.1866H1.14572V80.7866H1.14349V81.1866ZM1.28714 81.128C1.2877 81.1275 1.28825 81.1269 1.28867 81.1265C1.28888 81.1263 1.28905 81.1261 1.28917 81.126C1.28923 81.126 1.28928 81.1259 1.28931 81.1259C1.28933 81.1259 1.28934 81.1258 1.28935 81.1258C1.28935 81.1258 1.28936 81.1258 1.28936 81.1258C1.28936 81.1258 1.28936 81.1258 1.28936 81.1258C1.28936 81.1258 1.28936 81.1258 1.28936 81.1258C1.28936 81.1258 1.28936 81.1258 1.28936 81.1258C1.28936 81.1258 1.28936 81.1258 1.28936 81.1258C1.28936 81.1258 1.28936 81.1258 1.14795 80.9844C1.00653 80.843 1.00653 80.843 1.00653 80.843C1.00653 80.843 1.00653 80.843 1.00653 80.843C1.00653 80.843 1.00653 80.843 1.00653 80.843C1.00653 80.843 1.00653 80.843 1.00653 80.843C1.00653 80.843 1.00653 80.843 1.00653 80.843C1.00652 80.843 1.00652 80.843 1.00652 80.843C1.00651 80.843 1.0065 80.843 1.00648 80.843C1.00645 80.8431 1.0064 80.8431 1.00634 80.8432C1.00621 80.8433 1.00604 80.8435 1.00583 80.8437C1.00541 80.8441 1.00485 80.8447 1.00429 80.8452L1.28714 81.128ZM0.947946 80.9844V80.9911H1.34795V80.9844H0.947946ZM1.14795 80.7911H1.14572V81.1911H1.14795V80.7911ZM1.14572 80.7911H1.14126V81.1911H1.14572V80.7911ZM1.14126 80.7911C1.15058 80.7911 1.16529 80.7918 1.18292 80.796C1.20134 80.8004 1.21903 80.8076 1.23525 80.8174L1.02945 81.1604C1.0714 81.1855 1.11243 81.1911 1.14126 81.1911V80.7911ZM1.30385 80.886C1.31359 80.9022 1.32079 80.9199 1.32518 80.9383C1.32937 80.9559 1.33013 80.9706 1.33013 80.9799H0.930127C0.930127 81.0088 0.935686 81.0498 0.960857 81.0918L1.30385 80.886ZM1.33013 80.9799C1.33013 81.0015 1.32593 81.0625 1.27378 81.1147L0.990932 80.8318C0.935435 80.8873 0.930127 80.9528 0.930127 80.9799H1.33013ZM1.27378 81.1147C1.25935 81.1291 1.21405 81.1688 1.14126 81.1688V80.7688C1.0618 80.7688 1.01093 80.8118 0.990933 80.8318L1.27378 81.1147ZM1.14126 81.1688H1.14572V80.7688H1.14126V81.1688ZM1.14572 81.1688C1.08123 81.1688 1.03348 81.1386 1.00583 81.1109C0.978179 81.0833 0.947946 81.0355 0.947946 80.971H1.34795C1.34795 80.9054 1.31716 80.8566 1.28867 80.8281C1.26018 80.7996 1.21132 80.7688 1.14572 80.7688V81.1688Z" fill="white" mask="url(#path-47-outside-12_16_2182)"/>
<path d="M1.26967 80.9688V80.8867V80.8688H1.26299V80.8622H1.16299H1.15631H1.05631V80.8688H1.05186V80.9688V80.9733V81.0733H1.06299V81.0867H1.13093C1.14696 81.0913 1.15973 81.0912 1.16257 81.0911C1.16275 81.0911 1.16289 81.0911 1.16299 81.0911H1.16967H1.26967V81.0733V80.9911V80.9867V80.9733V80.9688Z" fill="white" stroke="white" stroke-width="0.2"/>
</svg>
