<svg width="21" height="20" viewBox="0 0 21 20" fill="none" xmlns="http://www.w3.org/2000/svg">
<path d="M11.5012 8.6375C11.4734 8.48382 11.389 8.34612 11.2648 8.25152C11.1405 8.15693 10.9853 8.11229 10.8298 8.12641C10.6742 8.14052 10.5296 8.21236 10.4244 8.32777C10.3191 8.44319 10.2609 8.59382 10.2612 8.75V14.3775L10.2712 14.49C10.2991 14.6437 10.3834 14.7814 10.5077 14.876C10.632 14.9706 10.7872 15.0152 10.9427 15.0011C11.0982 14.987 11.2429 14.9151 11.3481 14.7997C11.4533 14.6843 11.5115 14.5337 11.5112 14.3775V8.75L11.5012 8.6375ZM11.885 5.9375C11.885 5.68886 11.7862 5.4504 11.6104 5.27459C11.4346 5.09877 11.1961 5 10.9475 5C10.6988 5 10.4604 5.09877 10.2846 5.27459C10.1088 5.4504 10.01 5.68886 10.01 5.9375C10.01 6.18614 10.1088 6.4246 10.2846 6.60041C10.4604 6.77623 10.6988 6.875 10.9475 6.875C11.1961 6.875 11.4346 6.77623 11.6104 6.60041C11.7862 6.4246 11.885 6.18614 11.885 5.9375ZM20.8862 10C20.8862 7.34784 19.8327 4.8043 17.9573 2.92893C16.0819 1.05357 13.5384 0 10.8862 0C8.23407 0 5.69053 1.05357 3.81516 2.92893C1.9398 4.8043 0.88623 7.34784 0.88623 10C0.88623 12.6522 1.9398 15.1957 3.81516 17.0711C5.69053 18.9464 8.23407 20 10.8862 20C13.5384 20 16.0819 18.9464 17.9573 17.0711C19.8327 15.1957 20.8862 12.6522 20.8862 10ZM2.13623 10C2.13623 8.85093 2.36256 7.71312 2.80228 6.65152C3.24201 5.58992 3.88653 4.62533 4.69905 3.81282C5.51156 3.0003 6.47615 2.35578 7.53775 1.91605C8.59935 1.47633 9.73716 1.25 10.8862 1.25C12.0353 1.25 13.1731 1.47633 14.2347 1.91605C15.2963 2.35578 16.2609 3.0003 17.0734 3.81282C17.8859 4.62533 18.5304 5.58992 18.9702 6.65152C19.4099 7.71312 19.6362 8.85093 19.6362 10C19.6362 12.3206 18.7144 14.5462 17.0734 16.1872C15.4325 17.8281 13.2069 18.75 10.8862 18.75C8.56559 18.75 6.33999 17.8281 4.69905 16.1872C3.0581 14.5462 2.13623 12.3206 2.13623 10Z" fill="white"/>
</svg>
