<svg width="70" height="80" viewBox="0 0 70 80" fill="none" xmlns="http://www.w3.org/2000/svg">
<path d="M37.5045 34.9618L55.4069 41.4077H55.6463C55.9454 41.4051 56.2124 41.2217 56.3218 40.9433C56.4443 40.5745 56.2508 40.1749 55.8857 40.0423L37.9832 33.5681C37.8061 33.4984 37.6088 33.5034 37.4354 33.5813C37.2626 33.6599 37.1281 33.805 37.0634 33.9835C36.9987 34.1625 37.0094 34.3598 37.0923 34.5307C37.1752 34.7016 37.3241 34.8317 37.5045 34.8914L37.5045 34.9618Z" fill="white"/>
<path d="M32.9172 34.0595C32.7846 33.6944 32.3818 33.5053 32.0162 33.6372L14.1137 40.1114C13.7486 40.244 13.5551 40.6436 13.6776 41.0124C13.787 41.2908 14.054 41.4742 14.3531 41.4767H14.5925L32.4949 35.0026C32.6809 34.9397 32.8317 34.8021 32.9121 34.6237C32.9919 34.4446 32.9938 34.2398 32.9172 34.0595H32.9172Z" fill="white"/>
<path d="M24.2474 28.3606H45.7529C46.1381 28.353 46.4491 28.0426 46.4566 27.6568C46.4566 27.4702 46.3825 27.2912 46.2505 27.1592C46.1186 27.0273 45.9395 26.9531 45.7529 26.9531H24.2474C23.8591 26.9531 23.5437 27.2685 23.5437 27.6568C23.5512 28.0426 23.8623 28.353 24.2474 28.3606Z" fill="white"/>
<path d="M18.7029 57.241C18.8343 57.4578 19.0686 57.591 19.3218 57.5929H22.6997C22.9516 57.5972 23.1847 57.4615 23.3054 57.241C23.431 57.023 23.431 56.7553 23.3054 56.5373L21.5323 53.4548H21.5317C21.4092 53.2367 21.1773 53.1017 20.9266 53.1029H17.5488C17.2987 53.1048 17.0688 53.2386 16.9437 53.4548C16.8181 53.6728 16.8181 53.9411 16.9437 54.1585L18.7029 57.241ZM20.5188 54.5103L21.4757 56.1853H19.7302L18.7588 54.5103H20.5188Z" fill="white"/>
<path d="M47.302 57.5932H50.6798C50.933 57.5913 51.1673 57.4581 51.2987 57.2414L53.058 54.1589C53.1837 53.9414 53.1837 53.6732 53.058 53.4551C52.933 53.239 52.703 53.1052 52.453 53.1033H49.0752C48.8245 53.102 48.5926 53.2371 48.4701 53.4551L46.697 56.5376H46.6964C46.5708 56.7557 46.5708 57.0233 46.6964 57.2414C46.8171 57.4619 47.0502 57.5976 47.3021 57.5932H47.302ZM49.4834 54.5107H51.2428L50.2714 56.1858H48.5258L49.4834 54.5107Z" fill="white"/>
<path d="M32.7192 57.5933H37.2796C37.4662 57.5933 37.6453 57.5192 37.7772 57.3872C37.9092 57.2553 37.9833 57.0762 37.9833 56.8896V53.8071C37.9758 53.422 37.6648 53.1109 37.2796 53.1034H32.7192C32.3309 53.1034 32.0155 53.4188 32.0155 53.8071V56.8896C32.0155 57.0762 32.0896 57.2553 32.2216 57.3872C32.3535 57.5192 32.5326 57.5933 32.7192 57.5933ZM33.4229 54.5108H36.5759V56.1859H33.4229V54.5108Z" fill="white"/>
<path d="M1.22178 72.9898C2.29997 72.9646 3.3556 73.3014 4.21952 73.9467C5.30525 74.7547 6.62405 75.1889 7.97744 75.1851C9.31637 75.2083 10.6265 74.793 11.7072 74.0026C12.5781 73.3604 13.6374 73.0243 14.7194 73.0457C15.3597 73.0306 15.9962 73.1456 16.5912 73.3837C16.9915 73.5552 17.3735 73.7676 17.731 74.017C18.8293 74.783 20.1361 75.1933 21.4751 75.1933C22.814 75.1933 24.1202 74.783 25.2185 74.017C26.0969 73.3938 27.1467 73.0595 28.2231 73.0595C29.3001 73.0595 30.3501 73.3938 31.2285 74.017C32.328 74.7861 33.6375 75.1983 34.9788 75.1983C36.3209 75.1983 37.6302 74.7861 38.7298 74.017C39.6007 73.3749 40.66 73.0381 41.742 73.0601C42.337 73.0444 42.9302 73.1443 43.4869 73.3554C43.9267 73.5307 44.3471 73.7525 44.7398 74.017C45.8412 74.7874 47.1532 75.2002 48.4977 75.2002C49.8417 75.2002 51.1536 74.7874 52.255 74.017C52.6332 73.7525 53.0391 73.5307 53.4657 73.3554C54.0287 73.1713 54.618 73.0809 55.2106 73.0878C56.2882 73.0683 57.3419 73.4051 58.209 74.0453C59.3004 74.8351 60.6191 75.2498 61.9663 75.2272C63.3178 75.2467 64.6397 74.8326 65.7386 74.0453C66.6038 73.3611 67.6751 72.9891 68.7784 72.9897C68.965 72.9897 69.144 72.9156 69.276 72.7837C69.408 72.6517 69.4821 72.4726 69.4821 72.286C69.4821 72.0994 69.4079 71.9203 69.276 71.7884C69.1441 71.6564 68.965 71.5823 68.7784 71.5823C67.4313 71.5616 66.1137 71.9763 65.0205 72.7642C64.1396 73.3862 63.0871 73.7205 62.0089 73.7205C60.9301 73.7205 59.8776 73.3862 58.9967 72.7642C57.9643 72.0165 56.7247 71.6087 55.4498 71.5961C56.56 70.4645 57.4818 69.1627 58.1805 67.7395L64.95 53.6652C65.7235 52.0812 65.78 50.2415 65.1052 48.6129C64.5253 47.2024 63.42 46.072 62.0227 45.46L59.2078 38.4933C58.9163 37.7839 58.5632 37.1009 58.1523 36.4524L56.998 33.2575C55.786 29.7357 53.1811 26.8657 49.7919 25.3199L46.5831 18.4801V18.4795C46.4662 18.2351 46.2212 18.0767 45.9497 18.0717H39.2927V16.073C39.2902 15.4547 39.0684 14.8578 38.6656 14.3884C38.2635 13.9191 37.7075 13.6081 37.0974 13.5113V1.85797C37.0974 0.831926 36.2655 0 35.2394 0H34.7606C33.7346 0 32.9026 0.831894 32.9026 1.85797V13.5396C32.3101 13.6502 31.7742 13.9637 31.3865 14.4255C30.9988 14.8874 30.7839 15.4698 30.7777 16.073V18.1138H24.022C23.7506 18.1195 23.5055 18.2772 23.3887 18.5222L21.9109 21.7027L20.1798 25.4041C16.7907 26.9504 14.1856 29.8199 12.9736 33.3424L11.8056 36.5511C11.3965 37.1983 11.0485 37.8813 10.7638 38.592L7.94897 45.545C6.5516 46.1564 5.44697 47.2867 4.86711 48.6973C4.19167 50.3259 4.24821 52.1655 5.02167 53.7502L11.7912 67.7404V67.7398C12.4779 69.1742 13.4009 70.4824 14.5219 71.6101C13.2326 71.6139 11.9773 72.0229 10.933 72.7788C10.0848 73.4278 9.04563 73.779 7.97743 73.7778C6.89925 73.8023 5.84361 73.4655 4.97969 72.8209C3.89396 72.0128 2.57516 71.578 1.22178 71.5825C0.832848 71.5825 0.518066 71.8972 0.518066 72.2862C0.518066 72.4728 0.592206 72.6518 0.724144 72.7838C0.85609 72.9157 1.03516 72.9899 1.22178 72.9899L1.22178 72.9898ZM39.2931 22.6746H46.9918L47.9632 24.7574H47.9626C46.9925 24.5092 45.9947 24.3811 44.9931 24.3773H39.293L39.2931 22.6746ZM45.5279 19.5499L46.3303 21.2672H39.2932V19.5499H45.5279ZM34.2685 1.85818C34.2685 1.7388 34.3163 1.62445 34.4005 1.53961C34.4853 1.45542 34.5996 1.40767 34.719 1.40767H35.1978C35.3172 1.40767 35.4315 1.45542 35.5157 1.53961C35.6006 1.62444 35.6477 1.73879 35.6477 1.85818V13.5115H34.2402L34.2685 1.85818ZM32.1857 16.0732C32.1857 15.4204 32.7147 14.8907 33.3682 14.8907H36.7743H36.7737C37.0872 14.8907 37.3882 15.0157 37.61 15.2375C37.8318 15.4587 37.9562 15.7597 37.9562 16.0732V24.377H32.1857L32.1857 16.0732ZM24.5434 19.5215H30.7782V21.2387H23.7411L24.5434 19.5215ZM23.136 22.6461H30.7782V24.3772H25.0078C24.0063 24.381 23.0084 24.5091 22.0384 24.7573L23.136 22.6461ZM25.0078 25.7846H44.9933C47.291 25.8405 49.5197 26.5832 51.3914 27.9178C53.2632 29.253 54.6913 31.1179 55.4924 33.2723C54.7767 32.6188 53.9938 32.0433 53.1563 31.5551L52.7624 31.344C52.3829 31.1366 51.9927 30.9487 51.5944 30.781L51.2708 30.6402H51.2702C50.7738 30.4467 50.2661 30.2821 49.7503 30.1476H49.3984C48.9762 30.049 48.5539 29.9648 48.1179 29.8944L47.6674 29.7537C47.1252 29.6921 46.5804 29.6594 46.0351 29.655H23.9666C23.4213 29.6594 22.8765 29.6921 22.3343 29.7537L21.8838 29.8241C21.4572 29.885 21.0344 29.9698 20.6172 30.0773C20.4934 30.0974 20.3715 30.1256 20.2515 30.1615C19.74 30.301 19.2367 30.47 18.7454 30.6685L18.3797 30.8231C17.9996 30.9814 17.6283 31.1599 17.2676 31.3578L16.8316 31.5972C16.41 31.8384 16.0009 32.1017 15.607 32.3857L15.4097 32.5264C15.0974 32.7595 14.7964 33.0084 14.5093 33.2722C15.3104 31.1177 16.7385 29.2529 18.6103 27.9177C20.4821 26.5832 22.7106 25.8405 25.0084 25.7846L25.0078 25.7846ZM12.0733 39.0986C12.3391 38.43 12.6689 37.7892 13.0585 37.1848C15.3832 33.3867 19.5132 31.0682 23.966 31.0625H46.0344C50.4993 31.0355 54.6487 33.3616 56.9558 37.1848C57.3409 37.7798 57.6664 38.4113 57.9271 39.0711L60.2357 44.8415L38.4342 37.1848C37.3321 36.7883 36.1711 36.5835 34.9997 36.5797C33.8348 36.5728 32.6781 36.7682 31.5798 37.1565L9.76545 44.869L12.0733 39.0986ZM6.31667 53.1728H6.3173C5.72856 51.9495 5.6827 50.534 6.19038 49.2748C6.65974 48.1156 7.59467 47.2065 8.76589 46.7691L32.0456 38.4798C33.9606 37.8182 36.0417 37.8182 37.9567 38.4798L61.2364 46.7133C62.4107 47.1456 63.3469 48.056 63.8119 49.2184C64.3196 50.4781 64.2737 51.8931 63.685 53.117L56.9155 67.1913C55.9862 69.1189 54.6052 70.7946 52.89 72.0752C52.7071 72.148 52.528 72.2329 52.3553 72.3284L52.158 72.427C51.9186 72.5539 51.7075 72.6947 51.4963 72.821H51.497C50.6374 73.4769 49.58 73.8194 48.4992 73.7917C47.8992 73.8074 47.3017 73.7075 46.7399 73.4964C46.3026 73.3243 45.8872 73.1025 45.5008 72.8348C44.7525 72.302 43.898 71.9369 42.9958 71.7654H42.7005C42.3832 71.7189 42.0634 71.695 41.7435 71.695C40.3958 71.6724 39.0776 72.0871 37.9856 72.8769C37.1073 73.5002 36.0574 73.8345 34.9803 73.8345C33.904 73.8345 32.8541 73.5002 31.9757 72.8769C30.8761 72.1079 29.5666 71.6957 28.2247 71.6957C26.8832 71.6957 25.5739 72.1078 24.4743 72.8769C23.5985 73.4989 22.5504 73.8332 21.4766 73.8332C20.4022 73.8332 19.3548 73.4989 18.4782 72.8769C18.2809 72.75 18.0842 72.6237 17.8731 72.5112L17.6337 72.3843L17.2115 72.1732C15.4454 70.8983 14.0272 69.1994 13.0878 67.2334L6.31667 53.1728Z" fill="white"/>
<path d="M68.7784 76.4657C67.4331 76.4425 66.1155 76.8522 65.0204 77.6344C64.1521 78.2822 63.0915 78.619 62.0089 78.5913C60.9282 78.6165 59.8694 78.2854 58.9967 77.6482C57.9122 76.854 56.5965 76.4387 55.2532 76.4657C53.9074 76.4393 52.5886 76.849 51.4953 77.6344C50.6169 78.2571 49.5671 78.5919 48.49 78.5919C47.4137 78.5919 46.3637 78.2571 45.4853 77.6344L45.1618 77.4371C44.1458 76.7748 42.9538 76.4362 41.7418 76.4657C40.3928 76.4362 39.072 76.8521 37.9839 77.6482C37.1017 78.2614 36.0531 78.5901 34.9786 78.5901C33.9048 78.5901 32.8562 78.2614 31.9739 77.6482C30.8895 76.854 29.5737 76.4387 28.2305 76.4657C27.19 76.4393 26.1608 76.6869 25.2466 77.1839C24.9745 77.3221 24.7113 77.4767 24.4581 77.6482C23.5809 78.2658 22.5335 78.5976 21.4603 78.5976C20.3871 78.5976 19.3403 78.2658 18.4626 77.6482C17.3618 76.8829 16.0524 76.4726 14.7116 76.4726C13.3708 76.4726 12.0619 76.8829 10.9612 77.6482C10.0979 78.2834 9.04857 78.6145 7.97731 78.5913C6.90101 78.6202 5.84542 78.2878 4.97957 77.6482C3.88945 76.8546 2.57005 76.4393 1.22166 76.4657C0.832726 76.4657 0.517944 76.7811 0.517944 77.1694C0.517944 77.356 0.592087 77.5351 0.724025 77.6671C0.855971 77.799 1.03504 77.8731 1.22166 77.8731C2.29984 77.8486 3.35548 78.1854 4.2194 78.8307C5.31456 79.6123 6.63213 80.022 7.97731 79.9987C9.31437 80.0264 10.6244 79.6161 11.7071 78.8307C12.5855 78.2074 13.6353 77.8731 14.7117 77.8731C15.7887 77.8731 16.8386 78.2074 17.717 78.8307C18.8197 79.5916 20.1278 79.9993 21.4674 79.9993C22.8076 79.9993 24.1158 79.5916 25.2184 78.8307L25.8938 78.4223C26.6133 78.044 27.4175 77.8549 28.2305 77.8731C29.3074 77.8536 30.3611 78.1904 31.2282 78.8307C32.3309 79.5916 33.639 79.9993 34.9786 79.9993C36.3188 79.9993 37.6269 79.5915 38.7296 78.8307C39.6004 78.1885 40.6598 77.8517 41.7418 77.8731C42.6943 77.8467 43.6324 78.1119 44.4297 78.6334L44.7395 78.8307C45.8422 79.5916 47.1503 79.9993 48.4898 79.9993C49.83 79.9993 51.1382 79.5916 52.2408 78.8307C53.1192 78.2074 54.1691 77.8731 55.2455 77.8731C56.3224 77.8731 57.3724 78.2074 58.2508 78.8307C59.3441 79.6154 60.6629 80.0251 62.0087 79.9987C63.3583 80.022 64.6803 79.6129 65.7805 78.8307C66.6469 78.1904 67.7007 77.8536 68.7782 77.8731C68.9648 77.8731 69.1439 77.799 69.2758 77.6671C69.4078 77.5351 69.4819 77.356 69.4819 77.1694C69.4819 76.9828 69.4078 76.8037 69.2758 76.6718C69.1439 76.5398 68.9648 76.4657 68.7782 76.4657L68.7784 76.4657Z" fill="white"/>
<path d="M35.0001 59.1117C34.6112 59.1117 34.2964 59.4271 34.2964 59.8154V71.3142C34.2964 71.7031 34.6112 72.0179 35.0001 72.0179C35.389 72.0179 35.7038 71.7031 35.7038 71.3142V59.8154C35.7038 59.6288 35.6297 59.4497 35.4977 59.3178C35.3658 59.1858 35.1867 59.1117 35.0001 59.1117Z" fill="white"/>
</svg>
