<svg width="77" height="80" viewBox="0 0 77 80" fill="none" xmlns="http://www.w3.org/2000/svg">
<g clip-path="url(#clip0_3_657)">
<path d="M76.8978 49.454C76.897 48.739 76.4636 48.0416 75.7508 47.5556L75.7444 47.5509C75.1853 47.134 74.5295 46.9574 73.9674 46.8059L73.9511 46.8015L73.9502 46.8013C73.7322 46.7466 73.5274 46.6931 73.3116 46.6172L73.3099 46.6166C69.5198 45.4292 65.6861 43.9918 61.6015 42.2162C60.9392 41.8851 60.261 41.5706 59.5882 41.2586C59.4853 41.2109 59.3825 41.1632 59.2799 41.1155L59.2796 41.1154C58.5168 40.7667 57.7548 40.4073 57.0035 40.0374C55.7335 39.3966 54.473 38.5274 53.0367 37.2769C51.6441 36.0475 50.3271 34.6653 48.9989 33.0758C45.5151 28.8302 42.8369 23.9847 40.4618 19.3871C40.0262 18.5151 39.5638 17.6787 38.7271 17.0283C37.498 15.9863 36.0157 15.4691 34.575 15.5462L25.3913 15.5455L29.552 11.3848H34.4107C34.8592 11.4402 35.3305 11.3053 35.6889 10.9908C36.0479 10.677 36.2509 10.2379 36.2509 9.79775C36.2509 8.78036 35.4569 7.95 34.4898 7.95H10.1553C9.65845 7.95 9.16501 8.20948 8.82994 8.63337L8.82992 8.63341C8.49444 9.0586 8.37008 9.60708 8.48267 10.0914C8.61875 10.8478 9.33932 11.4061 10.1553 11.4061H14.5047L18.5786 15.48H12.4107C10.7388 15.48 9.41213 15.7316 8.23767 16.2912C6.40794 17.1244 4.76568 18.6351 3.62853 20.5387C2.30563 22.7142 1.63991 25.0408 1.21455 26.8303L1.21454 26.8303L1.21429 26.8315C0.690364 29.2987 0.45 32.049 0.45 35.4832V48.5273V48.528C0.45 49.4428 0.45 50.3059 0.537613 51.2994L0.537461 51.2994L0.538107 51.3033C0.921199 53.5897 1.9608 55.6484 3.46245 57.0632C4.77584 58.3764 6.46079 59.3825 8.46109 60.0497C8.46138 60.0497 8.46167 60.0498 8.46196 60.0499L8.54768 60.082L8.55615 60.0852H8.5652H74.2108C74.9907 60.0852 75.5611 59.8986 75.9337 59.5271C76.5444 59.0154 76.8978 58.2054 76.8978 57.3109V49.454ZM73.653 47.9552C74.1765 48.0861 74.6467 48.215 75.0519 48.5132L75.0538 48.5145C75.473 48.7942 75.7073 49.1406 75.7073 49.4428V57.312V57.3584C75.6959 57.8727 75.4951 58.3398 75.137 58.6466L75.1369 58.6465L75.1342 58.6492C74.9749 58.8085 74.6764 58.896 74.2102 58.896H8.74601C6.95796 58.2878 5.46314 57.3879 4.29425 56.219L4.29334 56.2181C2.97293 54.9627 2.05097 53.1537 1.71488 51.1587C1.62791 50.2682 1.62787 49.4652 1.62787 48.539V35.4842C1.62787 32.1307 1.86713 29.4536 2.3678 27.0932C2.7703 25.3952 3.40131 23.2001 4.63915 21.1585L4.63929 21.1582C5.65939 19.4548 7.11243 18.1116 8.7257 17.375L8.72613 17.3748C9.74226 16.8992 10.9111 16.6817 12.4099 16.6817H21.3347H21.4554L21.3701 16.5964L15.0169 10.2431L15.0022 10.2285H14.9815H10.1537C10.0438 10.2285 9.92522 10.1932 9.83102 10.1316C9.73668 10.07 9.67189 9.98573 9.65819 9.88983L9.65843 9.8898L9.65725 9.88498L9.64661 9.84165L9.64664 9.84164L9.64615 9.83994C9.6085 9.70717 9.65462 9.52794 9.77734 9.38525L9.77738 9.38528L9.77874 9.38354C9.89197 9.2395 10.0421 9.16319 10.1644 9.16319H34.4988C34.8139 9.16319 35.0699 9.45035 35.0699 9.82164C35.0699 9.92324 35.0142 10.0301 34.9123 10.122C34.8166 10.2083 34.6898 10.2497 34.4933 10.2295L34.4933 10.2293L34.4882 10.2293L29.0836 10.2277L29.0629 10.2277L29.0483 10.2424L22.6074 16.6832L22.5221 16.7685H22.6428H34.6082V16.7686L34.611 16.7685C35.7628 16.7039 36.9493 17.1235 37.9765 17.9778L37.9775 17.9786C38.6323 18.4941 39.0098 19.1713 39.4019 19.9555L39.4022 19.9562C41.8106 24.6095 44.537 29.5286 48.082 33.8588L48.0822 33.8591C49.4459 35.4951 50.8098 36.9139 52.2501 38.1904L52.2506 38.1908C53.7677 39.5001 55.1006 40.4293 56.4674 41.1182L73.653 47.9552Z" fill="white" stroke="white" stroke-width="0.1"/>
<path d="M27.3981 10.3122L27.4834 10.2268H27.3627H16.7046H16.5839L16.6692 10.3121L21.9979 15.6408L22.0333 15.6762L22.0686 15.6408L27.3981 10.3122ZM19.4524 11.4169H24.6157L22.034 13.9985L19.4524 11.4169Z" fill="white" stroke="white" stroke-width="0.1"/>
<path d="M7.30744 32.2754H7.31149V32.2755H31.8094C32.7108 32.2755 33.4523 32.0556 33.9979 31.6221C34.8427 30.9994 35.261 29.9241 35.1072 28.732C34.8563 26.454 34.5187 24.0782 34.1805 21.8442C33.959 20.0331 32.3696 18.5969 30.5675 18.5969C30.4582 18.5969 30.3486 18.6074 30.2325 18.6185L30.2276 18.619C28.0816 18.619 25.9242 18.6296 23.7677 18.641C23.7677 18.641 23.7677 18.641 23.7677 18.641L23.3609 18.643C21.3171 18.653 19.2729 18.663 17.2186 18.663C14.7664 18.663 12.62 18.6524 10.6476 18.6304V18.6304H10.647C8.70784 18.6304 6.92187 19.9842 6.44708 21.7934C6.34444 22.1047 6.24176 22.4167 6.1388 22.7296C5.87055 23.5449 5.6005 24.3656 5.32489 25.1919L5.32475 25.1924C4.95462 26.3362 4.57306 27.4914 4.20211 28.6143L4.20208 28.6143L4.20158 28.616C3.84876 29.8281 4.10028 30.918 4.84804 31.5771C5.62624 32.2754 6.64456 32.2754 7.30744 32.2754ZM5.27497 29.9033C5.23423 29.6022 5.27242 29.2784 5.35084 28.9916L5.35359 28.9834C5.72266 27.8757 6.09173 26.7473 6.46084 25.6187L6.48146 25.5556C6.85747 24.406 7.23351 23.2566 7.60975 22.1291L7.60989 22.1291L7.61081 22.1254C7.9424 20.8088 9.25076 19.8206 10.6564 19.8205C12.858 19.8532 15.0481 19.8532 17.2387 19.8532H17.2389C19.4241 19.8532 21.6037 19.845 23.7805 19.8368L23.7887 19.8368C25.9627 19.8286 28.134 19.8205 30.3052 19.8205V19.8208L30.3112 19.8201C30.3991 19.8094 30.4942 19.7984 30.5773 19.7984C31.7817 19.7984 32.8626 20.8025 33.0127 22.0319L33.0127 22.0319L33.0129 22.0332C33.3503 24.2891 33.6771 26.6311 33.9278 28.8856L33.928 28.8866C34.014 29.5404 33.8406 30.2714 33.2835 30.6817L33.2835 30.6816L33.2816 30.6832C32.8813 31.0092 32.3081 31.0862 31.8096 31.0862H7.31164C7.0166 31.0862 6.70774 31.0861 6.42133 31.0352C6.13548 30.9844 5.87691 30.8839 5.68003 30.6866L5.68019 30.6865L5.67645 30.6834C5.43749 30.4863 5.31616 30.2078 5.27497 29.9033Z" fill="white" stroke="white" stroke-width="0.1"/>
<path d="M47.8075 44.2974C47.8089 43.6675 47.8089 43.0341 47.7598 42.4222C47.7598 41.3994 47.7598 40.4619 47.6618 39.4361C47.6618 38.5 47.6617 37.4744 47.5634 36.5347L47.5618 36.5192L47.5517 36.5074C47.4692 36.411 47.3864 36.3143 47.3035 36.2175C45.6989 34.3433 44.0196 32.3819 42.5079 30.3424L42.4178 30.2207V30.3721V33.827H42.4178L42.4178 33.8282C42.4716 36.0848 42.5223 38.3444 42.5732 40.6181C42.6151 42.4843 42.6571 44.36 42.7013 46.2513L42.7018 46.2722L42.717 46.2866C44.2156 47.6973 46.096 48.7248 47.872 49.6619L47.9453 49.7006V49.6177C47.9453 49.0553 47.9208 48.4714 47.8963 47.8888L47.8962 47.8882C47.8717 47.3049 47.8472 46.723 47.8472 46.1628H47.8474L47.8471 46.1592C47.8048 45.5729 47.8061 44.9633 47.8074 44.3496L47.8075 44.2974ZM46.6458 46.2186C46.6458 46.6913 46.6654 47.1842 46.6855 47.6853C45.6872 47.0934 44.7325 46.4702 43.8901 45.7465C43.8433 43.5797 43.7933 41.4377 43.7438 39.3108C43.701 37.4769 43.6585 35.6542 43.6185 33.8364V33.6928C44.5491 34.822 45.4884 35.9301 46.4183 37.0081C46.4717 37.797 46.4717 38.659 46.4717 39.4386V39.548H46.4715L46.4719 39.5525C46.5591 40.5305 46.5591 41.4109 46.5591 42.4359V42.5225H46.559L46.5593 42.5263C46.6024 43.0904 46.6025 43.6776 46.6025 44.3096V44.3105C46.6025 44.9411 46.6025 45.585 46.6458 46.2186Z" fill="white" stroke="white" stroke-width="0.1"/>
<path d="M54.5804 45.4193C54.5804 44.2975 54.5804 43.0867 54.4821 41.962L54.4799 41.9366L54.4581 41.9235C52.5983 40.8027 50.9113 39.4975 49.3225 38.0068L49.2282 37.9183L49.2385 38.0472C49.4238 40.377 49.4238 42.6199 49.4238 44.7668H49.4236L49.424 44.7711C49.4728 45.3299 49.4728 45.9107 49.4728 46.4942V46.4954C49.4728 47.0768 49.4728 47.6609 49.5219 48.2238V50.1828C49.5219 50.2379 49.5358 50.2834 49.5619 50.3194C49.5878 50.3551 49.6228 50.3775 49.6585 50.3916C49.7235 50.4173 49.7989 50.4183 49.8469 50.4183C49.9202 50.4439 49.9935 50.4695 50.0668 50.4951C51.5816 51.0247 53.1035 51.5568 54.7051 51.9101L54.7722 51.9248L54.7656 51.8565C54.7169 51.3469 54.7168 50.8589 54.7168 50.3683V50.3673C54.7168 49.8778 54.7168 49.3856 54.6676 48.871C54.6253 48.3281 54.6266 47.7848 54.628 47.2291L54.6281 47.1812C54.6294 46.6099 54.6294 46.0256 54.5804 45.4193ZM53.5547 50.369V50.3793C52.598 50.1136 51.6706 49.798 50.7227 49.4617V48.1349H50.7229L50.7225 48.1307C50.6794 47.6208 50.6794 47.078 50.6794 46.5006V46.4997C50.6794 45.9231 50.6794 45.3232 50.636 44.7223C50.636 43.4058 50.636 42.0581 50.5959 40.6687C51.4903 41.3889 52.4051 42.0389 53.3602 42.6284C53.4133 43.5342 53.4133 44.4932 53.4133 45.4219V45.5086H53.4131L53.4134 45.5124C53.4566 46.0765 53.4566 46.6417 53.4566 47.187V47.188C53.4566 47.7651 53.4566 48.3659 53.5115 48.9786L53.5115 48.9787C53.5546 49.4443 53.5547 49.889 53.5547 50.369Z" fill="white" stroke="white" stroke-width="0.1"/>
<path d="M11.8538 41.3446L11.8556 41.3429L11.8103 41.3071L11.7556 41.2638L11.7557 41.2636L11.7522 41.2613L11.6868 41.218L11.6868 41.218L11.686 41.2175C10.8068 40.6571 9.8276 40.3598 8.85871 40.3598C8.49528 40.3598 8.13178 40.4036 7.77892 40.4919C5.89591 40.9323 4.47421 42.5073 4.24278 44.3922L4.24278 44.3922L4.24275 44.3924C4.0222 46.2759 5.00239 48.1489 6.6767 49.0411C7.29529 49.3831 8.0334 49.5595 8.80396 49.5595C9.46422 49.5595 10.1361 49.4275 10.7522 49.1632L10.7522 49.1632L10.7531 49.1628C11.9218 48.6338 12.846 47.5983 13.3077 46.3226L13.3077 46.3226L13.3083 46.3208C13.8763 44.5521 13.2761 42.5802 11.8538 41.3446ZM12.1996 45.9305L12.1995 45.9309C11.8654 46.8348 11.2091 47.6607 10.2991 48.0786C9.82522 48.2723 9.31962 48.3793 8.81542 48.3793C8.26669 48.3793 7.71989 48.2607 7.2491 47.9936L7.24911 47.9936L7.24785 47.9929C6.0126 47.3382 5.27113 45.9297 5.43227 44.5341L5.43227 44.534C5.59314 43.1393 6.6668 41.9788 8.07508 41.6459L8.07508 41.646L8.0757 41.6458C8.33319 41.5814 8.60124 41.5492 8.85944 41.5492C9.61082 41.5492 10.3736 41.796 11.0417 42.2259C12.1153 43.1296 12.6071 44.6124 12.1996 45.9305Z" fill="white" stroke="white" stroke-width="0.1"/>
<path d="M34.4329 41.3487L34.4316 41.3478C33.6171 40.7107 32.6161 40.3586 31.6029 40.3586C31.2504 40.3586 30.887 40.4023 30.5455 40.4906C28.9801 40.8217 27.6699 42.0557 27.2185 43.619C26.7893 44.9194 26.998 46.4609 27.8028 47.5959C28.6193 48.8197 30.1174 49.6008 31.6798 49.6008C32.1857 49.6008 32.6709 49.524 33.1343 49.3586C34.4565 48.9179 35.5687 47.8055 36.0099 46.4719L36.0099 46.4719L36.0103 46.4706C36.5821 44.5777 35.9232 42.441 34.4329 41.3487ZM33.7197 42.3008C34.8657 43.125 35.2766 44.7677 34.8686 46.0907L34.8683 46.0914C34.5358 47.0794 33.7187 47.9068 32.7206 48.2392L32.7202 48.2394C32.3769 48.3576 32.0229 48.4108 31.6684 48.4108C30.5394 48.4108 29.3898 47.8514 28.7675 46.918L28.7675 46.918L28.7668 46.9171C28.1879 46.0912 28.0264 44.9418 28.359 43.9538L28.3597 43.9518C28.692 42.8034 29.6802 41.8902 30.8283 41.644L30.8283 41.644L30.83 41.6436C31.0876 41.5792 31.345 41.5471 31.6023 41.5471C32.3541 41.5471 33.1055 41.8047 33.7175 42.2991L33.7175 42.2992L33.7197 42.3008Z" fill="white" stroke="white" stroke-width="0.1"/>
<path d="M61.5878 48.6672C61.5878 47.6788 61.5878 46.6781 61.5065 45.5868L61.5312 45.5972L61.498 45.4935L61.498 45.4935L61.4531 45.5023L61.4699 45.4627C59.7622 44.74 58.1451 43.9365 56.5203 43.1291C56.4565 43.0973 56.3926 43.0656 56.3286 43.0338L56.2538 42.9966L56.2564 43.0802C56.3054 44.6217 56.3299 46.1852 56.3531 47.749C56.3544 47.8375 56.3558 47.926 56.3571 48.0146C56.3789 49.4897 56.4006 50.9642 56.4419 52.4192L56.443 52.4582L56.4811 52.4666C56.5921 52.4911 56.7031 52.5156 56.8142 52.5401C58.3831 52.8867 59.9675 53.2367 61.6283 53.4918L61.6859 53.5007V53.4424V52.0369H61.6861L61.6857 52.0326C61.6369 51.4737 61.6368 50.9147 61.6368 50.3532V50.3521C61.6368 49.7924 61.6368 49.2301 61.5878 48.6672ZM60.4951 52.0938L60.4952 52.0961C59.675 51.9448 58.8687 51.7731 58.0702 51.6031C57.9161 51.5703 57.7624 51.5376 57.6089 51.5051C57.5768 50.2542 57.5551 48.993 57.5445 47.7424L57.5445 47.7422C57.5392 47.2624 57.531 46.7828 57.5229 46.3034L57.5229 46.3034L57.5229 46.3033C57.5152 45.851 57.5075 45.3989 57.5021 44.9466C58.4396 45.4093 59.3878 45.8612 60.3666 46.2835C60.4083 47.0992 60.4083 47.8731 60.4083 48.6907V48.7774H60.4081L60.4084 48.7816C60.4516 49.2915 60.4516 49.8123 60.4516 50.3684V50.369C60.4516 50.9242 60.4516 51.5035 60.4951 52.0938Z" fill="white" stroke="white" stroke-width="0.1"/>
<path d="M63.176 53.7352V53.7761L63.2161 53.7842C64.6236 54.0682 66.0202 54.2531 67.513 54.4386L67.5692 54.4455V54.3889C67.5692 53.3152 67.5447 52.217 67.5202 51.1194L67.5202 51.1187C67.4956 50.0207 67.4711 48.9232 67.4711 47.8501V47.8133L67.4361 47.8024C66.0907 47.3804 64.825 46.8786 63.5574 46.3761C63.4204 46.3218 63.2834 46.2675 63.1463 46.2133L63.0779 46.1863V46.2598V46.2599C63.0779 47.5246 63.1025 48.7866 63.127 50.0356L63.1277 50.0727C63.152 51.3093 63.176 52.5331 63.176 53.7352ZM65.771 53.0095C65.2989 52.9388 64.829 52.8685 64.3542 52.7885C64.3437 51.8869 64.3323 50.974 64.3113 50.0507C64.3066 49.7343 64.3018 49.4158 64.297 49.096C64.2912 48.7139 64.2853 48.3301 64.2797 47.9463C64.9344 48.2046 65.6088 48.453 66.293 48.6823C66.3035 49.4993 66.3149 50.326 66.3359 51.1535C66.3396 51.3876 66.3446 51.6199 66.3496 51.8513C66.3587 52.2694 66.3677 52.6842 66.3685 53.0995C66.1686 53.0689 65.9696 53.0392 65.771 53.0095Z" fill="white" stroke="white" stroke-width="0.1"/>
<path d="M69.1618 48.4686V48.3556L69.0718 48.4756L69.0718 48.4756L69.0291 48.5325L69.0618 48.5426C69.0625 49.4605 69.0866 50.3575 69.1108 51.2552L69.1109 51.2597C69.1354 52.1711 69.1599 53.0832 69.1599 54.0197V54.0206C69.1599 54.1129 69.1599 54.2321 69.1724 54.3517C69.1849 54.4712 69.2103 54.5957 69.2637 54.6968L69.2753 54.7187L69.2998 54.7227C70.4248 54.9086 71.5487 55.0068 72.6716 55.0935L72.7255 55.0976V55.0436C72.7255 54.1547 72.7009 53.2442 72.6764 52.3346L72.6764 52.3342C72.6519 51.4242 72.6274 50.515 72.6274 49.6276V49.5916L72.5933 49.5802C71.4708 49.203 70.3592 48.8361 69.1618 48.4686ZM71.4902 53.2556C71.4943 53.4384 71.4983 53.6203 71.5022 53.8007C71.1116 53.7607 70.7296 53.7197 70.3393 53.6707C70.3386 52.8837 70.3188 52.1156 70.2988 51.3395C70.2979 51.3026 70.2969 51.2656 70.296 51.2286C70.2906 51.0215 70.2851 50.8172 70.2796 50.613L70.2796 50.6129L70.2796 50.6128C70.2747 50.432 70.2699 50.2512 70.2651 50.0684C70.28 50.0734 70.2948 50.0783 70.3096 50.0833C70.6853 50.2083 71.0607 50.3333 71.428 50.4496C71.4385 51.081 71.4499 51.7228 71.4708 52.3646C71.4771 52.6621 71.4837 52.96 71.4902 53.2556Z" fill="white" stroke="white" stroke-width="0.1"/>
<path d="M28.5449 65.586H16.8539V63.3799V63.3299H16.8039H6.60429H6.55429V63.3799V63.9249C6.55429 64.454 6.55427 65.0012 6.52454 65.5092H1.16626H1.11626V65.5592V72V72.05H1.16626H35.2209V72.0503L35.2261 72.0498C44.4896 71.0798 53.927 70.0117 63.0579 68.9764L63.0523 68.9267L63.0579 68.9764C65.6687 68.6791 68.2753 68.3856 70.8682 68.0937C72.5496 67.9044 74.2253 67.7158 75.8926 67.5271C76.3 67.5265 76.5359 67.3974 76.6684 67.232C76.7996 67.0683 76.8223 66.878 76.8223 66.7687V63.38V63.33H76.7722H28.6054H28.5556L28.5554 63.3797L28.5449 65.586ZM75.9065 66.4677C75.916 66.4608 75.9256 66.4552 75.9345 66.4508L75.949 66.5716L75.9065 66.4677ZM35.1626 70.8492H2.30483V66.6885H7.54011H7.58473L7.58979 66.6442L7.64447 66.165C7.64448 66.1649 7.64449 66.1648 7.6445 66.1647C7.70834 65.6435 7.73098 65.0813 7.73221 64.5092H15.6639V66.7153V66.7653H15.7139H29.6847H29.7347L29.7347 66.7153L29.7344 64.52H75.6217V66.3651C71.4034 66.8311 67.1745 67.3084 62.9457 67.7856L62.9268 67.7878L62.9324 67.8374L62.9268 67.7878C53.7952 68.823 44.3591 69.8802 35.1626 70.8492Z" fill="white" stroke="white" stroke-width="0.1"/>
</g>
<defs>
<clipPath id="clip0_3_657">
<rect width="76" height="80" fill="white" transform="translate(0.5)"/>
</clipPath>
</defs>
</svg>
