<svg width="83" height="80" viewBox="0 0 83 80" fill="none" xmlns="http://www.w3.org/2000/svg">
<mask id="path-1-outside-1_17_2829" maskUnits="userSpaceOnUse" x="2" y="0" width="80" height="80" fill="black">
<rect fill="white" x="2" width="80" height="80"/>
<path d="M79.4437 37.9579C80.3189 38.2498 79.8327 36.888 80.5136 36.7909V36.6937C80.4165 35.6238 80.3189 34.5538 80.1246 33.4845C79.8327 33.7765 79.5408 34.4574 79.2495 34.6516C78.5686 35.1377 80.1246 36.6938 79.4443 37.2777C79.2495 37.4725 77.9853 37.6667 77.6935 37.2777C77.5963 37.1806 77.6935 36.9858 77.4016 36.9858C77.3044 36.9858 77.0125 36.8887 77.0125 36.9858C76.9154 37.1806 77.7906 37.8609 77.9854 38.0557C78.2773 38.4447 77.4015 39.4176 77.0125 38.9309C76.8177 38.5419 76.4287 38.7361 76.1374 38.5419C76.0403 38.8338 75.8455 39.9037 75.4565 40.2927C75.2617 40.6817 75.0674 43.3077 75.0674 43.5019C75.0674 43.5019 75.2622 44.1828 75.3594 44.2799C75.4565 44.2799 77.0125 41.362 77.1102 41.2649C77.305 41.0701 77.5963 40.973 77.694 40.973C78.1801 41.0701 78.472 41.6539 78.5691 41.6539C78.7639 41.5568 78.9582 41.0701 79.0553 40.973C79.0553 40.8759 79.1524 40.584 79.0553 40.4869C79.0553 39.6117 78.6663 37.6666 79.4443 37.958L79.4437 37.9579ZM74.5806 44.9603C74.6777 44.8632 74.9696 44.6684 75.2616 44.8632C75.5535 45.2522 75.1644 45.6413 75.0667 46.1274C74.5806 46.2245 74.0939 46.7112 73.8997 47.1002C73.8026 47.9754 73.1217 48.8511 73.1217 49.7263C73.2188 51.1853 70.6905 52.6443 70.6905 53.9085C70.5934 54.6865 69.3286 56.6316 69.2315 57.7015C69.3286 58.7715 69.1344 62.9535 70.0096 63.1477C70.2043 63.1477 70.3986 63.2448 70.4957 63.3425C70.7876 63.5373 70.9818 63.6344 72.2465 62.7587C72.3436 62.6616 73.3165 62.4668 73.6084 62.3697C77.9853 56.0476 80.6108 48.3644 80.6108 39.9997C80.6108 39.0268 80.6108 38.0545 80.5137 37.1794C80.3189 37.5684 80.5137 38.5413 79.3466 38.3465C79.3466 38.7355 79.4437 40.0973 79.4437 40.3887C79.4437 40.5835 79.5408 40.7777 79.4437 41.0696C79.2489 41.4587 78.7628 42.0425 78.5686 42.1396C78.4715 42.1396 78.2766 41.9448 78.1795 41.8477C78.0824 41.6529 77.5957 41.2638 77.4986 41.4587C76.9148 42.2367 76.6235 43.0147 76.1368 43.7927C75.942 44.1818 75.7478 44.4737 75.6506 44.5708C75.4558 44.6679 75.2616 44.6679 75.1645 44.5708C74.9697 44.376 74.6784 43.5008 74.6784 43.3066C74.7755 43.1118 74.9703 40.2916 75.1645 40.0974C75.5535 39.7084 75.5535 38.9304 75.8454 38.3466C75.9425 38.2495 75.9425 38.1518 76.0402 38.1518C76.235 38.0547 76.235 38.0547 76.3321 38.2489C76.4292 38.346 77.0131 38.2489 77.305 38.6379C77.4021 38.735 77.694 38.4431 77.694 38.346C77.4021 38.1512 76.624 37.2761 76.624 36.887C76.624 36.6922 76.7212 36.6922 76.8188 36.5951C77.305 36.498 77.8888 36.5951 77.9859 37.0813C78.1807 37.1784 79.153 37.0813 79.2501 36.9841C79.542 36.7894 78.083 35.039 78.9582 34.3581C79.3472 34.0662 79.6391 33.2881 80.0281 32.9962C76.916 16.2676 63.2024 3.52702 46.2797 1.67941C46.3768 2.26323 46.4745 2.84647 46.2797 3.43023C46.1826 4.11116 45.6959 4.40307 44.5289 4.20827C42.778 3.72214 43.2647 5.18111 42 5.9591C41.1249 6.64002 40.3469 4.69492 38.7908 7.32095C39.1798 7.41806 39.666 7.90477 39.7636 8.39089C39.7636 8.58568 39.8608 8.97471 39.4717 9.16893C39.2769 9.26604 38.5966 9.65506 38.6937 9.84986C38.7908 9.94697 39.8607 9.84986 40.1527 10.0447C40.8336 10.2394 41.2226 9.94754 41.7087 9.75274C42.3896 9.26661 44.1399 9.07181 44.2376 8.87759C44.2376 8.6828 44.2376 8.39146 44.8214 7.90476C45.3075 7.51574 45.8913 8.00187 46.3775 8.39089C46.6694 8.6828 46.9613 8.87702 47.1555 8.97471C47.5445 8.6828 47.4474 6.73771 49.7816 8.00187C50.0735 8.09899 50.3654 8.29379 50.6567 8.29379C54.255 7.32095 52.699 8.97471 55.2278 8.48858C56.9786 8.19667 56.7839 9.16951 56.2006 10.0446C56.0059 10.5308 57.2706 11.0175 57.3677 11.1146C58.5348 11.7955 57.9515 12.3788 60.0909 12.3788C61.744 12.3788 62.425 12.9626 63.3001 14.1296C63.592 14.5186 63.981 14.6157 64.5643 14.3244C65.8284 13.9354 65.8284 15.2972 66.6065 16.0752C67.9683 17.3394 67.4816 18.9931 67.9684 19.5764C68.3574 20.2573 67.6764 20.2573 67.6764 20.3544C67.6764 20.3544 68.1626 21.1325 68.7464 20.6464C69.2325 20.2573 70.0106 21.7163 69.6215 22.2024C69.6215 22.2995 69.4267 22.3972 69.3296 22.3972C69.0377 22.3972 68.7458 22.1053 68.5516 22.0082C68.5516 22.0082 67.0926 21.8134 66.8007 21.6192C66.6059 21.6192 66.5088 21.7163 66.5088 21.7163C66.4117 22.0082 66.5088 22.9805 66.6059 23.1753C66.8007 23.3701 67.9678 25.3152 68.162 25.7041C68.94 26.5793 68.94 26.9683 68.94 28.233C68.8429 28.8168 68.8429 28.9139 69.5239 29.5948C69.9129 30.0809 69.8158 30.47 70.399 30.7619C70.9828 29.8867 72.3442 30.47 72.3442 30.3729C72.3442 30.1781 71.858 29.789 71.7603 29.4977C71.3713 28.2335 71.5655 27.6498 70.4962 26.7745C69.7181 26.1907 69.9123 25.8017 70.691 25.8994H71.1771C70.9823 25.6075 71.08 25.1213 71.3719 24.9265C71.3719 24.8294 71.5667 24.8294 71.6638 24.8294C71.8586 24.9265 71.9557 25.1213 72.1499 25.5104C72.4418 26.1913 72.928 26.6774 73.317 27.2612C73.706 27.7473 73.6089 27.9421 73.5118 28.234C72.8309 29.4982 73.5118 30.0819 73.317 30.9572C73.2199 31.3462 73.5118 31.541 73.1222 32.0271C72.9274 32.1243 72.6361 33.2913 72.4413 33.778C72.4413 33.778 73.0251 35.2369 73.0251 35.5288C73.0251 36.1126 73.1222 36.5987 73.1222 37.1819C73.1222 37.6681 71.2743 38.5438 71.858 39.4189C72.3442 39.8079 73.6088 40.2941 73.6088 40.8779C73.6088 41.364 73.706 41.6559 73.025 41.9478C72.7331 42.0449 72.5389 42.1426 72.247 42.1426C71.9551 42.4345 71.4689 43.4068 71.7608 43.8935C71.9556 44.0882 72.0528 44.2825 71.7608 44.6715C71.0799 45.3524 72.4418 46.0333 73.2198 46.1305C73.5117 46.1305 74.095 45.3524 74.5817 44.9634L74.5806 44.9603ZM73.2188 62.8554C72.1488 63.2444 71.1765 64.2173 70.3008 63.6335C70.2037 63.5364 70.106 63.5364 69.9118 63.4387C68.55 63.2439 68.939 59.1595 68.8419 57.7976C68.7448 56.9224 70.2037 54.6855 70.3008 53.9074C70.3008 52.4485 72.732 50.9895 72.732 49.7253C72.732 48.7524 73.4129 47.9745 73.5101 47.0021C73.6072 46.6131 74.2881 45.9322 74.6771 45.7379C74.7742 45.6408 74.969 45.3489 74.969 45.2518C74.58 45.3489 73.802 46.516 73.2182 46.516C72.0512 46.4189 70.5921 45.6408 71.4674 44.4737C71.5645 44.2789 71.5645 44.1818 71.4674 44.0847C71.0784 43.5009 71.5645 42.1396 72.0512 41.8477C72.0512 41.8477 72.1483 41.8477 72.246 41.7506C72.3431 41.7506 72.5379 41.7506 72.8298 41.5558C73.316 41.4587 73.2188 41.2639 73.2188 40.8749C73.3159 40.6801 71.7599 39.9021 71.5657 39.6107C70.6906 38.5408 72.7328 37.3737 72.7328 37.1795C72.7328 36.5957 72.6356 36.1096 72.6356 35.5264C72.6356 35.1374 71.8576 33.7756 72.0518 33.5813C72.3437 33.0951 72.538 32.0252 72.8299 31.7333C73.0247 31.4414 72.927 31.1495 72.927 30.8582C73.2189 30.1773 72.4408 29.3992 73.1218 28.0379C73.2189 27.9408 73.2189 27.8431 73.0247 27.5518C72.5385 26.8709 72.1495 26.3847 71.7605 25.6067C71.4686 24.8286 71.3715 25.6067 71.4686 25.7038C71.6634 25.9957 71.5657 26.0928 71.3715 26.1899C71.2743 26.287 70.9824 26.287 70.6905 26.287C70.2044 26.287 70.3986 26.1899 70.6905 26.3841C71.9547 27.357 71.7605 28.0373 72.1495 29.3021C72.3443 29.7882 72.6356 29.8859 72.8304 30.2749C72.9275 30.372 72.9275 30.5668 72.7333 30.6639C72.1495 30.9558 71.1773 30.372 70.6911 30.9558C70.4963 31.2477 70.3021 31.1506 70.3021 31.1506C69.4269 30.6645 69.7182 30.3726 69.2321 29.8864C68.4541 29.0113 68.4541 29.0113 68.5512 28.1356C68.5512 27.8437 68.6483 26.8714 67.8703 25.8986C67.1894 25.1206 66.8974 24.2455 66.3142 23.3698C66.0223 23.0779 66.0223 22.0079 66.1194 21.619C66.2165 21.327 66.4113 21.1328 66.8975 21.327C67.3836 21.5218 68.6483 21.5218 68.7454 21.7161C69.0373 21.9108 69.2315 22.008 69.3292 22.008C69.524 21.8132 69.0373 20.8409 68.9402 20.938C68.1621 21.6189 66.995 20.549 67.287 20.2571C67.3842 19.9652 67.7732 19.9652 67.6761 19.8681C67.0922 19.09 67.5789 17.534 66.3142 16.2698C65.7304 15.7837 65.4391 14.4219 64.7581 14.7137C63.6882 15.0056 63.3963 14.9085 63.0073 14.4218C62.2293 13.2548 61.4513 12.7687 60.0894 12.7687C57.9495 12.8658 58.0472 11.9906 57.1714 11.5045C55.7125 10.6294 55.6154 10.2403 55.8096 9.85136C56.1015 9.36522 56.7824 8.6843 55.2258 8.87852C52.5026 9.36465 54.1558 7.71146 50.7518 8.58661C50.4599 8.68372 49.6818 8.39181 49.6818 8.2947C47.2507 7.12764 48.1258 9.36464 47.0557 9.36464C46.7638 9.26752 46.4719 8.97562 46.1806 8.68371C45.7916 8.3918 45.3055 8.00278 45.1107 8.19758C44.6245 8.58659 44.6245 8.7814 44.6245 8.8785C44.5274 9.55943 42.7766 9.46233 41.9014 10.0456C41.3175 10.3375 40.8314 10.7265 40.0534 10.3375C39.5673 10.2404 38.4974 10.4346 38.3026 9.94846C38.1078 9.55944 38.9835 8.97562 39.2755 8.7814C39.3726 8.68429 39.4702 8.68429 39.3726 8.39239C39.2755 8.10047 38.8864 7.80856 38.5945 7.61434C38.4974 7.51723 38.3026 7.51723 38.3026 7.32243C40.3448 4.01555 41.0258 6.15537 41.8038 5.66929C43.068 4.89124 42.4847 3.23811 44.6241 3.82137C45.4992 4.01617 45.8883 3.72426 45.9859 3.33524C46.083 2.84911 45.9859 2.16818 45.8888 1.58442C44.6246 1.48731 43.36 1.38963 41.9987 1.38963C20.6996 1.38963 3.38703 18.7022 3.38703 40.0013C3.38703 55.8546 13.113 70.0545 27.7988 75.9871C27.8959 75.4033 28.0907 74.8201 28.674 74.4311C29.452 74.0421 28.9659 73.3611 28.674 72.7779C27.604 71.1248 28.2849 70.638 27.215 69.2767C27.215 68.4016 25.6589 67.6236 25.9508 66.0675C26.0479 65.6785 27.1179 64.1224 27.5069 64.0253C27.7988 63.9282 29.452 63.9282 29.5491 63.8305C29.7439 63.5386 30.0352 63.3444 30.23 63.1496C30.7162 62.8577 30.7162 62.7606 30.8138 62.3715C30.8138 62.1767 31.0086 62.0796 31.1058 61.9825C31.2029 61.9825 31.2029 61.8854 31.0086 61.7877C30.7167 61.5929 28.9664 60.7178 28.6746 60.6207C28.5774 60.2316 28.4798 60.0368 28.0907 59.8426C27.6046 59.4536 27.0208 59.0646 27.1179 57.5085C27.215 55.9525 26.1451 53.6184 25.0757 52.5484C24.4918 52.3536 24.1028 51.8674 23.9086 51.3813C23.6167 50.8952 22.1578 49.5334 22.1578 49.3391C22.2549 48.172 21.1849 47.4912 21.0878 46.6159C20.9907 45.935 20.504 45.7407 20.4069 45.4488C20.115 44.1847 20.4069 43.9899 20.893 43.698C21.8659 43.1142 21.574 40.0997 21.574 39.224C21.574 38.1541 22.352 37.1818 22.2549 36.5008H22.1578C21.7688 37.1818 21.7688 37.2789 21.4769 37.9598C20.9907 39.0297 21.4769 40.7801 21.2821 41.0719C20.9902 41.2667 20.4069 40.8771 20.3092 40.5858C19.2393 38.4459 21.0873 31.4436 22.7404 29.7903C24.2965 28.2343 26.3387 25.1222 28.6734 25.0245C28.7705 24.9274 31.4936 20.3563 32.6612 19.5783C33.5363 18.8974 35.3844 16.3691 34.6063 15.299C34.2173 14.91 33.7312 14.521 33.2445 13.743C32.5636 12.5759 31.1046 12.284 32.6607 10.9227C32.7578 11.6036 33.1468 11.9927 33.6335 12.3817C34.0225 11.8956 34.5086 11.5065 35.0925 11.2146C35.5786 10.9227 36.1624 10.8256 36.6485 11.2146C36.9404 11.4094 37.2324 11.7985 37.5237 11.9927C37.7185 12.0898 37.9127 11.9927 38.1075 11.7008C38.2046 11.4089 38.4965 11.2146 38.6913 11.2146C39.1775 11.1175 39.9555 11.4094 40.0532 11.9927C40.9283 11.8956 41.6092 11.8956 42.0954 12.7707C42.1925 12.8678 42.1925 12.9655 42.2902 12.9655C42.485 13.0626 42.5821 13.1603 42.1931 13.7436C41.8041 14.3274 42.485 14.7164 41.415 15.4944C41.3179 15.4944 41.3179 15.6892 41.3179 15.8834C41.415 17.2452 42.9711 21.0383 43.7491 22.3025C43.7491 22.2054 43.9439 22.0106 44.041 22.0106C44.3329 21.7187 43.4572 21.1355 43.4572 20.5517C43.4572 20.1626 43.652 19.9678 43.7491 19.7736C43.9439 19.5788 43.263 19.1898 43.263 18.8985C43.5549 18.2175 46.0832 18.0233 45.8891 19.5794C45.792 20.4545 46.0839 20.3574 46.2781 20.8436C46.57 21.4274 46.3752 22.6915 45.8891 23.0806C45.6943 23.2754 45.4029 23.4696 45.5 23.7615C45.5 23.9563 46.2781 23.7615 46.3752 23.8586C46.3752 23.8586 46.959 22.7887 47.1532 22.7887C47.4451 22.6916 47.6394 22.7887 47.9313 23.0806C48.4174 23.4696 47.3475 24.5395 47.3475 25.0257C47.4446 25.4147 47.9313 25.5119 48.3203 25.6095C48.8064 25.8043 49.1954 25.9015 49.1954 26.2905V27.0685C49.0983 27.5546 47.4446 27.6523 47.0555 27.8466C46.0827 28.3327 42.5815 27.9437 42.6786 29.3055C42.6786 29.7917 42.4838 32.4176 43.3595 32.2235C44.0405 32.8073 44.4295 33.1963 44.0405 34.0714C43.9434 34.2662 43.5543 35.6274 44.1376 36.2113C44.2347 36.0165 44.4295 35.7252 44.6237 35.5304C44.7208 35.0442 45.6937 34.4604 46.0827 33.9743C46.1798 33.7795 46.2775 33.6824 46.2775 33.6824C46.2775 32.8072 45.6937 32.8072 46.4723 31.7372C47.6393 30.2783 48.0283 30.0841 48.4174 30.3754C48.5145 30.3754 48.6122 30.5702 48.7093 30.6673C48.8064 30.8621 48.9041 31.0563 49.0984 31.1534C49.2931 31.2506 49.4874 31.4454 49.5845 31.6396C49.7793 31.8344 49.8764 32.0286 49.9735 32.2234C49.9735 32.4182 50.1683 32.6124 50.2654 32.7095C50.4602 33.0014 50.5573 33.1957 50.5573 33.6824C50.4602 33.7795 50.7521 33.9743 51.0435 34.1685C51.3354 34.3633 51.6273 34.5575 51.8215 34.8494C51.9186 34.9465 52.0163 35.0442 52.0163 35.1413C52.3082 35.5303 52.6001 35.8223 52.6972 36.4055C52.892 37.8645 53.9614 38.3507 52.892 40.0038C52.3082 40.7818 51.0441 40.9766 50.2659 40.3928C49.8769 40.3928 48.418 40.1009 48.0289 40.2957C47.9318 40.2957 47.6399 40.4905 47.4451 40.5876C47.737 40.7824 49.1959 40.1015 49.8763 41.1714C49.8763 41.2685 49.4873 41.9495 49.5844 42.0466C49.6815 42.2414 50.1682 42.2414 50.3624 42.2414C50.7514 42.2414 51.0433 42.9223 51.0433 43.3113C51.0433 43.7975 50.5572 43.8951 50.0705 43.7003C49.9734 43.6032 49.0977 43.8951 48.7086 43.7974C48.6115 43.7003 48.4167 43.7974 48.2225 43.8946C48.1254 43.9917 48.0277 43.9917 47.9306 44.0893C47.6387 44.0893 47.4445 44.0894 47.2497 43.5055C47.1526 43.1165 46.2768 43.4084 45.9855 43.7003C45.7907 43.9922 45.0127 44.3812 44.7213 44.4784H44.1375C44.0404 44.4784 43.2624 44.9645 42.9704 45.0622C42.5814 45.0622 41.3173 46.7153 41.3173 46.9101C41.0254 47.7852 39.3722 47.4939 38.7884 47.98C38.2046 47.98 37.1353 47.98 36.9405 48.5639C36.7457 49.05 36.4544 48.7587 36.2596 49.7309C36.1625 49.828 36.1625 49.828 36.2596 50.0228C36.1625 50.8009 36.1625 51.676 35.1897 51.676C34.4116 51.676 34.3145 50.8979 34.5087 50.3141C34.8007 49.2442 33.9249 47.7853 32.9527 47.202C32.6608 47.1049 32.4666 47.0072 32.0775 47.0072C31.6885 47.0072 31.0076 46.9101 30.9105 46.4234C30.5215 45.5482 29.3544 45.0615 28.4793 45.0615C28.0903 45.0615 26.5342 45.6454 26.4371 46.1315C26.0481 46.7153 25.27 47.5904 25.27 48.3685C25.4648 48.7575 25.7561 49.5355 26.0481 50.1193C26.4371 50.2164 26.729 50.3141 27.0209 50.6054C27.2157 50.8002 27.507 50.8973 27.7018 50.7025C28.188 50.3135 28.577 50.3135 29.1608 50.5077C29.7446 50.7997 30.2307 51.0916 30.0359 51.8696C30.0359 52.0644 29.5498 52.4534 29.4521 52.6476C29.2573 53.1338 28.966 53.2315 28.6741 53.4257C28.3822 53.5228 27.9931 53.8147 28.577 54.0095C29.0631 54.2043 29.5498 54.6904 29.9388 55.1766C30.2307 55.4685 30.9116 56.3436 30.7169 56.8297C30.6197 56.9268 30.3278 57.1216 30.2307 57.3158C29.8417 57.7049 29.6469 58.191 29.6469 58.6777C29.5498 59.1638 29.744 59.6505 30.0359 60.0396C30.2307 60.2343 30.3278 60.4286 30.6197 60.4286C31.4949 60.5257 31.7868 61.4985 32.0787 61.4014C33.5377 60.8176 35.4828 60.8176 36.5527 62.3742C36.6498 62.6662 39.5677 62.7633 40.2487 63.6384C40.7348 64.1245 41.0267 64.1245 41.3186 64.1245C41.8047 64.1245 42.2914 64.3193 42.6805 65.0974C43.4585 66.3616 44.8204 67.5286 46.1817 68.2095C47.1545 68.5985 47.8348 68.8904 47.9325 70.4465C48.0296 71.1274 48.2244 71.8083 49.0024 71.8083C49.3914 71.9055 49.7805 72.0032 50.2666 72.1974C50.5585 72.3922 52.6007 72.9754 52.9898 72.9754C54.6429 72.8783 54.4487 73.7535 54.6429 74.4344C54.8377 74.9205 50.4608 76.0875 49.9748 77.8385C59.3118 75.8934 67.5786 70.5442 73.22 62.8604L73.2188 62.8554ZM41.9991 78.7087C44.6251 78.7087 47.0563 78.4168 49.4881 77.9307C50.169 75.9856 52.795 75.4995 54.2539 74.4295C53.962 73.6515 54.2539 73.3596 52.9898 73.3596C52.5036 73.3596 50.4609 72.7757 50.0718 72.5815C49.6828 72.2896 49.2938 72.2896 49.0019 72.1925C48.2238 72.0954 47.7377 71.9977 47.5429 70.5394C47.4458 69.1775 46.862 68.8862 46.0839 68.4971C44.625 67.9133 43.166 66.6492 42.2909 65.2879C41.999 64.8989 41.9019 64.5099 41.318 64.5099C40.929 64.5099 40.54 64.5099 39.9562 63.8289C39.2753 63.0509 36.9412 63.2451 36.2602 62.6619C35.5793 62.2729 35.2874 61.0087 32.2724 61.689C31.3973 62.1752 31.2996 60.911 30.5216 60.8139C30.2297 60.8139 30.0354 60.6191 29.7435 60.3278C28.8684 59.3549 29.1597 57.9937 29.9383 57.0209C30.0354 56.9238 30.1331 56.729 30.3273 56.6319C30.4245 56.4371 29.7435 55.5619 29.6464 55.3677C29.3545 55.0758 28.8684 54.5897 28.3822 54.3949C27.5071 54.0058 27.8961 53.422 28.4794 53.033C28.6741 52.9359 28.9655 52.8382 29.0632 52.5469C29.1603 52.3521 29.5493 51.866 29.647 51.7688C29.8418 51.185 29.4522 51.0879 28.9661 50.8937C28.3823 50.6018 28.188 50.8937 27.9932 50.9908C27.6042 51.2827 27.1181 51.1856 26.7291 50.8937C26.34 50.5047 25.951 50.6018 25.7562 50.4076C25.5614 50.3104 24.9782 48.5596 24.8811 48.3653C24.8811 47.3925 25.562 46.7122 26.0481 45.9341C26.2429 45.3503 27.896 44.67 28.4793 44.67C29.4521 44.67 31.0082 45.3509 31.2996 46.3231C31.2996 46.615 31.8834 46.615 32.0776 46.615C32.4666 46.615 32.8557 46.7121 33.1476 46.9069C34.3146 47.4908 35.1898 49.1439 34.8007 50.4081V50.992C34.8978 51.1868 34.9955 51.2839 35.1897 51.2839C35.8706 51.2839 35.7735 50.5058 35.8706 49.922C35.7735 48.8521 36.5516 48.6579 36.5516 48.4631C36.9406 47.5879 38.3024 47.5879 38.5938 47.5879C39.2747 47.1989 40.8308 47.3931 41.025 46.6151C41.025 46.3232 42.4839 44.7672 42.8729 44.6699C43.2619 44.5728 43.8457 43.989 44.2347 44.0861H44.6238C44.9157 43.989 45.5966 43.6 45.6937 43.5023C45.9856 43.1133 46.2775 43.0162 46.5688 43.0162C46.9579 42.919 47.5417 42.8214 47.6388 43.4052C47.6388 43.5023 47.7359 43.6971 47.8336 43.6971C47.9307 43.6971 47.9307 43.6 48.0284 43.6C48.3203 43.4052 48.6122 43.3081 48.9035 43.4052C49.1954 43.5023 49.9734 43.2104 50.2654 43.3081C50.4602 43.4052 50.5573 43.4052 50.6544 43.4052V43.3081C50.6544 43.1133 50.5573 42.6271 50.3625 42.6271C49.8763 42.6271 49.7786 42.53 49.4873 42.4323C49.1954 42.3352 49.1954 42.0433 49.2925 41.7514C49.2925 41.6543 49.3896 41.4595 49.4873 41.2653C49.0012 40.3901 47.1532 41.2653 47.0561 40.7791C46.8614 40.5844 47.64 40.0982 47.9313 39.904C48.4174 39.7092 50.2654 40.0988 50.5574 40.0988C51.0435 40.4878 52.1134 40.4878 52.5996 39.8069C53.5724 38.445 52.5025 37.7647 52.3077 36.5C52.2106 36.0139 52.0158 35.722 51.7239 35.4301C51.6268 35.333 51.6268 35.2353 51.5291 35.1382C51.1401 34.5543 49.973 34.263 50.1672 33.5821C50.1672 33.2902 50.0701 33.1931 49.9724 32.9983C49.7776 32.8035 49.6805 32.6093 49.5834 32.3173C49.4863 31.9283 49.1944 31.6364 48.8054 31.4422C48.6106 31.2474 48.5135 31.0532 48.3193 30.8584C48.3193 30.7613 48.2221 30.6636 48.1245 30.6636C48.0273 30.5665 47.7354 30.7607 46.7626 32.0254C46.3736 32.5116 46.4707 32.7064 46.5678 32.9006C46.6649 33.0954 46.6649 33.2896 46.6649 33.6786C46.6649 34.2625 45.1089 35.0405 44.9141 35.6238C44.817 35.8186 44.3303 36.7908 44.1361 36.6937C44.0389 36.6937 43.9413 36.5966 43.747 36.4018C43.2609 35.7209 43.358 34.651 43.6499 33.873C43.8447 33.581 43.9418 33.2891 43.2609 32.6088C41.9967 32.8036 42.2881 29.9827 42.2881 29.3019C42.191 27.454 45.7893 28.0377 46.8592 27.454C47.1511 27.3569 48.8043 27.065 48.8043 27.065V26.2869C48.8043 26.0921 48.3182 25.995 48.2205 25.995C47.7343 25.8979 47.1505 25.7031 46.9563 25.1199V25.0228C46.9563 24.6337 47.8315 23.4667 47.6372 23.3696C47.4424 23.1748 47.3453 23.1748 47.2482 23.1748C46.9563 23.2719 46.7621 24.3419 46.1783 24.1477C45.9835 24.1477 45.2054 24.4396 45.1083 23.8557C45.0112 23.3696 45.4002 23.0777 45.6922 22.7858C45.9841 22.4939 46.1783 21.424 45.9841 21.035C45.5951 20.3541 45.4002 20.4512 45.4979 19.576C45.5951 18.5061 43.9419 18.798 43.7471 18.9922C44.6223 19.965 43.8442 19.7702 43.8442 20.5482C43.8442 21.0344 44.9142 21.6182 44.2332 22.2991C43.9413 22.4939 44.0384 22.7852 43.7471 22.7852C43.261 23.0771 40.9268 16.8522 40.9268 15.88C40.9268 15.491 41.024 15.2962 41.2188 15.102C41.9968 14.5182 41.4136 14.1291 41.8997 13.5459C42.0945 13.254 42.0945 13.254 42.0945 13.254C41.9974 13.254 41.8997 13.1569 41.8026 12.9621C41.3164 12.2812 40.7326 12.3783 39.9547 12.3783C39.7599 12.3783 39.6628 12.2812 39.6628 12.0864C39.6628 11.6974 38.9818 11.5025 38.7876 11.6002C38.6905 11.6002 38.4957 11.6973 38.4957 11.795C38.1067 12.476 37.7176 12.476 37.3286 12.2812C36.9396 12.0864 36.7448 11.6973 36.3558 11.5031C36.0639 11.2112 35.6749 11.3083 35.1887 11.5031C34.6049 11.8921 34.1188 12.3783 33.7298 12.865C33.2436 12.5731 32.7569 12.0869 32.4656 11.6008C32.0766 12.2817 33.1465 12.865 33.5355 13.5459C34.0217 14.4211 34.7997 14.9078 34.9945 15.102C35.8697 16.3662 33.9246 19.0898 32.8546 19.8678C31.4927 20.743 29.2563 25.3141 28.6724 25.3141C26.6302 25.5088 24.4903 28.6209 23.0313 30.0799C21.4753 31.636 19.7245 38.444 20.6002 40.4863C20.6973 40.5834 20.8921 40.6811 20.9892 40.6811C20.8921 39.7082 20.6973 38.9302 21.184 37.8608C21.2811 37.5689 21.8649 36.11 22.0591 36.11C22.1562 36.0129 22.4481 36.2071 22.6429 36.2071C22.8377 37.1799 21.962 38.1522 21.962 39.2221C21.962 40.584 22.2539 43.3072 21.0869 44.0852C20.795 44.28 20.503 44.3771 20.795 45.3494C20.8921 45.5442 21.3788 45.7384 21.4759 46.6136C21.573 47.3916 22.6429 48.0725 22.5458 49.3367C22.5458 49.4338 24.0048 50.8928 24.199 51.1846C24.3938 51.6708 24.7828 52.0598 25.2689 52.2546C26.5331 53.4216 27.603 55.8529 27.5059 57.5066C27.5059 57.8956 27.5059 59.0627 28.2839 59.4518C28.5759 59.6465 28.8678 59.8408 28.9649 60.3269C29.5487 60.5217 30.91 61.202 31.299 61.494C31.688 61.7859 31.5909 62.0778 31.3961 62.272C31.3961 62.3691 31.299 62.3691 31.2013 62.4668C31.1042 62.9529 30.8123 63.2448 30.4232 63.4396C30.2284 63.6344 30.0342 63.8286 29.8394 64.1206C29.5475 64.5096 28.0886 64.1206 27.6024 64.4125C27.4076 64.4125 26.3382 65.8714 26.3382 66.0656C26.1434 67.4275 27.6024 68.3026 27.6024 69.0806C28.4776 69.9558 28.0885 71.2206 28.9643 72.5818C29.4504 73.457 29.9371 74.235 28.7695 74.8188C28.3805 75.0136 28.2833 75.5969 28.0885 76.083C32.4655 77.7362 37.1336 78.7091 41.9967 78.7091L41.9991 78.7087ZM64.4661 29.3012C64.8551 29.3012 65.3413 29.3012 65.439 30.0792C65.439 30.274 65.7309 30.3711 65.828 30.5654C66.217 31.1492 64.6609 32.1214 64.369 32.2185C63.6881 32.8023 63.0072 33.0937 62.3268 32.0237C61.9378 31.5376 62.2297 31.0509 62.2297 30.5648C62.2297 29.6896 62.6187 29.4948 63.2996 29.4948C63.7857 29.4948 63.9805 29.3977 64.4667 29.3L64.4661 29.3012ZM63.3962 29.885C63.0072 29.885 62.6181 29.9821 62.6181 30.5659C62.6181 30.955 62.3262 31.5388 62.6181 31.8301C63.1043 32.6082 63.6881 32.3162 64.1742 31.9272C64.369 31.7324 65.6332 30.8573 65.5361 30.7602C65.3413 30.5654 65.0499 30.4683 65.0499 30.0792C64.9528 29.6902 64.758 29.6902 64.4661 29.6902C64.0771 29.7873 63.7852 29.885 63.3962 29.885L63.3962 29.885ZM50.6551 21.2289C50.3632 21.4237 51.239 22.2017 51.3361 22.6878C51.4332 23.2717 52.017 22.0069 53.0869 21.715C53.573 21.6179 53.7678 21.9098 53.6707 22.2988C53.3788 23.7578 53.6707 24.244 54.1568 24.8277C55.032 25.9947 56.3938 29.1069 55.3239 30.3717C55.2268 30.4688 55.1291 30.6636 55.032 30.8578C54.9349 31.4417 55.1291 31.4417 55.5181 31.6359C55.9071 31.733 55.5181 32.0249 55.2262 32.511C55.3233 33.2891 55.9071 34.6509 56.7823 34.5533C57.1713 34.5533 57.9493 34.8452 58.6302 35.0394C58.7273 35.1365 59.4082 35.4284 59.4082 35.3313C59.5053 35.3313 59.2134 35.2342 58.6302 34.6504C57.9493 34.1642 57.755 32.8025 58.7273 32.4134C59.0192 32.2186 59.1163 31.8296 59.3111 31.2463C59.5059 30.2735 59.8949 29.1064 61.7423 29.2041C61.8394 29.2041 61.8394 29.2041 61.9371 29.107C62.3261 28.6208 62.229 25.6058 61.3533 25.5087C61.2561 25.2168 60.5752 24.5358 60.3804 24.2445C60.0885 23.2717 58.7273 22.2994 58.6296 21.7157C58.5325 21.3266 57.8516 21.1318 57.5597 20.9376C56.2955 20.0625 55.5174 20.8405 54.9336 21.0347C54.9336 21.0347 53.7665 20.7428 53.9607 20.3538C54.2526 19.5758 52.5018 19.2839 52.2099 19.381C52.0151 19.8671 51.4319 20.8399 50.6539 21.2289H50.6551ZM52.017 18.9919C52.5031 18.7971 54.6431 19.1867 54.3511 20.3537C54.3511 20.4508 54.8372 20.5485 54.9349 20.6456C55.9077 20.0618 56.88 19.9647 57.7552 20.6456C58.1442 20.9376 58.8251 21.0347 58.9222 21.6185C59.0193 21.9104 60.3812 23.1745 60.673 24.0497C60.965 24.3416 61.4511 24.7306 61.6459 25.1196C62.521 25.4115 62.9101 28.6208 62.2297 29.3988C62.1326 29.4959 61.9378 29.5936 61.7436 29.5936C60.1875 29.4965 59.8957 30.5665 59.6037 31.3444C59.5065 32.0254 59.3117 32.5115 58.8256 32.7063C58.7285 32.8034 58.6308 32.9011 58.5337 32.9011C58.2418 33.2901 58.5337 34.0681 58.8256 34.3601C59.0204 34.652 60.1875 35.2352 59.7985 35.6242C59.6037 35.9161 58.8256 35.6242 58.4366 35.4294C58.0476 35.2346 57.2695 34.9433 56.7835 34.9433C55.8106 35.0404 55.0326 33.6791 54.8383 32.4145C54.8383 32.3173 55.3244 31.9283 55.2273 31.8306C54.8383 31.6358 54.6435 31.7335 54.7412 30.8578C54.7412 30.4688 54.936 30.274 55.0331 30.0798C56.0059 29.0098 54.6441 26.0919 53.8661 25.0225C53.2822 24.3416 52.8932 23.8554 53.2822 22.2022C53.2822 22.1051 53.2822 22.1051 53.1851 22.1051C53.088 22.1051 52.9903 22.2022 52.8932 22.2022C52.5042 22.397 51.8233 23.2722 51.4342 23.3693C51.2394 23.3693 51.0452 23.2722 50.9481 22.7855C50.851 22.1045 49.781 21.6184 50.462 20.9375C51.24 20.7428 52.018 18.9924 52.018 18.9924L52.017 18.9919ZM51.8222 25.897C51.5303 25.2161 50.558 24.341 50.0714 23.563C49.8766 23.3682 49.0985 23.7578 49.0985 23.8549C49.0014 24.4387 49.4875 25.4109 49.8766 25.8971C50.0714 25.8971 50.2656 26.4809 50.3627 26.4809C51.2379 26.8699 51.1408 27.7451 51.1408 28.4261C50.946 28.718 50.4598 29.2041 50.2656 29.3989C50.0708 29.7879 49.5847 29.6908 49.1957 29.6908H49.2928C49.7789 30.2746 50.8488 31.0527 51.2379 31.7331C51.335 31.9279 52.016 32.1221 52.1131 31.9279C52.2102 31.9279 52.405 31.5388 52.5992 31.344C52.8911 31.1492 53.0853 31.0521 53.3772 31.0521C53.4744 30.8573 53.6692 29.8851 53.572 29.7879C53.0859 29.496 51.9189 27.8428 52.405 27.1619L52.5021 27.0647C52.5021 26.7728 52.016 26.2867 51.8212 25.8977L51.8222 25.897ZM52.6973 27.4531V27.8421C52.7945 28.2311 53.5725 29.3011 53.7673 29.4953C54.0592 29.6901 53.8644 30.9542 53.7673 31.2461C53.6702 31.3432 53.4754 31.4409 53.2811 31.4409C53.184 31.4409 52.9892 31.538 52.8921 31.6357C52.5031 31.8305 52.5031 32.1218 52.3083 32.3166C51.9193 32.5114 51.1413 32.3166 50.8493 31.9276C50.5574 31.3438 48.6123 29.6906 48.6123 29.4964C48.7095 29.4964 48.7095 29.4964 48.8071 29.3993H49.0019C49.099 29.3022 49.9748 29.3022 49.9748 29.2045C50.0719 29.0097 50.5586 28.6207 50.7528 28.3294C50.7528 27.7455 50.8499 27.0652 50.2667 26.7733C49.9748 26.6762 49.8777 26.2872 49.6829 26.1895C49.1967 25.8976 48.6129 24.4387 48.71 23.8554C48.8071 23.2716 50.0719 22.8826 50.3632 23.3693C50.947 24.1473 51.8221 25.0224 52.2111 25.8004C52.4059 26.1895 53.1839 26.8704 52.6972 27.4536L52.6973 27.4531ZM52.6973 42.8195C52.6973 43.0143 52.7945 43.1114 52.7945 43.5004C52.7945 43.6952 53.7673 44.0843 54.0586 44.1814C54.1557 43.9866 54.2534 43.6952 54.2534 43.5975C53.8644 43.3056 53.8644 43.1114 53.8644 42.9166C53.6696 41.5548 53.0864 42.1386 53.0864 41.5548C52.9893 41.36 53.0864 40.9709 53.0864 40.8738C52.4054 41.2628 52.6002 42.0409 52.6973 42.819L52.6973 42.8195ZM52.6002 40.7773C52.8921 40.5825 52.8921 40.2911 53.2812 40.4854C53.6702 40.6802 53.2812 41.4582 53.5731 41.5553C53.865 41.6524 54.1569 42.2362 54.1569 42.8195C54.254 43.0143 54.254 43.3056 54.4488 43.3056C54.6436 43.4027 54.4488 44.3755 54.3517 44.5698C53.9627 44.5698 52.4065 43.986 52.4065 43.4998C52.4065 43.2079 52.4065 43.0137 52.3094 42.916C52.2123 42.3322 52.1146 41.0681 52.6013 40.7761L52.6002 40.7773ZM37.428 56.7277C37.6228 56.6306 37.7199 56.6306 37.9141 56.7277C38.1089 56.8248 38.3032 56.9225 38.4003 56.9225C38.4974 56.9225 38.7893 57.0196 38.9841 57.0196H39.0812C39.1783 57.1167 39.3731 57.2144 39.4702 57.3115L39.8592 57.7005C40.054 57.8953 40.054 57.9924 39.7621 58.3814C39.665 58.3814 39.8592 58.4785 40.054 58.5762C40.2488 58.771 40.443 59.0624 40.443 59.2571C40.3459 59.4519 40.1511 59.5491 39.665 59.4519C39.665 59.4519 39.1789 59.2571 38.7899 58.9658C38.4979 58.8687 38.3037 58.771 38.206 58.6739C38.206 58.6739 38.1089 58.5768 38.0112 58.5768C37.7193 58.382 37.3303 58.1878 37.1361 57.7987C36.7471 57.2149 36.8442 57.2149 37.1361 56.9236C37.2332 56.9236 37.3309 56.8265 37.428 56.7288V56.7277ZM37.817 57.1167C37.7199 57.1167 37.817 56.9219 37.7199 57.0196C37.6228 57.1167 37.428 57.2144 37.3309 57.2144C37.3309 57.3115 37.2338 57.3115 37.428 57.6034C37.6228 57.8953 37.9141 58.0895 38.206 58.1872C38.4008 58.2843 38.498 58.382 38.5951 58.4791L38.887 58.6739C39.276 58.8687 39.7621 59.0629 39.7621 59.0629C39.9569 59.0629 40.054 59.16 40.054 59.16C40.054 59.16 39.8592 59.0629 39.7621 58.8681C39.4702 58.5762 39.1783 58.382 39.4702 58.0901L39.5673 57.993L39.4702 57.8959C39.4702 57.7987 39.2754 57.7011 39.1783 57.5068C39.1783 57.5068 39.0812 57.5068 38.8864 57.4097C38.6916 57.4097 38.4974 57.3126 38.4003 57.3126C38.3031 57.3126 38.0112 57.2155 37.8164 57.1178L37.817 57.1167ZM33.343 52.4485C33.4401 52.7404 34.6072 53.7127 34.8991 53.9075C35.2881 54.1023 35.2881 54.2965 35.3852 54.4913C35.3852 54.5884 35.4823 54.7832 36.0661 54.8803C36.5523 54.9774 36.7471 55.2693 36.8442 55.6584C36.9413 55.7555 36.9413 55.9503 37.1361 56.0474C37.2332 56.1445 37.3309 56.3393 37.2332 56.4364C37.2332 56.5335 37.2332 56.6312 37.1361 56.7283C37.039 56.7283 37.039 56.8254 36.9413 56.8254C36.6494 57.0202 36.1633 57.0202 35.6771 56.7283C35.58 56.6312 35.4823 56.6312 35.4823 56.6312C35.2875 56.6312 35.1904 56.6312 34.8985 56.1451C34.6066 55.756 34.5095 55.4641 34.4124 55.1722C34.2176 54.7832 34.1205 54.3942 33.5372 53.908C33.4401 53.8109 33.3424 53.7133 33.3424 53.6161C33.2453 53.519 33.1476 53.3242 32.4673 52.9352C32.3702 52.8381 32.0783 52.4491 31.9812 52.3514C31.9812 52.3514 31.7864 52.2543 31.9812 52.1566C32.565 52.1566 33.2453 52.0595 33.343 52.4485L33.343 52.4485ZM32.954 52.5456C32.954 52.4485 32.954 52.4485 32.4679 52.4485C32.565 52.5456 32.565 52.5456 32.6627 52.5456C33.2465 53.0318 33.3436 53.0318 33.8297 53.6156C34.4136 54.1994 34.6078 54.5884 34.8026 55.0745C34.8997 55.2693 34.9974 55.5607 35.1916 55.9497C35.4835 56.2416 35.4835 56.2416 35.5806 56.2416C35.6777 56.2416 35.7754 56.3387 35.8725 56.4364C36.2615 56.6312 36.5534 56.6312 36.7477 56.5335C36.7477 56.4364 36.8448 56.4364 36.8448 56.4364C36.8448 56.4364 36.8448 56.3393 36.9419 56.3393H36.8448C36.65 56.2422 36.5529 55.9503 36.4557 55.7555C36.3586 55.5607 36.261 55.2693 35.9696 55.2693C35.1916 55.0745 35.0945 54.8803 34.9968 54.5884C34.9968 54.4913 34.8997 54.2965 34.7049 54.1994C34.413 53.9075 33.1488 52.9352 32.954 52.5462L32.954 52.5456ZM70.0093 33.1913C69.8145 32.9965 69.4255 32.4132 69.5232 32.0242C68.9394 31.7323 69.037 32.1213 68.9394 32.5103C68.8422 32.9965 68.7446 33.3855 68.9394 33.8722C69.2313 34.845 68.6474 34.7473 68.5503 35.5253C68.5503 35.7201 69.2313 37.2762 69.4255 37.2762C69.5226 37.2762 69.5226 36.8871 69.6203 36.6923C69.6203 36.6923 69.6203 36.4975 69.5232 36.4004C69.3284 36.1085 69.037 35.5253 69.1341 35.3305C69.2313 34.7467 69.9122 35.2334 69.9122 35.3305C70.496 36.2056 70.7873 38.0536 71.9544 36.2056C72.1492 36.0108 72.0515 35.9137 71.9544 35.7195C71.8573 35.6224 71.6625 35.3305 71.3706 35.1357C71.2735 35.0386 71.2735 34.9409 71.1758 34.7467C70.8839 34.0657 70.4949 34.0657 70.1059 33.3848C70.1059 33.2877 70.1059 33.19 70.0088 33.19L70.0093 33.1913ZM70.2041 32.8022C70.3989 32.8994 70.496 33.3861 70.7879 33.5803C71.2741 33.9693 71.6631 34.7473 71.6631 34.7473C71.7602 34.8445 72.1492 35.4283 72.2469 35.5254C72.4417 35.8173 72.5388 35.9144 72.344 36.4005C70.2041 39.0266 70.107 35.1364 69.4261 35.4277C69.4261 35.5248 70.107 36.5948 69.9122 36.8867V36.9838C69.8151 37.2757 69.9122 37.6647 69.4261 37.6647C68.9399 37.7618 68.1619 35.9139 68.1619 35.5248C68.259 34.8439 68.7457 34.7467 68.5509 33.9687C68.3561 33.3849 68.4538 32.9959 68.5509 32.4127C68.648 32.2179 68.648 32.0237 68.648 31.9265C68.7451 31.4404 69.5232 31.5375 69.718 31.7318C69.9128 31.8289 69.9128 31.9265 69.8151 32.1208C69.8151 32.2179 70.107 32.7046 70.2041 32.8017L70.2041 32.8022ZM42 79C20.5053 79 3 61.5903 3 40C3 18.5053 20.5068 1 42 1C63.5918 1 81 18.5068 81 40C81 61.5918 63.5903 79 42 79Z"/>
</mask>
<path d="M79.4437 37.9579C80.3189 38.2498 79.8327 36.888 80.5136 36.7909V36.6937C80.4165 35.6238 80.3189 34.5538 80.1246 33.4845C79.8327 33.7765 79.5408 34.4574 79.2495 34.6516C78.5686 35.1377 80.1246 36.6938 79.4443 37.2777C79.2495 37.4725 77.9853 37.6667 77.6935 37.2777C77.5963 37.1806 77.6935 36.9858 77.4016 36.9858C77.3044 36.9858 77.0125 36.8887 77.0125 36.9858C76.9154 37.1806 77.7906 37.8609 77.9854 38.0557C78.2773 38.4447 77.4015 39.4176 77.0125 38.9309C76.8177 38.5419 76.4287 38.7361 76.1374 38.5419C76.0403 38.8338 75.8455 39.9037 75.4565 40.2927C75.2617 40.6817 75.0674 43.3077 75.0674 43.5019C75.0674 43.5019 75.2622 44.1828 75.3594 44.2799C75.4565 44.2799 77.0125 41.362 77.1102 41.2649C77.305 41.0701 77.5963 40.973 77.694 40.973C78.1801 41.0701 78.472 41.6539 78.5691 41.6539C78.7639 41.5568 78.9582 41.0701 79.0553 40.973C79.0553 40.8759 79.1524 40.584 79.0553 40.4869C79.0553 39.6117 78.6663 37.6666 79.4443 37.958L79.4437 37.9579ZM74.5806 44.9603C74.6777 44.8632 74.9696 44.6684 75.2616 44.8632C75.5535 45.2522 75.1644 45.6413 75.0667 46.1274C74.5806 46.2245 74.0939 46.7112 73.8997 47.1002C73.8026 47.9754 73.1217 48.8511 73.1217 49.7263C73.2188 51.1853 70.6905 52.6443 70.6905 53.9085C70.5934 54.6865 69.3286 56.6316 69.2315 57.7015C69.3286 58.7715 69.1344 62.9535 70.0096 63.1477C70.2043 63.1477 70.3986 63.2448 70.4957 63.3425C70.7876 63.5373 70.9818 63.6344 72.2465 62.7587C72.3436 62.6616 73.3165 62.4668 73.6084 62.3697C77.9853 56.0476 80.6108 48.3644 80.6108 39.9997C80.6108 39.0268 80.6108 38.0545 80.5137 37.1794C80.3189 37.5684 80.5137 38.5413 79.3466 38.3465C79.3466 38.7355 79.4437 40.0973 79.4437 40.3887C79.4437 40.5835 79.5408 40.7777 79.4437 41.0696C79.2489 41.4587 78.7628 42.0425 78.5686 42.1396C78.4715 42.1396 78.2766 41.9448 78.1795 41.8477C78.0824 41.6529 77.5957 41.2638 77.4986 41.4587C76.9148 42.2367 76.6235 43.0147 76.1368 43.7927C75.942 44.1818 75.7478 44.4737 75.6506 44.5708C75.4558 44.6679 75.2616 44.6679 75.1645 44.5708C74.9697 44.376 74.6784 43.5008 74.6784 43.3066C74.7755 43.1118 74.9703 40.2916 75.1645 40.0974C75.5535 39.7084 75.5535 38.9304 75.8454 38.3466C75.9425 38.2495 75.9425 38.1518 76.0402 38.1518C76.235 38.0547 76.235 38.0547 76.3321 38.2489C76.4292 38.346 77.0131 38.2489 77.305 38.6379C77.4021 38.735 77.694 38.4431 77.694 38.346C77.4021 38.1512 76.624 37.2761 76.624 36.887C76.624 36.6922 76.7212 36.6922 76.8188 36.5951C77.305 36.498 77.8888 36.5951 77.9859 37.0813C78.1807 37.1784 79.153 37.0813 79.2501 36.9841C79.542 36.7894 78.083 35.039 78.9582 34.3581C79.3472 34.0662 79.6391 33.2881 80.0281 32.9962C76.916 16.2676 63.2024 3.52702 46.2797 1.67941C46.3768 2.26323 46.4745 2.84647 46.2797 3.43023C46.1826 4.11116 45.6959 4.40307 44.5289 4.20827C42.778 3.72214 43.2647 5.18111 42 5.9591C41.1249 6.64002 40.3469 4.69492 38.7908 7.32095C39.1798 7.41806 39.666 7.90477 39.7636 8.39089C39.7636 8.58568 39.8608 8.97471 39.4717 9.16893C39.2769 9.26604 38.5966 9.65506 38.6937 9.84986C38.7908 9.94697 39.8607 9.84986 40.1527 10.0447C40.8336 10.2394 41.2226 9.94754 41.7087 9.75274C42.3896 9.26661 44.1399 9.07181 44.2376 8.87759C44.2376 8.6828 44.2376 8.39146 44.8214 7.90476C45.3075 7.51574 45.8913 8.00187 46.3775 8.39089C46.6694 8.6828 46.9613 8.87702 47.1555 8.97471C47.5445 8.6828 47.4474 6.73771 49.7816 8.00187C50.0735 8.09899 50.3654 8.29379 50.6567 8.29379C54.255 7.32095 52.699 8.97471 55.2278 8.48858C56.9786 8.19667 56.7839 9.16951 56.2006 10.0446C56.0059 10.5308 57.2706 11.0175 57.3677 11.1146C58.5348 11.7955 57.9515 12.3788 60.0909 12.3788C61.744 12.3788 62.425 12.9626 63.3001 14.1296C63.592 14.5186 63.981 14.6157 64.5643 14.3244C65.8284 13.9354 65.8284 15.2972 66.6065 16.0752C67.9683 17.3394 67.4816 18.9931 67.9684 19.5764C68.3574 20.2573 67.6764 20.2573 67.6764 20.3544C67.6764 20.3544 68.1626 21.1325 68.7464 20.6464C69.2325 20.2573 70.0106 21.7163 69.6215 22.2024C69.6215 22.2995 69.4267 22.3972 69.3296 22.3972C69.0377 22.3972 68.7458 22.1053 68.5516 22.0082C68.5516 22.0082 67.0926 21.8134 66.8007 21.6192C66.6059 21.6192 66.5088 21.7163 66.5088 21.7163C66.4117 22.0082 66.5088 22.9805 66.6059 23.1753C66.8007 23.3701 67.9678 25.3152 68.162 25.7041C68.94 26.5793 68.94 26.9683 68.94 28.233C68.8429 28.8168 68.8429 28.9139 69.5239 29.5948C69.9129 30.0809 69.8158 30.47 70.399 30.7619C70.9828 29.8867 72.3442 30.47 72.3442 30.3729C72.3442 30.1781 71.858 29.789 71.7603 29.4977C71.3713 28.2335 71.5655 27.6498 70.4962 26.7745C69.7181 26.1907 69.9123 25.8017 70.691 25.8994H71.1771C70.9823 25.6075 71.08 25.1213 71.3719 24.9265C71.3719 24.8294 71.5667 24.8294 71.6638 24.8294C71.8586 24.9265 71.9557 25.1213 72.1499 25.5104C72.4418 26.1913 72.928 26.6774 73.317 27.2612C73.706 27.7473 73.6089 27.9421 73.5118 28.234C72.8309 29.4982 73.5118 30.0819 73.317 30.9572C73.2199 31.3462 73.5118 31.541 73.1222 32.0271C72.9274 32.1243 72.6361 33.2913 72.4413 33.778C72.4413 33.778 73.0251 35.2369 73.0251 35.5288C73.0251 36.1126 73.1222 36.5987 73.1222 37.1819C73.1222 37.6681 71.2743 38.5438 71.858 39.4189C72.3442 39.8079 73.6088 40.2941 73.6088 40.8779C73.6088 41.364 73.706 41.6559 73.025 41.9478C72.7331 42.0449 72.5389 42.1426 72.247 42.1426C71.9551 42.4345 71.4689 43.4068 71.7608 43.8935C71.9556 44.0882 72.0528 44.2825 71.7608 44.6715C71.0799 45.3524 72.4418 46.0333 73.2198 46.1305C73.5117 46.1305 74.095 45.3524 74.5817 44.9634L74.5806 44.9603ZM73.2188 62.8554C72.1488 63.2444 71.1765 64.2173 70.3008 63.6335C70.2037 63.5364 70.106 63.5364 69.9118 63.4387C68.55 63.2439 68.939 59.1595 68.8419 57.7976C68.7448 56.9224 70.2037 54.6855 70.3008 53.9074C70.3008 52.4485 72.732 50.9895 72.732 49.7253C72.732 48.7524 73.4129 47.9745 73.5101 47.0021C73.6072 46.6131 74.2881 45.9322 74.6771 45.7379C74.7742 45.6408 74.969 45.3489 74.969 45.2518C74.58 45.3489 73.802 46.516 73.2182 46.516C72.0512 46.4189 70.5921 45.6408 71.4674 44.4737C71.5645 44.2789 71.5645 44.1818 71.4674 44.0847C71.0784 43.5009 71.5645 42.1396 72.0512 41.8477C72.0512 41.8477 72.1483 41.8477 72.246 41.7506C72.3431 41.7506 72.5379 41.7506 72.8298 41.5558C73.316 41.4587 73.2188 41.2639 73.2188 40.8749C73.3159 40.6801 71.7599 39.9021 71.5657 39.6107C70.6906 38.5408 72.7328 37.3737 72.7328 37.1795C72.7328 36.5957 72.6356 36.1096 72.6356 35.5264C72.6356 35.1374 71.8576 33.7756 72.0518 33.5813C72.3437 33.0951 72.538 32.0252 72.8299 31.7333C73.0247 31.4414 72.927 31.1495 72.927 30.8582C73.2189 30.1773 72.4408 29.3992 73.1218 28.0379C73.2189 27.9408 73.2189 27.8431 73.0247 27.5518C72.5385 26.8709 72.1495 26.3847 71.7605 25.6067C71.4686 24.8286 71.3715 25.6067 71.4686 25.7038C71.6634 25.9957 71.5657 26.0928 71.3715 26.1899C71.2743 26.287 70.9824 26.287 70.6905 26.287C70.2044 26.287 70.3986 26.1899 70.6905 26.3841C71.9547 27.357 71.7605 28.0373 72.1495 29.3021C72.3443 29.7882 72.6356 29.8859 72.8304 30.2749C72.9275 30.372 72.9275 30.5668 72.7333 30.6639C72.1495 30.9558 71.1773 30.372 70.6911 30.9558C70.4963 31.2477 70.3021 31.1506 70.3021 31.1506C69.4269 30.6645 69.7182 30.3726 69.2321 29.8864C68.4541 29.0113 68.4541 29.0113 68.5512 28.1356C68.5512 27.8437 68.6483 26.8714 67.8703 25.8986C67.1894 25.1206 66.8974 24.2455 66.3142 23.3698C66.0223 23.0779 66.0223 22.0079 66.1194 21.619C66.2165 21.327 66.4113 21.1328 66.8975 21.327C67.3836 21.5218 68.6483 21.5218 68.7454 21.7161C69.0373 21.9108 69.2315 22.008 69.3292 22.008C69.524 21.8132 69.0373 20.8409 68.9402 20.938C68.1621 21.6189 66.995 20.549 67.287 20.2571C67.3842 19.9652 67.7732 19.9652 67.6761 19.8681C67.0922 19.09 67.5789 17.534 66.3142 16.2698C65.7304 15.7837 65.4391 14.4219 64.7581 14.7137C63.6882 15.0056 63.3963 14.9085 63.0073 14.4218C62.2293 13.2548 61.4513 12.7687 60.0894 12.7687C57.9495 12.8658 58.0472 11.9906 57.1714 11.5045C55.7125 10.6294 55.6154 10.2403 55.8096 9.85136C56.1015 9.36522 56.7824 8.6843 55.2258 8.87852C52.5026 9.36465 54.1558 7.71146 50.7518 8.58661C50.4599 8.68372 49.6818 8.39181 49.6818 8.2947C47.2507 7.12764 48.1258 9.36464 47.0557 9.36464C46.7638 9.26752 46.4719 8.97562 46.1806 8.68371C45.7916 8.3918 45.3055 8.00278 45.1107 8.19758C44.6245 8.58659 44.6245 8.7814 44.6245 8.8785C44.5274 9.55943 42.7766 9.46233 41.9014 10.0456C41.3175 10.3375 40.8314 10.7265 40.0534 10.3375C39.5673 10.2404 38.4974 10.4346 38.3026 9.94846C38.1078 9.55944 38.9835 8.97562 39.2755 8.7814C39.3726 8.68429 39.4702 8.68429 39.3726 8.39239C39.2755 8.10047 38.8864 7.80856 38.5945 7.61434C38.4974 7.51723 38.3026 7.51723 38.3026 7.32243C40.3448 4.01555 41.0258 6.15537 41.8038 5.66929C43.068 4.89124 42.4847 3.23811 44.6241 3.82137C45.4992 4.01617 45.8883 3.72426 45.9859 3.33524C46.083 2.84911 45.9859 2.16818 45.8888 1.58442C44.6246 1.48731 43.36 1.38963 41.9987 1.38963C20.6996 1.38963 3.38703 18.7022 3.38703 40.0013C3.38703 55.8546 13.113 70.0545 27.7988 75.9871C27.8959 75.4033 28.0907 74.8201 28.674 74.4311C29.452 74.0421 28.9659 73.3611 28.674 72.7779C27.604 71.1248 28.2849 70.638 27.215 69.2767C27.215 68.4016 25.6589 67.6236 25.9508 66.0675C26.0479 65.6785 27.1179 64.1224 27.5069 64.0253C27.7988 63.9282 29.452 63.9282 29.5491 63.8305C29.7439 63.5386 30.0352 63.3444 30.23 63.1496C30.7162 62.8577 30.7162 62.7606 30.8138 62.3715C30.8138 62.1767 31.0086 62.0796 31.1058 61.9825C31.2029 61.9825 31.2029 61.8854 31.0086 61.7877C30.7167 61.5929 28.9664 60.7178 28.6746 60.6207C28.5774 60.2316 28.4798 60.0368 28.0907 59.8426C27.6046 59.4536 27.0208 59.0646 27.1179 57.5085C27.215 55.9525 26.1451 53.6184 25.0757 52.5484C24.4918 52.3536 24.1028 51.8674 23.9086 51.3813C23.6167 50.8952 22.1578 49.5334 22.1578 49.3391C22.2549 48.172 21.1849 47.4912 21.0878 46.6159C20.9907 45.935 20.504 45.7407 20.4069 45.4488C20.115 44.1847 20.4069 43.9899 20.893 43.698C21.8659 43.1142 21.574 40.0997 21.574 39.224C21.574 38.1541 22.352 37.1818 22.2549 36.5008H22.1578C21.7688 37.1818 21.7688 37.2789 21.4769 37.9598C20.9907 39.0297 21.4769 40.7801 21.2821 41.0719C20.9902 41.2667 20.4069 40.8771 20.3092 40.5858C19.2393 38.4459 21.0873 31.4436 22.7404 29.7903C24.2965 28.2343 26.3387 25.1222 28.6734 25.0245C28.7705 24.9274 31.4936 20.3563 32.6612 19.5783C33.5363 18.8974 35.3844 16.3691 34.6063 15.299C34.2173 14.91 33.7312 14.521 33.2445 13.743C32.5636 12.5759 31.1046 12.284 32.6607 10.9227C32.7578 11.6036 33.1468 11.9927 33.6335 12.3817C34.0225 11.8956 34.5086 11.5065 35.0925 11.2146C35.5786 10.9227 36.1624 10.8256 36.6485 11.2146C36.9404 11.4094 37.2324 11.7985 37.5237 11.9927C37.7185 12.0898 37.9127 11.9927 38.1075 11.7008C38.2046 11.4089 38.4965 11.2146 38.6913 11.2146C39.1775 11.1175 39.9555 11.4094 40.0532 11.9927C40.9283 11.8956 41.6092 11.8956 42.0954 12.7707C42.1925 12.8678 42.1925 12.9655 42.2902 12.9655C42.485 13.0626 42.5821 13.1603 42.1931 13.7436C41.8041 14.3274 42.485 14.7164 41.415 15.4944C41.3179 15.4944 41.3179 15.6892 41.3179 15.8834C41.415 17.2452 42.9711 21.0383 43.7491 22.3025C43.7491 22.2054 43.9439 22.0106 44.041 22.0106C44.3329 21.7187 43.4572 21.1355 43.4572 20.5517C43.4572 20.1626 43.652 19.9678 43.7491 19.7736C43.9439 19.5788 43.263 19.1898 43.263 18.8985C43.5549 18.2175 46.0832 18.0233 45.8891 19.5794C45.792 20.4545 46.0839 20.3574 46.2781 20.8436C46.57 21.4274 46.3752 22.6915 45.8891 23.0806C45.6943 23.2754 45.4029 23.4696 45.5 23.7615C45.5 23.9563 46.2781 23.7615 46.3752 23.8586C46.3752 23.8586 46.959 22.7887 47.1532 22.7887C47.4451 22.6916 47.6394 22.7887 47.9313 23.0806C48.4174 23.4696 47.3475 24.5395 47.3475 25.0257C47.4446 25.4147 47.9313 25.5119 48.3203 25.6095C48.8064 25.8043 49.1954 25.9015 49.1954 26.2905V27.0685C49.0983 27.5546 47.4446 27.6523 47.0555 27.8466C46.0827 28.3327 42.5815 27.9437 42.6786 29.3055C42.6786 29.7917 42.4838 32.4176 43.3595 32.2235C44.0405 32.8073 44.4295 33.1963 44.0405 34.0714C43.9434 34.2662 43.5543 35.6274 44.1376 36.2113C44.2347 36.0165 44.4295 35.7252 44.6237 35.5304C44.7208 35.0442 45.6937 34.4604 46.0827 33.9743C46.1798 33.7795 46.2775 33.6824 46.2775 33.6824C46.2775 32.8072 45.6937 32.8072 46.4723 31.7372C47.6393 30.2783 48.0283 30.0841 48.4174 30.3754C48.5145 30.3754 48.6122 30.5702 48.7093 30.6673C48.8064 30.8621 48.9041 31.0563 49.0984 31.1534C49.2931 31.2506 49.4874 31.4454 49.5845 31.6396C49.7793 31.8344 49.8764 32.0286 49.9735 32.2234C49.9735 32.4182 50.1683 32.6124 50.2654 32.7095C50.4602 33.0014 50.5573 33.1957 50.5573 33.6824C50.4602 33.7795 50.7521 33.9743 51.0435 34.1685C51.3354 34.3633 51.6273 34.5575 51.8215 34.8494C51.9186 34.9465 52.0163 35.0442 52.0163 35.1413C52.3082 35.5303 52.6001 35.8223 52.6972 36.4055C52.892 37.8645 53.9614 38.3507 52.892 40.0038C52.3082 40.7818 51.0441 40.9766 50.2659 40.3928C49.8769 40.3928 48.418 40.1009 48.0289 40.2957C47.9318 40.2957 47.6399 40.4905 47.4451 40.5876C47.737 40.7824 49.1959 40.1015 49.8763 41.1714C49.8763 41.2685 49.4873 41.9495 49.5844 42.0466C49.6815 42.2414 50.1682 42.2414 50.3624 42.2414C50.7514 42.2414 51.0433 42.9223 51.0433 43.3113C51.0433 43.7975 50.5572 43.8951 50.0705 43.7003C49.9734 43.6032 49.0977 43.8951 48.7086 43.7974C48.6115 43.7003 48.4167 43.7974 48.2225 43.8946C48.1254 43.9917 48.0277 43.9917 47.9306 44.0893C47.6387 44.0893 47.4445 44.0894 47.2497 43.5055C47.1526 43.1165 46.2768 43.4084 45.9855 43.7003C45.7907 43.9922 45.0127 44.3812 44.7213 44.4784H44.1375C44.0404 44.4784 43.2624 44.9645 42.9704 45.0622C42.5814 45.0622 41.3173 46.7153 41.3173 46.9101C41.0254 47.7852 39.3722 47.4939 38.7884 47.98C38.2046 47.98 37.1353 47.98 36.9405 48.5639C36.7457 49.05 36.4544 48.7587 36.2596 49.7309C36.1625 49.828 36.1625 49.828 36.2596 50.0228C36.1625 50.8009 36.1625 51.676 35.1897 51.676C34.4116 51.676 34.3145 50.8979 34.5087 50.3141C34.8007 49.2442 33.9249 47.7853 32.9527 47.202C32.6608 47.1049 32.4666 47.0072 32.0775 47.0072C31.6885 47.0072 31.0076 46.9101 30.9105 46.4234C30.5215 45.5482 29.3544 45.0615 28.4793 45.0615C28.0903 45.0615 26.5342 45.6454 26.4371 46.1315C26.0481 46.7153 25.27 47.5904 25.27 48.3685C25.4648 48.7575 25.7561 49.5355 26.0481 50.1193C26.4371 50.2164 26.729 50.3141 27.0209 50.6054C27.2157 50.8002 27.507 50.8973 27.7018 50.7025C28.188 50.3135 28.577 50.3135 29.1608 50.5077C29.7446 50.7997 30.2307 51.0916 30.0359 51.8696C30.0359 52.0644 29.5498 52.4534 29.4521 52.6476C29.2573 53.1338 28.966 53.2315 28.6741 53.4257C28.3822 53.5228 27.9931 53.8147 28.577 54.0095C29.0631 54.2043 29.5498 54.6904 29.9388 55.1766C30.2307 55.4685 30.9116 56.3436 30.7169 56.8297C30.6197 56.9268 30.3278 57.1216 30.2307 57.3158C29.8417 57.7049 29.6469 58.191 29.6469 58.6777C29.5498 59.1638 29.744 59.6505 30.0359 60.0396C30.2307 60.2343 30.3278 60.4286 30.6197 60.4286C31.4949 60.5257 31.7868 61.4985 32.0787 61.4014C33.5377 60.8176 35.4828 60.8176 36.5527 62.3742C36.6498 62.6662 39.5677 62.7633 40.2487 63.6384C40.7348 64.1245 41.0267 64.1245 41.3186 64.1245C41.8047 64.1245 42.2914 64.3193 42.6805 65.0974C43.4585 66.3616 44.8204 67.5286 46.1817 68.2095C47.1545 68.5985 47.8348 68.8904 47.9325 70.4465C48.0296 71.1274 48.2244 71.8083 49.0024 71.8083C49.3914 71.9055 49.7805 72.0032 50.2666 72.1974C50.5585 72.3922 52.6007 72.9754 52.9898 72.9754C54.6429 72.8783 54.4487 73.7535 54.6429 74.4344C54.8377 74.9205 50.4608 76.0875 49.9748 77.8385C59.3118 75.8934 67.5786 70.5442 73.22 62.8604L73.2188 62.8554ZM41.9991 78.7087C44.6251 78.7087 47.0563 78.4168 49.4881 77.9307C50.169 75.9856 52.795 75.4995 54.2539 74.4295C53.962 73.6515 54.2539 73.3596 52.9898 73.3596C52.5036 73.3596 50.4609 72.7757 50.0718 72.5815C49.6828 72.2896 49.2938 72.2896 49.0019 72.1925C48.2238 72.0954 47.7377 71.9977 47.5429 70.5394C47.4458 69.1775 46.862 68.8862 46.0839 68.4971C44.625 67.9133 43.166 66.6492 42.2909 65.2879C41.999 64.8989 41.9019 64.5099 41.318 64.5099C40.929 64.5099 40.54 64.5099 39.9562 63.8289C39.2753 63.0509 36.9412 63.2451 36.2602 62.6619C35.5793 62.2729 35.2874 61.0087 32.2724 61.689C31.3973 62.1752 31.2996 60.911 30.5216 60.8139C30.2297 60.8139 30.0354 60.6191 29.7435 60.3278C28.8684 59.3549 29.1597 57.9937 29.9383 57.0209C30.0354 56.9238 30.1331 56.729 30.3273 56.6319C30.4245 56.4371 29.7435 55.5619 29.6464 55.3677C29.3545 55.0758 28.8684 54.5897 28.3822 54.3949C27.5071 54.0058 27.8961 53.422 28.4794 53.033C28.6741 52.9359 28.9655 52.8382 29.0632 52.5469C29.1603 52.3521 29.5493 51.866 29.647 51.7688C29.8418 51.185 29.4522 51.0879 28.9661 50.8937C28.3823 50.6018 28.188 50.8937 27.9932 50.9908C27.6042 51.2827 27.1181 51.1856 26.7291 50.8937C26.34 50.5047 25.951 50.6018 25.7562 50.4076C25.5614 50.3104 24.9782 48.5596 24.8811 48.3653C24.8811 47.3925 25.562 46.7122 26.0481 45.9341C26.2429 45.3503 27.896 44.67 28.4793 44.67C29.4521 44.67 31.0082 45.3509 31.2996 46.3231C31.2996 46.615 31.8834 46.615 32.0776 46.615C32.4666 46.615 32.8557 46.7121 33.1476 46.9069C34.3146 47.4908 35.1898 49.1439 34.8007 50.4081V50.992C34.8978 51.1868 34.9955 51.2839 35.1897 51.2839C35.8706 51.2839 35.7735 50.5058 35.8706 49.922C35.7735 48.8521 36.5516 48.6579 36.5516 48.4631C36.9406 47.5879 38.3024 47.5879 38.5938 47.5879C39.2747 47.1989 40.8308 47.3931 41.025 46.6151C41.025 46.3232 42.4839 44.7672 42.8729 44.6699C43.2619 44.5728 43.8457 43.989 44.2347 44.0861H44.6238C44.9157 43.989 45.5966 43.6 45.6937 43.5023C45.9856 43.1133 46.2775 43.0162 46.5688 43.0162C46.9579 42.919 47.5417 42.8214 47.6388 43.4052C47.6388 43.5023 47.7359 43.6971 47.8336 43.6971C47.9307 43.6971 47.9307 43.6 48.0284 43.6C48.3203 43.4052 48.6122 43.3081 48.9035 43.4052C49.1954 43.5023 49.9734 43.2104 50.2654 43.3081C50.4602 43.4052 50.5573 43.4052 50.6544 43.4052V43.3081C50.6544 43.1133 50.5573 42.6271 50.3625 42.6271C49.8763 42.6271 49.7786 42.53 49.4873 42.4323C49.1954 42.3352 49.1954 42.0433 49.2925 41.7514C49.2925 41.6543 49.3896 41.4595 49.4873 41.2653C49.0012 40.3901 47.1532 41.2653 47.0561 40.7791C46.8614 40.5844 47.64 40.0982 47.9313 39.904C48.4174 39.7092 50.2654 40.0988 50.5574 40.0988C51.0435 40.4878 52.1134 40.4878 52.5996 39.8069C53.5724 38.445 52.5025 37.7647 52.3077 36.5C52.2106 36.0139 52.0158 35.722 51.7239 35.4301C51.6268 35.333 51.6268 35.2353 51.5291 35.1382C51.1401 34.5543 49.973 34.263 50.1672 33.5821C50.1672 33.2902 50.0701 33.1931 49.9724 32.9983C49.7776 32.8035 49.6805 32.6093 49.5834 32.3173C49.4863 31.9283 49.1944 31.6364 48.8054 31.4422C48.6106 31.2474 48.5135 31.0532 48.3193 30.8584C48.3193 30.7613 48.2221 30.6636 48.1245 30.6636C48.0273 30.5665 47.7354 30.7607 46.7626 32.0254C46.3736 32.5116 46.4707 32.7064 46.5678 32.9006C46.6649 33.0954 46.6649 33.2896 46.6649 33.6786C46.6649 34.2625 45.1089 35.0405 44.9141 35.6238C44.817 35.8186 44.3303 36.7908 44.1361 36.6937C44.0389 36.6937 43.9413 36.5966 43.747 36.4018C43.2609 35.7209 43.358 34.651 43.6499 33.873C43.8447 33.581 43.9418 33.2891 43.2609 32.6088C41.9967 32.8036 42.2881 29.9827 42.2881 29.3019C42.191 27.454 45.7893 28.0377 46.8592 27.454C47.1511 27.3569 48.8043 27.065 48.8043 27.065V26.2869C48.8043 26.0921 48.3182 25.995 48.2205 25.995C47.7343 25.8979 47.1505 25.7031 46.9563 25.1199V25.0228C46.9563 24.6337 47.8315 23.4667 47.6372 23.3696C47.4424 23.1748 47.3453 23.1748 47.2482 23.1748C46.9563 23.2719 46.7621 24.3419 46.1783 24.1477C45.9835 24.1477 45.2054 24.4396 45.1083 23.8557C45.0112 23.3696 45.4002 23.0777 45.6922 22.7858C45.9841 22.4939 46.1783 21.424 45.9841 21.035C45.5951 20.3541 45.4002 20.4512 45.4979 19.576C45.5951 18.5061 43.9419 18.798 43.7471 18.9922C44.6223 19.965 43.8442 19.7702 43.8442 20.5482C43.8442 21.0344 44.9142 21.6182 44.2332 22.2991C43.9413 22.4939 44.0384 22.7852 43.7471 22.7852C43.261 23.0771 40.9268 16.8522 40.9268 15.88C40.9268 15.491 41.024 15.2962 41.2188 15.102C41.9968 14.5182 41.4136 14.1291 41.8997 13.5459C42.0945 13.254 42.0945 13.254 42.0945 13.254C41.9974 13.254 41.8997 13.1569 41.8026 12.9621C41.3164 12.2812 40.7326 12.3783 39.9547 12.3783C39.7599 12.3783 39.6628 12.2812 39.6628 12.0864C39.6628 11.6974 38.9818 11.5025 38.7876 11.6002C38.6905 11.6002 38.4957 11.6973 38.4957 11.795C38.1067 12.476 37.7176 12.476 37.3286 12.2812C36.9396 12.0864 36.7448 11.6973 36.3558 11.5031C36.0639 11.2112 35.6749 11.3083 35.1887 11.5031C34.6049 11.8921 34.1188 12.3783 33.7298 12.865C33.2436 12.5731 32.7569 12.0869 32.4656 11.6008C32.0766 12.2817 33.1465 12.865 33.5355 13.5459C34.0217 14.4211 34.7997 14.9078 34.9945 15.102C35.8697 16.3662 33.9246 19.0898 32.8546 19.8678C31.4927 20.743 29.2563 25.3141 28.6724 25.3141C26.6302 25.5088 24.4903 28.6209 23.0313 30.0799C21.4753 31.636 19.7245 38.444 20.6002 40.4863C20.6973 40.5834 20.8921 40.6811 20.9892 40.6811C20.8921 39.7082 20.6973 38.9302 21.184 37.8608C21.2811 37.5689 21.8649 36.11 22.0591 36.11C22.1562 36.0129 22.4481 36.2071 22.6429 36.2071C22.8377 37.1799 21.962 38.1522 21.962 39.2221C21.962 40.584 22.2539 43.3072 21.0869 44.0852C20.795 44.28 20.503 44.3771 20.795 45.3494C20.8921 45.5442 21.3788 45.7384 21.4759 46.6136C21.573 47.3916 22.6429 48.0725 22.5458 49.3367C22.5458 49.4338 24.0048 50.8928 24.199 51.1846C24.3938 51.6708 24.7828 52.0598 25.2689 52.2546C26.5331 53.4216 27.603 55.8529 27.5059 57.5066C27.5059 57.8956 27.5059 59.0627 28.2839 59.4518C28.5759 59.6465 28.8678 59.8408 28.9649 60.3269C29.5487 60.5217 30.91 61.202 31.299 61.494C31.688 61.7859 31.5909 62.0778 31.3961 62.272C31.3961 62.3691 31.299 62.3691 31.2013 62.4668C31.1042 62.9529 30.8123 63.2448 30.4232 63.4396C30.2284 63.6344 30.0342 63.8286 29.8394 64.1206C29.5475 64.5096 28.0886 64.1206 27.6024 64.4125C27.4076 64.4125 26.3382 65.8714 26.3382 66.0656C26.1434 67.4275 27.6024 68.3026 27.6024 69.0806C28.4776 69.9558 28.0885 71.2206 28.9643 72.5818C29.4504 73.457 29.9371 74.235 28.7695 74.8188C28.3805 75.0136 28.2833 75.5969 28.0885 76.083C32.4655 77.7362 37.1336 78.7091 41.9967 78.7091L41.9991 78.7087ZM64.4661 29.3012C64.8551 29.3012 65.3413 29.3012 65.439 30.0792C65.439 30.274 65.7309 30.3711 65.828 30.5654C66.217 31.1492 64.6609 32.1214 64.369 32.2185C63.6881 32.8023 63.0072 33.0937 62.3268 32.0237C61.9378 31.5376 62.2297 31.0509 62.2297 30.5648C62.2297 29.6896 62.6187 29.4948 63.2996 29.4948C63.7857 29.4948 63.9805 29.3977 64.4667 29.3L64.4661 29.3012ZM63.3962 29.885C63.0072 29.885 62.6181 29.9821 62.6181 30.5659C62.6181 30.955 62.3262 31.5388 62.6181 31.8301C63.1043 32.6082 63.6881 32.3162 64.1742 31.9272C64.369 31.7324 65.6332 30.8573 65.5361 30.7602C65.3413 30.5654 65.0499 30.4683 65.0499 30.0792C64.9528 29.6902 64.758 29.6902 64.4661 29.6902C64.0771 29.7873 63.7852 29.885 63.3962 29.885L63.3962 29.885ZM50.6551 21.2289C50.3632 21.4237 51.239 22.2017 51.3361 22.6878C51.4332 23.2717 52.017 22.0069 53.0869 21.715C53.573 21.6179 53.7678 21.9098 53.6707 22.2988C53.3788 23.7578 53.6707 24.244 54.1568 24.8277C55.032 25.9947 56.3938 29.1069 55.3239 30.3717C55.2268 30.4688 55.1291 30.6636 55.032 30.8578C54.9349 31.4417 55.1291 31.4417 55.5181 31.6359C55.9071 31.733 55.5181 32.0249 55.2262 32.511C55.3233 33.2891 55.9071 34.6509 56.7823 34.5533C57.1713 34.5533 57.9493 34.8452 58.6302 35.0394C58.7273 35.1365 59.4082 35.4284 59.4082 35.3313C59.5053 35.3313 59.2134 35.2342 58.6302 34.6504C57.9493 34.1642 57.755 32.8025 58.7273 32.4134C59.0192 32.2186 59.1163 31.8296 59.3111 31.2463C59.5059 30.2735 59.8949 29.1064 61.7423 29.2041C61.8394 29.2041 61.8394 29.2041 61.9371 29.107C62.3261 28.6208 62.229 25.6058 61.3533 25.5087C61.2561 25.2168 60.5752 24.5358 60.3804 24.2445C60.0885 23.2717 58.7273 22.2994 58.6296 21.7157C58.5325 21.3266 57.8516 21.1318 57.5597 20.9376C56.2955 20.0625 55.5174 20.8405 54.9336 21.0347C54.9336 21.0347 53.7665 20.7428 53.9607 20.3538C54.2526 19.5758 52.5018 19.2839 52.2099 19.381C52.0151 19.8671 51.4319 20.8399 50.6539 21.2289H50.6551ZM52.017 18.9919C52.5031 18.7971 54.6431 19.1867 54.3511 20.3537C54.3511 20.4508 54.8372 20.5485 54.9349 20.6456C55.9077 20.0618 56.88 19.9647 57.7552 20.6456C58.1442 20.9376 58.8251 21.0347 58.9222 21.6185C59.0193 21.9104 60.3812 23.1745 60.673 24.0497C60.965 24.3416 61.4511 24.7306 61.6459 25.1196C62.521 25.4115 62.9101 28.6208 62.2297 29.3988C62.1326 29.4959 61.9378 29.5936 61.7436 29.5936C60.1875 29.4965 59.8957 30.5665 59.6037 31.3444C59.5065 32.0254 59.3117 32.5115 58.8256 32.7063C58.7285 32.8034 58.6308 32.9011 58.5337 32.9011C58.2418 33.2901 58.5337 34.0681 58.8256 34.3601C59.0204 34.652 60.1875 35.2352 59.7985 35.6242C59.6037 35.9161 58.8256 35.6242 58.4366 35.4294C58.0476 35.2346 57.2695 34.9433 56.7835 34.9433C55.8106 35.0404 55.0326 33.6791 54.8383 32.4145C54.8383 32.3173 55.3244 31.9283 55.2273 31.8306C54.8383 31.6358 54.6435 31.7335 54.7412 30.8578C54.7412 30.4688 54.936 30.274 55.0331 30.0798C56.0059 29.0098 54.6441 26.0919 53.8661 25.0225C53.2822 24.3416 52.8932 23.8554 53.2822 22.2022C53.2822 22.1051 53.2822 22.1051 53.1851 22.1051C53.088 22.1051 52.9903 22.2022 52.8932 22.2022C52.5042 22.397 51.8233 23.2722 51.4342 23.3693C51.2394 23.3693 51.0452 23.2722 50.9481 22.7855C50.851 22.1045 49.781 21.6184 50.462 20.9375C51.24 20.7428 52.018 18.9924 52.018 18.9924L52.017 18.9919ZM51.8222 25.897C51.5303 25.2161 50.558 24.341 50.0714 23.563C49.8766 23.3682 49.0985 23.7578 49.0985 23.8549C49.0014 24.4387 49.4875 25.4109 49.8766 25.8971C50.0714 25.8971 50.2656 26.4809 50.3627 26.4809C51.2379 26.8699 51.1408 27.7451 51.1408 28.4261C50.946 28.718 50.4598 29.2041 50.2656 29.3989C50.0708 29.7879 49.5847 29.6908 49.1957 29.6908H49.2928C49.7789 30.2746 50.8488 31.0527 51.2379 31.7331C51.335 31.9279 52.016 32.1221 52.1131 31.9279C52.2102 31.9279 52.405 31.5388 52.5992 31.344C52.8911 31.1492 53.0853 31.0521 53.3772 31.0521C53.4744 30.8573 53.6692 29.8851 53.572 29.7879C53.0859 29.496 51.9189 27.8428 52.405 27.1619L52.5021 27.0647C52.5021 26.7728 52.016 26.2867 51.8212 25.8977L51.8222 25.897ZM52.6973 27.4531V27.8421C52.7945 28.2311 53.5725 29.3011 53.7673 29.4953C54.0592 29.6901 53.8644 30.9542 53.7673 31.2461C53.6702 31.3432 53.4754 31.4409 53.2811 31.4409C53.184 31.4409 52.9892 31.538 52.8921 31.6357C52.5031 31.8305 52.5031 32.1218 52.3083 32.3166C51.9193 32.5114 51.1413 32.3166 50.8493 31.9276C50.5574 31.3438 48.6123 29.6906 48.6123 29.4964C48.7095 29.4964 48.7095 29.4964 48.8071 29.3993H49.0019C49.099 29.3022 49.9748 29.3022 49.9748 29.2045C50.0719 29.0097 50.5586 28.6207 50.7528 28.3294C50.7528 27.7455 50.8499 27.0652 50.2667 26.7733C49.9748 26.6762 49.8777 26.2872 49.6829 26.1895C49.1967 25.8976 48.6129 24.4387 48.71 23.8554C48.8071 23.2716 50.0719 22.8826 50.3632 23.3693C50.947 24.1473 51.8221 25.0224 52.2111 25.8004C52.4059 26.1895 53.1839 26.8704 52.6972 27.4536L52.6973 27.4531ZM52.6973 42.8195C52.6973 43.0143 52.7945 43.1114 52.7945 43.5004C52.7945 43.6952 53.7673 44.0843 54.0586 44.1814C54.1557 43.9866 54.2534 43.6952 54.2534 43.5975C53.8644 43.3056 53.8644 43.1114 53.8644 42.9166C53.6696 41.5548 53.0864 42.1386 53.0864 41.5548C52.9893 41.36 53.0864 40.9709 53.0864 40.8738C52.4054 41.2628 52.6002 42.0409 52.6973 42.819L52.6973 42.8195ZM52.6002 40.7773C52.8921 40.5825 52.8921 40.2911 53.2812 40.4854C53.6702 40.6802 53.2812 41.4582 53.5731 41.5553C53.865 41.6524 54.1569 42.2362 54.1569 42.8195C54.254 43.0143 54.254 43.3056 54.4488 43.3056C54.6436 43.4027 54.4488 44.3755 54.3517 44.5698C53.9627 44.5698 52.4065 43.986 52.4065 43.4998C52.4065 43.2079 52.4065 43.0137 52.3094 42.916C52.2123 42.3322 52.1146 41.0681 52.6013 40.7761L52.6002 40.7773ZM37.428 56.7277C37.6228 56.6306 37.7199 56.6306 37.9141 56.7277C38.1089 56.8248 38.3032 56.9225 38.4003 56.9225C38.4974 56.9225 38.7893 57.0196 38.9841 57.0196H39.0812C39.1783 57.1167 39.3731 57.2144 39.4702 57.3115L39.8592 57.7005C40.054 57.8953 40.054 57.9924 39.7621 58.3814C39.665 58.3814 39.8592 58.4785 40.054 58.5762C40.2488 58.771 40.443 59.0624 40.443 59.2571C40.3459 59.4519 40.1511 59.5491 39.665 59.4519C39.665 59.4519 39.1789 59.2571 38.7899 58.9658C38.4979 58.8687 38.3037 58.771 38.206 58.6739C38.206 58.6739 38.1089 58.5768 38.0112 58.5768C37.7193 58.382 37.3303 58.1878 37.1361 57.7987C36.7471 57.2149 36.8442 57.2149 37.1361 56.9236C37.2332 56.9236 37.3309 56.8265 37.428 56.7288V56.7277ZM37.817 57.1167C37.7199 57.1167 37.817 56.9219 37.7199 57.0196C37.6228 57.1167 37.428 57.2144 37.3309 57.2144C37.3309 57.3115 37.2338 57.3115 37.428 57.6034C37.6228 57.8953 37.9141 58.0895 38.206 58.1872C38.4008 58.2843 38.498 58.382 38.5951 58.4791L38.887 58.6739C39.276 58.8687 39.7621 59.0629 39.7621 59.0629C39.9569 59.0629 40.054 59.16 40.054 59.16C40.054 59.16 39.8592 59.0629 39.7621 58.8681C39.4702 58.5762 39.1783 58.382 39.4702 58.0901L39.5673 57.993L39.4702 57.8959C39.4702 57.7987 39.2754 57.7011 39.1783 57.5068C39.1783 57.5068 39.0812 57.5068 38.8864 57.4097C38.6916 57.4097 38.4974 57.3126 38.4003 57.3126C38.3031 57.3126 38.0112 57.2155 37.8164 57.1178L37.817 57.1167ZM33.343 52.4485C33.4401 52.7404 34.6072 53.7127 34.8991 53.9075C35.2881 54.1023 35.2881 54.2965 35.3852 54.4913C35.3852 54.5884 35.4823 54.7832 36.0661 54.8803C36.5523 54.9774 36.7471 55.2693 36.8442 55.6584C36.9413 55.7555 36.9413 55.9503 37.1361 56.0474C37.2332 56.1445 37.3309 56.3393 37.2332 56.4364C37.2332 56.5335 37.2332 56.6312 37.1361 56.7283C37.039 56.7283 37.039 56.8254 36.9413 56.8254C36.6494 57.0202 36.1633 57.0202 35.6771 56.7283C35.58 56.6312 35.4823 56.6312 35.4823 56.6312C35.2875 56.6312 35.1904 56.6312 34.8985 56.1451C34.6066 55.756 34.5095 55.4641 34.4124 55.1722C34.2176 54.7832 34.1205 54.3942 33.5372 53.908C33.4401 53.8109 33.3424 53.7133 33.3424 53.6161C33.2453 53.519 33.1476 53.3242 32.4673 52.9352C32.3702 52.8381 32.0783 52.4491 31.9812 52.3514C31.9812 52.3514 31.7864 52.2543 31.9812 52.1566C32.565 52.1566 33.2453 52.0595 33.343 52.4485L33.343 52.4485ZM32.954 52.5456C32.954 52.4485 32.954 52.4485 32.4679 52.4485C32.565 52.5456 32.565 52.5456 32.6627 52.5456C33.2465 53.0318 33.3436 53.0318 33.8297 53.6156C34.4136 54.1994 34.6078 54.5884 34.8026 55.0745C34.8997 55.2693 34.9974 55.5607 35.1916 55.9497C35.4835 56.2416 35.4835 56.2416 35.5806 56.2416C35.6777 56.2416 35.7754 56.3387 35.8725 56.4364C36.2615 56.6312 36.5534 56.6312 36.7477 56.5335C36.7477 56.4364 36.8448 56.4364 36.8448 56.4364C36.8448 56.4364 36.8448 56.3393 36.9419 56.3393H36.8448C36.65 56.2422 36.5529 55.9503 36.4557 55.7555C36.3586 55.5607 36.261 55.2693 35.9696 55.2693C35.1916 55.0745 35.0945 54.8803 34.9968 54.5884C34.9968 54.4913 34.8997 54.2965 34.7049 54.1994C34.413 53.9075 33.1488 52.9352 32.954 52.5462L32.954 52.5456ZM70.0093 33.1913C69.8145 32.9965 69.4255 32.4132 69.5232 32.0242C68.9394 31.7323 69.037 32.1213 68.9394 32.5103C68.8422 32.9965 68.7446 33.3855 68.9394 33.8722C69.2313 34.845 68.6474 34.7473 68.5503 35.5253C68.5503 35.7201 69.2313 37.2762 69.4255 37.2762C69.5226 37.2762 69.5226 36.8871 69.6203 36.6923C69.6203 36.6923 69.6203 36.4975 69.5232 36.4004C69.3284 36.1085 69.037 35.5253 69.1341 35.3305C69.2313 34.7467 69.9122 35.2334 69.9122 35.3305C70.496 36.2056 70.7873 38.0536 71.9544 36.2056C72.1492 36.0108 72.0515 35.9137 71.9544 35.7195C71.8573 35.6224 71.6625 35.3305 71.3706 35.1357C71.2735 35.0386 71.2735 34.9409 71.1758 34.7467C70.8839 34.0657 70.4949 34.0657 70.1059 33.3848C70.1059 33.2877 70.1059 33.19 70.0088 33.19L70.0093 33.1913ZM70.2041 32.8022C70.3989 32.8994 70.496 33.3861 70.7879 33.5803C71.2741 33.9693 71.6631 34.7473 71.6631 34.7473C71.7602 34.8445 72.1492 35.4283 72.2469 35.5254C72.4417 35.8173 72.5388 35.9144 72.344 36.4005C70.2041 39.0266 70.107 35.1364 69.4261 35.4277C69.4261 35.5248 70.107 36.5948 69.9122 36.8867V36.9838C69.8151 37.2757 69.9122 37.6647 69.4261 37.6647C68.9399 37.7618 68.1619 35.9139 68.1619 35.5248C68.259 34.8439 68.7457 34.7467 68.5509 33.9687C68.3561 33.3849 68.4538 32.9959 68.5509 32.4127C68.648 32.2179 68.648 32.0237 68.648 31.9265C68.7451 31.4404 69.5232 31.5375 69.718 31.7318C69.9128 31.8289 69.9128 31.9265 69.8151 32.1208C69.8151 32.2179 70.107 32.7046 70.2041 32.8017L70.2041 32.8022ZM42 79C20.5053 79 3 61.5903 3 40C3 18.5053 20.5068 1 42 1C63.5918 1 81 18.5068 81 40C81 61.5918 63.5903 79 42 79Z" fill="white"/>
<path d="M79.4437 37.9579C80.3189 38.2498 79.8327 36.888 80.5136 36.7909V36.6937C80.4165 35.6238 80.3189 34.5538 80.1246 33.4845C79.8327 33.7765 79.5408 34.4574 79.2495 34.6516C78.5686 35.1377 80.1246 36.6938 79.4443 37.2777C79.2495 37.4725 77.9853 37.6667 77.6935 37.2777C77.5963 37.1806 77.6935 36.9858 77.4016 36.9858C77.3044 36.9858 77.0125 36.8887 77.0125 36.9858C76.9154 37.1806 77.7906 37.8609 77.9854 38.0557C78.2773 38.4447 77.4015 39.4176 77.0125 38.9309C76.8177 38.5419 76.4287 38.7361 76.1374 38.5419C76.0403 38.8338 75.8455 39.9037 75.4565 40.2927C75.2617 40.6817 75.0674 43.3077 75.0674 43.5019C75.0674 43.5019 75.2622 44.1828 75.3594 44.2799C75.4565 44.2799 77.0125 41.362 77.1102 41.2649C77.305 41.0701 77.5963 40.973 77.694 40.973C78.1801 41.0701 78.472 41.6539 78.5691 41.6539C78.7639 41.5568 78.9582 41.0701 79.0553 40.973C79.0553 40.8759 79.1524 40.584 79.0553 40.4869C79.0553 39.6117 78.6663 37.6666 79.4443 37.958L79.4437 37.9579ZM74.5806 44.9603C74.6777 44.8632 74.9696 44.6684 75.2616 44.8632C75.5535 45.2522 75.1644 45.6413 75.0667 46.1274C74.5806 46.2245 74.0939 46.7112 73.8997 47.1002C73.8026 47.9754 73.1217 48.8511 73.1217 49.7263C73.2188 51.1853 70.6905 52.6443 70.6905 53.9085C70.5934 54.6865 69.3286 56.6316 69.2315 57.7015C69.3286 58.7715 69.1344 62.9535 70.0096 63.1477C70.2043 63.1477 70.3986 63.2448 70.4957 63.3425C70.7876 63.5373 70.9818 63.6344 72.2465 62.7587C72.3436 62.6616 73.3165 62.4668 73.6084 62.3697C77.9853 56.0476 80.6108 48.3644 80.6108 39.9997C80.6108 39.0268 80.6108 38.0545 80.5137 37.1794C80.3189 37.5684 80.5137 38.5413 79.3466 38.3465C79.3466 38.7355 79.4437 40.0973 79.4437 40.3887C79.4437 40.5835 79.5408 40.7777 79.4437 41.0696C79.2489 41.4587 78.7628 42.0425 78.5686 42.1396C78.4715 42.1396 78.2766 41.9448 78.1795 41.8477C78.0824 41.6529 77.5957 41.2638 77.4986 41.4587C76.9148 42.2367 76.6235 43.0147 76.1368 43.7927C75.942 44.1818 75.7478 44.4737 75.6506 44.5708C75.4558 44.6679 75.2616 44.6679 75.1645 44.5708C74.9697 44.376 74.6784 43.5008 74.6784 43.3066C74.7755 43.1118 74.9703 40.2916 75.1645 40.0974C75.5535 39.7084 75.5535 38.9304 75.8454 38.3466C75.9425 38.2495 75.9425 38.1518 76.0402 38.1518C76.235 38.0547 76.235 38.0547 76.3321 38.2489C76.4292 38.346 77.0131 38.2489 77.305 38.6379C77.4021 38.735 77.694 38.4431 77.694 38.346C77.4021 38.1512 76.624 37.2761 76.624 36.887C76.624 36.6922 76.7212 36.6922 76.8188 36.5951C77.305 36.498 77.8888 36.5951 77.9859 37.0813C78.1807 37.1784 79.153 37.0813 79.2501 36.9841C79.542 36.7894 78.083 35.039 78.9582 34.3581C79.3472 34.0662 79.6391 33.2881 80.0281 32.9962C76.916 16.2676 63.2024 3.52702 46.2797 1.67941C46.3768 2.26323 46.4745 2.84647 46.2797 3.43023C46.1826 4.11116 45.6959 4.40307 44.5289 4.20827C42.778 3.72214 43.2647 5.18111 42 5.9591C41.1249 6.64002 40.3469 4.69492 38.7908 7.32095C39.1798 7.41806 39.666 7.90477 39.7636 8.39089C39.7636 8.58568 39.8608 8.97471 39.4717 9.16893C39.2769 9.26604 38.5966 9.65506 38.6937 9.84986C38.7908 9.94697 39.8607 9.84986 40.1527 10.0447C40.8336 10.2394 41.2226 9.94754 41.7087 9.75274C42.3896 9.26661 44.1399 9.07181 44.2376 8.87759C44.2376 8.6828 44.2376 8.39146 44.8214 7.90476C45.3075 7.51574 45.8913 8.00187 46.3775 8.39089C46.6694 8.6828 46.9613 8.87702 47.1555 8.97471C47.5445 8.6828 47.4474 6.73771 49.7816 8.00187C50.0735 8.09899 50.3654 8.29379 50.6567 8.29379C54.255 7.32095 52.699 8.97471 55.2278 8.48858C56.9786 8.19667 56.7839 9.16951 56.2006 10.0446C56.0059 10.5308 57.2706 11.0175 57.3677 11.1146C58.5348 11.7955 57.9515 12.3788 60.0909 12.3788C61.744 12.3788 62.425 12.9626 63.3001 14.1296C63.592 14.5186 63.981 14.6157 64.5643 14.3244C65.8284 13.9354 65.8284 15.2972 66.6065 16.0752C67.9683 17.3394 67.4816 18.9931 67.9684 19.5764C68.3574 20.2573 67.6764 20.2573 67.6764 20.3544C67.6764 20.3544 68.1626 21.1325 68.7464 20.6464C69.2325 20.2573 70.0106 21.7163 69.6215 22.2024C69.6215 22.2995 69.4267 22.3972 69.3296 22.3972C69.0377 22.3972 68.7458 22.1053 68.5516 22.0082C68.5516 22.0082 67.0926 21.8134 66.8007 21.6192C66.6059 21.6192 66.5088 21.7163 66.5088 21.7163C66.4117 22.0082 66.5088 22.9805 66.6059 23.1753C66.8007 23.3701 67.9678 25.3152 68.162 25.7041C68.94 26.5793 68.94 26.9683 68.94 28.233C68.8429 28.8168 68.8429 28.9139 69.5239 29.5948C69.9129 30.0809 69.8158 30.47 70.399 30.7619C70.9828 29.8867 72.3442 30.47 72.3442 30.3729C72.3442 30.1781 71.858 29.789 71.7603 29.4977C71.3713 28.2335 71.5655 27.6498 70.4962 26.7745C69.7181 26.1907 69.9123 25.8017 70.691 25.8994H71.1771C70.9823 25.6075 71.08 25.1213 71.3719 24.9265C71.3719 24.8294 71.5667 24.8294 71.6638 24.8294C71.8586 24.9265 71.9557 25.1213 72.1499 25.5104C72.4418 26.1913 72.928 26.6774 73.317 27.2612C73.706 27.7473 73.6089 27.9421 73.5118 28.234C72.8309 29.4982 73.5118 30.0819 73.317 30.9572C73.2199 31.3462 73.5118 31.541 73.1222 32.0271C72.9274 32.1243 72.6361 33.2913 72.4413 33.778C72.4413 33.778 73.0251 35.2369 73.0251 35.5288C73.0251 36.1126 73.1222 36.5987 73.1222 37.1819C73.1222 37.6681 71.2743 38.5438 71.858 39.4189C72.3442 39.8079 73.6088 40.2941 73.6088 40.8779C73.6088 41.364 73.706 41.6559 73.025 41.9478C72.7331 42.0449 72.5389 42.1426 72.247 42.1426C71.9551 42.4345 71.4689 43.4068 71.7608 43.8935C71.9556 44.0882 72.0528 44.2825 71.7608 44.6715C71.0799 45.3524 72.4418 46.0333 73.2198 46.1305C73.5117 46.1305 74.095 45.3524 74.5817 44.9634L74.5806 44.9603ZM73.2188 62.8554C72.1488 63.2444 71.1765 64.2173 70.3008 63.6335C70.2037 63.5364 70.106 63.5364 69.9118 63.4387C68.55 63.2439 68.939 59.1595 68.8419 57.7976C68.7448 56.9224 70.2037 54.6855 70.3008 53.9074C70.3008 52.4485 72.732 50.9895 72.732 49.7253C72.732 48.7524 73.4129 47.9745 73.5101 47.0021C73.6072 46.6131 74.2881 45.9322 74.6771 45.7379C74.7742 45.6408 74.969 45.3489 74.969 45.2518C74.58 45.3489 73.802 46.516 73.2182 46.516C72.0512 46.4189 70.5921 45.6408 71.4674 44.4737C71.5645 44.2789 71.5645 44.1818 71.4674 44.0847C71.0784 43.5009 71.5645 42.1396 72.0512 41.8477C72.0512 41.8477 72.1483 41.8477 72.246 41.7506C72.3431 41.7506 72.5379 41.7506 72.8298 41.5558C73.316 41.4587 73.2188 41.2639 73.2188 40.8749C73.3159 40.6801 71.7599 39.9021 71.5657 39.6107C70.6906 38.5408 72.7328 37.3737 72.7328 37.1795C72.7328 36.5957 72.6356 36.1096 72.6356 35.5264C72.6356 35.1374 71.8576 33.7756 72.0518 33.5813C72.3437 33.0951 72.538 32.0252 72.8299 31.7333C73.0247 31.4414 72.927 31.1495 72.927 30.8582C73.2189 30.1773 72.4408 29.3992 73.1218 28.0379C73.2189 27.9408 73.2189 27.8431 73.0247 27.5518C72.5385 26.8709 72.1495 26.3847 71.7605 25.6067C71.4686 24.8286 71.3715 25.6067 71.4686 25.7038C71.6634 25.9957 71.5657 26.0928 71.3715 26.1899C71.2743 26.287 70.9824 26.287 70.6905 26.287C70.2044 26.287 70.3986 26.1899 70.6905 26.3841C71.9547 27.357 71.7605 28.0373 72.1495 29.3021C72.3443 29.7882 72.6356 29.8859 72.8304 30.2749C72.9275 30.372 72.9275 30.5668 72.7333 30.6639C72.1495 30.9558 71.1773 30.372 70.6911 30.9558C70.4963 31.2477 70.3021 31.1506 70.3021 31.1506C69.4269 30.6645 69.7182 30.3726 69.2321 29.8864C68.4541 29.0113 68.4541 29.0113 68.5512 28.1356C68.5512 27.8437 68.6483 26.8714 67.8703 25.8986C67.1894 25.1206 66.8974 24.2455 66.3142 23.3698C66.0223 23.0779 66.0223 22.0079 66.1194 21.619C66.2165 21.327 66.4113 21.1328 66.8975 21.327C67.3836 21.5218 68.6483 21.5218 68.7454 21.7161C69.0373 21.9108 69.2315 22.008 69.3292 22.008C69.524 21.8132 69.0373 20.8409 68.9402 20.938C68.1621 21.6189 66.995 20.549 67.287 20.2571C67.3842 19.9652 67.7732 19.9652 67.6761 19.8681C67.0922 19.09 67.5789 17.534 66.3142 16.2698C65.7304 15.7837 65.4391 14.4219 64.7581 14.7137C63.6882 15.0056 63.3963 14.9085 63.0073 14.4218C62.2293 13.2548 61.4513 12.7687 60.0894 12.7687C57.9495 12.8658 58.0472 11.9906 57.1714 11.5045C55.7125 10.6294 55.6154 10.2403 55.8096 9.85136C56.1015 9.36522 56.7824 8.6843 55.2258 8.87852C52.5026 9.36465 54.1558 7.71146 50.7518 8.58661C50.4599 8.68372 49.6818 8.39181 49.6818 8.2947C47.2507 7.12764 48.1258 9.36464 47.0557 9.36464C46.7638 9.26752 46.4719 8.97562 46.1806 8.68371C45.7916 8.3918 45.3055 8.00278 45.1107 8.19758C44.6245 8.58659 44.6245 8.7814 44.6245 8.8785C44.5274 9.55943 42.7766 9.46233 41.9014 10.0456C41.3175 10.3375 40.8314 10.7265 40.0534 10.3375C39.5673 10.2404 38.4974 10.4346 38.3026 9.94846C38.1078 9.55944 38.9835 8.97562 39.2755 8.7814C39.3726 8.68429 39.4702 8.68429 39.3726 8.39239C39.2755 8.10047 38.8864 7.80856 38.5945 7.61434C38.4974 7.51723 38.3026 7.51723 38.3026 7.32243C40.3448 4.01555 41.0258 6.15537 41.8038 5.66929C43.068 4.89124 42.4847 3.23811 44.6241 3.82137C45.4992 4.01617 45.8883 3.72426 45.9859 3.33524C46.083 2.84911 45.9859 2.16818 45.8888 1.58442C44.6246 1.48731 43.36 1.38963 41.9987 1.38963C20.6996 1.38963 3.38703 18.7022 3.38703 40.0013C3.38703 55.8546 13.113 70.0545 27.7988 75.9871C27.8959 75.4033 28.0907 74.8201 28.674 74.4311C29.452 74.0421 28.9659 73.3611 28.674 72.7779C27.604 71.1248 28.2849 70.638 27.215 69.2767C27.215 68.4016 25.6589 67.6236 25.9508 66.0675C26.0479 65.6785 27.1179 64.1224 27.5069 64.0253C27.7988 63.9282 29.452 63.9282 29.5491 63.8305C29.7439 63.5386 30.0352 63.3444 30.23 63.1496C30.7162 62.8577 30.7162 62.7606 30.8138 62.3715C30.8138 62.1767 31.0086 62.0796 31.1058 61.9825C31.2029 61.9825 31.2029 61.8854 31.0086 61.7877C30.7167 61.5929 28.9664 60.7178 28.6746 60.6207C28.5774 60.2316 28.4798 60.0368 28.0907 59.8426C27.6046 59.4536 27.0208 59.0646 27.1179 57.5085C27.215 55.9525 26.1451 53.6184 25.0757 52.5484C24.4918 52.3536 24.1028 51.8674 23.9086 51.3813C23.6167 50.8952 22.1578 49.5334 22.1578 49.3391C22.2549 48.172 21.1849 47.4912 21.0878 46.6159C20.9907 45.935 20.504 45.7407 20.4069 45.4488C20.115 44.1847 20.4069 43.9899 20.893 43.698C21.8659 43.1142 21.574 40.0997 21.574 39.224C21.574 38.1541 22.352 37.1818 22.2549 36.5008H22.1578C21.7688 37.1818 21.7688 37.2789 21.4769 37.9598C20.9907 39.0297 21.4769 40.7801 21.2821 41.0719C20.9902 41.2667 20.4069 40.8771 20.3092 40.5858C19.2393 38.4459 21.0873 31.4436 22.7404 29.7903C24.2965 28.2343 26.3387 25.1222 28.6734 25.0245C28.7705 24.9274 31.4936 20.3563 32.6612 19.5783C33.5363 18.8974 35.3844 16.3691 34.6063 15.299C34.2173 14.91 33.7312 14.521 33.2445 13.743C32.5636 12.5759 31.1046 12.284 32.6607 10.9227C32.7578 11.6036 33.1468 11.9927 33.6335 12.3817C34.0225 11.8956 34.5086 11.5065 35.0925 11.2146C35.5786 10.9227 36.1624 10.8256 36.6485 11.2146C36.9404 11.4094 37.2324 11.7985 37.5237 11.9927C37.7185 12.0898 37.9127 11.9927 38.1075 11.7008C38.2046 11.4089 38.4965 11.2146 38.6913 11.2146C39.1775 11.1175 39.9555 11.4094 40.0532 11.9927C40.9283 11.8956 41.6092 11.8956 42.0954 12.7707C42.1925 12.8678 42.1925 12.9655 42.2902 12.9655C42.485 13.0626 42.5821 13.1603 42.1931 13.7436C41.8041 14.3274 42.485 14.7164 41.415 15.4944C41.3179 15.4944 41.3179 15.6892 41.3179 15.8834C41.415 17.2452 42.9711 21.0383 43.7491 22.3025C43.7491 22.2054 43.9439 22.0106 44.041 22.0106C44.3329 21.7187 43.4572 21.1355 43.4572 20.5517C43.4572 20.1626 43.652 19.9678 43.7491 19.7736C43.9439 19.5788 43.263 19.1898 43.263 18.8985C43.5549 18.2175 46.0832 18.0233 45.8891 19.5794C45.792 20.4545 46.0839 20.3574 46.2781 20.8436C46.57 21.4274 46.3752 22.6915 45.8891 23.0806C45.6943 23.2754 45.4029 23.4696 45.5 23.7615C45.5 23.9563 46.2781 23.7615 46.3752 23.8586C46.3752 23.8586 46.959 22.7887 47.1532 22.7887C47.4451 22.6916 47.6394 22.7887 47.9313 23.0806C48.4174 23.4696 47.3475 24.5395 47.3475 25.0257C47.4446 25.4147 47.9313 25.5119 48.3203 25.6095C48.8064 25.8043 49.1954 25.9015 49.1954 26.2905V27.0685C49.0983 27.5546 47.4446 27.6523 47.0555 27.8466C46.0827 28.3327 42.5815 27.9437 42.6786 29.3055C42.6786 29.7917 42.4838 32.4176 43.3595 32.2235C44.0405 32.8073 44.4295 33.1963 44.0405 34.0714C43.9434 34.2662 43.5543 35.6274 44.1376 36.2113C44.2347 36.0165 44.4295 35.7252 44.6237 35.5304C44.7208 35.0442 45.6937 34.4604 46.0827 33.9743C46.1798 33.7795 46.2775 33.6824 46.2775 33.6824C46.2775 32.8072 45.6937 32.8072 46.4723 31.7372C47.6393 30.2783 48.0283 30.0841 48.4174 30.3754C48.5145 30.3754 48.6122 30.5702 48.7093 30.6673C48.8064 30.8621 48.9041 31.0563 49.0984 31.1534C49.2931 31.2506 49.4874 31.4454 49.5845 31.6396C49.7793 31.8344 49.8764 32.0286 49.9735 32.2234C49.9735 32.4182 50.1683 32.6124 50.2654 32.7095C50.4602 33.0014 50.5573 33.1957 50.5573 33.6824C50.4602 33.7795 50.7521 33.9743 51.0435 34.1685C51.3354 34.3633 51.6273 34.5575 51.8215 34.8494C51.9186 34.9465 52.0163 35.0442 52.0163 35.1413C52.3082 35.5303 52.6001 35.8223 52.6972 36.4055C52.892 37.8645 53.9614 38.3507 52.892 40.0038C52.3082 40.7818 51.0441 40.9766 50.2659 40.3928C49.8769 40.3928 48.418 40.1009 48.0289 40.2957C47.9318 40.2957 47.6399 40.4905 47.4451 40.5876C47.737 40.7824 49.1959 40.1015 49.8763 41.1714C49.8763 41.2685 49.4873 41.9495 49.5844 42.0466C49.6815 42.2414 50.1682 42.2414 50.3624 42.2414C50.7514 42.2414 51.0433 42.9223 51.0433 43.3113C51.0433 43.7975 50.5572 43.8951 50.0705 43.7003C49.9734 43.6032 49.0977 43.8951 48.7086 43.7974C48.6115 43.7003 48.4167 43.7974 48.2225 43.8946C48.1254 43.9917 48.0277 43.9917 47.9306 44.0893C47.6387 44.0893 47.4445 44.0894 47.2497 43.5055C47.1526 43.1165 46.2768 43.4084 45.9855 43.7003C45.7907 43.9922 45.0127 44.3812 44.7213 44.4784H44.1375C44.0404 44.4784 43.2624 44.9645 42.9704 45.0622C42.5814 45.0622 41.3173 46.7153 41.3173 46.9101C41.0254 47.7852 39.3722 47.4939 38.7884 47.98C38.2046 47.98 37.1353 47.98 36.9405 48.5639C36.7457 49.05 36.4544 48.7587 36.2596 49.7309C36.1625 49.828 36.1625 49.828 36.2596 50.0228C36.1625 50.8009 36.1625 51.676 35.1897 51.676C34.4116 51.676 34.3145 50.8979 34.5087 50.3141C34.8007 49.2442 33.9249 47.7853 32.9527 47.202C32.6608 47.1049 32.4666 47.0072 32.0775 47.0072C31.6885 47.0072 31.0076 46.9101 30.9105 46.4234C30.5215 45.5482 29.3544 45.0615 28.4793 45.0615C28.0903 45.0615 26.5342 45.6454 26.4371 46.1315C26.0481 46.7153 25.27 47.5904 25.27 48.3685C25.4648 48.7575 25.7561 49.5355 26.0481 50.1193C26.4371 50.2164 26.729 50.3141 27.0209 50.6054C27.2157 50.8002 27.507 50.8973 27.7018 50.7025C28.188 50.3135 28.577 50.3135 29.1608 50.5077C29.7446 50.7997 30.2307 51.0916 30.0359 51.8696C30.0359 52.0644 29.5498 52.4534 29.4521 52.6476C29.2573 53.1338 28.966 53.2315 28.6741 53.4257C28.3822 53.5228 27.9931 53.8147 28.577 54.0095C29.0631 54.2043 29.5498 54.6904 29.9388 55.1766C30.2307 55.4685 30.9116 56.3436 30.7169 56.8297C30.6197 56.9268 30.3278 57.1216 30.2307 57.3158C29.8417 57.7049 29.6469 58.191 29.6469 58.6777C29.5498 59.1638 29.744 59.6505 30.0359 60.0396C30.2307 60.2343 30.3278 60.4286 30.6197 60.4286C31.4949 60.5257 31.7868 61.4985 32.0787 61.4014C33.5377 60.8176 35.4828 60.8176 36.5527 62.3742C36.6498 62.6662 39.5677 62.7633 40.2487 63.6384C40.7348 64.1245 41.0267 64.1245 41.3186 64.1245C41.8047 64.1245 42.2914 64.3193 42.6805 65.0974C43.4585 66.3616 44.8204 67.5286 46.1817 68.2095C47.1545 68.5985 47.8348 68.8904 47.9325 70.4465C48.0296 71.1274 48.2244 71.8083 49.0024 71.8083C49.3914 71.9055 49.7805 72.0032 50.2666 72.1974C50.5585 72.3922 52.6007 72.9754 52.9898 72.9754C54.6429 72.8783 54.4487 73.7535 54.6429 74.4344C54.8377 74.9205 50.4608 76.0875 49.9748 77.8385C59.3118 75.8934 67.5786 70.5442 73.22 62.8604L73.2188 62.8554ZM41.9991 78.7087C44.6251 78.7087 47.0563 78.4168 49.4881 77.9307C50.169 75.9856 52.795 75.4995 54.2539 74.4295C53.962 73.6515 54.2539 73.3596 52.9898 73.3596C52.5036 73.3596 50.4609 72.7757 50.0718 72.5815C49.6828 72.2896 49.2938 72.2896 49.0019 72.1925C48.2238 72.0954 47.7377 71.9977 47.5429 70.5394C47.4458 69.1775 46.862 68.8862 46.0839 68.4971C44.625 67.9133 43.166 66.6492 42.2909 65.2879C41.999 64.8989 41.9019 64.5099 41.318 64.5099C40.929 64.5099 40.54 64.5099 39.9562 63.8289C39.2753 63.0509 36.9412 63.2451 36.2602 62.6619C35.5793 62.2729 35.2874 61.0087 32.2724 61.689C31.3973 62.1752 31.2996 60.911 30.5216 60.8139C30.2297 60.8139 30.0354 60.6191 29.7435 60.3278C28.8684 59.3549 29.1597 57.9937 29.9383 57.0209C30.0354 56.9238 30.1331 56.729 30.3273 56.6319C30.4245 56.4371 29.7435 55.5619 29.6464 55.3677C29.3545 55.0758 28.8684 54.5897 28.3822 54.3949C27.5071 54.0058 27.8961 53.422 28.4794 53.033C28.6741 52.9359 28.9655 52.8382 29.0632 52.5469C29.1603 52.3521 29.5493 51.866 29.647 51.7688C29.8418 51.185 29.4522 51.0879 28.9661 50.8937C28.3823 50.6018 28.188 50.8937 27.9932 50.9908C27.6042 51.2827 27.1181 51.1856 26.7291 50.8937C26.34 50.5047 25.951 50.6018 25.7562 50.4076C25.5614 50.3104 24.9782 48.5596 24.8811 48.3653C24.8811 47.3925 25.562 46.7122 26.0481 45.9341C26.2429 45.3503 27.896 44.67 28.4793 44.67C29.4521 44.67 31.0082 45.3509 31.2996 46.3231C31.2996 46.615 31.8834 46.615 32.0776 46.615C32.4666 46.615 32.8557 46.7121 33.1476 46.9069C34.3146 47.4908 35.1898 49.1439 34.8007 50.4081V50.992C34.8978 51.1868 34.9955 51.2839 35.1897 51.2839C35.8706 51.2839 35.7735 50.5058 35.8706 49.922C35.7735 48.8521 36.5516 48.6579 36.5516 48.4631C36.9406 47.5879 38.3024 47.5879 38.5938 47.5879C39.2747 47.1989 40.8308 47.3931 41.025 46.6151C41.025 46.3232 42.4839 44.7672 42.8729 44.6699C43.2619 44.5728 43.8457 43.989 44.2347 44.0861H44.6238C44.9157 43.989 45.5966 43.6 45.6937 43.5023C45.9856 43.1133 46.2775 43.0162 46.5688 43.0162C46.9579 42.919 47.5417 42.8214 47.6388 43.4052C47.6388 43.5023 47.7359 43.6971 47.8336 43.6971C47.9307 43.6971 47.9307 43.6 48.0284 43.6C48.3203 43.4052 48.6122 43.3081 48.9035 43.4052C49.1954 43.5023 49.9734 43.2104 50.2654 43.3081C50.4602 43.4052 50.5573 43.4052 50.6544 43.4052V43.3081C50.6544 43.1133 50.5573 42.6271 50.3625 42.6271C49.8763 42.6271 49.7786 42.53 49.4873 42.4323C49.1954 42.3352 49.1954 42.0433 49.2925 41.7514C49.2925 41.6543 49.3896 41.4595 49.4873 41.2653C49.0012 40.3901 47.1532 41.2653 47.0561 40.7791C46.8614 40.5844 47.64 40.0982 47.9313 39.904C48.4174 39.7092 50.2654 40.0988 50.5574 40.0988C51.0435 40.4878 52.1134 40.4878 52.5996 39.8069C53.5724 38.445 52.5025 37.7647 52.3077 36.5C52.2106 36.0139 52.0158 35.722 51.7239 35.4301C51.6268 35.333 51.6268 35.2353 51.5291 35.1382C51.1401 34.5543 49.973 34.263 50.1672 33.5821C50.1672 33.2902 50.0701 33.1931 49.9724 32.9983C49.7776 32.8035 49.6805 32.6093 49.5834 32.3173C49.4863 31.9283 49.1944 31.6364 48.8054 31.4422C48.6106 31.2474 48.5135 31.0532 48.3193 30.8584C48.3193 30.7613 48.2221 30.6636 48.1245 30.6636C48.0273 30.5665 47.7354 30.7607 46.7626 32.0254C46.3736 32.5116 46.4707 32.7064 46.5678 32.9006C46.6649 33.0954 46.6649 33.2896 46.6649 33.6786C46.6649 34.2625 45.1089 35.0405 44.9141 35.6238C44.817 35.8186 44.3303 36.7908 44.1361 36.6937C44.0389 36.6937 43.9413 36.5966 43.747 36.4018C43.2609 35.7209 43.358 34.651 43.6499 33.873C43.8447 33.581 43.9418 33.2891 43.2609 32.6088C41.9967 32.8036 42.2881 29.9827 42.2881 29.3019C42.191 27.454 45.7893 28.0377 46.8592 27.454C47.1511 27.3569 48.8043 27.065 48.8043 27.065V26.2869C48.8043 26.0921 48.3182 25.995 48.2205 25.995C47.7343 25.8979 47.1505 25.7031 46.9563 25.1199V25.0228C46.9563 24.6337 47.8315 23.4667 47.6372 23.3696C47.4424 23.1748 47.3453 23.1748 47.2482 23.1748C46.9563 23.2719 46.7621 24.3419 46.1783 24.1477C45.9835 24.1477 45.2054 24.4396 45.1083 23.8557C45.0112 23.3696 45.4002 23.0777 45.6922 22.7858C45.9841 22.4939 46.1783 21.424 45.9841 21.035C45.5951 20.3541 45.4002 20.4512 45.4979 19.576C45.5951 18.5061 43.9419 18.798 43.7471 18.9922C44.6223 19.965 43.8442 19.7702 43.8442 20.5482C43.8442 21.0344 44.9142 21.6182 44.2332 22.2991C43.9413 22.4939 44.0384 22.7852 43.7471 22.7852C43.261 23.0771 40.9268 16.8522 40.9268 15.88C40.9268 15.491 41.024 15.2962 41.2188 15.102C41.9968 14.5182 41.4136 14.1291 41.8997 13.5459C42.0945 13.254 42.0945 13.254 42.0945 13.254C41.9974 13.254 41.8997 13.1569 41.8026 12.9621C41.3164 12.2812 40.7326 12.3783 39.9547 12.3783C39.7599 12.3783 39.6628 12.2812 39.6628 12.0864C39.6628 11.6974 38.9818 11.5025 38.7876 11.6002C38.6905 11.6002 38.4957 11.6973 38.4957 11.795C38.1067 12.476 37.7176 12.476 37.3286 12.2812C36.9396 12.0864 36.7448 11.6973 36.3558 11.5031C36.0639 11.2112 35.6749 11.3083 35.1887 11.5031C34.6049 11.8921 34.1188 12.3783 33.7298 12.865C33.2436 12.5731 32.7569 12.0869 32.4656 11.6008C32.0766 12.2817 33.1465 12.865 33.5355 13.5459C34.0217 14.4211 34.7997 14.9078 34.9945 15.102C35.8697 16.3662 33.9246 19.0898 32.8546 19.8678C31.4927 20.743 29.2563 25.3141 28.6724 25.3141C26.6302 25.5088 24.4903 28.6209 23.0313 30.0799C21.4753 31.636 19.7245 38.444 20.6002 40.4863C20.6973 40.5834 20.8921 40.6811 20.9892 40.6811C20.8921 39.7082 20.6973 38.9302 21.184 37.8608C21.2811 37.5689 21.8649 36.11 22.0591 36.11C22.1562 36.0129 22.4481 36.2071 22.6429 36.2071C22.8377 37.1799 21.962 38.1522 21.962 39.2221C21.962 40.584 22.2539 43.3072 21.0869 44.0852C20.795 44.28 20.503 44.3771 20.795 45.3494C20.8921 45.5442 21.3788 45.7384 21.4759 46.6136C21.573 47.3916 22.6429 48.0725 22.5458 49.3367C22.5458 49.4338 24.0048 50.8928 24.199 51.1846C24.3938 51.6708 24.7828 52.0598 25.2689 52.2546C26.5331 53.4216 27.603 55.8529 27.5059 57.5066C27.5059 57.8956 27.5059 59.0627 28.2839 59.4518C28.5759 59.6465 28.8678 59.8408 28.9649 60.3269C29.5487 60.5217 30.91 61.202 31.299 61.494C31.688 61.7859 31.5909 62.0778 31.3961 62.272C31.3961 62.3691 31.299 62.3691 31.2013 62.4668C31.1042 62.9529 30.8123 63.2448 30.4232 63.4396C30.2284 63.6344 30.0342 63.8286 29.8394 64.1206C29.5475 64.5096 28.0886 64.1206 27.6024 64.4125C27.4076 64.4125 26.3382 65.8714 26.3382 66.0656C26.1434 67.4275 27.6024 68.3026 27.6024 69.0806C28.4776 69.9558 28.0885 71.2206 28.9643 72.5818C29.4504 73.457 29.9371 74.235 28.7695 74.8188C28.3805 75.0136 28.2833 75.5969 28.0885 76.083C32.4655 77.7362 37.1336 78.7091 41.9967 78.7091L41.9991 78.7087ZM64.4661 29.3012C64.8551 29.3012 65.3413 29.3012 65.439 30.0792C65.439 30.274 65.7309 30.3711 65.828 30.5654C66.217 31.1492 64.6609 32.1214 64.369 32.2185C63.6881 32.8023 63.0072 33.0937 62.3268 32.0237C61.9378 31.5376 62.2297 31.0509 62.2297 30.5648C62.2297 29.6896 62.6187 29.4948 63.2996 29.4948C63.7857 29.4948 63.9805 29.3977 64.4667 29.3L64.4661 29.3012ZM63.3962 29.885C63.0072 29.885 62.6181 29.9821 62.6181 30.5659C62.6181 30.955 62.3262 31.5388 62.6181 31.8301C63.1043 32.6082 63.6881 32.3162 64.1742 31.9272C64.369 31.7324 65.6332 30.8573 65.5361 30.7602C65.3413 30.5654 65.0499 30.4683 65.0499 30.0792C64.9528 29.6902 64.758 29.6902 64.4661 29.6902C64.0771 29.7873 63.7852 29.885 63.3962 29.885L63.3962 29.885ZM50.6551 21.2289C50.3632 21.4237 51.239 22.2017 51.3361 22.6878C51.4332 23.2717 52.017 22.0069 53.0869 21.715C53.573 21.6179 53.7678 21.9098 53.6707 22.2988C53.3788 23.7578 53.6707 24.244 54.1568 24.8277C55.032 25.9947 56.3938 29.1069 55.3239 30.3717C55.2268 30.4688 55.1291 30.6636 55.032 30.8578C54.9349 31.4417 55.1291 31.4417 55.5181 31.6359C55.9071 31.733 55.5181 32.0249 55.2262 32.511C55.3233 33.2891 55.9071 34.6509 56.7823 34.5533C57.1713 34.5533 57.9493 34.8452 58.6302 35.0394C58.7273 35.1365 59.4082 35.4284 59.4082 35.3313C59.5053 35.3313 59.2134 35.2342 58.6302 34.6504C57.9493 34.1642 57.755 32.8025 58.7273 32.4134C59.0192 32.2186 59.1163 31.8296 59.3111 31.2463C59.5059 30.2735 59.8949 29.1064 61.7423 29.2041C61.8394 29.2041 61.8394 29.2041 61.9371 29.107C62.3261 28.6208 62.229 25.6058 61.3533 25.5087C61.2561 25.2168 60.5752 24.5358 60.3804 24.2445C60.0885 23.2717 58.7273 22.2994 58.6296 21.7157C58.5325 21.3266 57.8516 21.1318 57.5597 20.9376C56.2955 20.0625 55.5174 20.8405 54.9336 21.0347C54.9336 21.0347 53.7665 20.7428 53.9607 20.3538C54.2526 19.5758 52.5018 19.2839 52.2099 19.381C52.0151 19.8671 51.4319 20.8399 50.6539 21.2289H50.6551ZM52.017 18.9919C52.5031 18.7971 54.6431 19.1867 54.3511 20.3537C54.3511 20.4508 54.8372 20.5485 54.9349 20.6456C55.9077 20.0618 56.88 19.9647 57.7552 20.6456C58.1442 20.9376 58.8251 21.0347 58.9222 21.6185C59.0193 21.9104 60.3812 23.1745 60.673 24.0497C60.965 24.3416 61.4511 24.7306 61.6459 25.1196C62.521 25.4115 62.9101 28.6208 62.2297 29.3988C62.1326 29.4959 61.9378 29.5936 61.7436 29.5936C60.1875 29.4965 59.8957 30.5665 59.6037 31.3444C59.5065 32.0254 59.3117 32.5115 58.8256 32.7063C58.7285 32.8034 58.6308 32.9011 58.5337 32.9011C58.2418 33.2901 58.5337 34.0681 58.8256 34.3601C59.0204 34.652 60.1875 35.2352 59.7985 35.6242C59.6037 35.9161 58.8256 35.6242 58.4366 35.4294C58.0476 35.2346 57.2695 34.9433 56.7835 34.9433C55.8106 35.0404 55.0326 33.6791 54.8383 32.4145C54.8383 32.3173 55.3244 31.9283 55.2273 31.8306C54.8383 31.6358 54.6435 31.7335 54.7412 30.8578C54.7412 30.4688 54.936 30.274 55.0331 30.0798C56.0059 29.0098 54.6441 26.0919 53.8661 25.0225C53.2822 24.3416 52.8932 23.8554 53.2822 22.2022C53.2822 22.1051 53.2822 22.1051 53.1851 22.1051C53.088 22.1051 52.9903 22.2022 52.8932 22.2022C52.5042 22.397 51.8233 23.2722 51.4342 23.3693C51.2394 23.3693 51.0452 23.2722 50.9481 22.7855C50.851 22.1045 49.781 21.6184 50.462 20.9375C51.24 20.7428 52.018 18.9924 52.018 18.9924L52.017 18.9919ZM51.8222 25.897C51.5303 25.2161 50.558 24.341 50.0714 23.563C49.8766 23.3682 49.0985 23.7578 49.0985 23.8549C49.0014 24.4387 49.4875 25.4109 49.8766 25.8971C50.0714 25.8971 50.2656 26.4809 50.3627 26.4809C51.2379 26.8699 51.1408 27.7451 51.1408 28.4261C50.946 28.718 50.4598 29.2041 50.2656 29.3989C50.0708 29.7879 49.5847 29.6908 49.1957 29.6908H49.2928C49.7789 30.2746 50.8488 31.0527 51.2379 31.7331C51.335 31.9279 52.016 32.1221 52.1131 31.9279C52.2102 31.9279 52.405 31.5388 52.5992 31.344C52.8911 31.1492 53.0853 31.0521 53.3772 31.0521C53.4744 30.8573 53.6692 29.8851 53.572 29.7879C53.0859 29.496 51.9189 27.8428 52.405 27.1619L52.5021 27.0647C52.5021 26.7728 52.016 26.2867 51.8212 25.8977L51.8222 25.897ZM52.6973 27.4531V27.8421C52.7945 28.2311 53.5725 29.3011 53.7673 29.4953C54.0592 29.6901 53.8644 30.9542 53.7673 31.2461C53.6702 31.3432 53.4754 31.4409 53.2811 31.4409C53.184 31.4409 52.9892 31.538 52.8921 31.6357C52.5031 31.8305 52.5031 32.1218 52.3083 32.3166C51.9193 32.5114 51.1413 32.3166 50.8493 31.9276C50.5574 31.3438 48.6123 29.6906 48.6123 29.4964C48.7095 29.4964 48.7095 29.4964 48.8071 29.3993H49.0019C49.099 29.3022 49.9748 29.3022 49.9748 29.2045C50.0719 29.0097 50.5586 28.6207 50.7528 28.3294C50.7528 27.7455 50.8499 27.0652 50.2667 26.7733C49.9748 26.6762 49.8777 26.2872 49.6829 26.1895C49.1967 25.8976 48.6129 24.4387 48.71 23.8554C48.8071 23.2716 50.0719 22.8826 50.3632 23.3693C50.947 24.1473 51.8221 25.0224 52.2111 25.8004C52.4059 26.1895 53.1839 26.8704 52.6972 27.4536L52.6973 27.4531ZM52.6973 42.8195C52.6973 43.0143 52.7945 43.1114 52.7945 43.5004C52.7945 43.6952 53.7673 44.0843 54.0586 44.1814C54.1557 43.9866 54.2534 43.6952 54.2534 43.5975C53.8644 43.3056 53.8644 43.1114 53.8644 42.9166C53.6696 41.5548 53.0864 42.1386 53.0864 41.5548C52.9893 41.36 53.0864 40.9709 53.0864 40.8738C52.4054 41.2628 52.6002 42.0409 52.6973 42.819L52.6973 42.8195ZM52.6002 40.7773C52.8921 40.5825 52.8921 40.2911 53.2812 40.4854C53.6702 40.6802 53.2812 41.4582 53.5731 41.5553C53.865 41.6524 54.1569 42.2362 54.1569 42.8195C54.254 43.0143 54.254 43.3056 54.4488 43.3056C54.6436 43.4027 54.4488 44.3755 54.3517 44.5698C53.9627 44.5698 52.4065 43.986 52.4065 43.4998C52.4065 43.2079 52.4065 43.0137 52.3094 42.916C52.2123 42.3322 52.1146 41.0681 52.6013 40.7761L52.6002 40.7773ZM37.428 56.7277C37.6228 56.6306 37.7199 56.6306 37.9141 56.7277C38.1089 56.8248 38.3032 56.9225 38.4003 56.9225C38.4974 56.9225 38.7893 57.0196 38.9841 57.0196H39.0812C39.1783 57.1167 39.3731 57.2144 39.4702 57.3115L39.8592 57.7005C40.054 57.8953 40.054 57.9924 39.7621 58.3814C39.665 58.3814 39.8592 58.4785 40.054 58.5762C40.2488 58.771 40.443 59.0624 40.443 59.2571C40.3459 59.4519 40.1511 59.5491 39.665 59.4519C39.665 59.4519 39.1789 59.2571 38.7899 58.9658C38.4979 58.8687 38.3037 58.771 38.206 58.6739C38.206 58.6739 38.1089 58.5768 38.0112 58.5768C37.7193 58.382 37.3303 58.1878 37.1361 57.7987C36.7471 57.2149 36.8442 57.2149 37.1361 56.9236C37.2332 56.9236 37.3309 56.8265 37.428 56.7288V56.7277ZM37.817 57.1167C37.7199 57.1167 37.817 56.9219 37.7199 57.0196C37.6228 57.1167 37.428 57.2144 37.3309 57.2144C37.3309 57.3115 37.2338 57.3115 37.428 57.6034C37.6228 57.8953 37.9141 58.0895 38.206 58.1872C38.4008 58.2843 38.498 58.382 38.5951 58.4791L38.887 58.6739C39.276 58.8687 39.7621 59.0629 39.7621 59.0629C39.9569 59.0629 40.054 59.16 40.054 59.16C40.054 59.16 39.8592 59.0629 39.7621 58.8681C39.4702 58.5762 39.1783 58.382 39.4702 58.0901L39.5673 57.993L39.4702 57.8959C39.4702 57.7987 39.2754 57.7011 39.1783 57.5068C39.1783 57.5068 39.0812 57.5068 38.8864 57.4097C38.6916 57.4097 38.4974 57.3126 38.4003 57.3126C38.3031 57.3126 38.0112 57.2155 37.8164 57.1178L37.817 57.1167ZM33.343 52.4485C33.4401 52.7404 34.6072 53.7127 34.8991 53.9075C35.2881 54.1023 35.2881 54.2965 35.3852 54.4913C35.3852 54.5884 35.4823 54.7832 36.0661 54.8803C36.5523 54.9774 36.7471 55.2693 36.8442 55.6584C36.9413 55.7555 36.9413 55.9503 37.1361 56.0474C37.2332 56.1445 37.3309 56.3393 37.2332 56.4364C37.2332 56.5335 37.2332 56.6312 37.1361 56.7283C37.039 56.7283 37.039 56.8254 36.9413 56.8254C36.6494 57.0202 36.1633 57.0202 35.6771 56.7283C35.58 56.6312 35.4823 56.6312 35.4823 56.6312C35.2875 56.6312 35.1904 56.6312 34.8985 56.1451C34.6066 55.756 34.5095 55.4641 34.4124 55.1722C34.2176 54.7832 34.1205 54.3942 33.5372 53.908C33.4401 53.8109 33.3424 53.7133 33.3424 53.6161C33.2453 53.519 33.1476 53.3242 32.4673 52.9352C32.3702 52.8381 32.0783 52.4491 31.9812 52.3514C31.9812 52.3514 31.7864 52.2543 31.9812 52.1566C32.565 52.1566 33.2453 52.0595 33.343 52.4485L33.343 52.4485ZM32.954 52.5456C32.954 52.4485 32.954 52.4485 32.4679 52.4485C32.565 52.5456 32.565 52.5456 32.6627 52.5456C33.2465 53.0318 33.3436 53.0318 33.8297 53.6156C34.4136 54.1994 34.6078 54.5884 34.8026 55.0745C34.8997 55.2693 34.9974 55.5607 35.1916 55.9497C35.4835 56.2416 35.4835 56.2416 35.5806 56.2416C35.6777 56.2416 35.7754 56.3387 35.8725 56.4364C36.2615 56.6312 36.5534 56.6312 36.7477 56.5335C36.7477 56.4364 36.8448 56.4364 36.8448 56.4364C36.8448 56.4364 36.8448 56.3393 36.9419 56.3393H36.8448C36.65 56.2422 36.5529 55.9503 36.4557 55.7555C36.3586 55.5607 36.261 55.2693 35.9696 55.2693C35.1916 55.0745 35.0945 54.8803 34.9968 54.5884C34.9968 54.4913 34.8997 54.2965 34.7049 54.1994C34.413 53.9075 33.1488 52.9352 32.954 52.5462L32.954 52.5456ZM70.0093 33.1913C69.8145 32.9965 69.4255 32.4132 69.5232 32.0242C68.9394 31.7323 69.037 32.1213 68.9394 32.5103C68.8422 32.9965 68.7446 33.3855 68.9394 33.8722C69.2313 34.845 68.6474 34.7473 68.5503 35.5253C68.5503 35.7201 69.2313 37.2762 69.4255 37.2762C69.5226 37.2762 69.5226 36.8871 69.6203 36.6923C69.6203 36.6923 69.6203 36.4975 69.5232 36.4004C69.3284 36.1085 69.037 35.5253 69.1341 35.3305C69.2313 34.7467 69.9122 35.2334 69.9122 35.3305C70.496 36.2056 70.7873 38.0536 71.9544 36.2056C72.1492 36.0108 72.0515 35.9137 71.9544 35.7195C71.8573 35.6224 71.6625 35.3305 71.3706 35.1357C71.2735 35.0386 71.2735 34.9409 71.1758 34.7467C70.8839 34.0657 70.4949 34.0657 70.1059 33.3848C70.1059 33.2877 70.1059 33.19 70.0088 33.19L70.0093 33.1913ZM70.2041 32.8022C70.3989 32.8994 70.496 33.3861 70.7879 33.5803C71.2741 33.9693 71.6631 34.7473 71.6631 34.7473C71.7602 34.8445 72.1492 35.4283 72.2469 35.5254C72.4417 35.8173 72.5388 35.9144 72.344 36.4005C70.2041 39.0266 70.107 35.1364 69.4261 35.4277C69.4261 35.5248 70.107 36.5948 69.9122 36.8867V36.9838C69.8151 37.2757 69.9122 37.6647 69.4261 37.6647C68.9399 37.7618 68.1619 35.9139 68.1619 35.5248C68.259 34.8439 68.7457 34.7467 68.5509 33.9687C68.3561 33.3849 68.4538 32.9959 68.5509 32.4127C68.648 32.2179 68.648 32.0237 68.648 31.9265C68.7451 31.4404 69.5232 31.5375 69.718 31.7318C69.9128 31.8289 69.9128 31.9265 69.8151 32.1208C69.8151 32.2179 70.107 32.7046 70.2041 32.8017L70.2041 32.8022ZM42 79C20.5053 79 3 61.5903 3 40C3 18.5053 20.5068 1 42 1C63.5918 1 81 18.5068 81 40C81 61.5918 63.5903 79 42 79Z" stroke="white" stroke-width="0.8" mask="url(#path-1-outside-1_17_2829)"/>
</svg>
